<?xml version="1.0" encoding="UTF-8" standalone="no"?>
<!-- Created with Inkscape (http://www.inkscape.org/) -->

<svg
   xmlns:dc="http://purl.org/dc/elements/1.1/"
   xmlns:cc="http://creativecommons.org/ns#"
   xmlns:rdf="http://www.w3.org/1999/02/22-rdf-syntax-ns#"
   xmlns:svg="http://www.w3.org/2000/svg"
   xmlns="http://www.w3.org/2000/svg"
   xmlns:sodipodi="http://sodipodi.sourceforge.net/DTD/sodipodi-0.dtd"
   xmlns:inkscape="http://www.inkscape.org/namespaces/inkscape"
   width="1000"
   height="1000"
   id="svg16419"
   version="1.1"
   inkscape:version="0.48.2 r9819"
   sodipodi:docname="Cloud-thin.svg">
  <defs
     id="defs16421" />
  <sodipodi:namedview
     id="base"
     pagecolor="#ffffff"
     bordercolor="#666666"
     borderopacity="1.0"
     inkscape:pageopacity="0.0"
     inkscape:pageshadow="2"
     inkscape:zoom="0.50000002"
     inkscape:cx="302.7033"
     inkscape:cy="527.31931"
     inkscape:document-units="px"
     inkscape:current-layer="layer1"
     showgrid="false"
     inkscape:snap-grids="true"
     inkscape:window-width="1218"
     inkscape:window-height="756"
     inkscape:window-x="62"
     inkscape:window-y="0"
     inkscape:window-maximized="0"
     inkscape:snap-bbox="false"
     inkscape:object-nodes="false"
     showguides="true"
     inkscape:guide-bbox="true">
    <inkscape:grid
       type="xygrid"
       id="grid16427"
       empspacing="10"
       visible="true"
       enabled="true"
       snapvisiblegridlinesonly="true" />
  </sodipodi:namedview>
  <metadata
     id="metadata16424">
    <rdf:RDF>
      <cc:Work
         rdf:about="">
        <dc:format>image/svg+xml</dc:format>
        <dc:type
           rdf:resource="http://purl.org/dc/dcmitype/StillImage" />
        <dc:title />
      </cc:Work>
    </rdf:RDF>
  </metadata>
  <g
     inkscape:label="Layer 1"
     inkscape:groupmode="layer"
     id="layer1"
     transform="translate(0,-52.36218)">
    <path
       inkscape:connector-curvature="0"
       id="path7981"
       d="m 500.00002,352.36215 c -74.84197,0 -140.08443,41.09928 -174.375,101.96875 -71.25096,11.6427 -125.625,73.48762 -125.625,148.03125 0,82.84271 67.15729,150 150,150 l 150,0 175,0 c 69.03559,0 125,-55.96441 125,-125 0,-62.55289 -45.95167,-114.38165 -105.9375,-123.5625 -21.70412,-86.98129 -100.35965,-151.4375 -194.0625,-151.4375 z m 0,35 c 74.13066,0 136.84164,48.89482 157.65625,116.1875 -26.10954,3.62363 -49.64592,15.3165 -68,32.46875 l 24.78125,24.78125 c 15.99027,-14.56178 37.23134,-23.4375 60.5625,-23.4375 49.70563,0 90,40.29437 90,90 0,49.70563 -40.29437,90 -90,90 l -325,0 c -63.51275,0 -115,-51.48725 -115,-115 0,-62.94861 50.57871,-114.06531 113.3125,-114.96875 25.22693,-58.81672 83.63462,-100.03125 151.6875,-100.03125 z"
       style="fill:#000000;fill-opacity:1;stroke:none" />
  </g>
</svg>
