<?xml version="1.0" encoding="UTF-8" standalone="no"?>
<!-- Created with Inkscape (http://www.inkscape.org/) -->

<svg
   xmlns:dc="http://purl.org/dc/elements/1.1/"
   xmlns:cc="http://creativecommons.org/ns#"
   xmlns:rdf="http://www.w3.org/1999/02/22-rdf-syntax-ns#"
   xmlns:svg="http://www.w3.org/2000/svg"
   xmlns="http://www.w3.org/2000/svg"
   xmlns:sodipodi="http://sodipodi.sourceforge.net/DTD/sodipodi-0.dtd"
   xmlns:inkscape="http://www.inkscape.org/namespaces/inkscape"
   width="1000"
   height="1000"
   id="svg16419"
   version="1.1"
   inkscape:version="0.48.2 r9819"
   sodipodi:docname="Hail-thin.svg">
  <defs
     id="defs16421" />
  <sodipodi:namedview
     id="base"
     pagecolor="#ffffff"
     bordercolor="#666666"
     borderopacity="1.0"
     inkscape:pageopacity="0.0"
     inkscape:pageshadow="2"
     inkscape:zoom="0.1767767"
     inkscape:cx="-1197.3081"
     inkscape:cy="1179.8369"
     inkscape:document-units="px"
     inkscape:current-layer="layer1"
     showgrid="false"
     inkscape:snap-grids="true"
     inkscape:window-width="1218"
     inkscape:window-height="756"
     inkscape:window-x="62"
     inkscape:window-y="0"
     inkscape:window-maximized="0"
     inkscape:snap-bbox="false"
     inkscape:object-nodes="false"
     showguides="true"
     inkscape:guide-bbox="true">
    <inkscape:grid
       type="xygrid"
       id="grid16427"
       empspacing="10"
       visible="true"
       enabled="true"
       snapvisiblegridlinesonly="true" />
  </sodipodi:namedview>
  <metadata
     id="metadata16424">
    <rdf:RDF>
      <cc:Work
         rdf:about="">
        <dc:format>image/svg+xml</dc:format>
        <dc:type
           rdf:resource="http://purl.org/dc/dcmitype/StillImage" />
        <dc:title />
      </cc:Work>
    </rdf:RDF>
  </metadata>
  <g
     inkscape:label="Layer 1"
     inkscape:groupmode="layer"
     id="layer1"
     transform="translate(0,-52.36218)">
    <path
       style="fill:#000000;fill-opacity:1;stroke:none"
       d="M 500 200 C 425.15803 200 359.91557 241.09928 325.625 301.96875 C 254.37404 313.61145 200 375.45637 200 450 C 200 531.1695 264.47189 597.2688 345 599.90625 L 345 564.875 C 283.8117 562.25204 235 511.83403 235 450 C 235 387.05139 285.57871 335.93469 348.3125 335.03125 C 373.53943 276.21453 431.94712 235 500 235 C 574.13066 235 636.84164 283.89482 657.65625 351.1875 C 631.54671 354.81113 608.01033 366.504 589.65625 383.65625 L 614.4375 408.4375 C 630.42777 393.87572 651.66884 385 675 385 C 724.70563 385 765 425.29437 765 475 C 765 524.70563 724.70563 565 675 565 L 655 565 L 655 600 L 675 600 C 744.03559 600 800 544.03559 800 475 C 800 412.44711 754.04833 360.61835 694.0625 351.4375 C 672.35838 264.45621 593.70285 200 500 200 z "
       transform="translate(0,52.36218)"
       id="path7981" />
    <g
       id="layer1-1"
       inkscape:label="Layer 1"
       transform="translate(-2.3997826e-5,2.681667e-5)">
      <path
         id="path17703"
         transform="translate(0,52.36218)"
         d="M 657.5,720.0625 C 617.23388,721.37895 585,754.41376 585,795 c 0,1.67979 0.0788,3.34772 0.1875,5 l 15.03125,0 C 600.08227,798.34851 600,796.68672 600,795 c 0,-32.3002 25.5215,-58.62772 57.5,-59.9375 l 0,-15 z"
         style="fill:#000000;fill-opacity:1;stroke:none"
         inkscape:connector-curvature="0" />
      <path
         sodipodi:type="arc"
         style="fill:#000000;fill-opacity:1;stroke:none"
         id="path17707"
         sodipodi:cx="-325"
         sodipodi:cy="-35"
         sodipodi:rx="5"
         sodipodi:ry="5"
         d="m -320,-35 c 0,2.761424 -2.23858,5 -5,5 -2.76142,0 -5,-2.238576 -5,-5 0,-2.761424 2.23858,-5 5,-5 2.76142,0 5,2.238576 5,5 z"
         transform="matrix(3.5,0,0,3.5,1637.5,917.362)" />
      <rect
         style="fill:#000000;fill-opacity:1;stroke:none"
         id="rect17711"
         width="15"
         height="120"
         x="492.5"
         y="612.36218" />
      <rect
         y="552.36218"
         x="400"
         height="300"
         width="15"
         id="rect17713"
         style="fill:#000000;fill-opacity:1;stroke:none" />
      <rect
         style="fill:#000000;fill-opacity:1;stroke:none"
         id="rect17715"
         width="15"
         height="300"
         x="585"
         y="552.36218" />
      <path
         id="path17717"
         transform="translate(0,52.36218)"
         d="m 302.5,670.625 0,15.09375 C 357.36221,691.92781 400,738.47766 400,795 c 0,1.67696 -0.0507,3.34136 -0.125,5 l 15.03125,0 C 414.97157,798.34048 415,796.67553 415,795 415,730.18283 365.66699,676.89612 302.5,670.625 z"
         style="fill:#000000;fill-opacity:1;stroke:none"
         inkscape:connector-curvature="0" />
      <path
         transform="matrix(3.5,0,0,3.5,1357.5,857.3619)"
         d="m -320,-35 c 0,2.761424 -2.23858,5 -5,5 -2.76142,0 -5,-2.238576 -5,-5 0,-2.761424 2.23858,-5 5,-5 2.76142,0 5,2.238576 5,5 z"
         sodipodi:ry="5"
         sodipodi:rx="5"
         sodipodi:cy="-35"
         sodipodi:cx="-325"
         id="path17727"
         style="fill:#000000;fill-opacity:1;stroke:none"
         sodipodi:type="arc" />
      <path
         sodipodi:type="arc"
         style="fill:#000000;fill-opacity:1;stroke:none"
         id="path17729"
         sodipodi:cx="-325"
         sodipodi:cy="-35"
         sodipodi:rx="5"
         sodipodi:ry="5"
         d="m -320,-35 c 0,2.761424 -2.23858,5 -5,5 -2.76142,0 -5,-2.238576 -5,-5 0,-2.761424 2.23858,-5 5,-5 2.76142,0 5,2.238576 5,5 z"
         transform="matrix(3.5,0,0,3.5,1852.5,902.362)" />
    </g>
    <g
       id="g29355"
       transform="matrix(10.000077,0,0,10.000077,-1081.6568,-1579.1563)" />
  </g>
</svg>
