<?xml version="1.0" encoding="UTF-8" standalone="no"?>
<!-- Created with Inkscape (http://www.inkscape.org/) -->

<svg
   xmlns:dc="http://purl.org/dc/elements/1.1/"
   xmlns:cc="http://creativecommons.org/ns#"
   xmlns:rdf="http://www.w3.org/1999/02/22-rdf-syntax-ns#"
   xmlns:svg="http://www.w3.org/2000/svg"
   xmlns="http://www.w3.org/2000/svg"
   xmlns:sodipodi="http://sodipodi.sourceforge.net/DTD/sodipodi-0.dtd"
   xmlns:inkscape="http://www.inkscape.org/namespaces/inkscape"
   width="1000"
   height="1000"
   id="svg16419"
   version="1.1"
   inkscape:version="0.48.2 r9819"
   sodipodi:docname="Hail.svg">
  <defs
     id="defs16421" />
  <sodipodi:namedview
     id="base"
     pagecolor="#ffffff"
     bordercolor="#666666"
     borderopacity="1.0"
     inkscape:pageopacity="0.0"
     inkscape:pageshadow="2"
     inkscape:zoom="0.3535534"
     inkscape:cx="114.73882"
     inkscape:cy="757.88501"
     inkscape:document-units="px"
     inkscape:current-layer="layer1"
     showgrid="false"
     inkscape:snap-grids="true"
     inkscape:window-width="1218"
     inkscape:window-height="756"
     inkscape:window-x="62"
     inkscape:window-y="0"
     inkscape:window-maximized="0"
     inkscape:snap-bbox="false"
     inkscape:object-nodes="false"
     showguides="true"
     inkscape:guide-bbox="true">
    <inkscape:grid
       type="xygrid"
       id="grid16427"
       empspacing="10"
       visible="true"
       enabled="true"
       snapvisiblegridlinesonly="true" />
  </sodipodi:namedview>
  <metadata
     id="metadata16424">
    <rdf:RDF>
      <cc:Work
         rdf:about="">
        <dc:format>image/svg+xml</dc:format>
        <dc:type
           rdf:resource="http://purl.org/dc/dcmitype/StillImage" />
        <dc:title />
      </cc:Work>
    </rdf:RDF>
  </metadata>
  <g
     inkscape:label="Layer 1"
     inkscape:groupmode="layer"
     id="layer1"
     transform="translate(0,-52.36218)">
    <g
       transform="matrix(10.000077,0,0,10.000077,9347.6009,-9188.3837)"
       id="g5923">
      <path
         style="fill:#000000;fill-opacity:1;stroke:none"
         d="M 500 200 C 425.15803 200 359.91557 241.09928 325.625 301.96875 C 254.37404 313.61145 200 375.45637 200 450 C 200 531.1695 264.47189 597.2688 345 599.90625 L 345 549.875 C 292.08988 547.27472 250 503.55513 250 450 C 250 394.77153 294.77153 350 350 350 C 352.83359 350 355.63235 350.11267 358.40625 350.34375 C 378.90013 291.9036 434.55994 250 500 250 C 566.86105 250 623.47712 293.75692 642.84375 354.1875 C 622.65385 359.5456 604.46744 369.8149 589.65625 383.65625 L 625.0625 419.0625 C 638.32524 407.21386 655.81596 400 675 400 C 716.42136 400 750 433.57864 750 475 C 750 516.42136 716.42136 550 675 550 L 655 550 L 655 600 L 675 600 C 744.03559 600 800 544.03559 800 475 C 800 412.44711 754.04833 360.61835 694.0625 351.4375 C 672.35838 264.45621 593.70285 200 500 200 z "
         transform="matrix(0.09999923,0,0,0.09999923,-934.75289,924.06747)"
         id="path16429-7" />
    </g>
    <path
       style="fill:#000000;fill-opacity:1;stroke:none"
       d="M 647.5 720.0625 C 607.23388 721.37895 575 754.41376 575 795 C 575 796.67979 575.07877 798.34772 575.1875 800 L 600.25 800 C 600.08739 798.35876 600 796.68402 600 795 C 600 768.22767 621.05223 746.37043 647.5 745.0625 L 647.5 720.0625 z "
       transform="translate(0,52.36218)"
       id="path17695" />
    <path
       sodipodi:type="arc"
       style="fill:#000000;fill-opacity:1;stroke:none"
       id="path17677"
       sodipodi:cx="-325"
       sodipodi:cy="-35"
       sodipodi:rx="5"
       sodipodi:ry="5"
       d="m -320,-35 a 5,5 0 1 1 -10,0 5,5 0 1 1 10,0 z"
       transform="matrix(5,0,0,5,2125,967.36218)" />
    <rect
       style="fill:#000000;fill-opacity:1;stroke:none"
       id="rect17675"
       width="25.000002"
       height="120"
       x="487.50049"
       y="612.36218" />
    <rect
       y="552.36218"
       x="400"
       height="300"
       width="25"
       id="rect17681"
       style="fill:#000000;fill-opacity:1;stroke:none" />
    <rect
       style="fill:#000000;fill-opacity:1;stroke:none"
       id="rect17683"
       width="25"
       height="300"
       x="575"
       y="552.36218" />
    <path
       style="fill:#000000;fill-opacity:1;stroke:none"
       d="M 312.5 670.625 L 312.5 695.78125 C 361.83435 701.92747 400 744.0009 400 795 C 400 796.67334 399.95625 798.34681 399.875 800 L 424.90625 800 C 424.97157 798.34048 425 796.67553 425 795 C 425 730.18283 375.66699 676.89612 312.5 670.625 z "
       transform="translate(0,52.36218)"
       id="path17685" />
    <path
       transform="matrix(5,0,0,5,1862.5,907.36218)"
       d="m -320,-35 a 5,5 0 1 1 -10,0 5,5 0 1 1 10,0 z"
       sodipodi:ry="5"
       sodipodi:rx="5"
       sodipodi:cy="-35"
       sodipodi:cx="-325"
       id="path17699"
       style="fill:#000000;fill-opacity:1;stroke:none"
       sodipodi:type="arc" />
    <path
       sodipodi:type="arc"
       style="fill:#000000;fill-opacity:1;stroke:none"
       id="path17701"
       sodipodi:cx="-325"
       sodipodi:cy="-35"
       sodipodi:rx="5"
       sodipodi:ry="5"
       d="m -320,-35 a 5,5 0 1 1 -10,0 5,5 0 1 1 10,0 z"
       transform="matrix(5,0,0,5,2337.5,952.36218)" />
  </g>
</svg>
