<?xml version="1.0" encoding="UTF-8" standalone="no"?>
<!-- Created with Inkscape (http://www.inkscape.org/) -->

<svg
   xmlns:dc="http://purl.org/dc/elements/1.1/"
   xmlns:cc="http://creativecommons.org/ns#"
   xmlns:rdf="http://www.w3.org/1999/02/22-rdf-syntax-ns#"
   xmlns:svg="http://www.w3.org/2000/svg"
   xmlns="http://www.w3.org/2000/svg"
   xmlns:sodipodi="http://sodipodi.sourceforge.net/DTD/sodipodi-0.dtd"
   xmlns:inkscape="http://www.inkscape.org/namespaces/inkscape"
   width="1000"
   height="1000"
   id="svg16419"
   version="1.1"
   inkscape:version="0.48.2 r9819"
   sodipodi:docname="Haze.svg">
  <defs
     id="defs16421" />
  <sodipodi:namedview
     id="base"
     pagecolor="#ffffff"
     bordercolor="#666666"
     borderopacity="1.0"
     inkscape:pageopacity="0.0"
     inkscape:pageshadow="2"
     inkscape:zoom="0.1767767"
     inkscape:cx="1053.4068"
     inkscape:cy="1068.3489"
     inkscape:document-units="px"
     inkscape:current-layer="g19584"
     showgrid="false"
     inkscape:snap-grids="true"
     inkscape:window-width="1218"
     inkscape:window-height="756"
     inkscape:window-x="62"
     inkscape:window-y="0"
     inkscape:window-maximized="0"
     inkscape:snap-bbox="false"
     inkscape:object-nodes="false"
     showguides="true"
     inkscape:guide-bbox="true">
    <inkscape:grid
       type="xygrid"
       id="grid16427"
       empspacing="10"
       visible="true"
       enabled="true"
       snapvisiblegridlinesonly="true" />
  </sodipodi:namedview>
  <metadata
     id="metadata16424">
    <rdf:RDF>
      <cc:Work
         rdf:about="">
        <dc:format>image/svg+xml</dc:format>
        <dc:type
           rdf:resource="http://purl.org/dc/dcmitype/StillImage" />
        <dc:title />
      </cc:Work>
    </rdf:RDF>
  </metadata>
  <g
     inkscape:label="Layer 1"
     inkscape:groupmode="layer"
     id="layer1"
     transform="translate(0,-52.36218)">
    <g
       transform="translate(-1039.7531,11.704953)"
       id="g19584">
      <path
         style="fill:#000000;fill-opacity:1;stroke:none"
         d="m 1539.7531,340.65723 c -8.8214,0 -17.4193,0.7653 -25.9375,1.875 l -162.8125,392.8125 c 12.3558,3.2931 25.3567,5.3125 38.75,5.3125 l 13.125,0 164.6875,-398.125 c -9.0782,-1.2656 -18.381,-1.875 -27.8125,-1.875 z m 76.5625,15.3125 -159.375,384.6875 54.0625,0 149.0625,-359.375 c -13.4345,-10.2157 -27.9536,-18.7373 -43.75,-25.3125 z m -164.375,5 c -36.4709,17.8979 -66.7139,46.5894 -86.5625,81.875 -0.5285,0.0865 -1.0359,0.2206 -1.5625,0.3125 l -96.875,233.4375 c 10.4145,14.8392 23.4548,27.9032 38.4375,38.125 l 146.5625,-353.75 z m 246.5625,58.125 -133.4375,321.5625 54.375,0 109.375,-264.375 c -7.0608,-20.7251 -17.2923,-40.1424 -30.3125,-57.1875 z m -401.25,53.75 c -34.9201,27.4015 -57.5,69.9459 -57.5,117.8125 0,6.2622 0.5048,12.3768 1.25,18.4375 l 56.25,-136.25 z m 474.0625,31.5625 -97.8125,236.25 41.25,0 c 4.4203,0 8.8232,-0.1774 13.125,-0.625 l 84.0625,-202.8125 c -11.0311,-13.6298 -24.843,-24.7989 -40.625,-32.8125 z m 67.5,98.125 -45.9375,110.625 c 28.4879,-22.9111 46.875,-58.0968 46.875,-97.5 0,-4.4653 -0.481,-8.7822 -0.9375,-13.125 z"
         id="path5978"
         inkscape:connector-curvature="0" />
    </g>
  </g>
</svg>
