<?xml version="1.0" encoding="UTF-8" standalone="no"?>
<!-- Created with Inkscape (http://www.inkscape.org/) -->

<svg
   xmlns:dc="http://purl.org/dc/elements/1.1/"
   xmlns:cc="http://creativecommons.org/ns#"
   xmlns:rdf="http://www.w3.org/1999/02/22-rdf-syntax-ns#"
   xmlns:svg="http://www.w3.org/2000/svg"
   xmlns="http://www.w3.org/2000/svg"
   xmlns:sodipodi="http://sodipodi.sourceforge.net/DTD/sodipodi-0.dtd"
   xmlns:inkscape="http://www.inkscape.org/namespaces/inkscape"
   width="1000"
   height="1000"
   id="svg16419"
   version="1.1"
   inkscape:version="0.48.2 r9819"
   sodipodi:docname="Moon-thin.svg">
  <defs
     id="defs16421" />
  <sodipodi:namedview
     id="base"
     pagecolor="#ffffff"
     bordercolor="#666666"
     borderopacity="1.0"
     inkscape:pageopacity="0.0"
     inkscape:pageshadow="2"
     inkscape:zoom="0.25000001"
     inkscape:cx="1.0711007"
     inkscape:cy="116.34343"
     inkscape:document-units="px"
     inkscape:current-layer="layer1"
     showgrid="false"
     inkscape:snap-grids="true"
     inkscape:window-width="1218"
     inkscape:window-height="756"
     inkscape:window-x="62"
     inkscape:window-y="0"
     inkscape:window-maximized="0"
     inkscape:snap-bbox="false"
     inkscape:object-nodes="false"
     showguides="true"
     inkscape:guide-bbox="true">
    <inkscape:grid
       type="xygrid"
       id="grid16427"
       empspacing="10"
       visible="true"
       enabled="true"
       snapvisiblegridlinesonly="true" />
  </sodipodi:namedview>
  <metadata
     id="metadata16424">
    <rdf:RDF>
      <cc:Work
         rdf:about="">
        <dc:format>image/svg+xml</dc:format>
        <dc:type
           rdf:resource="http://purl.org/dc/dcmitype/StillImage" />
        <dc:title />
      </cc:Work>
    </rdf:RDF>
  </metadata>
  <g
     inkscape:label="Layer 1"
     inkscape:groupmode="layer"
     id="layer1"
     transform="translate(0,-52.36218)">
    <path
       inkscape:connector-curvature="0"
       id="path17599"
       d="m 500.31265,302.36768 c -12.96052,0 -25.74341,0.9162 -38.17306,2.81312 -4.14322,0.63214 -8.12913,1.35518 -12.20287,2.18796 -4.07372,0.83319 -8.20382,1.78529 -12.20285,2.81312 -3.99904,1.02782 -7.97095,2.22058 -11.88997,3.43825 -7.83807,2.43532 -15.35444,4.96337 -22.84126,8.12676 -0.12516,0.05 -0.18824,0.26006 -0.3124,0.31207 -7.43105,3.13588 -14.6188,6.55492 -21.58968,10.31474 -2.41994,1.30528 -4.83378,2.68658 -7.19656,4.06387 -1.11801,0.66015 -2.33504,1.20327 -3.44184,1.87541 -0.51463,0.31007 -1.05221,0.62014 -1.56446,0.94021 -2.90286,1.79039 -5.62569,3.72081 -8.44813,5.62622 -1.05874,0.71015 -2.08333,1.46231 -3.12894,2.18747 -2.25805,1.57434 -4.6809,3.04266 -6.88367,4.68902 -0.65082,0.48011 -1.23195,1.07124 -1.87736,1.56234 -3.19042,2.43252 -6.31957,4.92207 -9.38682,7.50163 -0.22328,0.19004 -0.40251,0.44009 -0.62579,0.62013 -2.20748,1.86941 -4.42998,3.6828 -6.57078,5.62622 -0.76496,0.69015 -1.43521,1.48632 -2.19026,2.18848 -2.40141,2.23348 -4.88464,4.54999 -7.19656,6.87649 -0.51865,0.52011 -1.05082,1.03622 -1.56447,1.56234 -2.0721,2.12146 -3.94886,4.36995 -5.94498,6.56442 -2.69349,2.95964 -5.27174,5.9763 -7.82234,9.06398 -2.24103,2.71858 -4.45071,5.32215 -6.57078,8.12676 -0.49262,0.65014 -1.07795,1.22126 -1.56447,1.8754 -1.56367,2.11246 -2.88573,4.40596 -4.38051,6.56443 -0.86309,1.24127 -1.6626,2.49254 -2.50316,3.75081 -0.36546,0.55012 -0.89012,1.01122 -1.25158,1.56234 -1.596,2.42853 -3.18079,5.01509 -4.6934,7.50162 -1.14324,1.88341 -2.34906,3.71381 -3.44184,5.62623 -1.44171,2.52255 -2.71481,4.93106 -4.06761,7.50162 -1.40778,2.66659 -2.75457,5.40518 -4.06763,8.12677 -0.43855,0.91019 -0.82404,1.89641 -1.25157,2.81361 -1.41358,3.02666 -2.7733,5.97329 -4.06762,9.06397 -0.44957,1.07023 -1.13012,2.04944 -1.56447,3.12568 -2.53269,6.27736 -4.55113,12.59672 -6.57078,19.06713 -0.22829,0.73016 -0.40351,1.45232 -0.62578,2.18748 -0.96622,3.20669 -1.97649,6.43039 -2.81605,9.6901 -0.74794,2.89162 -1.54514,5.83027 -2.19026,8.7519 -0.23129,1.05623 -0.40851,2.06344 -0.62578,3.12567 -0.12817,0.62014 -0.18924,1.25828 -0.3124,1.87541 -0.68386,3.46876 -1.33909,7.10754 -1.87736,10.62731 -0.4726,3.04766 -0.89213,5.9933 -1.25158,9.06397 -0.13217,1.14625 -0.19625,2.28749 -0.31239,3.43875 -0.02,0.21004 0.02,0.42009 0,0.62013 -0.39649,3.99686 -0.73292,7.8267 -0.93818,11.87757 -0.005,0.10002 0.005,0.21005 0,0.31007 -0.0701,1.31829 0.0401,2.7386 0,4.06288 -0.10112,2.91764 -0.31439,5.82326 -0.31239,8.7519 0,8.63087 0.3975,16.91167 1.25157,25.3185 0.37847,3.67679 0.70489,7.25958 1.25157,10.93937 0.0801,0.52011 0.2333,1.04122 0.3124,1.56334 0.5547,3.57878 1.16116,7.05054 1.87736,10.62731 0.75495,3.82983 1.57569,7.48662 2.50316,11.25244 0.12616,0.51011 0.18323,1.05323 0.31239,1.56234 0.53568,2.11446 1.28812,4.1579 1.87737,6.25135 0.53267,1.88341 0.98524,3.74682 1.56446,5.62623 0.10012,0.31007 0.21527,0.62013 0.31239,0.9402 1.17468,3.76281 2.39121,7.50963 3.75473,11.25244 1.47716,4.05388 3.03152,7.94773 4.69342,11.87758 1.58328,3.73981 3.24868,7.29558 5.00629,10.94037 0.10013,0.21005 0.21227,0.42009 0.3124,0.62014 1.6659,3.42875 3.19032,6.97451 5.00631,10.31424 0.46657,0.86018 1.08916,1.64736 1.56446,2.50054 3.45365,6.17534 7.31571,12.29066 11.26418,18.12893 0.33943,0.50011 0.59575,1.06324 0.93818,1.56335 1.92533,2.8016 3.90993,5.40816 5.94498,8.12676 0.44957,0.60013 0.79701,1.27828 1.25158,1.87541 1.97609,2.59055 4.18417,4.99107 6.25788,7.50162 2.55061,3.08667 5.12886,6.10332 7.82235,9.06397 2.03917,2.24249 4.14451,4.40395 6.25788,6.56442 1.0317,1.05423 2.07892,2.08946 3.12894,3.12568 1.1137,1.09824 1.99621,2.36152 3.12894,3.43775 1.42368,1.35529 2.92518,2.74159 4.38051,4.06388 0.72191,0.65014 1.46154,1.23127 2.19026,1.87541 2.27356,2.01644 4.53722,4.00386 6.88366,5.93828 0.79501,0.65014 1.70015,1.23227 2.50316,1.87541 3.14005,2.51455 6.13593,4.83305 9.38682,7.18956 2.45469,1.78937 4.98828,3.61176 7.50946,5.31314 0.80801,0.54011 1.68882,1.03022 2.50314,1.56334 2.52989,1.66336 4.9167,3.42674 7.50945,5.00109 0.90014,0.54011 1.90891,1.02922 2.81605,1.56234 2.55212,1.50533 5.21307,2.95964 7.82235,4.37595 0.83805,0.4501 1.66059,0.81018 2.50315,1.25027 6.30173,3.30973 12.84017,6.61245 19.39943,9.37705 0.81702,0.34007 1.68272,0.60013 2.50315,0.9402 9.90046,4.04989 19.98616,7.23858 30.35071,10.00218 0.63981,0.17004 1.23506,0.4601 1.87737,0.62014 3.69895,0.95021 7.51836,1.71437 11.26417,2.50054 0.3204,0.10003 0.61778,0.25006 0.93818,0.31007 0.51765,0.11003 1.04632,0.21005 1.56447,0.31007 3.55769,0.70015 7.02825,1.32429 10.6384,1.87541 3.05094,0.4701 6.00045,0.89019 9.07392,1.25027 1.14755,0.13003 2.28969,0.20005 3.44184,0.31007 0.20926,0 0.41652,0 0.62579,0 12.0823,1.21026 24.3139,1.8344 36.60858,1.25027 1.7397,-0.10002 3.57741,-0.19004 5.3192,-0.31007 2.3808,-0.16003 4.83449,-0.40008 7.19656,-0.62013 0.53167,-0.10002 1.03291,-0.26006 1.56446,-0.31007 4.10388,-0.42009 8.16009,-0.95021 12.20287,-1.56234 3.58281,-0.55012 7.05839,-1.16025 10.6384,-1.87541 0.62678,-0.12002 1.25207,-0.18004 1.87736,-0.31007 4.01446,-0.83018 8.19882,-1.77438 12.20287,-2.81361 7.67976,-1.99343 15.23337,-4.42296 22.84125,-7.18857 10.39999,-3.78182 20.47137,-8.16878 30.03781,-13.12786 4.78323,-2.48054 9.51528,-5.0611 14.08024,-7.8147 0.0801,-0.10002 0.23629,0 0.31239,0 4.48614,-2.71259 8.56008,-5.78927 12.82864,-8.75191 4.34017,-3.01264 8.71989,-6.11931 12.82866,-9.37702 4.10878,-3.25771 8.01919,-6.51341 11.88997,-10.00217 0.27334,-0.25005 0.66684,-0.38008 0.93818,-0.62013 3.5816,-3.25671 6.95536,-6.87049 10.3255,-10.31424 2.22721,-2.2765 4.43778,-4.52398 6.57077,-6.87649 1.34309,-1.47632 2.75978,-2.86863 4.06763,-4.37595 1.30134,-1.50733 2.49133,-3.15368 3.75472,-4.68902 2.03226,-2.45953 4.00645,-4.96408 5.94499,-7.50162 0.49662,-0.65014 1.07425,-1.21727 1.56447,-1.87541 8.7368,-11.71855 16.29421,-24.19326 22.84125,-37.19507 2.3048,-4.578 4.54993,-9.35703 6.57077,-14.06606 1.75751,-4.09589 3.46827,-8.00473 5.00631,-12.18965 0.22128,-0.60013 0.40951,-1.27027 0.62579,-1.8754 1.73018,-4.82805 3.2603,-9.76012 4.6934,-14.69119 1.4331,-4.93106 2.62541,-9.98316 3.75473,-15.00325 0.10013,0 0.21427,0 0.31239,0 2.74006,-12.30167 4.46713,-24.91041 5.3192,-37.82021 -95.77618,28.62721 -198.47087,-21.84074 -233.10598,-116.90037 -18.39746,-50.49395 -14.05469,-103.73651 7.82236,-148.47021 -8.01791,-0.77417 -16.18469,-1.25028 -24.40574,-1.25028 z m -26.28309,36.25837 c 0.51465,-0.10002 1.04982,0.10002 1.56447,0 -8.99622,40.41677 -6.77874,83.8602 8.44814,125.65227 34.60376,94.9736 126.44919,152.54111 222.46758,147.84408 C 687.99554,675.69919 640.8651,729.97198 573.84273,754.34126 462.1522,794.95009 338.83515,737.4496 298.18317,625.87539 257.53119,514.30117 315.09206,390.80038 426.78258,350.19056 c 15.70647,-5.71023 31.40503,-9.60408 47.24698,-11.56451 z"
       style="fill:#000000;fill-opacity:1;stroke:none" />
  </g>
</svg>
