<?xml version="1.0" encoding="UTF-8" standalone="no"?>
<!-- Created with Inkscape (http://www.inkscape.org/) -->

<svg
   xmlns:dc="http://purl.org/dc/elements/1.1/"
   xmlns:cc="http://creativecommons.org/ns#"
   xmlns:rdf="http://www.w3.org/1999/02/22-rdf-syntax-ns#"
   xmlns:svg="http://www.w3.org/2000/svg"
   xmlns="http://www.w3.org/2000/svg"
   xmlns:sodipodi="http://sodipodi.sourceforge.net/DTD/sodipodi-0.dtd"
   xmlns:inkscape="http://www.inkscape.org/namespaces/inkscape"
   width="1000"
   height="1000"
   id="svg16419"
   version="1.1"
   inkscape:version="0.48.2 r9819"
   sodipodi:docname="Moon.svg">
  <defs
     id="defs16421" />
  <sodipodi:namedview
     id="base"
     pagecolor="#ffffff"
     bordercolor="#666666"
     borderopacity="1.0"
     inkscape:pageopacity="0.0"
     inkscape:pageshadow="2"
     inkscape:zoom="0.3535534"
     inkscape:cx="218.84291"
     inkscape:cy="279.6639"
     inkscape:document-units="px"
     inkscape:current-layer="g17554"
     showgrid="false"
     inkscape:snap-grids="true"
     inkscape:window-width="1218"
     inkscape:window-height="756"
     inkscape:window-x="62"
     inkscape:window-y="0"
     inkscape:window-maximized="0"
     inkscape:snap-bbox="false"
     inkscape:object-nodes="false"
     showguides="true"
     inkscape:guide-bbox="true">
    <inkscape:grid
       type="xygrid"
       id="grid16427"
       empspacing="10"
       visible="true"
       enabled="true"
       snapvisiblegridlinesonly="true" />
  </sodipodi:namedview>
  <metadata
     id="metadata16424">
    <rdf:RDF>
      <cc:Work
         rdf:about="">
        <dc:format>image/svg+xml</dc:format>
        <dc:type
           rdf:resource="http://purl.org/dc/dcmitype/StillImage" />
        <dc:title />
      </cc:Work>
    </rdf:RDF>
  </metadata>
  <g
     inkscape:label="Layer 1"
     inkscape:groupmode="layer"
     id="layer1"
     transform="translate(0,-52.36218)">
    <g
       id="g17554"
       transform="translate(-759.6281,31.736253)">
      <path
         style="fill:#000000;fill-opacity:1;stroke:none"
         d="m 1259.6276,270.62592 c -12.9443,0 -25.7112,0.9162 -38.1254,2.81309 -4.138,0.63213 -8.119,1.35518 -12.1876,2.18796 -4.0686,0.83317 -8.1936,1.78527 -12.1876,2.81309 -3.9941,1.02781 -7.961,2.22056 -11.8751,3.43821 -7.8283,2.43532 -15.3353,4.96334 -22.8128,8.1267 -0.125,0.05 -0.188,0.26006 -0.312,0.31207 -7.4217,3.13586 -14.6005,6.55487 -21.5627,10.31466 -2.4169,1.30517 -4.8277,2.68666 -7.1875,4.06334 -1.3181,0.77317 -2.7602,1.39139 -4.0626,2.18796 -0.317,0.19304 -0.622,0.43109 -0.937,0.62513 -2.8992,1.79127 -5.6187,3.72137 -8.4376,5.62617 -1.0574,0.71116 -2.0807,1.46231 -3.125,2.18796 -2.2552,1.57403 -4.6751,3.04284 -6.8751,4.68848 -0.65,0.48511 -1.2304,1.07213 -1.875,1.56283 -2.537,1.93651 -5.0407,3.90862 -7.5001,5.93875 -0.843,0.69413 -1.6669,1.4836 -2.5,2.18795 -2.2047,1.86959 -4.4244,3.68246 -6.5626,5.62617 -0.764,0.69315 -1.4334,1.48642 -2.1875,2.18797 -2.3984,2.23406 -4.8785,4.55054 -7.1876,6.87642 -0.518,0.52212 -1.0495,1.03662 -1.5625,1.56284 -2.0695,2.12164 -3.9439,4.36991 -5.9375,6.56387 -2.6902,2.96042 -5.2652,5.97695 -7.8126,9.0644 -2.2382,2.71836 -4.4452,5.32181 -6.5626,8.12669 -0.492,0.65013 -1.0766,1.22076 -1.5625,1.8754 -1.5617,2.11214 -2.8821,4.40611 -4.375,6.56386 -0.862,1.24146 -1.6606,2.49313 -2.5001,3.75079 -0.365,0.54811 -0.889,1.01161 -1.25,1.56282 -1.594,2.42891 -3.1768,5.01475 -4.6875,7.50157 -1.1418,1.8837 -2.3461,3.71408 -3.4376,5.62618 -1.4399,2.52283 -2.7114,4.93143 -4.0625,7.50157 -1.406,2.66616 -2.7511,5.40462 -4.0625,8.12669 -0.438,0.9112 -0.823,1.8965 -1.25,2.81309 -1.4119,3.02664 -2.7699,5.97325 -4.0626,9.0644 -0.449,1.07032 -1.1287,2.04903 -1.5625,3.12565 -2.5295,6.27711 -4.5455,12.59634 -6.5626,19.06649 -0.229,0.73315 -0.403,1.4529 -0.625,2.18795 -0.965,3.20677 -1.974,6.42985 -2.8125,9.68953 -0.747,2.89171 -1.5432,5.83112 -2.1875,8.75183 -0.231,1.05712 -0.408,2.06363 -0.625,3.12565 -0.128,0.61613 -0.189,1.25836 -0.312,1.8754 -0.683,3.46902 -1.3374,7.10828 -1.8751,10.62721 -0.472,3.04774 -0.891,5.99416 -1.25,9.0644 -0.132,1.14633 -0.196,2.28728 -0.312,3.43822 -0.02,0.20904 0.02,0.41608 0,0.62512 -0.396,3.99694 -0.732,7.82744 -0.937,11.87749 0,0.10302 0,0.20904 0,0.31206 -0.07,1.31888 0.04,2.73918 0,4.06335 -0.101,2.91721 -0.314,5.82312 -0.312,8.75183 0,8.63121 0.396,16.91174 1.25,25.31779 0.378,3.67727 0.704,7.26003 1.25,10.93979 0.08,0.52311 0.233,1.04072 0.312,1.56283 0.5541,3.57904 1.1598,7.05097 1.8751,10.62722 0.754,3.8298 1.5737,7.48746 2.5,11.25235 0.126,0.50911 0.183,1.05402 0.312,1.56283 0.535,2.11484 1.2865,4.15826 1.875,6.25131 0.532,1.88378 0.984,3.74627 1.5625,5.62617 0.1,0.31306 0.215,0.62513 0.312,0.9372 1.1732,3.76258 2.3883,7.50997 3.7501,11.25235 1.4753,4.05424 3.0277,7.94756 4.6875,11.87748 1.5813,3.73978 3.2446,7.29552 5.0001,10.94029 0.1,0.21004 0.212,0.42008 0.312,0.62013 1.6638,3.42871 3.1863,6.97446 5,10.31415 0.177,0.33007 0.446,0.61013 0.625,0.9402 0.293,0.53011 0.641,1.03122 0.937,1.56332 3.4494,6.1753 7.3066,12.28958 11.2501,18.1288 0.339,0.5001 0.5951,1.06322 0.9371,1.56232 1.9229,2.80259 3.905,5.40813 5.9375,8.1267 0.449,0.60013 0.796,1.27926 1.25,1.87539 1.9736,2.59055 4.179,4.99104 6.2501,7.50157 2.5474,3.08765 5.1224,6.10428 7.8126,9.0649 2.0366,2.24146 4.1393,4.40392 6.25,6.56336 1.0304,1.05422 2.0763,2.08944 3.1251,3.12566 1.1123,1.09823 1.9937,2.3625 3.125,3.43872 1.4219,1.35428 2.9215,2.74157 4.375,4.06285 0.721,0.65013 1.4597,1.23126 2.1876,1.87539 2.2707,2.01742 4.5315,4.00484 6.875,5.93924 0.794,0.65013 1.698,1.23226 2.5,1.87539 3.1362,2.51453 6.1283,4.83301 9.3751,7.18851 2.4517,1.78937 4.9821,3.61175 7.5001,5.31411 0.807,0.5401 1.6867,1.03021 2.5,1.56232 2.5268,1.66435 4.9106,3.42772 7.5001,5.00104 0.899,0.54012 1.9065,1.03022 2.8125,1.56333 2.549,1.50431 5.2066,2.95962 7.8126,4.37592 0.837,0.4501 1.6585,0.81017 2.5,1.25026 6.2939,3.30969 12.8242,6.61238 19.3752,9.37696 0.816,0.34007 1.6807,0.60012 2.5001,0.9402 9.8881,4.04981 19.9612,7.23855 30.3128,10.0021 0.639,0.17003 1.2335,0.46009 1.875,0.62012 3.6943,0.96019 7.509,1.71334 11.2501,2.5005 0.32,0.10002 0.617,0.25005 0.937,0.31006 0.517,0.11002 1.045,0.21004 1.5625,0.31006 3.5533,0.70014 7.0195,1.32427 10.6251,1.87538 3.0472,0.47009 5.993,0.89027 9.0626,1.25035 1.1461,0.13002 2.2868,0.20004 3.4376,0.31006 0.209,0 0.416,0 0.625,0 12.0672,1.21024 24.2835,1.83436 36.5628,1.25025 1.7375,-0.10002 3.573,-0.19004 5.3126,-0.31007 2.3778,-0.16003 4.8284,-0.40008 7.1875,-0.62012 0.5311,0 1.0317,-0.26005 1.5626,-0.31006 4.0987,-0.42008 8.1498,-0.95019 12.1876,-1.56341 3.5783,-0.55011 7.0496,-1.16023 10.6251,-1.87538 0.626,-0.12002 1.2505,-0.19003 1.875,-0.31006 4.0094,-0.83016 8.1886,-1.77335 12.1876,-2.81256 7.6702,-1.99339 15.2144,-4.42288 22.8128,-7.18953 10.387,-3.78077 20.4458,-8.16768 30.0003,-13.12772 4.7772,-2.47951 9.5034,-5.06106 14.0626,-7.81364 0.08,0 0.236,0 0.312,0 4.4805,-2.71256 8.5494,-5.7892 12.8126,-8.75182 4.3348,-3.01263 8.709,-6.11928 12.8127,-9.37696 4.1036,-3.25868 8.0091,-6.51336 11.8751,-10.00209 0.273,-0.25005 0.666,-0.38008 0.937,-0.62013 3.5771,-3.25769 6.9467,-6.87144 10.3126,-10.31516 2.2244,-2.27547 4.4322,-4.52294 6.5626,-6.87643 1.3414,-1.47631 2.7563,-2.8676 4.0625,-4.37592 1.2997,-1.50731 2.4882,-3.15266 3.75,-4.68797 2.0297,-2.46052 4.0015,-4.96404 5.9376,-7.50158 0.496,-0.65014 1.0729,-1.21825 1.5625,-1.87539 8.7259,-11.71944 16.2739,-24.19306 22.8127,-37.19577 2.302,-4.57695 4.5443,-9.35596 6.5626,-14.06494 1.7553,-4.09586 3.4639,-8.00488 5,-12.19055 0.221,-0.60313 0.409,-1.27016 0.6251,-1.87539 1.728,-4.82711 3.2562,-9.75985 4.6875,-14.69058 1.4313,-4.93073 2.6221,-9.98298 3.75,-15.00313 0.1,-0.02 0.214,0.02 0.312,0 3.8408,-17.26421 5.8694,-35.04332 5.9376,-53.44867 -89.5347,29.79843 -186.8969,-17.01536 -219.3772,-106.27221 -17.5992,-48.36291 -12.5422,-99.37107 9.6876,-141.59209 -13.1139,-2.12475 -26.5991,-3.12566 -40.3129,-3.12566 z m -27.5003,51.88585 c -5.3689,35.87939 -2.0279,73.53467 11.2501,110.02299 32.716,89.90419 116.6497,146.37859 206.8771,148.15597 -18.0394,57.21095 -61.4555,105.73009 -122.1887,127.83972 -103.7683,37.77589 -218.484,-15.92433 -256.2526,-119.71303 -37.7685,-103.78898 15.6079,-218.52747 119.3762,-256.30356 13.4751,-4.90543 27.2513,-8.08969 40.9379,-10.00209 z"
         id="path17508"
         inkscape:connector-curvature="0" />
    </g>
  </g>
</svg>
