<?xml version="1.0" encoding="UTF-8" standalone="no"?>
<!-- Created with Inkscape (http://www.inkscape.org/) -->

<svg
   xmlns:dc="http://purl.org/dc/elements/1.1/"
   xmlns:cc="http://creativecommons.org/ns#"
   xmlns:rdf="http://www.w3.org/1999/02/22-rdf-syntax-ns#"
   xmlns:svg="http://www.w3.org/2000/svg"
   xmlns="http://www.w3.org/2000/svg"
   xmlns:sodipodi="http://sodipodi.sourceforge.net/DTD/sodipodi-0.dtd"
   xmlns:inkscape="http://www.inkscape.org/namespaces/inkscape"
   width="1000"
   height="1000"
   id="svg16419"
   version="1.1"
   inkscape:version="0.48.2 r9819"
   sodipodi:docname="PartlyMoon-thin.svg">
  <defs
     id="defs16421" />
  <sodipodi:namedview
     id="base"
     pagecolor="#ffffff"
     bordercolor="#666666"
     borderopacity="1.0"
     inkscape:pageopacity="0.0"
     inkscape:pageshadow="2"
     inkscape:zoom="0.5"
     inkscape:cx="290.90505"
     inkscape:cy="461.75233"
     inkscape:document-units="px"
     inkscape:current-layer="layer1"
     showgrid="false"
     inkscape:snap-grids="true"
     inkscape:window-width="1218"
     inkscape:window-height="756"
     inkscape:window-x="62"
     inkscape:window-y="0"
     inkscape:window-maximized="0"
     inkscape:snap-bbox="false"
     inkscape:object-nodes="false"
     showguides="true"
     inkscape:guide-bbox="true">
    <inkscape:grid
       type="xygrid"
       id="grid16427"
       empspacing="10"
       visible="true"
       enabled="true"
       snapvisiblegridlinesonly="true" />
  </sodipodi:namedview>
  <metadata
     id="metadata16424">
    <rdf:RDF>
      <cc:Work
         rdf:about="">
        <dc:format>image/svg+xml</dc:format>
        <dc:type
           rdf:resource="http://purl.org/dc/dcmitype/StillImage" />
        <dc:title />
      </cc:Work>
    </rdf:RDF>
  </metadata>
  <g
     inkscape:label="Layer 1"
     inkscape:groupmode="layer"
     id="layer1"
     transform="translate(0,-52.36218)">
    <path
       style="fill:#000000;fill-opacity:1;stroke:none"
       d="M 600.3125 200 C 587.35198 200 574.55465 200.91558 562.125 202.8125 C 557.98178 203.44464 554.01124 204.16722 549.9375 205 C 545.86378 205.83319 541.71778 206.78467 537.71875 207.8125 C 533.71971 208.84032 529.76277 210.03233 525.84375 211.25 C 518.00568 213.68532 510.48682 216.21161 503 219.375 C 502.87484 219.425 502.81166 219.63549 502.6875 219.6875 C 495.25645 222.82338 488.06463 226.24018 481.09375 230 C 478.67381 231.30528 476.26903 232.68521 473.90625 234.0625 C 472.78824 234.72265 471.57555 235.26536 470.46875 235.9375 C 469.95412 236.24757 469.4185 236.58618 468.90625 236.90625 C 466.00339 238.69664 463.25994 240.62584 460.4375 242.53125 C 459.37876 243.2414 458.35811 243.99359 457.3125 244.71875 C 455.05445 246.29309 452.64027 247.75989 450.4375 249.40625 C 449.78668 249.88636 449.20791 250.47765 448.5625 250.96875 C 445.37208 253.40127 442.25475 255.88919 439.1875 258.46875 C 438.96422 258.65879 438.78578 258.88246 438.5625 259.0625 C 436.35502 260.93191 434.10955 262.77533 431.96875 264.71875 C 431.20379 265.4089 430.5363 266.20409 429.78125 266.90625 C 427.37984 269.13973 424.90567 271.45475 422.59375 273.78125 C 422.0751 274.30136 421.5449 274.81763 421.03125 275.34375 C 418.95915 277.46521 417.08987 279.71178 415.09375 281.90625 C 412.40026 284.86589 409.8006 287.88107 407.25 290.96875 C 405.00897 293.68733 402.80757 296.28914 400.6875 299.09375 C 400.19488 299.74389 399.61152 300.31461 399.125 300.96875 C 397.56133 303.08121 396.24478 305.37278 394.75 307.53125 C 393.88691 308.77252 393.09056 310.02298 392.25 311.28125 C 391.88454 311.83137 391.36146 312.29263 391 312.84375 C 389.404 315.27228 387.79386 317.85722 386.28125 320.34375 C 385.13801 322.22716 383.93653 324.05633 382.84375 325.96875 C 381.40204 328.4913 380.13405 330.89819 378.78125 333.46875 C 377.37347 336.13534 376.03181 338.87216 374.71875 341.59375 C 374.2802 342.50394 373.89628 343.48905 373.46875 344.40625 C 372.05517 347.43291 370.70057 350.37807 369.40625 353.46875 C 368.95668 354.53898 368.2781 355.51751 367.84375 356.59375 C 365.31106 362.87111 363.26965 369.18584 361.25 375.65625 C 361.02171 376.38641 360.84727 377.10859 360.625 377.84375 C 359.65878 381.05044 358.65206 384.27154 357.8125 387.53125 C 357.06456 390.42287 356.27012 393.35962 355.625 396.28125 C 355.39371 397.33748 355.21727 398.34402 355 399.40625 C 354.87183 400.02639 354.81066 400.66412 354.6875 401.28125 C 354.00364 404.75001 353.35077 408.41773 352.8125 411.9375 C 352.3399 414.98516 351.92195 417.92933 351.5625 421 C 351.43033 422.14625 351.36614 423.28624 351.25 424.4375 C 351.23 424.64754 351.27 424.83121 351.25 425.03125 C 351.21459 425.3882 351.18792 425.73974 351.15625 426.09375 C 319.62267 444.05408 293.44177 470.34206 275.625 501.96875 C 204.37404 513.61145 150 575.45637 150 650 C 150 732.84271 217.15729 800 300 800 L 450 800 L 625 800 C 694.03559 800 750 744.03559 750 675 C 750 666.99266 749.25151 659.15142 747.8125 651.5625 C 750.51264 649.6341 753.24848 647.75168 755.8125 645.71875 C 759.92128 642.46104 763.84797 639.20751 767.71875 635.71875 C 767.99209 635.4687 768.38491 635.3338 768.65625 635.09375 C 772.23785 631.83704 775.59861 628.225 778.96875 624.78125 C 781.19596 622.50475 783.39826 620.25876 785.53125 617.90625 C 786.87434 616.42993 788.31715 615.03857 789.625 613.53125 C 790.92634 612.02392 792.11161 610.37909 793.375 608.84375 C 795.40726 606.38422 797.37396 603.88129 799.3125 601.34375 C 799.80912 600.69361 800.38478 600.12689 800.875 599.46875 C 809.6118 587.7502 817.17171 575.28306 823.71875 562.28125 C 826.02355 557.70325 828.26041 552.89653 830.28125 548.1875 C 832.03876 544.09161 833.74321 540.18492 835.28125 536 C 835.50253 535.39987 835.68997 534.73013 835.90625 534.125 C 837.63643 529.29695 839.1919 524.36857 840.625 519.4375 C 842.0581 514.50644 843.24568 509.45759 844.375 504.4375 L 844.6875 504.4375 C 847.42756 492.13583 849.14793 479.5348 850 466.625 C 754.22382 495.25221 651.54136 444.77838 616.90625 349.71875 C 598.50879 299.2248 602.8417 245.9837 624.71875 201.25 C 616.70084 200.47583 608.53355 200 600.3125 200 z M 574.40625 236.21875 C 574.79745 236.22813 575.20776 236.32501 575.59375 236.25 C 566.59753 276.66677 568.80437 320.11418 584.03125 361.90625 C 618.63501 456.87985 710.48161 514.44703 806.5 509.75 C 794.37146 551.39874 769.9246 589.00312 735.6875 616.875 C 717.58591 582.47804 683.92309 557.53818 644.0625 551.4375 C 622.35838 464.45621 543.70285 400 450 400 C 428.75234 400 408.27414 403.33165 389.0625 409.46875 C 402.90015 337.64038 453.00703 274.6675 526.78125 247.84375 C 542.48772 242.13352 558.1893 238.21043 574.03125 236.25 C 574.15991 236.225 574.27585 236.21562 574.40625 236.21875 z M 383.3125 411.375 C 381.22634 412.11263 379.14748 412.88327 377.09375 413.6875 C 379.15315 412.87835 381.22634 412.11263 383.3125 411.375 z M 450 435 C 524.13066 435 586.84164 483.89482 607.65625 551.1875 C 581.54671 554.81113 558.01033 566.504 539.65625 583.65625 L 564.4375 608.4375 C 580.42777 593.87572 601.66884 585 625 585 C 674.70563 585 715 625.29437 715 675 C 715 724.70563 674.70563 765 625 765 L 300 765 C 236.48725 765 185 713.51275 185 650 C 185 587.05139 235.57871 535.93469 298.3125 535.03125 C 323.53943 476.21453 381.94712 435 450 435 z "
       transform="translate(0,52.36218)"
       id="path7981" />
  </g>
</svg>
