<?xml version="1.0" encoding="UTF-8" standalone="no"?>
<!-- Created with Inkscape (http://www.inkscape.org/) -->

<svg
   xmlns:dc="http://purl.org/dc/elements/1.1/"
   xmlns:cc="http://creativecommons.org/ns#"
   xmlns:rdf="http://www.w3.org/1999/02/22-rdf-syntax-ns#"
   xmlns:svg="http://www.w3.org/2000/svg"
   xmlns="http://www.w3.org/2000/svg"
   xmlns:sodipodi="http://sodipodi.sourceforge.net/DTD/sodipodi-0.dtd"
   xmlns:inkscape="http://www.inkscape.org/namespaces/inkscape"
   width="1000"
   height="1000"
   id="svg16419"
   version="1.1"
   inkscape:version="0.48.2 r9819"
   sodipodi:docname="PartlyMoon.svg">
  <defs
     id="defs16421" />
  <sodipodi:namedview
     id="base"
     pagecolor="#ffffff"
     bordercolor="#666666"
     borderopacity="1.0"
     inkscape:pageopacity="0.0"
     inkscape:pageshadow="2"
     inkscape:zoom="0.50000001"
     inkscape:cx="351.0658"
     inkscape:cy="391.9387"
     inkscape:document-units="px"
     inkscape:current-layer="layer1"
     showgrid="false"
     inkscape:snap-grids="true"
     inkscape:window-width="1218"
     inkscape:window-height="756"
     inkscape:window-x="62"
     inkscape:window-y="0"
     inkscape:window-maximized="0"
     inkscape:snap-bbox="false"
     inkscape:object-nodes="false"
     showguides="true"
     inkscape:guide-bbox="true">
    <inkscape:grid
       type="xygrid"
       id="grid16427"
       empspacing="10"
       visible="true"
       enabled="true"
       snapvisiblegridlinesonly="true" />
  </sodipodi:namedview>
  <metadata
     id="metadata16424">
    <rdf:RDF>
      <cc:Work
         rdf:about="">
        <dc:format>image/svg+xml</dc:format>
        <dc:type
           rdf:resource="http://purl.org/dc/dcmitype/StillImage" />
        <dc:title />
      </cc:Work>
    </rdf:RDF>
  </metadata>
  <g
     inkscape:label="Layer 1"
     inkscape:groupmode="layer"
     id="layer1"
     transform="translate(0,-52.36218)">
    <path
       style="fill:#000000;fill-opacity:1;stroke:none"
       d="M 600 200 C 587.0557 200 574.2892 200.91561 561.875 202.8125 C 557.737 203.44463 553.7561 204.16722 549.6875 205 C 545.6189 205.83317 541.494 206.78468 537.5 207.8125 C 533.5059 208.84031 529.5391 210.03235 525.625 211.25 C 517.7967 213.68532 510.29 216.21164 502.8125 219.375 C 502.6875 219.425 502.624 219.63549 502.5 219.6875 C 495.0783 222.82336 487.8997 226.24021 480.9375 230 C 478.5206 231.30517 476.1098 232.68582 473.75 234.0625 C 472.4319 234.83567 470.9899 235.45343 469.6875 236.25 C 469.3705 236.44304 469.065 236.68096 468.75 236.875 C 465.8508 238.66627 463.1314 240.5952 460.3125 242.5 C 459.2551 243.21116 458.2318 243.96185 457.1875 244.6875 C 454.9323 246.26153 452.5125 247.72936 450.3125 249.375 C 449.6625 249.86011 449.0821 250.4468 448.4375 250.9375 C 445.9005 252.87401 443.3969 254.84487 440.9375 256.875 C 440.0945 257.56913 439.2706 258.35815 438.4375 259.0625 C 436.2328 260.93209 434.0132 262.74379 431.875 264.6875 C 431.111 265.38065 430.4416 266.17345 429.6875 266.875 C 427.2891 269.10906 424.8091 271.42412 422.5 273.75 C 421.982 274.27212 421.4505 274.78628 420.9375 275.3125 C 418.868 277.43414 416.9936 279.71229 415 281.90625 C 412.3098 284.86667 409.7349 287.8813 407.1875 290.96875 C 404.9493 293.68711 402.7424 296.28887 400.625 299.09375 C 400.133 299.74388 399.5484 300.31411 399.0625 300.96875 C 397.5008 303.08089 396.1804 305.3735 394.6875 307.53125 C 393.8255 308.77271 393.027 310.02359 392.1875 311.28125 C 391.8225 311.82936 391.2985 312.29254 390.9375 312.84375 C 389.3435 315.27266 387.7607 317.85693 386.25 320.34375 C 385.1082 322.22745 383.904 324.05665 382.8125 325.96875 C 381.3726 328.49158 380.1011 330.89861 378.75 333.46875 C 377.344 336.13491 375.9989 338.87168 374.6875 341.59375 C 374.2495 342.50495 373.8645 343.48966 373.4375 344.40625 C 372.0256 347.43289 370.6677 350.3776 369.375 353.46875 C 368.926 354.53907 368.2463 355.51713 367.8125 356.59375 C 365.283 362.87086 363.2671 369.1861 361.25 375.65625 C 361.021 376.3894 360.847 377.1087 360.625 377.84375 C 359.66 381.05052 358.651 384.27157 357.8125 387.53125 C 357.0655 390.42296 356.2693 393.36054 355.625 396.28125 C 355.394 397.33837 355.217 398.34423 355 399.40625 C 354.872 400.02238 354.8105 400.66421 354.6875 401.28125 C 354.0045 404.75027 353.3502 408.38732 352.8125 411.90625 C 352.3405 414.95399 351.9215 417.89851 351.5625 420.96875 C 351.4305 422.11508 351.366 423.25531 351.25 424.40625 C 351.23 424.61529 351.27 424.82221 351.25 425.03125 C 351.21464 425.38821 351.1879 425.73973 351.15625 426.09375 C 319.62267 444.05408 293.44177 470.34206 275.625 501.96875 C 204.37404 513.61145 150 575.45637 150 650 C 150 732.84271 217.15729 800 300 800 L 450 800 L 625 800 C 694.03559 800 750 744.03559 750 675 C 750 666.88145 749.2283 658.93746 747.75 651.25 C 750.2973 649.42166 752.8906 647.64135 755.3125 645.71875 C 759.4161 642.46007 763.3215 639.20748 767.1875 635.71875 C 767.4605 635.4687 767.854 635.3338 768.125 635.09375 C 771.7021 631.83606 775.0716 628.22497 778.4375 624.78125 C 780.6619 622.50578 782.8696 620.25974 785 617.90625 C 786.3414 616.42994 787.7563 615.03957 789.0625 613.53125 C 790.3622 612.02394 791.5507 610.37906 792.8125 608.84375 C 794.8422 606.38323 796.8139 603.88129 798.75 601.34375 C 799.246 600.69361 799.8229 600.12589 800.3125 599.46875 C 809.0384 587.74931 816.5862 575.28396 823.125 562.28125 C 825.427 557.7043 827.6692 552.89648 829.6875 548.1875 C 831.4428 544.09164 833.1514 540.18567 834.6875 536 C 834.9085 535.39687 835.0964 534.73023 835.3125 534.125 C 837.0405 529.29789 838.5687 524.36823 840 519.4375 C 841.4313 514.50677 842.6221 509.45765 843.75 504.4375 C 843.85 504.4175 843.9645 504.4575 844.0625 504.4375 C 847.9033 487.17329 849.9318 469.40535 850 451 C 760.4653 480.79843 663.1053 433.9756 630.625 344.71875 C 613.0258 296.35584 618.0827 245.34602 640.3125 203.125 C 627.1986 201.00025 613.7138 200 600 200 z M 572.5 251.875 C 567.1311 287.75439 570.472 325.41793 583.75 361.90625 C 616.466 451.81044 700.3976 508.28512 790.625 510.0625 C 779.19311 546.31813 757.54451 579.04733 727.78125 603.8125 C 708.64595 576.24303 678.68005 556.73573 644.0625 551.4375 C 622.35838 464.45621 543.70285 400 450 400 C 434.64124 400 419.67819 401.72266 405.3125 405 C 420.00303 341.23398 465.48851 285.92875 531.5625 261.875 C 545.0376 256.96957 558.8134 253.7874 572.5 251.875 z M 388.84375 409.53125 C 386.98171 410.12843 385.15032 410.72518 383.3125 411.375 C 381.22634 412.11263 379.14748 412.88327 377.09375 413.6875 C 379.15315 412.87835 381.22634 412.11263 383.3125 411.375 C 385.14254 410.72793 386.99291 410.12245 388.84375 409.53125 z M 450 450 C 516.86105 450 573.47712 493.75692 592.84375 554.1875 C 572.65385 559.5456 554.46744 569.8149 539.65625 583.65625 L 575.0625 619.0625 C 588.32524 607.21386 605.81596 600 625 600 C 666.42136 600 700 633.57864 700 675 C 700 716.42136 666.42136 750 625 750 L 300 750 C 244.77153 750 200 705.22847 200 650 C 200 594.77153 244.77153 550 300 550 C 302.83359 550 305.63235 550.11267 308.40625 550.34375 C 328.90013 491.9036 384.55994 450 450 450 z "
       transform="translate(0,52.36218)"
       id="path16429-7" />
  </g>
</svg>
