<?xml version="1.0" encoding="UTF-8" standalone="no"?>
<!-- Created with Inkscape (http://www.inkscape.org/) -->

<svg
   xmlns:dc="http://purl.org/dc/elements/1.1/"
   xmlns:cc="http://creativecommons.org/ns#"
   xmlns:rdf="http://www.w3.org/1999/02/22-rdf-syntax-ns#"
   xmlns:svg="http://www.w3.org/2000/svg"
   xmlns="http://www.w3.org/2000/svg"
   xmlns:sodipodi="http://sodipodi.sourceforge.net/DTD/sodipodi-0.dtd"
   xmlns:inkscape="http://www.inkscape.org/namespaces/inkscape"
   width="1000"
   height="1000"
   id="svg16419"
   version="1.1"
   inkscape:version="0.48.2 r9819"
   sodipodi:docname="PartlySunny.svg">
  <defs
     id="defs16421" />
  <sodipodi:namedview
     id="base"
     pagecolor="#ffffff"
     bordercolor="#666666"
     borderopacity="1.0"
     inkscape:pageopacity="0.0"
     inkscape:pageshadow="2"
     inkscape:zoom="0.50000001"
     inkscape:cx="317.65273"
     inkscape:cy="416.17924"
     inkscape:document-units="px"
     inkscape:current-layer="layer1"
     showgrid="false"
     inkscape:snap-grids="true"
     inkscape:window-width="1218"
     inkscape:window-height="756"
     inkscape:window-x="62"
     inkscape:window-y="0"
     inkscape:window-maximized="1"
     inkscape:snap-bbox="false"
     inkscape:object-nodes="false"
     showguides="true"
     inkscape:guide-bbox="true">
    <inkscape:grid
       type="xygrid"
       id="grid16427"
       empspacing="10"
       visible="true"
       enabled="true"
       snapvisiblegridlinesonly="true" />
  </sodipodi:namedview>
  <metadata
     id="metadata16424">
    <rdf:RDF>
      <cc:Work
         rdf:about="">
        <dc:format>image/svg+xml</dc:format>
        <dc:type
           rdf:resource="http://purl.org/dc/dcmitype/StillImage" />
        <dc:title />
      </cc:Work>
    </rdf:RDF>
  </metadata>
  <g
     inkscape:label="Layer 1"
     inkscape:groupmode="layer"
     id="layer1"
     transform="translate(0,-52.36218)">
    <path
       style="fill:#000000;fill-opacity:1;stroke:none"
       d="M 567.4375 332.84375 C 558.10065 332.8245 548.64315 333.63419 539.125 335.3125 C 495.8971 342.93475 459.84271 367.26151 436.34375 400.46875 C 367.27597 405.12808 307.81126 444.83466 275.625 501.96875 C 204.37404 513.61145 150 575.45637 150 650 C 150 732.84271 217.15729 800 300 800 L 450 800 L 625 800 C 694.03559 800 750 744.03559 750 675 C 750 635.34368 731.52323 599.99568 702.71875 577.09375 C 722.74733 544.82025 731.58354 505.44376 724.46875 465.09375 C 711.04229 388.94855 645.82987 334.93842 571.4375 332.90625 C 570.10906 332.86996 568.77134 332.8465 567.4375 332.84375 z M 567.28125 382.84375 C 619.56046 382.96412 665.85448 420.49661 675.25 473.78125 C 680.40904 503.03962 673.41416 531.59001 658 554.40625 C 653.44873 553.16305 648.80498 552.16334 644.0625 551.4375 C 626.29728 480.24171 570.37866 424.14403 499.28125 406.125 C 513.00476 395.4074 529.46868 387.76575 547.8125 384.53125 C 554.35623 383.37741 560.861 382.82897 567.28125 382.84375 z M 450 450 C 516.86105 450 573.47712 493.75692 592.84375 554.1875 C 572.65385 559.5456 554.46744 569.8149 539.65625 583.65625 L 575.0625 619.0625 C 588.32524 607.21386 605.81596 600 625 600 C 666.42136 600 700 633.57864 700 675 C 700 716.42136 666.42136 750 625 750 L 300 750 C 244.77153 750 200 705.22847 200 650 C 200 594.77153 244.77153 550 300 550 C 302.83359 550 305.63235 550.11267 308.40625 550.34375 C 328.90013 491.9036 384.55994 450 450 450 z M 668.46875 557.75 C 670.20104 558.39018 671.89861 559.06751 673.59375 559.78125 C 671.9083 559.06944 670.19097 558.38903 668.46875 557.75 z "
       transform="translate(0,52.36218)"
       id="path16429-7" />
    <path
       inkscape:connector-curvature="0"
       id="rect7897-5"
       d="m 517.02456,252.36692 c -0.32208,0.012 -0.64603,0.0564 -0.96875,0.0937 -0.0843,0.01 -0.16614,0.0199 -0.25,0.0312 -0.0944,0.0129 -0.18687,0.0474 -0.28125,0.0625 -0.31504,0.05 -0.63022,0.083 -0.9375,0.15625 -0.0421,0.0101 -0.0829,0.0207 -0.125,0.0312 -0.35923,0.0896 -0.71569,0.19228 -1.0625,0.3125 -0.0305,0.0106 -0.0632,0.0203 -0.0937,0.0312 -0.74873,0.26627 -1.47887,0.60109 -2.15625,1 -0.0776,0.0453 -0.14247,0.10951 -0.21875,0.15625 -0.28918,0.17874 -0.57056,0.36113 -0.84375,0.5625 -0.0727,0.0532 -0.1474,0.10163 -0.21875,0.15625 -0.17166,0.1324 -0.33548,0.26512 -0.5,0.40625 -0.50575,0.43033 -0.95106,0.90962 -1.375,1.40625 -0.12504,0.14689 -0.25669,0.28467 -0.375,0.4375 -0.11398,0.14671 -0.23676,0.28626 -0.34375,0.4375 -0.13452,0.19076 -0.251,0.39499 -0.375,0.59375 -0.0401,0.0641 -0.0861,0.12278 -0.125,0.1875 -0.11447,0.19104 -0.20802,0.39593 -0.3125,0.59375 -0.56531,1.06598 -0.98092,2.19135 -1.21875,3.375 -0.017,0.0845 -0.0472,0.16484 -0.0625,0.25 -0.10744,0.59978 -0.16909,1.22982 -0.1875,1.84375 l -7.09375,81.15625 c -0.004,0.0321 -0.0272,0.0616 -0.0312,0.0937 l -0.0312,0.46875 c -0.0724,0.82316 -0.0654,1.64999 0.0312,2.5 0.002,0.0203 -0.002,0.0422 0,0.0625 0.0282,0.23805 0.0516,0.4796 0.0937,0.71875 0.0966,0.54764 0.24439,1.07755 0.40625,1.59375 0.0168,0.0534 0.0449,0.10317 0.0625,0.15625 0.0979,0.29816 0.19401,0.58855 0.3125,0.875 0.0249,0.0601 0.0367,0.12789 0.0625,0.1875 0.11055,0.25581 0.24871,0.50436 0.375,0.75 0.0987,0.19082 0.20432,0.37743 0.3125,0.5625 0.91662,1.57473 2.16333,2.91403 3.625,3.9375 0.1901,0.13269 0.3958,0.25274 0.59375,0.375 1.25397,0.77682 2.6198,1.33128 4.09375,1.625 0.14662,0.0295 0.28887,0.0694 0.4375,0.0937 0.14373,0.0234 0.29245,0.0442 0.4375,0.0625 0.16936,0.0217 0.32831,0.0475 0.5,0.0625 0.4308,0.0377 0.85826,0.0369 1.28125,0.0312 0.1737,-0.003 0.35651,-0.0209 0.53125,-0.0312 0.0627,-0.004 0.12503,0.004 0.1875,0 0.0208,-0.002 0.0417,0.002 0.0625,0 0.39621,-0.0302 0.80158,-0.0896 1.1875,-0.15625 l 41.6875,-7.34375 c 0.16606,-0.0227 0.33414,-0.0642 0.5,-0.0937 0.24448,-0.0431 0.48034,-0.0999 0.71875,-0.15625 0.0315,-0.008 0.0623,-0.0234 0.0937,-0.0312 0.37691,-0.0922 0.7645,-0.18841 1.125,-0.3125 0.0527,-0.0184 0.10371,-0.0434 0.15625,-0.0625 0.34894,-0.12524 0.69925,-0.2527 1.03125,-0.40625 0.0342,-0.0159 0.0598,-0.0463 0.0937,-0.0625 1.12381,-0.53204 2.13487,-1.21593 3.03125,-2.03125 0.0922,-0.0836 0.19196,-0.16394 0.28125,-0.25 0.20804,-0.20089 0.4006,-0.41064 0.59375,-0.625 0.0752,-0.0832 0.14598,-0.16501 0.21875,-0.25 0.4539,-0.53162 0.8601,-1.08783 1.21875,-1.6875 0.0517,-0.0861 0.10672,-0.16279 0.15625,-0.25 0.0611,-0.10792 0.0984,-0.23399 0.15625,-0.34375 0.31857,-0.60351 0.59686,-1.22878 0.8125,-1.875 0.0898,-0.26914 0.17853,-0.53645 0.25,-0.8125 0.008,-0.0313 0.0234,-0.0624 0.0312,-0.0937 0.24963,-0.99701 0.38155,-2.03327 0.375,-3.09375 -10e-4,-0.2797 -0.0108,-0.56305 -0.0312,-0.84375 -0.019,-0.25717 -0.0585,-0.52241 -0.0937,-0.78125 -10e-4,-0.0101 0.001,-0.0211 0,-0.0312 -0.0215,-0.15559 -0.035,-0.31273 -0.0625,-0.46875 -0.0431,-0.24448 -0.0999,-0.48034 -0.15625,-0.71875 -0.005,-0.0219 -0.0259,-0.0407 -0.0312,-0.0625 -0.19868,-0.8203 -0.46812,-1.60436 -0.8125,-2.34375 l -34.8125,-74.6875 c -0.54298,-1.2528 -1.31134,-2.4024 -2.21875,-3.40625 -0.1647,-0.18297 -0.32593,-0.35951 -0.5,-0.53125 -0.12642,-0.12438 -0.24326,-0.25601 -0.375,-0.375 -0.0673,-0.0609 -0.15028,-0.0969 -0.21875,-0.15625 -0.83639,-0.72346 -1.76492,-1.36005 -2.78125,-1.84375 -0.20274,-0.0968 -0.41751,-0.19561 -0.625,-0.28125 -0.16532,-0.0675 -0.33098,-0.12684 -0.5,-0.1875 -0.22051,-0.0804 -0.4315,-0.15091 -0.65625,-0.21875 -0.15364,-0.0456 -0.31249,-0.0851 -0.46875,-0.125 -0.0313,-0.008 -0.0624,-0.0234 -0.0937,-0.0312 -0.35719,-0.0881 -0.72394,-0.16153 -1.09375,-0.21875 -0.28136,-0.0447 -0.55905,-0.0684 -0.84375,-0.0937 -0.11582,-0.0101 -0.22844,-0.0243 -0.34375,-0.0312 -0.40196,-0.0244 -0.81331,-0.0463 -1.21875,-0.0312 z"
       style="fill:#000000;fill-opacity:1;stroke:none" />
    <path
       style="fill:#000000;fill-opacity:1;stroke:none"
       d="m 338.80674,353.89122 c -0.23902,0.21623 -0.45864,0.45847 -0.68188,0.69448 -0.0582,0.0618 -0.11448,0.12204 -0.17145,0.1846 -0.064,0.0706 -0.11269,0.15643 -0.17528,0.22866 -0.2092,0.24081 -0.42943,0.46868 -0.61773,0.72231 -0.0258,0.0348 -0.0502,0.0691 -0.0757,0.10425 -0.21759,0.29954 -0.42466,0.60733 -0.61305,0.92235 -0.0165,0.0277 -0.0354,0.0562 -0.0517,0.0841 -0.4024,0.68525 -0.7465,1.41106 -1.00899,2.15205 -0.0303,0.0846 -0.0387,0.17547 -0.0671,0.26031 -0.10663,0.3228 -0.20494,0.64339 -0.28478,0.97325 -0.0215,0.0875 -0.0476,0.1726 -0.0671,0.2603 -0.0464,0.21177 -0.0866,0.41874 -0.12189,0.6326 -0.11081,0.65475 -0.14386,1.30814 -0.14939,1.96109 -0.001,0.1929 -0.0137,0.38306 -0.006,0.57619 0.007,0.18565 0.003,0.37147 0.0179,0.5561 0.0196,0.2326 0.0616,0.46392 0.0944,0.69588 0.0105,0.0749 0.013,0.1494 0.0248,0.22399 0.0351,0.21992 0.0951,0.43701 0.14227,0.65571 0.25214,1.17996 0.65714,2.30919 1.23579,3.36879 0.0413,0.0757 0.0698,0.15662 0.11282,0.23169 0.30323,0.52852 0.66098,1.05078 1.04151,1.53292 l 46.7321,66.72906 c 0.0176,0.0272 0.0188,0.0647 0.0363,0.0918 l 0.2774,0.37914 c 0.47366,0.67711 1.0105,1.306 1.63087,1.89505 0.0146,0.0143 0.0256,0.0336 0.0402,0.0479 0.17462,0.16423 0.34781,0.33423 0.53378,0.49037 0.42602,0.35742 0.87985,0.66836 1.33565,0.95975 0.0472,0.0301 0.10071,0.0502 0.14831,0.0795 0.26665,0.16547 0.52693,0.32614 0.80183,0.46941 0.0577,0.03 0.11032,0.0744 0.1684,0.10346 0.24912,0.1249 0.51472,0.2265 0.76936,0.33349 0.19826,0.0827 0.39912,0.1578 0.60095,0.23003 1.71439,0.61712 3.53031,0.84171 5.30789,0.6862 0.23092,-0.0205 0.46566,-0.0608 0.69589,-0.0944 1.45992,-0.21096 2.86261,-0.66416 4.18052,-1.38659 0.13128,-0.0716 0.2659,-0.13252 0.39537,-0.20944 0.12515,-0.0745 0.25245,-0.15413 0.37532,-0.23335 0.14369,-0.0922 0.28204,-0.17464 0.4232,-0.27351 0.35424,-0.24804 0.68118,-0.52341 1.00155,-0.79967 0.13113,-0.11395 0.25967,-0.24517 0.3869,-0.36538 0.0455,-0.0434 0.0983,-0.0773 0.14364,-0.12053 0.0147,-0.0149 0.0332,-0.0253 0.0479,-0.0402 0.2841,-0.27781 0.55645,-0.58388 0.80924,-0.88301 l 27.214,-32.42184 c 0.11262,-0.12413 0.2147,-0.26396 0.3228,-0.39318 0.15958,-0.19016 0.30374,-0.38528 0.45016,-0.58169 0.019,-0.0264 0.0327,-0.058 0.0517,-0.0841 0.22946,-0.31291 0.46453,-0.63575 0.66093,-0.96253 0.0285,-0.048 0.0515,-0.0999 0.0795,-0.14831 0.1868,-0.32024 0.37322,-0.64305 0.52885,-0.97408 0.016,-0.0342 0.0161,-0.0739 0.0316,-0.10811 0.5189,-1.12994 0.85382,-2.30372 1.01641,-3.50448 0.0169,-0.1233 0.0417,-0.24897 0.0548,-0.37229 0.0302,-0.28762 0.0429,-0.57207 0.0531,-0.86043 0.004,-0.11208 0.006,-0.22024 0.007,-0.33213 0.006,-0.699 -0.0404,-1.38618 -0.15109,-2.07609 -0.0157,-0.0992 -0.0229,-0.19331 -0.041,-0.29195 -0.0226,-0.12195 -0.075,-0.2425 -0.10127,-0.36376 -0.14389,-0.66709 -0.33262,-1.32496 -0.58281,-1.9586 -0.10421,-0.2639 -0.20806,-0.5257 -0.33075,-0.78311 -0.014,-0.0291 -0.0222,-0.0628 -0.0363,-0.0918 -0.44964,-0.92422 -1.01468,-1.80283 -1.70136,-2.611 -0.18055,-0.21362 -0.3702,-0.42438 -0.56625,-0.62629 -0.17986,-0.18479 -0.38062,-0.36259 -0.57396,-0.53825 -0.007,-0.007 -0.0128,-0.0168 -0.0201,-0.0239 -0.11649,-0.10537 -0.22783,-0.21706 -0.34919,-0.31891 -0.19016,-0.15957 -0.38528,-0.30374 -0.5817,-0.45015 -0.0179,-0.0136 -0.046,-0.0145 -0.0641,-0.0278 -0.67948,-0.50067 -1.38987,-0.92811 -2.12895,-1.27315 l -74.67612,-34.8369 c -1.22123,-0.61068 -2.54878,-0.99743 -3.88915,-1.18315 -0.24378,-0.0343 -0.48077,-0.0659 -0.72451,-0.0856 -0.17679,-0.014 -0.35091,-0.0397 -0.52831,-0.0462 -0.0907,-0.003 -0.17741,0.0224 -0.26801,0.0209 -1.10574,-0.0166 -2.22623,0.0926 -3.3157,0.37536 -0.21753,0.0562 -0.44557,0.11853 -0.65956,0.18629 -0.17003,0.0546 -0.33508,0.11559 -0.50354,0.17776 -0.22061,0.0802 -0.42756,0.16176 -0.64333,0.25426 -0.14701,0.0638 -0.29408,0.13568 -0.43943,0.20555 -0.0291,0.014 -0.0628,0.0222 -0.0918,0.0363 -0.33025,0.16211 -0.6584,0.3416 -0.97847,0.53548 -0.24426,0.14661 -0.47222,0.30695 -0.70658,0.47057 -0.0952,0.0667 -0.19061,0.12823 -0.28338,0.19706 -0.3236,0.23968 -0.65279,0.48732 -0.95367,0.7595 z"
       id="path3681"
       inkscape:connector-curvature="0" />
    <path
       inkscape:connector-curvature="0"
       id="path3693"
       d="m 848.54875,652.13501 c 0.15067,-0.28493 0.27414,-0.5877 0.40329,-0.88579 0.0336,-0.0778 0.0656,-0.1539 0.098,-0.23209 0.0363,-0.088 0.0524,-0.18554 0.0865,-0.27482 0.11378,-0.298 0.24323,-0.5873 0.3335,-0.89 0.0124,-0.0416 0.0236,-0.0821 0.0356,-0.12384 0.10196,-0.35592 0.19133,-0.71595 0.26058,-1.07641 0.006,-0.0316 0.0145,-0.0649 0.0201,-0.0966 0.1439,-0.78151 0.21891,-1.58127 0.2121,-2.36736 -5.1e-4,-0.0899 -0.0236,-0.17812 -0.0259,-0.26756 -0.0103,-0.33981 -0.0275,-0.67466 -0.0653,-1.01196 -0.01,-0.0896 -0.0143,-0.17845 -0.0259,-0.26753 -0.0288,-0.21489 -0.0618,-0.42311 -0.10182,-0.63613 -0.11981,-0.65319 -0.31222,-1.27847 -0.53035,-1.89393 -0.0651,-0.18161 -0.11815,-0.36463 -0.19143,-0.5435 -0.0701,-0.17203 -0.12982,-0.34806 -0.20704,-0.51641 -0.098,-0.21185 -0.21656,-0.41488 -0.32669,-0.62164 -0.0352,-0.067 -0.0634,-0.1359 -0.0999,-0.202 -0.10788,-0.19484 -0.23883,-0.37813 -0.35801,-0.56747 -0.6405,-1.02257 -1.40731,-1.94517 -2.31341,-2.743 -0.0648,-0.0568 -0.11913,-0.1233 -0.18527,-0.17911 -0.46573,-0.39295 -0.98052,-0.76136 -1.50301,-1.08427 l -66.73649,-46.7215 c -0.0258,-0.0199 -0.0394,-0.0547 -0.0657,-0.0737 l -0.39036,-0.26139 c -0.67667,-0.47427 -1.39623,-0.88162 -2.18065,-1.22297 -0.0186,-0.008 -0.0356,-0.0226 -0.0541,-0.0313 -0.22023,-0.0947 -0.44114,-0.19514 -0.66931,-0.2782 -0.52259,-0.19013 -1.05541,-0.32708 -1.58335,-0.44504 -0.0545,-0.0126 -0.11184,-0.0125 -0.16651,-0.0243 -0.30716,-0.0643 -0.6067,-0.12628 -0.91395,-0.16726 -0.0646,-0.008 -0.12912,-0.0319 -0.1937,-0.0392 -0.27683,-0.0322 -0.56114,-0.0368 -0.83704,-0.0502 -0.21458,-0.01 -0.429,-0.0118 -0.64337,-0.0106 -1.82207,0.006 -3.60529,0.41649 -5.22248,1.17059 -0.20997,0.0983 -0.41679,0.21638 -0.62165,0.32669 -1.29975,0.69752 -2.46282,1.60318 -3.45417,2.73279 -0.0988,0.11226 -0.20459,0.2154 -0.29988,0.33204 -0.0921,0.11283 -0.18451,0.23119 -0.27287,0.34764 -0.10349,0.13578 -0.20534,0.26054 -0.30414,0.40176 -0.24805,0.35424 -0.46109,0.72482 -0.66766,1.09399 -0.0842,0.15189 -0.16013,0.3192 -0.23859,0.47568 -0.028,0.0562 -0.0658,0.1063 -0.0938,0.16238 -0.01,0.0185 -0.0224,0.0352 -0.0313,0.0541 -0.17198,0.35821 -0.32324,0.73896 -0.4584,1.10654 l -14.4841,39.77423 c -0.0629,0.15529 -0.1116,0.3214 -0.16926,0.47971 -0.0849,0.23327 -0.15365,0.46594 -0.22406,0.70058 -0.01,0.0311 -0.0109,0.0657 -0.0201,0.0966 -0.10853,0.37253 -0.21905,0.75628 -0.29184,1.13054 -0.0104,0.0548 -0.0146,0.11144 -0.0243,0.16649 -0.0664,0.36475 -0.13108,0.73187 -0.16384,1.09621 -0.003,0.0378 0.0102,0.075 0.007,0.11243 -0.10114,1.23927 -0.0144,2.45681 0.24349,3.64076 0.0263,0.12167 0.046,0.24822 0.0758,0.36858 0.07,0.28061 0.15535,0.55224 0.24438,0.82671 0.0346,0.10672 0.0697,0.20902 0.10698,0.31449 0.23344,0.65891 0.51208,1.28877 0.85205,1.89921 0.0485,0.0879 0.0877,0.17383 0.13841,0.26031 0.0629,0.10696 0.15339,0.20225 0.21962,0.30716 0.36341,0.57763 0.76574,1.13129 1.21754,1.64115 0.18844,0.21213 0.37531,0.42285 0.57867,0.62273 0.0238,0.0221 0.0424,0.0515 0.0657,0.0737 0.73862,0.71469 1.57008,1.34706 2.49176,1.87162 0.24272,0.13898 0.49304,0.27215 0.74631,0.39486 0.23223,0.11213 0.48168,0.21054 0.72344,0.3095 0.01,0.004 0.0169,0.0124 0.0273,0.0151 0.14548,0.0593 0.28835,0.126 0.43722,0.18021 0.23327,0.0849 0.46594,0.15364 0.70059,0.22406 0.0214,0.007 0.0482,-0.002 0.0697,0.004 0.80972,0.23812 1.62349,0.39677 2.43599,0.46821 l 82.08753,7.19525 c 1.35645,0.15611 2.7362,0.0655 4.05925,-0.21838 0.24081,-0.0512 0.47432,-0.1025 0.71011,-0.16735 0.17092,-0.0474 0.34331,-0.0827 0.51224,-0.13727 0.0863,-0.0283 0.1592,-0.0815 0.2447,-0.11133 1.04474,-0.3626 2.0603,-0.84844 2.98737,-1.48677 0.18513,-0.12727 0.37814,-0.26377 0.55604,-0.40065 0.14121,-0.10935 0.27534,-0.2232 0.41225,-0.33939 0.17986,-0.15085 0.34632,-0.29843 0.51757,-0.45897 0.11611,-0.11047 0.2299,-0.22815 0.3426,-0.34348 0.0227,-0.023 0.0515,-0.0424 0.0737,-0.0657 0.25487,-0.26529 0.50186,-0.54617 0.73631,-0.83785 0.1794,-0.22129 0.33876,-0.44994 0.50302,-0.68386 0.0666,-0.0952 0.13526,-0.18569 0.19885,-0.28212 0.2221,-0.33591 0.44675,-0.6812 0.6364,-1.03986 z"
       style="fill:#000000;fill-opacity:1;stroke:none" />
    <path
       style="fill:#000000;fill-opacity:1;stroke:none"
       d="m 849.73502,447.03167 c -0.0677,-0.31512 -0.16776,-0.62642 -0.26044,-0.93778 -0.0243,-0.0812 -0.0487,-0.16007 -0.0741,-0.24079 -0.0288,-0.0907 -0.0791,-0.17581 -0.11039,-0.26612 -0.10439,-0.30142 -0.19118,-0.60625 -0.3166,-0.89615 -0.0172,-0.0398 -0.0347,-0.0781 -0.0523,-0.11775 -0.15067,-0.33819 -0.31363,-0.67144 -0.49228,-0.99208 -0.0157,-0.0281 -0.0306,-0.059 -0.0467,-0.0869 -0.39211,-0.69117 -0.84872,-1.35203 -1.35923,-1.94984 -0.0582,-0.0685 -0.13257,-0.12128 -0.19182,-0.18831 -0.22632,-0.25369 -0.45473,-0.49914 -0.7005,-0.73323 -0.0653,-0.0622 -0.12566,-0.12751 -0.19181,-0.1883 -0.16019,-0.1461 -0.31931,-0.28439 -0.48689,-0.42185 -0.51165,-0.42336 -1.06096,-0.77867 -1.62367,-1.10993 -0.16661,-0.0973 -0.32489,-0.20338 -0.496,-0.2933 -0.16428,-0.0867 -0.32318,-0.18318 -0.49054,-0.26251 -0.21125,-0.0993 -0.43258,-0.17861 -0.64984,-0.26621 -0.07,-0.0287 -0.13593,-0.0633 -0.20638,-0.0905 -0.20788,-0.0799 -0.42601,-0.13615 -0.63901,-0.20458 -1.14795,-0.37163 -2.32839,-0.58549 -3.53534,-0.61423 -0.0861,-0.002 -0.17052,-0.0179 -0.25706,-0.0181 -0.60935,-0.002 -1.24051,0.047 -1.84832,0.13552 l -81.15512,7.10664 c -0.0326,10e-4 -0.0653,-0.0166 -0.0977,-0.0142 l -0.46706,0.0507 c -0.82321,0.0716 -1.63626,0.22212 -2.45658,0.46485 -0.0194,0.006 -0.0418,0.006 -0.0616,0.0108 -0.22958,0.069 -0.46337,0.13408 -0.69155,0.21711 -0.52254,0.19027 -1.01873,0.42785 -1.49898,0.67684 -0.0498,0.0254 -0.0937,0.0623 -0.14317,0.0884 -0.27663,0.14818 -0.54593,0.29324 -0.80764,0.45934 -0.0546,0.0354 -0.11942,0.0586 -0.17358,0.0945 -0.23277,0.15328 -0.45352,0.33251 -0.67348,0.49959 -0.17081,0.13027 -0.33622,0.26671 -0.49966,0.40543 -1.39193,1.1758 -2.4941,2.63648 -3.24822,4.25367 -0.0977,0.21026 -0.18019,0.43366 -0.26621,0.64984 -0.54731,1.3698 -0.85613,2.81118 -0.88945,4.31374 -0.004,0.1495 -0.0183,0.29651 -0.0163,0.44712 0.002,0.14563 0.007,0.2957 0.0144,0.4417 0.008,0.17054 0.0102,0.33158 0.0253,0.50327 0.0377,0.4308 0.11269,0.85162 0.19175,1.2672 0.0331,0.17048 0.0825,0.34746 0.12299,0.51776 0.0147,0.061 0.0179,0.12372 0.0325,0.18468 0.004,0.0206 0.005,0.0414 0.0108,0.0616 0.0985,0.38495 0.22737,0.77385 0.36011,1.14231 l 14.47092,39.77903 c 0.0516,0.15939 0.1211,0.31794 0.17869,0.47627 0.0849,0.23327 0.1818,0.4557 0.27868,0.6807 0.0123,0.0303 0.0339,0.0573 0.0467,0.0869 0.15632,0.35514 0.31833,0.72015 0.50313,1.05364 0.0273,0.0487 0.0604,0.0948 0.0884,0.14315 0.18359,0.3221 0.37002,0.64491 0.57912,0.94506 0.022,0.0309 0.056,0.0509 0.0776,0.0816 0.71911,1.01435 1.56818,1.89128 2.52676,2.63247 0.0983,0.0763 0.19479,0.16058 0.29498,0.23363 0.234,0.16996 0.47398,0.32318 0.71861,0.47621 0.0951,0.0595 0.18775,0.11532 0.2841,0.17215 0.60237,0.3547 1.22068,0.6581 1.8735,0.90719 0.0936,0.0362 0.17892,0.0768 0.27335,0.11044 0.11694,0.0415 0.24751,0.0563 0.36568,0.0941 0.64968,0.2089 1.31377,0.37441 1.9876,0.47457 0.28071,0.0414 0.5593,0.0827 0.84357,0.10508 0.0324,0.002 0.0656,0.0122 0.0977,0.0142 1.02521,0.0727 2.06863,0.0227 3.11185,-0.16793 0.27527,-0.0495 0.55263,-0.10844 0.82552,-0.17724 0.24998,-0.0634 0.50432,-0.14833 0.75313,-0.22793 0.0102,-0.003 0.0209,-10e-4 0.0306,-0.006 0.14956,-0.0481 0.30188,-0.0888 0.45077,-0.14299 0.23327,-0.0849 0.45569,-0.1818 0.6807,-0.27869 0.0209,-0.008 0.0356,-0.0325 0.056,-0.0417 0.77334,-0.33806 1.4987,-0.73961 2.16703,-1.20715 l 67.50772,-47.25297 c 1.13944,-0.75232 2.13815,-1.70862 2.96919,-2.77652 0.15156,-0.19401 0.29747,-0.38341 0.43641,-0.58465 0.10046,-0.14617 0.20983,-0.28403 0.30416,-0.43442 0.0479,-0.0772 0.0696,-0.16476 0.11589,-0.24257 0.56724,-0.94931 1.03291,-1.97428 1.33278,-3.05918 0.06,-0.21649 0.12012,-0.44512 0.16842,-0.66433 0.0379,-0.17453 0.0675,-0.34796 0.0977,-0.52497 0.0408,-0.23117 0.0735,-0.45122 0.10146,-0.68428 0.0179,-0.15926 0.0295,-0.32255 0.0417,-0.48334 0.003,-0.0322 0.0122,-0.0656 0.0142,-0.0977 0.0247,-0.36705 0.0334,-0.74098 0.0255,-1.11512 -0.005,-0.28483 -0.0297,-0.56242 -0.0542,-0.8472 -0.0102,-0.11574 -0.0157,-0.22919 -0.029,-0.34393 -0.0458,-0.40009 -0.0956,-0.809 -0.1809,-1.20565 z"
       id="path3695"
       inkscape:connector-curvature="0" />
    <path
       inkscape:connector-curvature="0"
       id="path3697"
       d="m 718.80588,289.15089 c -0.25442,-0.19788 -0.53117,-0.37203 -0.80231,-0.55097 -0.0708,-0.0466 -0.14019,-0.0913 -0.21154,-0.13682 -0.0804,-0.051 -0.1736,-0.0838 -0.25562,-0.13291 -0.27371,-0.1638 -0.53614,-0.34152 -0.81856,-0.48298 -0.0388,-0.0194 -0.0768,-0.0375 -0.11575,-0.0566 -0.33281,-0.16222 -0.67185,-0.31275 -1.01481,-0.44354 -0.0301,-0.0114 -0.0614,-0.0255 -0.0916,-0.0365 -0.74465,-0.27743 -1.51923,-0.49017 -2.29457,-0.61997 -0.0886,-0.0151 -0.17951,-0.008 -0.26798,-0.0209 -0.33644,-0.0489 -0.66919,-0.0901 -1.00793,-0.11142 -0.09,-0.006 -0.17822,-0.0169 -0.26797,-0.0209 -0.21662,-0.009 -0.42741,-0.0126 -0.64414,-0.0102 -0.66408,0.005 -1.31326,0.0855 -1.95725,0.19342 -0.19017,0.0326 -0.37961,0.053 -0.56849,0.0941 -0.18157,0.0392 -0.36531,0.0674 -0.54451,0.11422 -0.22566,0.0597 -0.44619,0.14123 -0.66893,0.21378 -0.0721,0.023 -0.14481,0.0389 -0.21626,0.0633 -0.21061,0.0724 -0.41386,0.16954 -0.62102,0.25403 -1.11825,0.4532 -2.15999,1.04815 -3.10304,1.80195 -0.0672,0.0538 -0.14213,0.0959 -0.20856,0.15137 -0.46807,0.39015 -0.92007,0.83338 -1.32878,1.29189 l -57.60037,57.60951 c -0.0243,0.0217 -0.0607,0.0292 -0.084,0.0519 l -0.3252,0.33906 c -0.58459,0.58399 -1.11067,1.22192 -1.58305,1.93515 -0.011,0.0171 -0.0282,0.0315 -0.0402,0.0479 -0.13152,0.20043 -0.26878,0.40056 -0.39021,0.61084 -0.27798,0.48163 -0.50537,0.98258 -0.71322,1.48201 -0.0218,0.0515 -0.0317,0.10796 -0.0529,0.15975 -0.11666,0.29132 -0.22972,0.57555 -0.32343,0.87101 -0.0191,0.0622 -0.0538,0.12166 -0.0722,0.18397 -0.0798,0.26704 -0.13368,0.54623 -0.19478,0.81561 -0.0471,0.20959 -0.0861,0.42043 -0.12216,0.63176 -0.31049,1.79543 -0.21589,3.62283 0.24593,5.34641 0.0603,0.22387 0.14071,0.44803 0.21378,0.66892 0.46122,1.40114 1.15116,2.7038 2.09146,3.87625 0.093,0.11709 0.17657,0.2389 0.27491,0.35299 0.0951,0.11027 0.19544,0.22202 0.29495,0.3291 0.11575,0.1255 0.22095,0.24745 0.34288,0.36927 0.30579,0.30578 0.63374,0.57994 0.96143,0.84748 0.13494,0.10932 0.28654,0.21314 0.42703,0.31757 0.0505,0.0373 0.0932,0.0833 0.1436,0.12058 0.0163,0.0132 0.0304,0.0285 0.0479,0.0403 0.3229,0.23157 0.6716,0.44665 1.01012,0.64358 l 36.65484,21.17078 c 0.14198,0.0889 0.29714,0.16571 0.44303,0.24998 0.21498,0.12413 0.43218,0.23223 0.65102,0.34232 0.0289,0.0153 0.0628,0.0221 0.0916,0.0366 0.34803,0.17157 0.70676,0.34705 1.06269,0.48373 0.0522,0.0198 0.10721,0.0338 0.15973,0.0528 0.34768,0.12874 0.698,0.25619 1.05111,0.35171 0.0367,0.01 0.0756,0.003 0.1119,0.0126 1.20288,0.3148 2.41698,0.4408 3.62773,0.39242 0.12434,-0.005 0.25243,-0.002 0.37614,-0.0106 0.2885,-0.0202 0.57082,-0.0571 0.85659,-0.0971 0.11109,-0.0156 0.21795,-0.0324 0.32829,-0.0507 0.68943,-0.11548 1.35811,-0.2805 2.01831,-0.50931 0.095,-0.0324 0.18643,-0.0562 0.28039,-0.0911 0.11626,-0.0434 0.22579,-0.11597 0.34061,-0.16297 0.63196,-0.25758 1.24707,-0.55767 1.82764,-0.91407 0.24165,-0.14872 0.48161,-0.29616 0.71376,-0.46174 0.0261,-0.0193 0.0581,-0.0328 0.084,-0.0519 0.83208,-0.6033 1.59925,-1.3123 2.27587,-2.1289 0.17905,-0.21486 0.35363,-0.43829 0.51846,-0.66641 0.15074,-0.20925 0.29098,-0.4378 0.43042,-0.65871 0.006,-0.009 0.0154,-0.0142 0.0196,-0.0243 0.0836,-0.13298 0.17417,-0.26207 0.2534,-0.39929 0.12412,-0.21498 0.23222,-0.43218 0.34231,-0.65103 0.0109,-0.0196 0.006,-0.0478 0.0161,-0.0679 0.37511,-0.75606 0.67266,-1.52992 0.8841,-2.31767 l 21.34029,-79.591 c 0.38928,-1.30873 0.53964,-2.68326 0.48982,-4.0355 -0.009,-0.24604 -0.0186,-0.48492 -0.0415,-0.72839 -0.017,-0.17654 -0.0218,-0.35245 -0.0462,-0.52829 -0.0129,-0.0899 -0.0526,-0.17095 -0.0671,-0.26031 -0.17567,-1.09183 -0.47779,-2.17633 -0.94544,-3.20017 -0.0932,-0.2044 -0.1941,-0.41819 -0.298,-0.61716 -0.0832,-0.15806 -0.17196,-0.30994 -0.2626,-0.46495 -0.11734,-0.20331 -0.23374,-0.3929 -0.36213,-0.58941 -0.0887,-0.1335 -0.18473,-0.26605 -0.27874,-0.39706 -0.0184,-0.0266 -0.0328,-0.0581 -0.0519,-0.084 -0.21701,-0.29706 -0.45071,-0.58909 -0.69725,-0.87062 -0.18692,-0.21498 -0.38427,-0.41175 -0.58609,-0.61416 -0.0822,-0.0821 -0.15935,-0.16548 -0.24329,-0.24482 -0.29226,-0.27705 -0.59325,-0.55828 -0.91355,-0.8073 z"
       style="fill:#000000;fill-opacity:1;stroke:none" />
  </g>
</svg>
