<?xml version="1.0" encoding="UTF-8" standalone="no"?>
<!-- Created with Inkscape (http://www.inkscape.org/) -->

<svg
   xmlns:dc="http://purl.org/dc/elements/1.1/"
   xmlns:cc="http://creativecommons.org/ns#"
   xmlns:rdf="http://www.w3.org/1999/02/22-rdf-syntax-ns#"
   xmlns:svg="http://www.w3.org/2000/svg"
   xmlns="http://www.w3.org/2000/svg"
   xmlns:sodipodi="http://sodipodi.sourceforge.net/DTD/sodipodi-0.dtd"
   xmlns:inkscape="http://www.inkscape.org/namespaces/inkscape"
   width="1000"
   height="1000"
   id="svg16419"
   version="1.1"
   inkscape:version="0.48.2 r9819"
   sodipodi:docname="PartlySunny-thin.svg">
  <defs
     id="defs16421" />
  <sodipodi:namedview
     id="base"
     pagecolor="#ffffff"
     bordercolor="#666666"
     borderopacity="1.0"
     inkscape:pageopacity="0.0"
     inkscape:pageshadow="2"
     inkscape:zoom="0.50000001"
     inkscape:cx="315.22352"
     inkscape:cy="568.97928"
     inkscape:document-units="px"
     inkscape:current-layer="layer1"
     showgrid="false"
     inkscape:snap-grids="true"
     inkscape:window-width="1218"
     inkscape:window-height="756"
     inkscape:window-x="62"
     inkscape:window-y="0"
     inkscape:window-maximized="1"
     inkscape:snap-bbox="false"
     inkscape:object-nodes="false"
     showguides="true"
     inkscape:guide-bbox="true">
    <inkscape:grid
       type="xygrid"
       id="grid16427"
       empspacing="10"
       visible="true"
       enabled="true"
       snapvisiblegridlinesonly="true" />
  </sodipodi:namedview>
  <metadata
     id="metadata16424">
    <rdf:RDF>
      <cc:Work
         rdf:about="">
        <dc:format>image/svg+xml</dc:format>
        <dc:type
           rdf:resource="http://purl.org/dc/dcmitype/StillImage" />
        <dc:title />
      </cc:Work>
    </rdf:RDF>
  </metadata>
  <g
     inkscape:label="Layer 1"
     inkscape:groupmode="layer"
     id="layer1"
     transform="translate(0,-52.36218)">
    <path
       style="fill:#000000;fill-opacity:1;stroke:none"
       d="M 566.5 336.59375 C 514.32573 336.59375 468.11388 361.66766 438.90625 400.3125 C 368.74225 404.14576 308.21081 444.12542 275.625 501.96875 C 204.37404 513.61145 150 575.45637 150 650 C 150 732.84271 217.15729 800 300 800 L 450 800 L 625 800 C 694.03559 800 750 744.03559 750 675 C 750 635.93598 732.06833 601.04926 704 578.125 C 718.19772 554.23039 726.5 526.40485 726.5 496.59375 C 726.5 408.22825 654.86556 336.59375 566.5 336.59375 z M 566.5 371.59375 C 635.53559 371.59375 691.5 427.55825 691.5 496.59375 C 691.5 519.77008 685.05477 541.39315 674.0625 560 C 664.60484 555.9593 654.54832 553.04236 644.0625 551.4375 C 625.03855 475.19724 562.25184 416.26774 483.9375 402.875 C 505.9656 383.45699 534.82673 371.59375 566.5 371.59375 z M 450 435 C 524.13066 435 586.84164 483.89482 607.65625 551.1875 C 581.54671 554.81113 558.01033 566.504 539.65625 583.65625 L 564.4375 608.4375 C 580.42777 593.87572 601.66884 585 625 585 C 674.70563 585 715 625.29437 715 675 C 715 724.70563 674.70563 765 625 765 L 300 765 C 236.48725 765 185 713.51275 185 650 C 185 587.05139 235.57871 535.93469 298.3125 535.03125 C 323.53943 476.21453 381.94712 435 450 435 z "
       transform="translate(0,52.36218)"
       id="path7981" />
    <path
       inkscape:connector-curvature="0"
       style="fill:#000000;fill-opacity:1;stroke:none"
       d="m 516.18923,252.37127 c -0.1636,0.008 -0.3358,0.0123 -0.5,0.0312 -0.2265,0.0261 -0.4609,0.0775 -0.6875,0.125 -0.1252,0.0263 -0.25,0.0608 -0.375,0.0937 -0.224,0.058 -0.4409,0.10992 -0.6562,0.1875 -0.2462,0.0887 -0.4854,0.1996 -0.7188,0.3125 -0.1366,0.0661 -0.2744,0.14473 -0.4062,0.21875 -0.1472,0.0828 -0.2977,0.15851 -0.4375,0.25 -0.031,0.0203 -0.063,0.0417 -0.094,0.0625 -0.1145,0.0773 -0.2345,0.16708 -0.3438,0.25 -0.1607,0.12279 -0.3186,0.23985 -0.4687,0.375 -0.033,0.0293 -0.062,0.0639 -0.094,0.0937 -0.064,0.0594 -0.1259,0.12594 -0.1875,0.1875 -0.1451,0.14487 -0.2743,0.28209 -0.4063,0.4375 -0.1139,0.13334 -0.208,0.26501 -0.3125,0.40625 -0.017,0.0232 -0.046,0.0392 -0.062,0.0625 -0.1076,0.14925 -0.1846,0.31148 -0.2812,0.46875 -0.051,0.0827 -0.1086,0.16542 -0.1563,0.25 -0.03,0.0528 -0.065,0.10269 -0.094,0.15625 -0.1046,0.19663 -0.1945,0.38863 -0.2812,0.59375 -0.058,0.13683 -0.1066,0.26611 -0.1563,0.40625 -0.073,0.20522 -0.1323,0.41188 -0.1875,0.625 -0.01,0.0223 -0.026,0.0402 -0.031,0.0625 -0.026,0.10424 -0.041,0.20655 -0.062,0.3125 -0.049,0.23659 -0.1,0.4771 -0.125,0.71875 0,0.0203 0,0.0421 0,0.0625 -0.011,0.11555 -0.025,0.22735 -0.031,0.34375 -0.01,0.13303 0,0.27143 0,0.40625 4e-4,0.11224 -0.01,0.23106 0,0.34375 l 0,92.1875 0,0.21875 c 8e-4,0.25092 0,0.49565 0.031,0.75 0.019,0.17989 0.031,0.35026 0.062,0.53125 0.013,0.0752 0.047,0.14448 0.062,0.21875 0.037,0.17826 0.076,0.35868 0.125,0.53125 0.069,0.24519 0.1574,0.48458 0.25,0.71875 0.024,0.0602 0.037,0.12805 0.062,0.1875 0.092,0.21681 0.2018,0.42033 0.3125,0.625 0.092,0.16991 0.1773,0.339 0.2813,0.5 0.028,0.0432 0.065,0.0825 0.094,0.125 0.1073,0.15879 0.2252,0.31952 0.3437,0.46875 0.1372,0.17272 0.2859,0.34023 0.4375,0.5 0.026,0.0271 0.036,0.0671 0.062,0.0937 0.02,0.0208 0.042,0.042 0.062,0.0625 0.1384,0.13817 0.2892,0.24834 0.4375,0.375 0.1252,0.10703 0.2429,0.2138 0.375,0.3125 0.083,0.0621 0.1646,0.12888 0.25,0.1875 0.043,0.0293 0.082,0.0653 0.125,0.0937 0.3367,0.2206 0.6935,0.3982 1.0625,0.5625 0.085,0.0377 0.1635,0.0904 0.25,0.125 0.1842,0.0738 0.3722,0.12835 0.5625,0.1875 0.2615,0.0812 0.5412,0.13517 0.8125,0.1875 0.2168,0.0418 0.4344,0.0712 0.6563,0.0937 0.2357,0.0239 0.4784,0.0612 0.7187,0.0625 0.021,1.6e-4 0.042,0 0.062,0 0.073,-2.1e-4 0.145,-0.0289 0.2188,-0.0312 0.1067,-0.003 0.207,0.008 0.3125,0 0.074,-0.005 0.1444,-0.0236 0.2187,-0.0312 0.1789,-0.0181 0.3564,-0.0322 0.5313,-0.0625 l 0.3125,-0.0625 31.2187,-5.5 c 0.071,-0.0106 0.1477,-0.0185 0.2188,-0.0312 0.6963,-0.12277 1.3624,-0.33407 1.9687,-0.625 0.063,-0.0306 0.1254,-0.0616 0.1875,-0.0937 0.1642,-0.0844 0.3126,-0.1857 0.4688,-0.28125 0.052,-0.0319 0.1052,-0.0607 0.1562,-0.0937 0.1603,-0.10349 0.3179,-0.19776 0.4688,-0.3125 0.041,-0.0308 0.085,-0.0622 0.125,-0.0937 0.1549,-0.12304 0.2934,-0.2719 0.4375,-0.40625 0.034,-0.0311 0.061,-0.0621 0.094,-0.0937 0.1406,-0.13577 0.277,-0.26028 0.4062,-0.40625 0.029,-0.0326 0.065,-0.0607 0.094,-0.0937 0.042,-0.0494 0.084,-0.10574 0.125,-0.15625 0.1131,-0.13947 0.2101,-0.29074 0.3125,-0.4375 0.1103,-0.15743 0.2147,-0.30322 0.3125,-0.46875 0.023,-0.039 0.04,-0.0856 0.062,-0.125 0.096,-0.16938 0.1987,-0.35453 0.2813,-0.53125 0.02,-0.0424 0.043,-0.0822 0.062,-0.125 0.08,-0.17973 0.1529,-0.34502 0.2187,-0.53125 0.014,-0.0409 0.018,-0.0839 0.031,-0.125 0.06,-0.18023 0.1099,-0.37714 0.1563,-0.5625 0.013,-0.0506 0.02,-0.10539 0.031,-0.15625 0.043,-0.18605 0.097,-0.37223 0.125,-0.5625 0,-0.0103 -10e-4,-0.0209 0,-0.0312 0.034,-0.23295 0.051,-0.44944 0.062,-0.6875 0,-0.0507 0,-0.10542 0,-0.15625 0,-0.18961 0.01,-0.40182 0,-0.59375 0,-0.0637 0,-0.12374 0,-0.1875 -0.013,-0.17928 -0.036,-0.35066 -0.062,-0.53125 -0.011,-0.0711 -0.019,-0.1477 -0.031,-0.21875 -0.032,-0.18053 -0.081,-0.35627 -0.125,-0.53125 -0.019,-0.0745 -0.041,-0.14435 -0.062,-0.21875 -0.048,-0.17045 -0.097,-0.33544 -0.1563,-0.5 l -0.062,-0.21875 c -0.025,-0.0644 -0.067,-0.12408 -0.094,-0.1875 l -31.4688,-86.43765 c -0.032,-0.1047 -0.057,-0.20985 -0.094,-0.3125 -0.065,-0.17885 -0.1419,-0.36054 -0.2187,-0.53125 -0.029,-0.064 -0.063,-0.12451 -0.094,-0.1875 -0.1104,-0.22877 -0.2446,-0.44347 -0.375,-0.65625 -0.1032,-0.16803 -0.1968,-0.34115 -0.3125,-0.5 -0.3206,-0.44096 -0.694,-0.83325 -1.0938,-1.1875 -0.1323,-0.11707 -0.2658,-0.23617 -0.4062,-0.34375 -0.053,-0.0405 -0.1023,-0.0859 -0.1563,-0.125 -0.4698,-0.34137 -0.9662,-0.6202 -1.5,-0.84375 -0.1335,-0.0563 -0.2688,-0.10758 -0.4062,-0.15625 -0.094,-0.0333 -0.186,-0.0642 -0.2813,-0.0937 -0.2351,-0.0728 -0.4741,-0.10646 -0.7187,-0.15625 -0.2366,-0.0486 -0.4771,-0.0995 -0.7188,-0.125 -0.01,-0.001 -0.021,0.001 -0.031,0 -0.1265,-0.0128 -0.2465,-0.0248 -0.375,-0.0312 -0.2433,-0.0121 -0.4728,-0.012 -0.7187,0 z"
       id="path4364" />
    <path
       id="path4366"
       d="m 337.31438,354.0895 c -0.12022,0.11129 -0.24934,0.22529 -0.36293,0.34533 -0.15678,0.16567 -0.30329,0.35564 -0.44631,0.53767 -0.079,0.10061 -0.15246,0.20734 -0.22701,0.31286 -0.13438,0.18846 -0.26711,0.36763 -0.38219,0.56547 -0.13158,0.22619 -0.24356,0.46493 -0.34972,0.70139 -0.0622,0.13851 -0.11718,0.28725 -0.1706,0.4287 -0.0596,0.15804 -0.12614,0.31277 -0.17445,0.47273 -0.0108,0.0356 -0.0214,0.0724 -0.0316,0.10814 -0.038,0.13279 -0.0723,0.27875 -0.10263,0.41247 -0.0442,0.19738 -0.09,0.38859 -0.11804,0.58857 -0.006,0.0436 -0.006,0.0885 -0.0115,0.13208 -0.0106,0.0864 -0.0155,0.17743 -0.0231,0.26416 -0.018,0.20422 -0.0288,0.39243 -0.03,0.59628 -0.002,0.17536 0.011,0.33674 0.0217,0.51207 0.002,0.0287 -0.01,0.0594 -0.008,0.088 0.0135,0.1835 0.0588,0.35731 0.0859,0.53987 0.0141,0.0961 0.0232,0.1965 0.041,0.29195 0.0112,0.0595 0.0159,0.12068 0.0286,0.17995 0.0463,0.21787 0.10077,0.42277 0.1662,0.63563 0.0437,0.14199 0.0894,0.27237 0.14144,0.41164 0.0761,0.20407 0.16337,0.40059 0.25811,0.5993 0.01,0.0208 0.006,0.0473 0.0162,0.068 0.0471,0.0965 0.10141,0.18454 0.15299,0.27957 0.11487,0.21246 0.23045,0.42943 0.36625,0.63094 0.0114,0.0169 0.0286,0.031 0.0402,0.0479 0.0657,0.0957 0.12665,0.19051 0.19702,0.28341 0.0802,0.10638 0.17447,0.20793 0.26113,0.31121 0.0724,0.0857 0.14432,0.18053 0.22096,0.26333 l 59.25698,70.61966 0.14061,0.1676 c 0.16184,0.1918 0.32234,0.3766 0.50603,0.5545 0.12992,0.1258 0.24858,0.2486 0.38936,0.3668 0.0585,0.049 0.12897,0.08 0.18849,0.1274 0.14285,0.1128 0.28899,0.2257 0.43724,0.3266 0.21055,0.1434 0.43203,0.27 0.65351,0.3899 0.057,0.031 0.11078,0.074 0.1684,0.1034 0.20996,0.1069 0.42473,0.1923 0.64113,0.2779 0.17965,0.071 0.3537,0.1458 0.53685,0.2023 0.0491,0.015 0.10285,0.021 0.15216,0.036 0.18427,0.053 0.37794,0.1 0.56464,0.1381 0.21607,0.044 0.43769,0.077 0.65653,0.1018 0.0371,0 0.071,0.028 0.10814,0.032 0.0289,0 0.0591,0.01 0.0881,0.01 0.19476,0.017 0.38113,0 0.57619,0.01 0.16467,0 0.32347,0.01 0.48813,0 0.10346,-0.01 0.20891,-0.01 0.31204,-0.017 0.0517,-0.01 0.10441,0 0.15601,-0.01 0.39966,-0.047 0.78718,-0.1407 1.17549,-0.252 0.0893,-0.026 0.18331,-0.036 0.27186,-0.065 0.18852,-0.062 0.36757,-0.1409 0.55143,-0.2179 0.2525,-0.1058 0.50142,-0.2443 0.74293,-0.3786 0.19293,-0.1073 0.37851,-0.2247 0.56298,-0.3501 0.19598,-0.1332 0.40582,-0.2606 0.59077,-0.4141 0.0159,-0.013 0.0321,-0.027 0.0479,-0.04 0.0561,-0.047 0.0925,-0.1153 0.14748,-0.1645 0.0797,-0.071 0.16342,-0.1273 0.23939,-0.2009 0.0532,-0.052 0.0955,-0.1109 0.14748,-0.1645 0.12541,-0.1288 0.25232,-0.2538 0.36679,-0.3894 l 0.19922,-0.2487 20.37961,-24.28029 c 0.0476,-0.0538 0.10123,-0.10914 0.14749,-0.16455 0.45447,-0.54161 0.82894,-1.13166 1.10641,-1.74426 0.0289,-0.0641 0.0564,-0.12776 0.0834,-0.19234 0.0715,-0.1702 0.12004,-0.34315 0.1783,-0.51676 0.0193,-0.0578 0.0416,-0.11419 0.0594,-0.17225 0.0562,-0.18227 0.11636,-0.35579 0.15821,-0.5407 0.0113,-0.0497 0.0253,-0.10239 0.0355,-0.15216 0.0396,-0.19386 0.05,-0.39688 0.074,-0.59243 0.006,-0.0453 0.007,-0.0867 0.0115,-0.13208 0.0204,-0.19438 0.0449,-0.37743 0.0501,-0.57233 0.001,-0.0436 0.0111,-0.0885 0.0115,-0.13208 5.6e-4,-0.065 -0.004,-0.13506 -0.005,-0.20005 -0.003,-0.1795 -0.0259,-0.35776 -0.0418,-0.53601 -0.0167,-0.19146 -0.0305,-0.37024 -0.0619,-0.55996 -0.007,-0.0446 -0.0242,-0.0915 -0.0325,-0.13593 -0.0354,-0.19137 -0.0757,-0.3993 -0.12603,-0.58774 -0.0121,-0.0452 -0.0195,-0.0909 -0.0325,-0.13593 -0.0542,-0.18912 -0.10462,-0.3626 -0.17391,-0.54757 -0.0152,-0.0406 -0.0405,-0.0755 -0.0564,-0.11584 -0.0698,-0.17673 -0.15828,-0.35951 -0.24187,-0.53134 -0.0228,-0.0468 -0.0527,-0.0934 -0.0765,-0.13978 -0.0871,-0.16982 -0.16512,-0.34735 -0.26581,-0.51125 -0.005,-0.009 -0.0146,-0.0151 -0.0201,-0.0239 -0.12401,-0.20003 -0.24977,-0.37712 -0.39403,-0.56683 -0.0307,-0.0405 -0.0689,-0.0798 -0.10044,-0.11969 -0.11806,-0.14846 -0.25095,-0.31397 -0.38166,-0.45484 -0.0433,-0.0468 -0.0759,-0.0978 -0.12052,-0.14363 -0.12541,-0.1288 -0.25306,-0.24541 -0.38936,-0.36679 -0.0538,-0.0476 -0.10914,-0.10123 -0.16455,-0.14749 -0.14042,-0.11783 -0.29116,-0.22076 -0.43723,-0.32661 -0.0624,-0.045 -0.12434,-0.0841 -0.18849,-0.1274 -0.14642,-0.0996 -0.28999,-0.19455 -0.44109,-0.28258 l -0.18848,-0.1274 c -0.0608,-0.033 -0.13086,-0.0522 -0.19234,-0.0834 l -79.66742,-45.98725 c -0.0921,-0.0594 -0.1785,-0.12416 -0.27269,-0.17913 -0.16483,-0.0952 -0.34048,-0.18495 -0.50905,-0.26635 -0.0631,-0.0306 -0.12856,-0.0547 -0.19234,-0.0834 -0.23164,-0.10427 -0.47241,-0.18251 -0.7091,-0.26167 -0.18706,-0.0624 -0.37,-0.13487 -0.56078,-0.18215 -0.52905,-0.13171 -1.06724,-0.19221 -1.60117,-0.20663 -0.1766,-0.005 -0.35543,-0.0101 -0.53216,-0.002 -0.0665,0.003 -0.13358,-5e-5 -0.20005,0.005 -0.57934,0.0405 -1.13887,0.14602 -1.69142,0.31784 -0.13848,0.0427 -0.2751,0.0904 -0.41164,0.14143 -0.0933,0.0349 -0.18375,0.0704 -0.27571,0.10897 -0.22693,0.0953 -0.43168,0.22325 -0.65103,0.34231 -0.21246,0.11487 -0.42943,0.23045 -0.63094,0.36625 -0.009,0.006 -0.0153,0.0142 -0.0239,0.0201 -0.10519,0.0716 -0.20483,0.13951 -0.30735,0.2171 -0.19419,0.14708 -0.36996,0.29479 -0.5506,0.46201 z"
       style="fill:#000000;fill-opacity:1;stroke:none"
       inkscape:connector-curvature="0" />
    <path
       inkscape:connector-curvature="0"
       style="fill:#000000;fill-opacity:1;stroke:none"
       d="m 848.48573,653.69208 c 0.076,-0.1455 0.1573,-0.297 0.223,-0.4485 0.091,-0.2094 0.1635,-0.438 0.2352,-0.6581 0.04,-0.121 0.072,-0.2471 0.1062,-0.3717 0.062,-0.223 0.1247,-0.4369 0.1654,-0.6621 0.046,-0.2576 0.069,-0.5203 0.089,-0.7787 0.01,-0.1514 0.012,-0.31 0.013,-0.4613 9e-4,-0.1689 0.012,-0.337 0,-0.5037 0,-0.038 0,-0.075 -0.01,-0.1126 -0.01,-0.1375 -0.028,-0.2867 -0.045,-0.4226 -0.026,-0.2006 -0.048,-0.396 -0.09,-0.5935 -0.01,-0.043 -0.025,-0.086 -0.034,-0.1279 -0.019,-0.084 -0.046,-0.1719 -0.068,-0.2563 -0.053,-0.198 -0.1067,-0.3789 -0.1757,-0.5706 -0.058,-0.1652 -0.1252,-0.3129 -0.196,-0.4735 -0.015,-0.025 -0.011,-0.059 -0.022,-0.086 -0.075,-0.168 -0.1809,-0.3136 -0.2645,-0.4783 -0.049,-0.084 -0.089,-0.1766 -0.1387,-0.2602 -0.032,-0.052 -0.052,-0.1102 -0.091,-0.1578 -0.1199,-0.1878 -0.2395,-0.3627 -0.3733,-0.5406 -0.089,-0.1189 -0.1774,-0.2254 -0.2737,-0.3386 -0.1415,-0.1656 -0.2902,-0.3207 -0.4475,-0.4749 -0.02,-0.014 -0.024,-0.041 -0.035,-0.061 -0.077,-0.075 -0.1585,-0.1385 -0.2394,-0.2103 -0.1806,-0.1605 -0.3635,-0.3248 -0.56,-0.4677 -0.01,-0.019 -0.035,-0.024 -0.054,-0.032 -0.094,-0.067 -0.1837,-0.1362 -0.2818,-0.1994 -0.1114,-0.073 -0.2352,-0.1355 -0.3517,-0.2035 -0.098,-0.056 -0.1975,-0.1198 -0.2976,-0.1722 l -79.8366,-46.0937 -0.1896,-0.1094 c -0.2176,-0.125 -0.4319,-0.2434 -0.6653,-0.3475 -0.1652,-0.074 -0.3185,-0.1489 -0.4914,-0.2118 -0.072,-0.026 -0.1486,-0.03 -0.2207,-0.055 -0.1745,-0.053 -0.3488,-0.113 -0.5226,-0.1572 -0.2468,-0.063 -0.4984,-0.1059 -0.7475,-0.1429 -0.064,-0.01 -0.1293,-0.032 -0.1937,-0.039 -0.2338,-0.029 -0.4648,-0.036 -0.6975,-0.042 -0.193,-0.01 -0.3822,-0.016 -0.5737,-0.01 -0.051,0 -0.1042,0.016 -0.1552,0.018 -0.1914,0.013 -0.3894,0.035 -0.5779,0.063 -0.218,0.033 -0.4375,0.077 -0.6517,0.1289 -0.035,0.014 -0.076,0 -0.1125,0.01 -0.027,0.01 -0.059,0.01 -0.086,0.021 -0.1891,0.05 -0.3581,0.1302 -0.5448,0.1877 -0.1546,0.057 -0.3074,0.1011 -0.4587,0.1669 -0.093,0.044 -0.1929,0.081 -0.2876,0.1225 -0.047,0.026 -0.097,0.036 -0.1433,0.063 -0.3597,0.1804 -0.6915,0.4014 -1.0183,0.6387 -0.077,0.052 -0.1595,0.097 -0.2333,0.154 -0.1585,0.1199 -0.2952,0.2607 -0.4438,0.3932 -0.2012,0.1858 -0.3877,0.4011 -0.5687,0.6099 -0.1445,0.1669 -0.2786,0.3408 -0.4092,0.5214 -0.1388,0.1922 -0.2923,0.3837 -0.4136,0.5913 -0.016,0.014 -0.021,0.036 -0.032,0.054 -0.036,0.063 -0.048,0.1397 -0.082,0.2052 -0.051,0.094 -0.1099,0.1758 -0.1562,0.2707 -0.032,0.067 -0.051,0.1371 -0.082,0.2051 -0.074,0.1637 -0.1506,0.3248 -0.2115,0.4914 l -0.102,0.3019 -10.8466,29.786 c -0.026,0.067 -0.058,0.1373 -0.082,0.2053 -0.2418,0.6643 -0.3919,1.3469 -0.4431,2.0174 0,0.071 -0.01,0.1396 -0.013,0.2093 -0.01,0.1844 0.01,0.3636 0.01,0.5467 0,0.061 -2e-4,0.1215 0,0.1819 0.01,0.1907 0.012,0.3741 0.036,0.5622 0.01,0.05 0.011,0.1055 0.019,0.155 0.029,0.1959 0.089,0.39 0.1333,0.5821 0.01,0.043 0.023,0.084 0.034,0.1278 0.048,0.1899 0.087,0.3701 0.1486,0.555 0.013,0.043 0.021,0.087 0.034,0.1279 0.022,0.061 0.05,0.1259 0.073,0.1865 0.065,0.1676 0.1463,0.3274 0.2225,0.4893 0.081,0.1744 0.1554,0.3373 0.2499,0.5049 0.022,0.039 0.056,0.076 0.078,0.1157 0.097,0.1685 0.2118,0.3469 0.3194,0.5092 0.023,0.04 0.047,0.081 0.078,0.1156 0.116,0.1589 0.2223,0.3049 0.3506,0.4551 0.031,0.032 0.064,0.057 0.093,0.089 0.1261,0.1425 0.2713,0.284 0.409,0.4166 0.037,0.037 0.081,0.07 0.1196,0.1053 0.1397,0.1298 0.274,0.2699 0.4246,0.3895 0.013,0 0.02,0.01 0.024,0.02 0.1852,0.1449 0.3637,0.2689 0.5642,0.3979 0.043,0.027 0.092,0.052 0.1351,0.078 0.1613,0.1 0.3432,0.209 0.5141,0.2968 0.056,0.031 0.1051,0.066 0.1619,0.094 0.1621,0.078 0.322,0.1438 0.4914,0.2119 0.067,0.024 0.1364,0.06 0.2041,0.085 0.1722,0.063 0.3491,0.1079 0.5226,0.1572 0.075,0.016 0.1458,0.036 0.2209,0.055 0.1716,0.043 0.3388,0.084 0.5111,0.1147 l 0.2205,0.056 c 0.069,0.01 0.1408,0 0.2092,0.012 l 90.5916,15.9656 c 0.107,0.024 0.2103,0.055 0.3175,0.075 0.1875,0.033 0.3833,0.057 0.5694,0.076 0.07,0.01 0.1395,0.01 0.2093,0.012 0.2534,0.019 0.5064,0.01 0.7559,0 0.197,0 0.3938,1e-4 0.5893,-0.021 0.5422,-0.057 1.0686,-0.1844 1.5753,-0.3534 0.1676,-0.056 0.3375,-0.112 0.5007,-0.1802 0.061,-0.025 0.1259,-0.046 0.1865,-0.073 0.5305,-0.2362 1.0202,-0.5269 1.4807,-0.8773 0.1174,-0.086 0.228,-0.1783 0.3397,-0.2721 0.076,-0.064 0.1507,-0.1264 0.2206,-0.1981 0.1806,-0.1673 0.3294,-0.3573 0.4946,-0.5443 0.1606,-0.1804 0.3247,-0.3638 0.4678,-0.56 0.01,-0.01 0.01,-0.022 0.015,-0.028 0.074,-0.1037 0.1447,-0.2011 0.2144,-0.3092 0.1322,-0.2049 0.2469,-0.4036 0.3594,-0.6226 z"
       id="path4368" />
    <path
       id="path4370"
       d="m 849.83233,447.92288 c -0.036,-0.1599 -0.07,-0.3286 -0.1175,-0.4868 -0.065,-0.2187 -0.1563,-0.4406 -0.2428,-0.6554 -0.047,-0.1183 -0.1038,-0.2355 -0.1577,-0.3529 -0.096,-0.2105 -0.1852,-0.4149 -0.2988,-0.6136 -0.1301,-0.2271 -0.2813,-0.4432 -0.4326,-0.6535 -0.089,-0.1226 -0.1901,-0.2452 -0.2864,-0.3619 -0.1078,-0.13 -0.2076,-0.2657 -0.3215,-0.3878 -0.027,-0.027 -0.051,-0.055 -0.078,-0.082 -0.096,-0.099 -0.2054,-0.2019 -0.3058,-0.295 -0.1486,-0.1372 -0.2916,-0.2723 -0.4507,-0.3966 -0.035,-0.027 -0.074,-0.05 -0.1085,-0.076 -0.069,-0.052 -0.1456,-0.1021 -0.2171,-0.1523 -0.1682,-0.1174 -0.3253,-0.2217 -0.5014,-0.3243 -0.1507,-0.089 -0.297,-0.1592 -0.4544,-0.2367 -0.027,-0.01 -0.046,-0.038 -0.072,-0.052 -0.1655,-0.081 -0.3402,-0.1239 -0.5101,-0.1964 -0.091,-0.033 -0.1819,-0.078 -0.2735,-0.1101 -0.058,-0.019 -0.1105,-0.051 -0.1712,-0.062 -0.2126,-0.067 -0.4166,-0.1239 -0.6335,-0.1742 -0.1448,-0.034 -0.2807,-0.059 -0.4273,-0.083 -0.2148,-0.036 -0.4284,-0.059 -0.648,-0.076 -0.024,0 -0.045,-0.016 -0.066,-0.024 -0.1073,-0.01 -0.2105,0 -0.3186,-0.01 -0.2415,-0.01 -0.4872,-0.015 -0.7296,0 -0.02,-0.01 -0.043,0 -0.062,0.01 -0.1154,0.01 -0.2282,0.014 -0.3441,0.028 -0.1322,0.016 -0.2672,0.047 -0.4002,0.07 -0.111,0.02 -0.2283,0.035 -0.3387,0.059 l -90.7868,16.0081 -0.2155,0.038 c -0.2471,0.044 -0.4873,0.091 -0.733,0.1615 -0.1741,0.05 -0.3398,0.091 -0.5126,0.1536 -0.072,0.026 -0.1331,0.072 -0.2045,0.1 -0.1677,0.072 -0.3398,0.1376 -0.5013,0.2155 -0.2295,0.1103 -0.4499,0.2392 -0.6645,0.371 -0.055,0.034 -0.1196,0.059 -0.1734,0.095 -0.1978,0.1281 -0.3792,0.2712 -0.5614,0.4162 -0.1542,0.1164 -0.303,0.2334 -0.4459,0.3611 -0.039,0.033 -0.07,0.079 -0.1073,0.1136 -0.1383,0.1329 -0.2758,0.2771 -0.4022,0.4196 -0.1458,0.1655 -0.2856,0.3403 -0.4164,0.5177 -0.018,0.033 -0.058,0.049 -0.08,0.08 -0.015,0.025 -0.039,0.045 -0.052,0.071 -0.1127,0.1598 -0.1906,0.3299 -0.2967,0.4939 -0.082,0.1431 -0.1705,0.2751 -0.2441,0.4228 -0.043,0.094 -0.096,0.186 -0.1415,0.2786 -0.019,0.05 -0.052,0.09 -0.069,0.1404 -0.1597,0.3694 -0.2718,0.752 -0.3696,1.1439 -0.026,0.089 -0.06,0.1768 -0.08,0.2679 -0.044,0.1937 -0.058,0.3894 -0.087,0.5864 -0.035,0.2717 -0.039,0.5565 -0.044,0.8328 0,0.2207 0.01,0.4402 0.022,0.6625 0.017,0.2364 0.023,0.4818 0.063,0.7188 0,0.021 0.01,0.041 0.011,0.062 0.013,0.072 0.053,0.138 0.069,0.2097 0.021,0.105 0.029,0.2054 0.054,0.3078 0.019,0.072 0.049,0.1381 0.069,0.2098 0.049,0.1728 0.093,0.3456 0.1538,0.5124 l 0.116,0.2968 10.8371,29.7894 c 0.023,0.068 0.044,0.1424 0.069,0.21 0.2417,0.6643 0.5655,1.2837 0.9573,1.8302 0.044,0.056 0.083,0.1127 0.125,0.1684 0.1116,0.147 0.2375,0.2753 0.3583,0.413 0.041,0.045 0.078,0.093 0.1192,0.1374 0.1303,0.1396 0.2498,0.2787 0.3892,0.4073 0.038,0.034 0.076,0.074 0.1145,0.1063 0.1477,0.1317 0.3187,0.2416 0.4762,0.3603 0.035,0.026 0.072,0.05 0.1084,0.076 0.1586,0.1148 0.3045,0.2277 0.4706,0.3296 0.038,0.024 0.072,0.053 0.1085,0.076 0.056,0.033 0.1191,0.064 0.1758,0.096 0.1574,0.087 0.3225,0.1568 0.4849,0.2318 0.1742,0.082 0.336,0.1585 0.516,0.2262 0.042,0.016 0.092,0.022 0.1342,0.038 0.1829,0.066 0.3853,0.1296 0.572,0.1847 0.044,0.016 0.088,0.032 0.1342,0.038 0.191,0.047 0.3663,0.091 0.561,0.1233 0.044,0 0.086,0 0.1285,0.01 0.1882,0.028 0.3904,0.043 0.5811,0.056 0.052,0 0.107,0 0.1593,0 0.1904,0.01 0.3834,0.031 0.5757,0.025 0.01,-0.01 0.022,-0.01 0.032,-4e-4 0.235,-0.01 0.4514,-0.028 0.6879,-0.058 0.05,-0.01 0.1042,-0.02 0.1536,-0.027 0.1879,-0.027 0.3973,-0.061 0.5847,-0.1032 0.063,-0.013 0.1229,-0.017 0.1844,-0.032 0.1743,-0.044 0.3391,-0.097 0.5126,-0.1535 0.067,-0.025 0.1431,-0.042 0.211,-0.066 0.1724,-0.062 0.3368,-0.1417 0.5014,-0.2155 0.068,-0.036 0.1348,-0.066 0.2046,-0.1 0.1591,-0.077 0.3135,-0.1534 0.4653,-0.2407 l 0.2048,-0.099 c 0.059,-0.036 0.1079,-0.091 0.168,-0.1253 l 79.6597,-46.0007 c 0.097,-0.05 0.1964,-0.093 0.2914,-0.1467 0.1649,-0.095 0.3303,-0.2027 0.485,-0.3078 0.06,-0.037 0.1133,-0.082 0.1681,-0.1253 0.2064,-0.1484 0.3944,-0.3179 0.5791,-0.4859 0.1509,-0.1266 0.3017,-0.2531 0.4379,-0.3949 0.3787,-0.3922 0.7001,-0.8281 0.9796,-1.2833 0.092,-0.1506 0.1865,-0.3027 0.2677,-0.4598 0.031,-0.059 0.067,-0.1162 0.096,-0.1758 0.2546,-0.522 0.4428,-1.0595 0.5703,-1.6239 0.035,-0.1413 0.06,-0.2831 0.085,-0.4268 0.017,-0.098 0.034,-0.1937 0.042,-0.2935 0.031,-0.2443 0.023,-0.4854 0.029,-0.7349 0.01,-0.2414 0.015,-0.4874 0,-0.7297 10e-4,-0.014 -0.01,-0.024 -0.01,-0.031 -0.01,-0.1268 -0.018,-0.2471 -0.035,-0.3747 -0.03,-0.2419 -0.07,-0.4678 -0.1248,-0.7079 z"
       style="fill:#000000;fill-opacity:1;stroke:none"
       inkscape:connector-curvature="0" />
    <path
       inkscape:connector-curvature="0"
       style="fill:#000000;fill-opacity:1;stroke:none"
       d="m 718.59783,289.429 c -0.1301,-0.0996 -0.2651,-0.20647 -0.4029,-0.29738 -0.1904,-0.12569 -0.403,-0.23704 -0.6073,-0.34599 -0.1122,-0.0603 -0.2308,-0.11371 -0.3476,-0.16902 -0.2089,-0.0995 -0.4086,-0.19873 -0.6233,-0.27796 -0.2456,-0.0903 -0.5003,-0.15872 -0.7515,-0.2225 -0.1473,-0.0365 -0.3032,-0.0657 -0.452,-0.0932 -0.1661,-0.0303 -0.3298,-0.0701 -0.4955,-0.0904 -0.038,-0.003 -0.075,-0.009 -0.1122,-0.0129 -0.1374,-0.0139 -0.2872,-0.0226 -0.424,-0.0294 -0.202,-0.01 -0.3983,-0.0212 -0.6001,-0.0141 -0.044,0.002 -0.089,0.009 -0.132,0.0115 -0.086,0.004 -0.1772,0.0154 -0.2642,0.0229 -0.2043,0.0182 -0.3917,0.0393 -0.5925,0.0738 -0.1727,0.0287 -0.3299,0.069 -0.5003,0.11081 -0.027,0.01 -0.06,5.2e-4 -0.089,0.007 -0.1788,0.0443 -0.3403,0.12377 -0.517,0.17742 -0.091,0.0335 -0.1895,0.0572 -0.2803,0.0915 -0.056,0.0225 -0.1174,0.0319 -0.171,0.0625 -0.2059,0.0853 -0.3987,0.17287 -0.5972,0.27376 -0.1328,0.067 -0.253,0.13525 -0.3807,0.21107 -0.1877,0.11054 -0.3661,0.23022 -0.5453,0.35836 -0.019,0.0156 -0.045,0.0165 -0.066,0.0241 -0.089,0.0613 -0.1612,0.13528 -0.2505,0.19711 -0.1914,0.14754 -0.3828,0.30168 -0.5589,0.46898 -0.022,0.005 -0.033,0.0274 -0.041,0.0476 -0.082,0.0818 -0.1658,0.15742 -0.2455,0.2426 -0.091,0.0973 -0.1745,0.20778 -0.2616,0.31088 -0.072,0.0867 -0.1524,0.17356 -0.2215,0.26289 l -59.257,70.61956 -0.1406,0.16765 c -0.1611,0.19254 -0.3149,0.38296 -0.4578,0.59491 -0.1012,0.1502 -0.2017,0.28807 -0.2939,0.44712 -0.038,0.0659 -0.056,0.14073 -0.092,0.20804 -0.082,0.16296 -0.1718,0.32382 -0.2455,0.48735 -0.1049,0.23203 -0.1909,0.47239 -0.2706,0.71132 -0.021,0.0617 -0.054,0.12209 -0.072,0.18423 -0.069,0.22528 -0.1162,0.45152 -0.1625,0.67967 -0.043,0.18833 -0.082,0.3736 -0.1095,0.56325 -0.01,0.0505 0,0.10525 -0.01,0.15601 -0.021,0.19067 -0.033,0.38954 -0.038,0.57992 0,0.22052 -1e-4,0.44432 0.014,0.66426 0.01,0.0367 -0.013,0.0747 -0.01,0.11251 0,0.0285 -6e-4,0.0593 0.01,0.0879 0.016,0.19487 0.066,0.37527 0.09,0.56906 0.029,0.1622 0.046,0.32034 0.085,0.48081 0.027,0.0998 0.046,0.204 0.071,0.30439 0.018,0.0505 0.018,0.10205 0.037,0.1521 0.1152,0.38559 0.2752,0.75075 0.4522,1.11384 0.038,0.0846 0.068,0.17388 0.1111,0.25645 0.091,0.17686 0.2055,0.3359 0.3102,0.50526 0.148,0.23044 0.3277,0.4515 0.5019,0.66599 0.1396,0.17099 0.2875,0.33336 0.4424,0.49362 0.1651,0.17004 0.3271,0.35442 0.5105,0.50994 0.011,0.018 0.032,0.0269 0.048,0.0407 0.056,0.0471 0.1292,0.0717 0.1878,0.11615 0.084,0.0668 0.1541,0.13884 0.2395,0.20089 0.06,0.0432 0.1261,0.0744 0.1877,0.1163 0.1484,0.10107 0.2937,0.20471 0.4473,0.29363 l 0.2796,0.15285 27.4499,15.85404 c 0.061,0.0374 0.1253,0.0808 0.188,0.11638 0.6122,0.35352 1.2584,0.61988 1.9098,0.78666 0.07,0.0146 0.1359,0.0331 0.204,0.0487 0.18,0.0408 0.3589,0.0582 0.5399,0.0861 0.06,0.008 0.1195,0.0212 0.1797,0.0286 0.1895,0.0232 0.3705,0.0529 0.5599,0.0618 0.051,0.002 0.1061,0.008 0.156,0.008 0.1979,0.006 0.3995,-0.0198 0.5964,-0.0301 0.044,-0.003 0.087,-0.008 0.1319,-0.0115 0.1953,-0.014 0.3796,-0.0213 0.5724,-0.05 0.044,-0.006 0.089,-0.005 0.132,-0.0115 0.064,-0.0106 0.1324,-0.0276 0.1963,-0.0395 0.1765,-0.0345 0.3479,-0.0872 0.5205,-0.13416 0.1862,-0.0491 0.3592,-0.0945 0.5407,-0.15838 0.043,-0.0148 0.084,-0.042 0.1272,-0.0572 0.1825,-0.067 0.3785,-0.14837 0.5569,-0.2262 0.044,-0.0158 0.088,-0.0321 0.1272,-0.0571 0.1765,-0.0868 0.3391,-0.16574 0.5091,-0.2662 0.034,-0.0283 0.066,-0.0551 0.1048,-0.0749 0.1622,-0.0995 0.3267,-0.21799 0.4811,-0.3306 0.04,-0.0336 0.082,-0.0688 0.1221,-0.10245 0.1523,-0.11472 0.3136,-0.22269 0.457,-0.35085 10e-4,-0.0142 0.01,-0.0217 0.024,-0.0206 0.1737,-0.15873 0.3278,-0.31159 0.4897,-0.4866 0.032,-0.0399 0.067,-0.0823 0.1004,-0.11945 0.1265,-0.14142 0.2651,-0.30208 0.3815,-0.45486 0.04,-0.0505 0.083,-0.092 0.1207,-0.14307 0.1052,-0.14571 0.1974,-0.29225 0.294,-0.44708 0.035,-0.0623 0.083,-0.12414 0.1193,-0.18621 0.092,-0.1583 0.1668,-0.32499 0.2455,-0.48733 0.029,-0.0713 0.061,-0.13725 0.092,-0.20812 0.072,-0.16127 0.1416,-0.31905 0.2017,-0.48346 l 0.093,-0.20754 c 0.022,-0.0655 0.024,-0.13904 0.048,-0.20396 l 31.4541,-86.44283 c 0.043,-0.10091 0.091,-0.19751 0.129,-0.2997 0.065,-0.17874 0.1227,-0.36756 0.1737,-0.54756 0.022,-0.0667 0.034,-0.13562 0.048,-0.20402 0.063,-0.24631 0.098,-0.49702 0.1313,-0.74443 0.034,-0.19398 0.068,-0.38784 0.082,-0.58399 0.038,-0.5439 0,-1.08438 -0.074,-1.61275 -0.026,-0.17476 -0.052,-0.35179 -0.091,-0.52429 -0.014,-0.0651 -0.024,-0.13202 -0.039,-0.19632 -0.1405,-0.56355 -0.3418,-1.09629 -0.6069,-1.6106 -0.064,-0.13055 -0.136,-0.2555 -0.209,-0.38185 -0.05,-0.0862 -0.098,-0.17036 -0.1567,-0.25157 -0.1334,-0.20701 -0.2947,-0.38636 -0.4501,-0.58167 -0.1498,-0.18942 -0.302,-0.38288 -0.4706,-0.5577 -0.01,-0.0114 -0.02,-0.0145 -0.025,-0.0192 -0.089,-0.0906 -0.1729,-0.17746 -0.2673,-0.26486 -0.1788,-0.16576 -0.3545,-0.31316 -0.5507,-0.46202 z"
       id="path4372" />
  </g>
</svg>
