<?xml version="1.0" encoding="UTF-8" standalone="no"?>
<!-- Created with Inkscape (http://www.inkscape.org/) -->

<svg
   xmlns:dc="http://purl.org/dc/elements/1.1/"
   xmlns:cc="http://creativecommons.org/ns#"
   xmlns:rdf="http://www.w3.org/1999/02/22-rdf-syntax-ns#"
   xmlns:svg="http://www.w3.org/2000/svg"
   xmlns="http://www.w3.org/2000/svg"
   xmlns:sodipodi="http://sodipodi.sourceforge.net/DTD/sodipodi-0.dtd"
   xmlns:inkscape="http://www.inkscape.org/namespaces/inkscape"
   width="1000"
   height="1000"
   id="svg16419"
   version="1.1"
   inkscape:version="0.48.2 r9819"
   sodipodi:docname="Rain-thin.svg">
  <defs
     id="defs16421" />
  <sodipodi:namedview
     id="base"
     pagecolor="#ffffff"
     bordercolor="#666666"
     borderopacity="1.0"
     inkscape:pageopacity="0.0"
     inkscape:pageshadow="2"
     inkscape:zoom="0.3535534"
     inkscape:cx="94.162196"
     inkscape:cy="620.48064"
     inkscape:document-units="px"
     inkscape:current-layer="g26964"
     showgrid="false"
     inkscape:snap-grids="true"
     inkscape:window-width="1218"
     inkscape:window-height="756"
     inkscape:window-x="62"
     inkscape:window-y="0"
     inkscape:window-maximized="1"
     inkscape:snap-bbox="false"
     inkscape:object-nodes="false"
     showguides="true"
     inkscape:guide-bbox="true">
    <inkscape:grid
       type="xygrid"
       id="grid16427"
       empspacing="10"
       visible="true"
       enabled="true"
       snapvisiblegridlinesonly="true" />
  </sodipodi:namedview>
  <metadata
     id="metadata16424">
    <rdf:RDF>
      <cc:Work
         rdf:about="">
        <dc:format>image/svg+xml</dc:format>
        <dc:type
           rdf:resource="http://purl.org/dc/dcmitype/StillImage" />
        <dc:title />
      </cc:Work>
    </rdf:RDF>
  </metadata>
  <g
     inkscape:label="Layer 1"
     inkscape:groupmode="layer"
     id="layer1"
     transform="translate(0,-52.36218)">
    <g
       id="g26964"
       transform="translate(744.75,178.20426)">
      <path
         style="fill:#000000;fill-opacity:1;stroke:none"
         d="m 597.5,647.5 c -9.66498,0 -17.5,7.83502 -17.5,17.5 0,25.83333 0,51.66667 0,77.5 0,9.66498 7.83502,17.5 17.5,17.5 9.66498,0 17.5,-7.83502 17.5,-17.5 0,-25.83333 0,-51.66667 0,-77.5 0,-9.66498 -7.83502,-17.5 -17.5,-17.5 z"
         transform="translate(-744.75,-125.84208)"
         id="path3175"
         inkscape:connector-curvature="0"
         sodipodi:nodetypes="sccsccs" />
      <path
         style="fill:#000000;fill-opacity:1;stroke:none"
         d="m 597.5,485 c -9.66498,0 -17.5,7.83502 -17.5,17.5 0,25.83333 0,51.66667 0,77.5 0,9.66498 7.83502,17.5 17.5,17.5 9.66498,0 17.5,-7.83502 17.5,-17.5 0,-25.83333 0,-51.66667 0,-77.5 0,-9.66498 -7.83502,-17.5 -17.5,-17.5 z"
         transform="translate(-744.75,-125.84208)"
         id="path3199"
         inkscape:connector-curvature="0"
         sodipodi:nodetypes="sccsccs" />
      <path
         style="fill:#000000;fill-opacity:1;stroke:none"
         d="m 500,687.5 c -9.66498,0 -17.5,7.83502 -17.5,17.5 0,25.83333 0,51.66667 0,77.5 0,9.66498 7.83502,17.5 17.5,17.5 9.66498,0 17.5,-7.83502 17.5,-17.5 0,-25.83333 0,-51.66667 0,-77.5 0,-9.66498 -7.83502,-17.5 -17.5,-17.5 z"
         transform="translate(-744.75,-125.84208)"
         id="path3180"
         inkscape:connector-curvature="0"
         sodipodi:nodetypes="sccsccs" />
      <path
         style="fill:#000000;fill-opacity:1;stroke:none"
         d="m 402.5,647.5 c -9.66498,0 -17.5,7.83502 -17.5,17.5 0,25.83333 0,51.66667 0,77.5 0,9.66498 7.83502,17.5 17.5,17.5 9.66498,0 17.5,-7.83502 17.5,-17.5 0,-25.83333 0,-51.66667 0,-77.5 0,-9.66498 -7.83502,-17.5 -17.5,-17.5 z"
         transform="translate(-744.75,-125.84208)"
         id="path3185"
         inkscape:connector-curvature="0"
         sodipodi:nodetypes="sccsccs" />
      <path
         style="fill:#000000;fill-opacity:1;stroke:none"
         d="m 500,525 c -9.66498,0 -17.5,7.83502 -17.5,17.5 0,25.83333 0,51.66667 0,77.5 0,9.66498 7.83502,17.5 17.5,17.5 9.66498,0 17.5,-7.83502 17.5,-17.5 0,-25.83333 0,-51.66667 0,-77.5 0,-9.66498 -7.83502,-17.5 -17.5,-17.5 z"
         transform="translate(-744.75,-125.84208)"
         id="path3204"
         inkscape:connector-curvature="0"
         sodipodi:nodetypes="sccsccs" />
      <path
         style="fill:#000000;fill-opacity:1;stroke:none"
         d="M 500 200 C 425.15803 200 359.91557 241.09928 325.625 301.96875 C 254.37404 313.61145 200 375.45637 200 450 C 200 528.63295 260.50635 593.11708 337.5 599.46875 L 337.5 564.3125 C 279.86993 558.08061 235 509.28636 235 450 C 235 387.05139 285.57871 335.93469 348.3125 335.03125 C 373.53943 276.21453 431.94712 235 500 235 C 574.13066 235 636.84164 283.89482 657.65625 351.1875 C 631.54671 354.81113 608.01033 366.504 589.65625 383.65625 L 614.4375 408.4375 C 630.42777 393.87572 651.66884 385 675 385 C 724.70563 385 765 425.29437 765 475 C 765 524.70563 724.70563 565 675 565 L 662.5 565 L 662.5 600 L 675 600 C 744.03559 600 800 544.03559 800 475 C 800 412.44711 754.04833 360.61835 694.0625 351.4375 C 672.35838 264.45621 593.70285 200 500 200 z "
         transform="translate(-744.75,-125.84208)"
         id="path7981" />
      <path
         style="fill:#000000;fill-opacity:1;stroke:none"
         d="m 402.5,485 c -9.66498,0 -17.5,7.83502 -17.5,17.5 0,25.83333 0,51.66667 0,77.5 0,9.66498 7.83502,17.5 17.5,17.5 9.66498,0 17.5,-7.83502 17.5,-17.5 0,-25.83333 0,-51.66667 0,-77.5 0,-9.66498 -7.83502,-17.5 -17.5,-17.5 z"
         transform="translate(-744.75,-125.84208)"
         id="path3209"
         inkscape:connector-curvature="0"
         sodipodi:nodetypes="sccsccs" />
    </g>
  </g>
</svg>
