<?xml version="1.0" encoding="UTF-8" standalone="no"?>
<!-- Created with Inkscape (http://www.inkscape.org/) -->

<svg
   xmlns:dc="http://purl.org/dc/elements/1.1/"
   xmlns:cc="http://creativecommons.org/ns#"
   xmlns:rdf="http://www.w3.org/1999/02/22-rdf-syntax-ns#"
   xmlns:svg="http://www.w3.org/2000/svg"
   xmlns="http://www.w3.org/2000/svg"
   xmlns:sodipodi="http://sodipodi.sourceforge.net/DTD/sodipodi-0.dtd"
   xmlns:inkscape="http://www.inkscape.org/namespaces/inkscape"
   width="1000"
   height="1000"
   id="svg16419"
   version="1.1"
   inkscape:version="0.48.2 r9819"
   sodipodi:docname="Snow-thin.svg">
  <defs
     id="defs16421" />
  <sodipodi:namedview
     id="base"
     pagecolor="#ffffff"
     bordercolor="#666666"
     borderopacity="1.0"
     inkscape:pageopacity="0.0"
     inkscape:pageshadow="2"
     inkscape:zoom="0.25000001"
     inkscape:cx="-87.164891"
     inkscape:cy="943.66291"
     inkscape:document-units="px"
     inkscape:current-layer="layer1"
     showgrid="false"
     inkscape:snap-grids="true"
     inkscape:window-width="1218"
     inkscape:window-height="756"
     inkscape:window-x="62"
     inkscape:window-y="0"
     inkscape:window-maximized="1"
     inkscape:snap-bbox="false"
     inkscape:object-nodes="false"
     showguides="true"
     inkscape:guide-bbox="true">
    <inkscape:grid
       type="xygrid"
       id="grid16427"
       empspacing="10"
       visible="true"
       enabled="true"
       snapvisiblegridlinesonly="true" />
  </sodipodi:namedview>
  <metadata
     id="metadata16424">
    <rdf:RDF>
      <cc:Work
         rdf:about="">
        <dc:format>image/svg+xml</dc:format>
        <dc:type
           rdf:resource="http://purl.org/dc/dcmitype/StillImage" />
        <dc:title />
      </cc:Work>
    </rdf:RDF>
  </metadata>
  <g
     inkscape:label="Layer 1"
     inkscape:groupmode="layer"
     id="layer1"
     transform="translate(0,-52.36218)">
    <path
       style="fill:#000000;fill-opacity:1;stroke:none"
       d="M 500 200 C 425.15803 200 359.91557 241.09928 325.625 301.96875 C 254.37404 313.61145 200 375.45637 200 450 C 200 531.1695 264.47189 597.2688 345 599.90625 L 345 564.875 C 283.8117 562.25204 235 511.83403 235 450 C 235 387.05139 285.57871 335.93469 348.3125 335.03125 C 373.53943 276.21453 431.94712 235 500 235 C 574.13066 235 636.84164 283.89482 657.65625 351.1875 C 631.54671 354.81113 608.01033 366.504 589.65625 383.65625 L 614.4375 408.4375 C 630.42777 393.87572 651.66884 385 675 385 C 724.70563 385 765 425.29437 765 475 C 765 524.70563 724.70563 565 675 565 L 655 565 L 655 600 L 675 600 C 744.03559 600 800 544.03559 800 475 C 800 412.44711 754.04833 360.61835 694.0625 351.4375 C 672.35838 264.45621 593.70285 200 500 200 z "
       transform="translate(0,52.36218)"
       id="path7981" />
    <g
       id="g3425">
      <path
         id="rect8152"
         transform="translate(0,52.36218)"
         d="M 561.6875 689.84375 C 557.54536 689.84375 554.1875 693.20161 554.1875 697.34375 C 554.1875 701.48589 557.54536 704.84375 561.6875 704.84375 L 686.6875 704.84375 C 690.82964 704.84375 694.1875 701.48589 694.1875 697.34375 C 694.1875 693.20161 690.82964 689.84375 686.6875 689.84375 L 561.6875 689.84375 z "
         style="fill:#000000;fill-opacity:1;stroke:none" />
      <path
         inkscape:connector-curvature="0"
         style="fill:#000000;fill-opacity:1;stroke:none"
         d="m 586.44231,800.08252 c -2.07107,3.5872 -0.84201,8.17412 2.74519,10.24519 3.5872,2.07107 8.17412,0.84201 10.24519,-2.74519 l 62.5,-108.25318 c 2.07107,-3.5872 0.84201,-8.17412 -2.74519,-10.24519 -3.5872,-2.07107 -8.17412,-0.84201 -10.24519,2.74519 l -62.5,108.25318 z"
         id="path3421" />
      <path
         id="path3423"
         d="m 648.94231,807.58252 c 2.07107,3.5872 6.65799,4.81626 10.24519,2.74519 3.5872,-2.07107 4.81626,-6.65799 2.74519,-10.24519 l -62.5,-108.25318 c -2.07107,-3.5872 -6.65799,-4.81626 -10.24519,-2.74519 -3.5872,2.07107 -4.81626,6.65799 -2.74519,10.24519 l 62.5,108.25318 z"
         style="fill:#000000;fill-opacity:1;stroke:none"
         inkscape:connector-curvature="0" />
    </g>
    <g
       id="g3430"
       transform="matrix(0.98480776,0.17364818,-0.17364818,0.98480776,-99.76251,-59.591542)">
      <path
         style="fill:#000000;fill-opacity:1;stroke:none"
         d="m 561.6875,689.84375 c -4.14214,0 -7.5,3.35786 -7.5,7.5 0,4.14214 3.35786,7.5 7.5,7.5 l 125,0 c 4.14214,0 7.5,-3.35786 7.5,-7.5 0,-4.14214 -3.35786,-7.5 -7.5,-7.5 l -125,0 z"
         transform="translate(0,52.36218)"
         id="path3432"
         inkscape:connector-curvature="0" />
      <path
         id="path3434"
         d="m 586.44231,800.08252 c -2.07107,3.5872 -0.84201,8.17412 2.74519,10.24519 3.5872,2.07107 8.17412,0.84201 10.24519,-2.74519 l 62.5,-108.25318 c 2.07107,-3.5872 0.84201,-8.17412 -2.74519,-10.24519 -3.5872,-2.07107 -8.17412,-0.84201 -10.24519,2.74519 l -62.5,108.25318 z"
         style="fill:#000000;fill-opacity:1;stroke:none"
         inkscape:connector-curvature="0" />
      <path
         inkscape:connector-curvature="0"
         style="fill:#000000;fill-opacity:1;stroke:none"
         d="m 648.94231,807.58252 c 2.07107,3.5872 6.65799,4.81626 10.24519,2.74519 3.5872,-2.07107 4.81626,-6.65799 2.74519,-10.24519 l -62.5,-108.25318 c -2.07107,-3.5872 -6.65799,-4.81626 -10.24519,-2.74519 -3.5872,2.07107 -4.81626,6.65799 -2.74519,10.24519 l 62.5,108.25318 z"
         id="path3436" />
    </g>
    <g
       transform="matrix(0.98480776,-0.17364818,0.17364818,0.98480776,-244.89005,-23.35767)"
       id="g3438">
      <path
         inkscape:connector-curvature="0"
         id="path3440"
         transform="translate(0,52.36218)"
         d="m 561.6875,689.84375 c -4.14214,0 -7.5,3.35786 -7.5,7.5 0,4.14214 3.35786,7.5 7.5,7.5 l 125,0 c 4.14214,0 7.5,-3.35786 7.5,-7.5 0,-4.14214 -3.35786,-7.5 -7.5,-7.5 l -125,0 z"
         style="fill:#000000;fill-opacity:1;stroke:none" />
      <path
         inkscape:connector-curvature="0"
         style="fill:#000000;fill-opacity:1;stroke:none"
         d="m 586.44231,800.08252 c -2.07107,3.5872 -0.84201,8.17412 2.74519,10.24519 3.5872,2.07107 8.17412,0.84201 10.24519,-2.74519 l 62.5,-108.25318 c 2.07107,-3.5872 0.84201,-8.17412 -2.74519,-10.24519 -3.5872,-2.07107 -8.17412,-0.84201 -10.24519,2.74519 l -62.5,108.25318 z"
         id="path3442" />
      <path
         id="path3444"
         d="m 648.94231,807.58252 c 2.07107,3.5872 6.65799,4.81626 10.24519,2.74519 3.5872,-2.07107 4.81626,-6.65799 2.74519,-10.24519 l -62.5,-108.25318 c -2.07107,-3.5872 -6.65799,-4.81626 -10.24519,-2.74519 -3.5872,2.07107 -4.81626,6.65799 -2.74519,10.24519 l 62.5,108.25318 z"
         style="fill:#000000;fill-opacity:1;stroke:none"
         inkscape:connector-curvature="0" />
    </g>
  </g>
</svg>
