<?xml version="1.0" encoding="UTF-8" standalone="no"?>
<!-- Created with Inkscape (http://www.inkscape.org/) -->

<svg
   xmlns:dc="http://purl.org/dc/elements/1.1/"
   xmlns:cc="http://creativecommons.org/ns#"
   xmlns:rdf="http://www.w3.org/1999/02/22-rdf-syntax-ns#"
   xmlns:svg="http://www.w3.org/2000/svg"
   xmlns="http://www.w3.org/2000/svg"
   xmlns:sodipodi="http://sodipodi.sourceforge.net/DTD/sodipodi-0.dtd"
   xmlns:inkscape="http://www.inkscape.org/namespaces/inkscape"
   width="1000"
   height="1000"
   id="svg16419"
   version="1.1"
   inkscape:version="0.48.2 r9819"
   sodipodi:docname="Snow.svg">
  <defs
     id="defs16421" />
  <sodipodi:namedview
     id="base"
     pagecolor="#ffffff"
     bordercolor="#666666"
     borderopacity="1.0"
     inkscape:pageopacity="0.0"
     inkscape:pageshadow="2"
     inkscape:zoom="0.35355339"
     inkscape:cx="334.73574"
     inkscape:cy="611.50929"
     inkscape:document-units="px"
     inkscape:current-layer="layer1"
     showgrid="false"
     inkscape:snap-grids="true"
     inkscape:window-width="1218"
     inkscape:window-height="756"
     inkscape:window-x="62"
     inkscape:window-y="0"
     inkscape:window-maximized="1"
     inkscape:snap-bbox="false"
     inkscape:object-nodes="false"
     showguides="true"
     inkscape:guide-bbox="true">
    <inkscape:grid
       type="xygrid"
       id="grid16427"
       empspacing="10"
       visible="true"
       enabled="true"
       snapvisiblegridlinesonly="true" />
  </sodipodi:namedview>
  <metadata
     id="metadata16424">
    <rdf:RDF>
      <cc:Work
         rdf:about="">
        <dc:format>image/svg+xml</dc:format>
        <dc:type
           rdf:resource="http://purl.org/dc/dcmitype/StillImage" />
        <dc:title />
      </cc:Work>
    </rdf:RDF>
  </metadata>
  <g
     inkscape:label="Layer 1"
     inkscape:groupmode="layer"
     id="layer1"
     transform="translate(0,-52.36218)">
    <g
       id="g3280"
       transform="matrix(0.98480776,0.17364818,-0.17364818,0.98480776,-99.833177,-59.575745)">
      <path
         style="fill:#000000;fill-opacity:1;stroke:none"
         d="m 566.6875,684.4375 c -6.90356,0 -12.5,5.59644 -12.5,12.5 0,6.90356 5.59644,12.5 12.5,12.5 l 115,0 c 6.90356,0 12.5,-5.59644 12.5,-12.5 0,-6.90356 -5.59644,-12.5 -12.5,-12.5 l -115,0 z"
         transform="translate(0,52.36218)"
         id="path3282"
         inkscape:connector-curvature="0" />
      <path
         id="path3284"
         d="m 584.61218,792.84614 c -3.45178,5.97866 -1.40334,13.62354 4.57532,17.07532 5.97866,3.45178 13.62354,1.40334 17.07532,-4.57532 l 57.5,-99.59292 c 3.45178,-5.97866 1.40334,-13.62354 -4.57532,-17.07532 -5.97866,-3.45178 -13.62354,-1.40334 -17.07532,4.57532 l -57.5,99.59292 z"
         style="fill:#000000;fill-opacity:1;stroke:none"
         inkscape:connector-curvature="0" />
      <path
         inkscape:connector-curvature="0"
         style="fill:#000000;fill-opacity:1;stroke:none"
         d="m 642.11218,805.34614 c 3.45178,5.97866 11.09666,8.0271 17.07532,4.57532 5.97866,-3.45178 8.0271,-11.09666 4.57532,-17.07532 l -57.5,-99.59292 c -3.45178,-5.97866 -11.09666,-8.0271 -17.07532,-4.57532 -5.97866,3.45178 -8.0271,11.09666 -4.57532,17.07532 l 57.5,99.59292 z"
         id="path3286" />
    </g>
    <path
       inkscape:connector-curvature="0"
       id="path16429-7"
       d="m 500,252.36218 c -74.84197,0 -140.08443,41.09928 -174.375,101.96875 C 254.37404,365.97363 200,427.81855 200,502.36218 c 0,81.1695 64.47189,147.2688 145,149.90625 l 0,-50.03125 c -52.91012,-2.60028 -95,-46.31987 -95,-99.875 0,-55.22847 44.77153,-100 100,-100 2.83359,0 5.63235,0.11267 8.40625,0.34375 C 378.90013,344.26578 434.55994,302.36218 500,302.36218 c 66.86105,0 123.47712,43.75692 142.84375,104.1875 -20.1899,5.3581 -38.37631,15.6274 -53.1875,29.46875 l 35.40625,35.40625 c 13.26274,-11.84864 30.75346,-19.0625 49.9375,-19.0625 41.42136,0 75,33.57864 75,75 0,41.42136 -33.57864,75 -75,75 l -20,0 0,50 20,0 c 69.03559,0 125,-55.96441 125,-125 C 800,464.80929 754.04833,412.98053 694.0625,403.79968 672.35838,316.81839 593.70285,252.36218 500,252.36218 z"
       style="fill:#000000;fill-opacity:1;stroke:none" />
    <g
       id="g3275">
      <path
         id="rect6128"
         transform="translate(0,52.36218)"
         d="M 566.6875 684.4375 C 559.78394 684.4375 554.1875 690.03394 554.1875 696.9375 C 554.1875 703.84106 559.78394 709.4375 566.6875 709.4375 L 681.6875 709.4375 C 688.59106 709.4375 694.1875 703.84106 694.1875 696.9375 C 694.1875 690.03394 688.59106 684.4375 681.6875 684.4375 L 566.6875 684.4375 z "
         style="fill:#000000;fill-opacity:1;stroke:none" />
      <path
         inkscape:connector-curvature="0"
         style="fill:#000000;fill-opacity:1;stroke:none"
         d="m 584.61218,792.84614 c -3.45178,5.97866 -1.40334,13.62354 4.57532,17.07532 5.97866,3.45178 13.62354,1.40334 17.07532,-4.57532 l 57.5,-99.59292 c 3.45178,-5.97866 1.40334,-13.62354 -4.57532,-17.07532 -5.97866,-3.45178 -13.62354,-1.40334 -17.07532,4.57532 l -57.5,99.59292 z"
         id="path3265" />
      <path
         id="path3267"
         d="m 642.11218,805.34614 c 3.45178,5.97866 11.09666,8.0271 17.07532,4.57532 5.97866,-3.45178 8.0271,-11.09666 4.57532,-17.07532 l -57.5,-99.59292 c -3.45178,-5.97866 -11.09666,-8.0271 -17.07532,-4.57532 -5.97866,3.45178 -8.0271,11.09666 -4.57532,17.07532 l 57.5,99.59292 z"
         style="fill:#000000;fill-opacity:1;stroke:none"
         inkscape:connector-curvature="0" />
    </g>
    <g
       id="g3294"
       transform="matrix(0.98480776,-0.17364818,0.17364818,0.98480776,-242.32181,-23.345612)">
      <path
         style="fill:#000000;fill-opacity:1;stroke:none"
         d="m 566.6875,684.4375 c -6.90356,0 -12.5,5.59644 -12.5,12.5 0,6.90356 5.59644,12.5 12.5,12.5 l 115,0 c 6.90356,0 12.5,-5.59644 12.5,-12.5 0,-6.90356 -5.59644,-12.5 -12.5,-12.5 l -115,0 z"
         transform="translate(0,52.36218)"
         id="path3296"
         inkscape:connector-curvature="0" />
      <path
         id="path3298"
         d="m 584.61218,792.84614 c -3.45178,5.97866 -1.40334,13.62354 4.57532,17.07532 5.97866,3.45178 13.62354,1.40334 17.07532,-4.57532 l 57.5,-99.59292 c 3.45178,-5.97866 1.40334,-13.62354 -4.57532,-17.07532 -5.97866,-3.45178 -13.62354,-1.40334 -17.07532,4.57532 l -57.5,99.59292 z"
         style="fill:#000000;fill-opacity:1;stroke:none"
         inkscape:connector-curvature="0" />
      <path
         inkscape:connector-curvature="0"
         style="fill:#000000;fill-opacity:1;stroke:none"
         d="m 642.11218,805.34614 c 3.45178,5.97866 11.09666,8.0271 17.07532,4.57532 5.97866,-3.45178 8.0271,-11.09666 4.57532,-17.07532 l -57.5,-99.59292 c -3.45178,-5.97866 -11.09666,-8.0271 -17.07532,-4.57532 -5.97866,3.45178 -8.0271,11.09666 -4.57532,17.07532 l 57.5,99.59292 z"
         id="path3300" />
    </g>
  </g>
</svg>
