<?xml version="1.0" encoding="UTF-8" standalone="no"?>
<!-- Created with Inkscape (http://www.inkscape.org/) -->

<svg
   xmlns:dc="http://purl.org/dc/elements/1.1/"
   xmlns:cc="http://creativecommons.org/ns#"
   xmlns:rdf="http://www.w3.org/1999/02/22-rdf-syntax-ns#"
   xmlns:svg="http://www.w3.org/2000/svg"
   xmlns="http://www.w3.org/2000/svg"
   xmlns:sodipodi="http://sodipodi.sourceforge.net/DTD/sodipodi-0.dtd"
   xmlns:inkscape="http://www.inkscape.org/namespaces/inkscape"
   width="1000"
   height="1000"
   id="svg16419"
   version="1.1"
   inkscape:version="0.48.2 r9819"
   sodipodi:docname="Storm-thin.svg">
  <defs
     id="defs16421" />
  <sodipodi:namedview
     id="base"
     pagecolor="#ffffff"
     bordercolor="#666666"
     borderopacity="1.0"
     inkscape:pageopacity="0.0"
     inkscape:pageshadow="2"
     inkscape:zoom="0.3535534"
     inkscape:cx="164.92273"
     inkscape:cy="374.74431"
     inkscape:document-units="px"
     inkscape:current-layer="g35573"
     showgrid="false"
     inkscape:snap-grids="true"
     inkscape:window-width="1218"
     inkscape:window-height="756"
     inkscape:window-x="62"
     inkscape:window-y="0"
     inkscape:window-maximized="0"
     inkscape:snap-bbox="false"
     inkscape:object-nodes="false"
     showguides="true"
     inkscape:guide-bbox="true">
    <inkscape:grid
       type="xygrid"
       id="grid16427"
       empspacing="10"
       visible="true"
       enabled="true"
       snapvisiblegridlinesonly="true" />
  </sodipodi:namedview>
  <metadata
     id="metadata16424">
    <rdf:RDF>
      <cc:Work
         rdf:about="">
        <dc:format>image/svg+xml</dc:format>
        <dc:type
           rdf:resource="http://purl.org/dc/dcmitype/StillImage" />
        <dc:title />
      </cc:Work>
    </rdf:RDF>
  </metadata>
  <g
     inkscape:label="Layer 1"
     inkscape:groupmode="layer"
     id="layer1"
     transform="translate(0,-52.36218)">
    <g
       id="g35573"
       transform="translate(944.75,178.28511)">
      <path
         id="path19438"
         d="m -504.59374,394.07714 -32.81251,122.18751 -6.5625,25 25.62501,0 11.5625,0 -9.6875,35.9375 -12.81251,48.4375 -12.8125,48.4375 35.31251,-35.3125 56.5625,-56.25 0,-0.312 39.6875,-39.375 40,-40 25,-25 -33.125,0 -18.75,0 48.4375,-83.75001 -28.75,0 -48.4375,83.75001 -14.375,25 28.75,0 5.9375,0 -31.5625,31.25 -56.5625,56.25 12.8125,-48.4375 0.312,-0.625 6.875,-25 -26.25,0 -11.25,0 32.5,-122.18751 -25.625,0 z"
         style="fill:#000000;fill-opacity:1;stroke:none"
         inkscape:connector-curvature="0" />
      <path
         id="path7981"
         d="m -444.75,74.07699 c -74.84197,0 -140.08443,41.09928 -174.375,101.96875 -71.25096,11.6427 -125.625,73.48762 -125.625,148.03125 0,81.1695 64.47189,147.2688 145,149.90625 l 0,-35.03125 c -61.1883,-2.62296 -110,-53.04097 -110,-114.875 0,-62.94861 50.57871,-114.06531 113.3125,-114.96875 25.22693,-58.81672 83.63462,-100.03125 151.6875,-100.03125 74.13066,0 136.84164,48.89482 157.65625,116.1875 -26.10954,3.62363 -49.64592,15.3165 -68,32.46875 l 24.78125,24.78125 c 15.99027,-14.56178 37.23134,-23.4375 60.5625,-23.4375 49.70563,0 90,40.29437 90,90 0,49.70563 -40.29437,90 -90,90 l -20,0 0,35 20,0 c 69.03559,0 125,-55.96441 125,-125 0,-62.55289 -45.95167,-114.38165 -105.9375,-123.5625 C -272.39162,138.5332 -351.04715,74.07699 -444.75,74.07699 z"
         style="fill:#000000;fill-opacity:1;stroke:none"
         inkscape:connector-curvature="0" />
    </g>
  </g>
</svg>
