<?xml version="1.0" encoding="UTF-8" standalone="no"?>
<!-- Created with Inkscape (http://www.inkscape.org/) -->

<svg
   xmlns:dc="http://purl.org/dc/elements/1.1/"
   xmlns:cc="http://creativecommons.org/ns#"
   xmlns:rdf="http://www.w3.org/1999/02/22-rdf-syntax-ns#"
   xmlns:svg="http://www.w3.org/2000/svg"
   xmlns="http://www.w3.org/2000/svg"
   xmlns:sodipodi="http://sodipodi.sourceforge.net/DTD/sodipodi-0.dtd"
   xmlns:inkscape="http://www.inkscape.org/namespaces/inkscape"
   width="1000"
   height="1000"
   id="svg16419"
   version="1.1"
   inkscape:version="0.48.2 r9819"
   sodipodi:docname="Sun-thin.svg">
  <defs
     id="defs16421" />
  <sodipodi:namedview
     id="base"
     pagecolor="#ffffff"
     bordercolor="#666666"
     borderopacity="1.0"
     inkscape:pageopacity="0.0"
     inkscape:pageshadow="2"
     inkscape:zoom="0.5"
     inkscape:cx="213.40567"
     inkscape:cy="413.08342"
     inkscape:document-units="px"
     inkscape:current-layer="g6741"
     showgrid="false"
     inkscape:snap-grids="true"
     inkscape:window-width="1218"
     inkscape:window-height="756"
     inkscape:window-x="62"
     inkscape:window-y="0"
     inkscape:window-maximized="1"
     inkscape:snap-bbox="false"
     inkscape:object-nodes="false"
     showguides="true"
     inkscape:guide-bbox="true">
    <inkscape:grid
       type="xygrid"
       id="grid16427"
       empspacing="10"
       visible="true"
       enabled="true"
       snapvisiblegridlinesonly="true" />
  </sodipodi:namedview>
  <metadata
     id="metadata16424">
    <rdf:RDF>
      <cc:Work
         rdf:about="">
        <dc:format>image/svg+xml</dc:format>
        <dc:type
           rdf:resource="http://purl.org/dc/dcmitype/StillImage" />
        <dc:title />
      </cc:Work>
    </rdf:RDF>
  </metadata>
  <g
     inkscape:label="Layer 1"
     inkscape:groupmode="layer"
     id="layer1"
     transform="translate(0,-52.36218)">
    <g
       transform="translate(60.483586,-568.00746)"
       id="g6741">
      <path
         style="fill:#000000;fill-opacity:1;stroke:none"
         d="m 439.51642,960.36963 c -88.36556,0 -160,71.63457 -160,160.00007 0,88.3656 71.63444,160 160,160 88.36556,0 160,-71.6344 160,-160 0,-88.3655 -71.63444,-160.00007 -160,-160.00007 z m 0,35 c 69.03559,0 125,55.96457 125,125.00007 0,69.0356 -55.96441,125 -125,125 -69.03559,0 -125,-55.9644 -125,-125 0,-69.0355 55.96441,-125.00007 125,-125.00007 z"
         id="path8909"
         inkscape:connector-curvature="0" />
      <path
         inkscape:connector-curvature="0"
         style="fill:#000000;fill-opacity:1;stroke:none"
         d="m 389.21955,823.78316 c -0.16363,0.008 -0.33582,0.0123 -0.5,0.0312 -0.22659,0.0261 -0.46093,0.0775 -0.6875,0.125 -0.12523,0.0263 -0.25007,0.0608 -0.375,0.0937 -0.22408,0.058 -0.44093,0.10992 -0.65625,0.1875 -0.24619,0.0887 -0.48543,0.1996 -0.71875,0.3125 -0.13667,0.0661 -0.27441,0.14473 -0.40625,0.21875 -0.14722,0.0828 -0.29767,0.15851 -0.4375,0.25 -0.0311,0.0203 -0.063,0.0417 -0.0937,0.0625 -0.11445,0.0773 -0.23454,0.16708 -0.34375,0.25 -0.16073,0.12279 -0.31869,0.23985 -0.46875,0.375 -0.0328,0.0293 -0.0616,0.0639 -0.0937,0.0937 -0.0637,0.0594 -0.12594,0.12594 -0.1875,0.1875 -0.14506,0.14487 -0.27433,0.28209 -0.40625,0.4375 -0.11391,0.13334 -0.20805,0.26501 -0.3125,0.40625 -0.017,0.0232 -0.0457,0.0392 -0.0625,0.0625 -0.1076,0.14925 -0.18466,0.31148 -0.28125,0.46875 -0.051,0.0827 -0.10856,0.16542 -0.15625,0.25 -0.0296,0.0528 -0.0654,0.10269 -0.0937,0.15625 -0.10461,0.19663 -0.19455,0.38863 -0.28125,0.59375 -0.0578,0.13683 -0.1066,0.26611 -0.15625,0.40625 -0.0729,0.20522 -0.13235,0.41188 -0.1875,0.625 -0.006,0.0223 -0.0257,0.0402 -0.0312,0.0625 -0.026,0.10424 -0.0409,0.20655 -0.0625,0.3125 -0.0486,0.23659 -0.0995,0.4771 -0.125,0.71875 -0.002,0.0203 0.002,0.0421 0,0.0625 -0.0112,0.11555 -0.0254,0.22735 -0.0312,0.34375 -0.007,0.13303 0,0.27143 0,0.40625 3.8e-4,0.11224 -0.005,0.23106 0,0.34375 l 0,92.1875 0,0.21875 c 7.2e-4,0.25092 0.005,0.49565 0.0312,0.75 0.0186,0.17989 0.0306,0.35026 0.0625,0.53125 0.0133,0.0752 0.0471,0.14448 0.0625,0.21875 0.0369,0.17826 0.0763,0.35868 0.125,0.53125 0.0691,0.24519 0.15737,0.48458 0.25,0.71875 0.0238,0.0602 0.0372,0.12805 0.0625,0.1875 0.0922,0.21681 0.20175,0.42033 0.3125,0.625 0.0919,0.16991 0.17726,0.339 0.28125,0.5 0.0278,0.0432 0.0651,0.0825 0.0937,0.125 0.1073,0.15879 0.22525,0.31952 0.34375,0.46875 0.13714,0.17272 0.28588,0.34023 0.4375,0.5 0.0257,0.0271 0.0364,0.0671 0.0625,0.0937 0.0203,0.0208 0.042,0.042 0.0625,0.0625 0.13831,0.13817 0.28915,0.24834 0.4375,0.375 0.12516,0.10703 0.24286,0.2138 0.375,0.3125 0.0829,0.0621 0.16457,0.12888 0.25,0.1875 0.0429,0.0293 0.0815,0.0653 0.125,0.0937 0.33661,0.2206 0.69346,0.3982 1.0625,0.5625 0.0849,0.0377 0.16344,0.0904 0.25,0.125 0.18417,0.0738 0.37213,0.12835 0.5625,0.1875 0.26146,0.0812 0.54114,0.13517 0.8125,0.1875 0.21677,0.0418 0.43435,0.0712 0.65625,0.0937 0.23575,0.0239 0.47844,0.0612 0.71875,0.0625 0.0206,1.6e-4 0.0419,0 0.0625,0 0.0734,-2.1e-4 0.14497,-0.0289 0.21875,-0.0312 0.10667,-0.003 0.20702,0.008 0.3125,0 0.074,-0.005 0.14445,-0.0236 0.21875,-0.0312 0.17886,-0.0181 0.35639,-0.0322 0.53125,-0.0625 l 0.3125,-0.0625 31.21875,-5.5 c 0.0711,-0.0106 0.1477,-0.0185 0.21875,-0.0312 0.69629,-0.12277 1.36242,-0.33407 1.96875,-0.625 0.0634,-0.0306 0.12535,-0.0616 0.1875,-0.0937 0.16419,-0.0844 0.31253,-0.1857 0.46875,-0.28125 0.052,-0.0319 0.10525,-0.0607 0.15625,-0.0937 0.16023,-0.10349 0.31783,-0.19776 0.46875,-0.3125 0.0406,-0.0308 0.0852,-0.0622 0.125,-0.0937 0.15495,-0.12304 0.2934,-0.2719 0.4375,-0.40625 0.0335,-0.0311 0.0609,-0.0621 0.0937,-0.0937 0.1406,-0.13577 0.277,-0.26028 0.40625,-0.40625 0.0289,-0.0326 0.0654,-0.0607 0.0937,-0.0937 0.0422,-0.0494 0.0841,-0.10574 0.125,-0.15625 0.11305,-0.13947 0.21009,-0.29074 0.3125,-0.4375 0.11024,-0.15743 0.21462,-0.30322 0.3125,-0.46875 0.023,-0.039 0.0403,-0.0856 0.0625,-0.125 0.0959,-0.16938 0.19869,-0.35453 0.28125,-0.53125 0.0198,-0.0424 0.0435,-0.0822 0.0625,-0.125 0.08,-0.17973 0.15293,-0.34502 0.21875,-0.53125 0.0145,-0.0409 0.0175,-0.0839 0.0312,-0.125 0.0601,-0.18023 0.10983,-0.37714 0.15625,-0.5625 0.0126,-0.0506 0.0197,-0.10539 0.0312,-0.15625 0.0425,-0.18605 0.0968,-0.37223 0.125,-0.5625 0.002,-0.0103 -10e-4,-0.0209 0,-0.0312 0.0336,-0.23295 0.0511,-0.44944 0.0625,-0.6875 0.003,-0.0507 -0.002,-0.10542 0,-0.15625 0.005,-0.18961 0.01,-0.40182 0,-0.59375 -0.003,-0.0637 0.005,-0.12374 0,-0.1875 -0.0133,-0.17928 -0.0361,-0.35066 -0.0625,-0.53125 -0.0106,-0.0711 -0.0185,-0.1477 -0.0312,-0.21875 -0.0318,-0.18053 -0.0811,-0.35627 -0.125,-0.53125 -0.0189,-0.0745 -0.0412,-0.14435 -0.0625,-0.21875 -0.0481,-0.17045 -0.0971,-0.33544 -0.15625,-0.5 l -0.0625,-0.21875 c -0.0254,-0.0644 -0.0667,-0.12408 -0.0937,-0.1875 l -31.4688,-86.43765 c -0.0324,-0.1047 -0.0569,-0.20985 -0.0937,-0.3125 -0.0651,-0.17885 -0.14194,-0.36054 -0.21875,-0.53125 -0.0287,-0.064 -0.0633,-0.12451 -0.0937,-0.1875 -0.11042,-0.22877 -0.24457,-0.44347 -0.375,-0.65625 -0.1032,-0.16803 -0.19675,-0.34115 -0.3125,-0.5 -0.32062,-0.44096 -0.694,-0.83325 -1.09375,-1.1875 -0.1323,-0.11707 -0.26581,-0.23617 -0.40625,-0.34375 -0.0529,-0.0405 -0.10229,-0.0859 -0.15625,-0.125 -0.46984,-0.34137 -0.96629,-0.6202 -1.5,-0.84375 -0.13354,-0.0563 -0.26885,-0.10758 -0.40625,-0.15625 -0.0939,-0.0333 -0.18599,-0.0642 -0.28125,-0.0937 -0.23513,-0.0728 -0.47419,-0.10646 -0.71875,-0.15625 -0.23659,-0.0486 -0.4771,-0.0995 -0.71875,-0.125 -0.0104,-0.001 -0.0208,10e-4 -0.0312,0 -0.12659,-0.0128 -0.24659,-0.0248 -0.375,-0.0312 -0.2433,-0.0121 -0.47289,-0.012 -0.71875,0 z"
         id="rect8264" />
      <path
         id="path3840"
         d="m 210.34466,925.50139 c -0.12022,0.11129 -0.24934,0.22529 -0.36293,0.34533 -0.15678,0.16567 -0.30329,0.35564 -0.44631,0.53767 -0.079,0.10061 -0.15246,0.20734 -0.22701,0.31286 -0.13438,0.18846 -0.26711,0.36763 -0.38219,0.56547 -0.13158,0.22619 -0.24356,0.46493 -0.34972,0.70139 -0.0622,0.13851 -0.11718,0.28725 -0.1706,0.4287 -0.0596,0.15804 -0.12614,0.31277 -0.17445,0.47273 -0.0108,0.0356 -0.0214,0.0724 -0.0316,0.10814 -0.038,0.13279 -0.0723,0.27875 -0.10263,0.41247 -0.0442,0.19738 -0.09,0.38859 -0.11804,0.58857 -0.006,0.0436 -0.006,0.0885 -0.0115,0.13208 -0.0106,0.0864 -0.0155,0.17743 -0.0231,0.26416 -0.018,0.20422 -0.0288,0.39243 -0.03,0.59628 -0.002,0.17536 0.011,0.33674 0.0217,0.51207 0.002,0.0287 -0.01,0.0594 -0.008,0.088 0.0135,0.1835 0.0588,0.35731 0.0859,0.53987 0.0141,0.0961 0.0232,0.1965 0.041,0.29195 0.0112,0.0595 0.0159,0.12068 0.0286,0.17995 0.0463,0.21787 0.10077,0.42277 0.1662,0.63563 0.0437,0.14199 0.0894,0.27237 0.14144,0.41164 0.0761,0.20407 0.16337,0.40059 0.25811,0.5993 0.01,0.0208 0.006,0.0473 0.0162,0.068 0.0471,0.0965 0.10141,0.18454 0.15299,0.27957 0.11487,0.21246 0.23045,0.42943 0.36625,0.63094 0.0114,0.0169 0.0286,0.031 0.0402,0.0479 0.0657,0.0957 0.12665,0.19051 0.19702,0.28341 0.0802,0.10638 0.17447,0.20793 0.26113,0.31121 0.0724,0.0857 0.14432,0.18053 0.22096,0.26333 l 59.25698,70.61969 0.14061,0.1676 c 0.16184,0.1918 0.32234,0.3766 0.50603,0.5545 0.12992,0.1258 0.24858,0.2486 0.38936,0.3668 0.0585,0.049 0.12897,0.08 0.18849,0.1274 0.14285,0.1128 0.28899,0.2257 0.43724,0.3266 0.21055,0.1434 0.43203,0.27 0.65351,0.3899 0.057,0.031 0.11078,0.074 0.1684,0.1034 0.20996,0.1069 0.42473,0.1923 0.64113,0.2779 0.17965,0.071 0.3537,0.1458 0.53685,0.2023 0.0491,0.015 0.10285,0.021 0.15216,0.036 0.18427,0.053 0.37794,0.1 0.56464,0.1381 0.21607,0.044 0.43769,0.077 0.65653,0.1018 0.0371,0 0.071,0.028 0.10814,0.032 0.0289,0 0.0591,0.01 0.0881,0.01 0.19476,0.017 0.38113,0 0.57619,0.01 0.16467,0 0.32347,0.01 0.48813,0 0.10346,-0.01 0.20891,-0.01 0.31204,-0.017 0.0517,-0.01 0.10441,0 0.15601,-0.01 0.39966,-0.047 0.78718,-0.1407 1.17549,-0.252 0.0893,-0.026 0.18331,-0.036 0.27186,-0.065 0.18852,-0.062 0.36757,-0.1409 0.55143,-0.2179 0.2525,-0.1058 0.50142,-0.2443 0.74293,-0.3786 0.19293,-0.1073 0.37851,-0.2247 0.56298,-0.3501 0.19598,-0.1332 0.40582,-0.2606 0.59077,-0.4141 0.0159,-0.013 0.0321,-0.027 0.0479,-0.04 0.0561,-0.047 0.0925,-0.1153 0.14748,-0.1645 0.0797,-0.071 0.16342,-0.1273 0.23939,-0.2009 0.0532,-0.052 0.0955,-0.1109 0.14748,-0.1645 0.12541,-0.1288 0.25232,-0.2538 0.36679,-0.3894 l 0.19922,-0.2487 20.37961,-24.28032 c 0.0476,-0.0538 0.10123,-0.10914 0.14749,-0.16455 0.45447,-0.54161 0.82894,-1.13166 1.10641,-1.74426 0.0289,-0.0641 0.0564,-0.12776 0.0834,-0.19234 0.0715,-0.1702 0.12004,-0.34315 0.1783,-0.51676 0.0193,-0.0578 0.0416,-0.11419 0.0594,-0.17225 0.0562,-0.18227 0.11636,-0.35579 0.15821,-0.5407 0.0113,-0.0497 0.0253,-0.10239 0.0355,-0.15216 0.0396,-0.19386 0.05,-0.39688 0.074,-0.59243 0.006,-0.0453 0.007,-0.0867 0.0115,-0.13208 0.0204,-0.19438 0.0449,-0.37743 0.0501,-0.57233 0.001,-0.0436 0.0111,-0.0885 0.0115,-0.13208 5.6e-4,-0.065 -0.004,-0.13506 -0.005,-0.20005 -0.003,-0.1795 -0.0259,-0.35776 -0.0418,-0.53601 -0.0167,-0.19146 -0.0305,-0.37024 -0.0619,-0.55996 -0.007,-0.0446 -0.0242,-0.0915 -0.0325,-0.13593 -0.0354,-0.19137 -0.0757,-0.3993 -0.12603,-0.58774 -0.0121,-0.0452 -0.0195,-0.0909 -0.0325,-0.13593 -0.0542,-0.18912 -0.10462,-0.3626 -0.17391,-0.54757 -0.0152,-0.0406 -0.0405,-0.0755 -0.0564,-0.11584 -0.0698,-0.17673 -0.15828,-0.35951 -0.24187,-0.53134 -0.0228,-0.0468 -0.0527,-0.0934 -0.0765,-0.13978 -0.0871,-0.16982 -0.16512,-0.34735 -0.26581,-0.51125 -0.005,-0.009 -0.0146,-0.0151 -0.0201,-0.0239 -0.12401,-0.20003 -0.24977,-0.37712 -0.39403,-0.56683 -0.0307,-0.0405 -0.0689,-0.0798 -0.10044,-0.11969 -0.11806,-0.14846 -0.25095,-0.31397 -0.38166,-0.45484 -0.0433,-0.0468 -0.0759,-0.0978 -0.12052,-0.14363 -0.12541,-0.1288 -0.25306,-0.24541 -0.38936,-0.36679 -0.0538,-0.0476 -0.10914,-0.10123 -0.16455,-0.14749 -0.14042,-0.11783 -0.29116,-0.22076 -0.43723,-0.32661 -0.0624,-0.045 -0.12434,-0.0841 -0.18849,-0.1274 -0.14642,-0.0996 -0.28999,-0.19455 -0.44109,-0.28258 l -0.18848,-0.1274 c -0.0608,-0.033 -0.13086,-0.0522 -0.19234,-0.0834 l -79.66742,-45.98725 c -0.0921,-0.0594 -0.1785,-0.12416 -0.27269,-0.17913 -0.16483,-0.0952 -0.34048,-0.18495 -0.50905,-0.26635 -0.0631,-0.0306 -0.12856,-0.0547 -0.19234,-0.0834 -0.23164,-0.10427 -0.47241,-0.18251 -0.7091,-0.26167 -0.18706,-0.0624 -0.37,-0.13487 -0.56078,-0.18215 -0.52905,-0.13171 -1.06724,-0.19221 -1.60117,-0.20663 -0.1766,-0.005 -0.35543,-0.0101 -0.53216,-0.002 -0.0665,0.003 -0.13358,-5e-5 -0.20005,0.005 -0.57934,0.0405 -1.13887,0.14602 -1.69142,0.31784 -0.13848,0.0427 -0.2751,0.0904 -0.41164,0.14143 -0.0933,0.0349 -0.18375,0.0704 -0.27571,0.10897 -0.22693,0.0953 -0.43168,0.22325 -0.65103,0.34231 -0.21246,0.11487 -0.42943,0.23045 -0.63094,0.36625 -0.009,0.006 -0.0153,0.0142 -0.0239,0.0201 -0.10519,0.0716 -0.20483,0.13951 -0.30735,0.2171 -0.19419,0.14708 -0.36996,0.29479 -0.5506,0.46201 z"
         style="fill:#000000;fill-opacity:1;stroke:none"
         inkscape:connector-curvature="0" />
      <path
         inkscape:connector-curvature="0"
         style="fill:#000000;fill-opacity:1;stroke:none"
         d="m 138.70183,1118.4007 c -0.0206,0.1625 -0.0462,0.3329 -0.056,0.4978 -0.0136,0.2277 -0.004,0.4674 0.004,0.6988 0.004,0.1278 0.0165,0.2568 0.0272,0.3856 0.0182,0.2307 0.0317,0.4533 0.0707,0.6788 0.0446,0.2579 0.11228,0.5127 0.18295,0.7621 0.0414,0.1461 0.0949,0.2954 0.14487,0.4381 0.0559,0.1593 0.10442,0.3206 0.17023,0.4742 0.0146,0.034 0.0301,0.069 0.0453,0.1032 0.0562,0.1261 0.1238,0.26 0.18652,0.3819 0.093,0.1796 0.18083,0.3556 0.2879,0.5268 0.0234,0.037 0.0523,0.072 0.0761,0.1085 0.0474,0.073 0.10217,0.1459 0.1521,0.2172 0.11748,0.1681 0.23019,0.3192 0.3603,0.4761 0.11119,0.1356 0.22488,0.2509 0.34578,0.3783 0.02,0.021 0.0305,0.052 0.0504,0.073 0.1283,0.1319 0.27472,0.2359 0.41283,0.3583 0.0726,0.065 0.14408,0.1356 0.21907,0.1973 0.0468,0.038 0.0898,0.082 0.13758,0.1195 0.17551,0.1371 0.34894,0.2591 0.53589,0.3801 0.12474,0.081 0.24356,0.1512 0.37294,0.2244 0.18947,0.1074 0.38265,0.2019 0.58295,0.2932 0.021,0.01 0.035,0.032 0.0561,0.042 0.0981,0.044 0.1963,0.076 0.2969,0.1158 0.22456,0.089 0.45257,0.1808 0.68612,0.2479 0.0196,0.01 0.0418,0.01 0.0616,0.011 0.11184,0.031 0.21948,0.065 0.3331,0.091 0.12981,0.03 0.2673,0.047 0.40008,0.071 0.11055,0.019 0.2266,0.045 0.33853,0.06 l 90.78693,16.0082 0.21544,0.038 c 0.24726,0.043 0.489,0.081 0.74407,0.099 0.18039,0.013 0.35022,0.031 0.53404,0.031 0.0763,-10e-5 0.15022,-0.022 0.22628,-0.024 0.18194,-0.01 0.36646,-0.013 0.54488,-0.031 0.25347,-0.025 0.50451,-0.071 0.75124,-0.1214 0.0636,-0.013 0.13243,-0.014 0.19547,-0.029 0.22955,-0.053 0.44897,-0.1257 0.66976,-0.1993 0.18326,-0.061 0.36467,-0.1156 0.54129,-0.1901 0.0473,-0.02 0.0923,-0.05 0.1397,-0.07 0.17523,-0.078 0.3538,-0.1663 0.52131,-0.2572 0.1938,-0.1051 0.38479,-0.2223 0.56837,-0.344 0.0284,-0.024 0.0724,-0.024 0.10341,-0.045 0.0221,-0.019 0.0517,-0.03 0.0739,-0.049 0.16013,-0.1122 0.29197,-0.245 0.44782,-0.3628 0.12614,-0.1058 0.25422,-0.2002 0.37393,-0.3137 0.0728,-0.074 0.1536,-0.142 0.22811,-0.2136 0.0332,-0.041 0.08,-0.067 0.11308,-0.108 0.27595,-0.2929 0.51257,-0.6137 0.73849,-0.9486 0.0517,-0.077 0.11729,-0.1454 0.16648,-0.2245 0.10456,-0.1687 0.19101,-0.3442 0.28236,-0.5214 0.12542,-0.2434 0.22707,-0.5095 0.32575,-0.7676 0.0788,-0.2062 0.14553,-0.4154 0.20623,-0.63 0.0645,-0.2281 0.14337,-0.4605 0.18638,-0.697 0.004,-0.02 0.007,-0.041 0.011,-0.061 0.0128,-0.072 -0.003,-0.1478 0.007,-0.2208 0.0154,-0.1057 0.0434,-0.2026 0.0542,-0.3078 0.007,-0.074 0.002,-0.1464 0.007,-0.2208 0.0133,-0.1793 0.0301,-0.3566 0.0307,-0.5341 l -0.007,-0.3186 0.005,-31.6995 c 0.002,-0.072 0.007,-0.1487 0.007,-0.2209 0,-0.707 -0.0924,-1.3997 -0.27363,-2.0473 -0.0191,-0.068 -0.0389,-0.1342 -0.0598,-0.201 -0.0546,-0.1763 -0.12862,-0.34 -0.19558,-0.5105 -0.0224,-0.057 -0.0415,-0.1142 -0.0652,-0.1701 -0.0741,-0.1758 -0.13956,-0.3473 -0.22636,-0.5159 -0.0233,-0.045 -0.0464,-0.095 -0.0706,-0.1394 -0.0943,-0.1739 -0.21681,-0.3361 -0.32412,-0.5014 -0.0245,-0.038 -0.0504,-0.071 -0.0761,-0.1085 -0.10932,-0.1621 -0.20821,-0.318 -0.32951,-0.4707 -0.0273,-0.034 -0.0484,-0.075 -0.0761,-0.1085 -0.0413,-0.05 -0.0899,-0.1009 -0.13242,-0.1501 -0.11767,-0.1356 -0.2498,-0.2574 -0.37656,-0.3837 -0.13586,-0.136 -0.26135,-0.264 -0.40735,-0.3892 -0.034,-0.03 -0.0773,-0.054 -0.11227,-0.083 -0.15013,-0.1239 -0.31466,-0.2572 -0.47434,-0.3692 -0.0383,-0.027 -0.0734,-0.057 -0.11227,-0.083 -0.16308,-0.11 -0.31322,-0.2105 -0.48519,-0.3077 -0.0377,-0.021 -0.0796,-0.032 -0.11767,-0.052 -0.16707,-0.091 -0.35234,-0.1737 -0.52682,-0.2516 -0.0476,-0.021 -0.10041,-0.038 -0.14845,-0.058 -0.17588,-0.074 -0.34976,-0.16 -0.53225,-0.2208 -0.01,0 -0.0209,0 -0.0308,-0.01 -0.22357,-0.073 -0.43374,-0.1283 -0.66619,-0.1809 -0.0496,-0.011 -0.10408,-0.017 -0.15388,-0.027 -0.18587,-0.038 -0.39406,-0.079 -0.58474,-0.1031 -0.0633,-0.01 -0.121,-0.026 -0.18464,-0.033 -0.17886,-0.018 -0.3516,-0.025 -0.53404,-0.031 -0.0718,0 -0.14867,-0.01 -0.22086,-0.01 -0.1833,0 -0.36494,0.018 -0.54487,0.031 -0.0767,0.01 -0.14931,0.016 -0.22629,0.024 -0.17618,0.018 -0.3472,0.037 -0.51953,0.067 l -0.22628,0.023 c -0.0678,0.014 -0.13379,0.044 -0.20094,0.06 l -90.58882,15.9809 c -0.10874,0.014 -0.21655,0.02 -0.32404,0.038 -0.18746,0.033 -0.37971,0.077 -0.56116,0.1231 -0.068,0.017 -0.13364,0.041 -0.20095,0.06 -0.24447,0.069 -0.4792,0.1638 -0.7114,0.2553 -0.18341,0.072 -0.37013,0.1346 -0.54667,0.221 -0.48993,0.2391 -0.9411,0.5387 -1.35938,0.8709 -0.1385,0.1097 -0.27877,0.2207 -0.40895,0.3405 -0.049,0.045 -0.10236,0.086 -0.15003,0.1324 -0.41777,0.4035 -0.77857,0.844 -1.0914,1.3308 -0.0786,0.1217 -0.15263,0.246 -0.22442,0.3729 -0.049,0.087 -0.0955,0.172 -0.14117,0.2607 -0.11258,0.2189 -0.18718,0.4485 -0.27868,0.6807 -0.0889,0.2245 -0.18083,0.4526 -0.24791,0.6861 -0.003,0.01 -0.003,0.021 -0.005,0.031 -0.0345,0.1224 -0.0672,0.2385 -0.0959,0.3638 -0.0542,0.2375 -0.0939,0.4637 -0.12481,0.7079 z"
         id="path3842" />
      <path
         id="path3844"
         d="m 207.81354,1312.2212 c 0.0887,0.1377 0.17859,0.2847 0.27708,0.4173 0.13595,0.1832 0.29738,0.3606 0.45224,0.5328 0.0852,0.095 0.17771,0.1861 0.2687,0.2779 0.16223,0.165 0.31566,0.3268 0.49048,0.4745 0.19994,0.1689 0.41557,0.3206 0.63002,0.4662 0.12563,0.085 0.26258,0.1653 0.39258,0.2425 0.14522,0.086 0.28607,0.1785 0.43522,0.2538 0.033,0.017 0.0674,0.034 0.10103,0.05 0.12411,0.06 0.26196,0.1196 0.38837,0.1726 0.18668,0.078 0.3671,0.1562 0.55916,0.2185 0.0417,0.013 0.0864,0.022 0.12804,0.034 0.0832,0.025 0.17205,0.046 0.25613,0.069 0.19805,0.053 0.38151,0.097 0.58204,0.1332 0.17233,0.032 0.33354,0.048 0.50804,0.067 0.0288,0 0.0568,0.02 0.0855,0.024 0.18306,0.019 0.36208,0 0.54655,0.01 0.0974,0 0.19754,0.011 0.29464,0.01 0.0603,0 0.1215,0.01 0.18221,0 0.22257,-0.01 0.43385,-0.026 0.65484,-0.053 0.14762,-0.018 0.28376,-0.041 0.42993,-0.068 0.21418,-0.04 0.4229,-0.091 0.63503,-0.1502 0.0225,-0.01 0.0474,0 0.07,0 0.10343,-0.029 0.19923,-0.068 0.30187,-0.1022 0.22924,-0.076 0.46291,-0.1524 0.68495,-0.2511 0.0214,0 0.0385,-0.019 0.0543,-0.031 0.1056,-0.048 0.20991,-0.091 0.31366,-0.1444 0.11873,-0.06 0.23498,-0.1358 0.35212,-0.2028 0.0969,-0.057 0.20251,-0.1111 0.2979,-0.1716 l 79.83669,-46.0937 0.18946,-0.1094 c 0.21706,-0.126 0.42667,-0.2523 0.63363,-0.4024 0.14654,-0.106 0.28821,-0.2014 0.42903,-0.3196 0.0584,-0.049 0.10093,-0.1134 0.15791,-0.1638 0.13294,-0.1246 0.27237,-0.2455 0.39747,-0.374 0.1781,-0.1821 0.34084,-0.3787 0.49745,-0.5759 0.0404,-0.051 0.0924,-0.096 0.1311,-0.1478 0.14178,-0.1882 0.26313,-0.3849 0.38496,-0.5832 0.10117,-0.1645 0.20505,-0.323 0.29246,-0.4936 0.0234,-0.046 0.0386,-0.098 0.062,-0.1434 0.0841,-0.1724 0.16413,-0.3548 0.23402,-0.5321 0.0809,-0.2051 0.15188,-0.4176 0.21428,-0.6289 0.006,-0.037 0.04,-0.065 0.0503,-0.1009 0.005,-0.029 0.0203,-0.056 0.0251,-0.085 0.0505,-0.1888 0.0662,-0.3753 0.10985,-0.5657 0.0286,-0.1622 0.0661,-0.3168 0.0848,-0.4807 0.008,-0.1035 0.0264,-0.2075 0.0374,-0.3102 -9.2e-4,-0.053 0.0182,-0.1028 0.0172,-0.1555 0.0231,-0.4017 -0.002,-0.7996 -0.044,-1.2013 -0.01,-0.092 -0.004,-0.1868 -0.0168,-0.279 -0.0283,-0.1965 -0.0749,-0.3865 -0.11884,-0.5809 -0.0604,-0.2671 -0.15356,-0.5363 -0.24387,-0.7974 -0.0722,-0.2086 -0.15553,-0.4118 -0.24697,-0.6152 -0.0972,-0.2162 -0.18618,-0.4449 -0.30525,-0.6537 -0.01,-0.018 -0.021,-0.036 -0.0308,-0.054 -0.0365,-0.063 -0.0973,-0.1113 -0.13656,-0.1737 -0.0562,-0.091 -0.097,-0.1831 -0.15633,-0.2706 -0.0422,-0.061 -0.0926,-0.1134 -0.13657,-0.1736 -0.10506,-0.1459 -0.20616,-0.2926 -0.31979,-0.4289 l -0.21016,-0.2396 -20.37221,-24.2864 c -0.0447,-0.056 -0.0902,-0.1184 -0.13663,-0.1737 -0.45445,-0.5416 -0.97049,-1.0129 -1.52559,-1.3925 -0.0583,-0.04 -0.11606,-0.078 -0.17501,-0.1155 -0.15515,-0.1 -0.31708,-0.1778 -0.47797,-0.2654 -0.0538,-0.029 -0.1052,-0.061 -0.15928,-0.088 -0.16977,-0.087 -0.33015,-0.1763 -0.50502,-0.2497 -0.0468,-0.019 -0.0966,-0.043 -0.14369,-0.061 -0.18402,-0.073 -0.38212,-0.1181 -0.57058,-0.1757 -0.0432,-0.013 -0.0842,-0.022 -0.12804,-0.034 -0.18794,-0.054 -0.3639,-0.1098 -0.55498,-0.1488 -0.0428,-0.01 -0.0853,-0.026 -0.12804,-0.034 -0.0638,-0.012 -0.13372,-0.02 -0.19792,-0.03 -0.1773,-0.028 -0.35681,-0.037 -0.5351,-0.052 -0.19149,-0.017 -0.3699,-0.034 -0.56222,-0.036 -0.0453,0 -0.0939,0.01 -0.13935,0.01 -0.19465,0 -0.40637,0.01 -0.60069,0.022 -0.0467,0 -0.0929,0 -0.13935,0.01 -0.19564,0.021 -0.37525,0.04 -0.56947,0.076 -0.0424,0.01 -0.0815,0.027 -0.12356,0.036 -0.18648,0.038 -0.38156,0.093 -0.56529,0.1459 -0.05,0.014 -0.10135,0.035 -0.151,0.051 -0.1823,0.056 -0.37078,0.1023 -0.54966,0.173 -0.008,0.01 -0.016,0.014 -0.03,0.012 -0.21819,0.088 -0.41473,0.1805 -0.62661,0.2896 -0.0451,0.024 -0.0907,0.054 -0.13524,0.078 -0.16681,0.09 -0.35264,0.1928 -0.5142,0.2969 -0.0549,0.033 -0.10941,0.058 -0.16266,0.093 -0.14858,0.1012 -0.28541,0.2069 -0.42902,0.3196 -0.055,0.046 -0.12032,0.088 -0.17562,0.1343 -0.14042,0.1178 -0.26799,0.2483 -0.39747,0.3739 -0.0523,0.057 -0.10409,0.1083 -0.15792,0.1639 -0.12339,0.127 -0.24219,0.2515 -0.35492,0.3853 l -0.15855,0.163 c -0.0429,0.054 -0.0742,0.1197 -0.11536,0.1751 l -59.12274,70.4715 c -0.0743,0.081 -0.15303,0.1545 -0.22381,0.2374 -0.12239,0.1458 -0.24138,0.3031 -0.35074,0.455 -0.0412,0.057 -0.076,0.1173 -0.11537,0.1751 -0.14292,0.21 -0.2618,0.4335 -0.38086,0.6529 -0.0942,0.173 -0.19702,0.341 -0.27672,0.5207 -0.22162,0.4981 -0.37465,1.0176 -0.48154,1.5409 -0.0356,0.1731 -0.0717,0.3483 -0.0944,0.5237 -0.009,0.066 -0.0231,0.1317 -0.0298,0.1979 -0.0607,0.5776 -0.0539,1.147 0.0194,1.721 0.018,0.1437 0.0412,0.2865 0.0678,0.4299 0.0184,0.098 0.0374,0.1931 0.0594,0.2904 0.0545,0.2401 0.14491,0.4639 0.22407,0.7006 0.0762,0.2291 0.1524,0.463 0.2511,0.685 0.004,0.01 0.0112,0.018 0.0161,0.027 0.0522,0.116 0.10183,0.2259 0.16038,0.3403 0.11114,0.2168 0.22613,0.4156 0.35942,0.6226 z"
         style="fill:#000000;fill-opacity:1;stroke:none"
         inkscape:connector-curvature="0" />
      <path
         inkscape:connector-curvature="0"
         style="fill:#000000;fill-opacity:1;stroke:none"
         d="m 385.34163,1416.2721 c 0.15646,0.049 0.31981,0.1033 0.48049,0.1416 0.2219,0.053 0.4596,0.085 0.68891,0.1174 0.12634,0.018 0.25576,0.028 0.38447,0.04 0.23034,0.022 0.45187,0.047 0.68073,0.048 0.26173,9e-4 0.52443,-0.022 0.78229,-0.048 0.15088,-0.016 0.3074,-0.042 0.45661,-0.067 0.16653,-0.028 0.33388,-0.047 0.49654,-0.085 0.0362,-0.01 0.0735,-0.017 0.10953,-0.027 0.13365,-0.034 0.27755,-0.077 0.40846,-0.1174 0.19314,-0.06 0.38162,-0.1163 0.56879,-0.192 0.0403,-0.017 0.0803,-0.039 0.11994,-0.056 0.0798,-0.034 0.16136,-0.075 0.24056,-0.1118 0.18578,-0.087 0.3546,-0.1709 0.53148,-0.2721 0.15259,-0.086 0.28637,-0.1776 0.43225,-0.2752 0.0221,-0.019 0.0564,-0.021 0.0809,-0.037 0.15244,-0.1031 0.27737,-0.2327 0.42511,-0.3436 0.0746,-0.063 0.15839,-0.1186 0.23213,-0.1818 0.0456,-0.04 0.0995,-0.07 0.13958,-0.1171 0.16407,-0.1507 0.31564,-0.2988 0.46757,-0.4615 0.10151,-0.1087 0.19102,-0.2138 0.28564,-0.3285 0.13836,-0.1683 0.26546,-0.3415 0.38991,-0.5232 0.0108,-0.022 0.0363,-0.031 0.0536,-0.045 0.0606,-0.089 0.10891,-0.1802 0.16556,-0.2723 0.12675,-0.2056 0.25665,-0.4143 0.3633,-0.6327 0.0164,-0.014 0.0173,-0.039 0.0217,-0.059 0.05,-0.1047 0.1023,-0.2046 0.14745,-0.3122 0.0524,-0.1223 0.0927,-0.2551 0.13939,-0.3817 0.0376,-0.106 0.0837,-0.2153 0.1179,-0.323 l 31.52999,-86.6278 0.0748,-0.2056 c 0.0853,-0.2361 0.16467,-0.4676 0.22673,-0.7156 0.0441,-0.1754 0.0913,-0.3395 0.12322,-0.5206 0.0132,-0.075 0.004,-0.1517 0.0157,-0.227 0.0217,-0.1809 0.0508,-0.3631 0.0641,-0.5419 0.0194,-0.254 0.0177,-0.5092 0.0109,-0.761 -0.002,-0.065 0.009,-0.1329 0.005,-0.1975 -0.0124,-0.2353 -0.0458,-0.4639 -0.08,-0.6942 -0.0282,-0.191 -0.0505,-0.3792 -0.0933,-0.5661 -0.0116,-0.05 -0.0334,-0.1 -0.0447,-0.1497 -0.0464,-0.1861 -0.10233,-0.3773 -0.16275,-0.558 -0.0699,-0.2091 -0.15209,-0.4175 -0.2401,-0.6195 -0.0192,-0.032 -0.0111,-0.075 -0.0263,-0.1096 -0.0148,-0.025 -0.0204,-0.056 -0.0354,-0.081 -0.0827,-0.1771 -0.19053,-0.33 -0.27947,-0.5039 -0.0824,-0.1427 -0.153,-0.2852 -0.24403,-0.4228 -0.0604,-0.084 -0.11316,-0.1759 -0.17074,-0.2617 -0.0348,-0.04 -0.0521,-0.09 -0.0868,-0.1301 -0.24051,-0.3226 -0.51551,-0.6113 -0.80589,-0.892 -0.0668,-0.064 -0.12314,-0.1405 -0.19221,-0.2029 -0.14798,-0.1324 -0.30581,-0.248 -0.46443,-0.3686 -0.21796,-0.1658 -0.46236,-0.3122 -0.69937,-0.4541 -0.1894,-0.1134 -0.38384,-0.2155 -0.58463,-0.3125 -0.21344,-0.1032 -0.4286,-0.2212 -0.65403,-0.3046 -0.0192,-0.01 -0.0392,-0.014 -0.0583,-0.022 -0.0684,-0.025 -0.14607,-0.023 -0.21626,-0.045 -0.10154,-0.034 -0.192,-0.078 -0.29369,-0.1068 -0.0715,-0.02 -0.14383,-0.027 -0.21621,-0.045 -0.17426,-0.044 -0.34601,-0.092 -0.52066,-0.123 l -0.31501,-0.048 -31.21701,-5.5095 c -0.0702,-0.014 -0.14521,-0.033 -0.21632,-0.045 -0.69626,-0.1228 -1.39452,-0.1521 -2.06375,-0.086 -0.0704,0.01 -0.13905,0.015 -0.20831,0.024 -0.18313,0.023 -0.35718,0.068 -0.53674,0.104 -0.0598,0.012 -0.1198,0.021 -0.17858,0.035 -0.18598,0.043 -0.36623,0.077 -0.54737,0.1334 -0.0481,0.016 -0.10164,0.029 -0.14929,0.046 -0.18789,0.062 -0.36863,0.1552 -0.55002,0.2322 -0.0414,0.018 -0.0786,0.037 -0.11994,0.056 -0.17868,0.08 -0.34934,0.1498 -0.52079,0.2428 -0.0392,0.02 -0.0821,0.035 -0.11994,0.056 -0.0566,0.032 -0.11529,0.071 -0.1709,0.1043 -0.15382,0.093 -0.29711,0.201 -0.44333,0.3041 -0.15762,0.1101 -0.30522,0.2117 -0.45383,0.3338 -0.0347,0.029 -0.0655,0.068 -0.10032,0.097 -0.14911,0.1252 -0.30487,0.2689 -0.44601,0.403 -0.0358,0.03 -0.0712,0.06 -0.10032,0.097 -0.13637,0.1419 -0.26175,0.2719 -0.38739,0.4243 -0.026,0.035 -0.0451,0.073 -0.0715,0.107 -0.11843,0.149 -0.23252,0.3165 -0.33926,0.4751 -0.0293,0.043 -0.0551,0.092 -0.0829,0.1362 -0.10365,0.16 -0.21827,0.3167 -0.30986,0.4858 3e-4,0.013 -0.003,0.021 -0.0153,0.028 -0.11058,0.2076 -0.20168,0.4048 -0.29386,0.6246 -0.0191,0.047 -0.0348,0.1 -0.0535,0.1467 -0.0699,0.1761 -0.14621,0.3743 -0.20306,0.5579 -0.0208,0.061 -0.0465,0.1148 -0.0648,0.1758 -0.0488,0.1731 -0.0857,0.342 -0.12322,0.5206 -0.0126,0.071 -0.0356,0.1448 -0.0482,0.2158 -0.0319,0.1805 -0.0457,0.3625 -0.0641,0.5419 -0.003,0.077 -0.0101,0.1499 -0.0156,0.2271 -0.0129,0.1766 -0.0239,0.3483 -0.0242,0.5233 l -0.0167,0.2268 c 0.002,0.069 0.0201,0.1393 0.0242,0.2082 l 0.008,91.9877 c -0.005,0.1098 -0.0179,0.2167 -0.0188,0.3257 -4e-5,0.1904 0.01,0.3874 0.0238,0.574 0.005,0.07 0.0172,0.1387 0.0242,0.2083 0.0255,0.2528 0.0781,0.5004 0.12792,0.745 0.039,0.1931 0.0683,0.3878 0.12272,0.5767 0.1504,0.5241 0.3671,1.0204 0.62159,1.49 0.084,0.1554 0.16895,0.3129 0.26431,0.4618 0.0355,0.056 0.067,0.1158 0.10438,0.1708 0.32477,0.4815 0.69599,0.9133 1.1211,1.3059 0.10616,0.099 0.21572,0.193 0.32827,0.2857 0.0771,0.063 0.15277,0.1239 0.23217,0.1843 0.19608,0.1489 0.4092,0.2622 0.62198,0.3926 0.20564,0.1266 0.41436,0.2568 0.63267,0.3634 0.009,0.01 0.0202,0.01 0.0297,0.01 0.11455,0.055 0.22321,0.1076 0.34159,0.1576 0.2245,0.095 0.44037,0.173 0.67554,0.2459 z"
         id="path3846" />
      <path
         id="path3848"
         d="m 588.21865,1381.8668 c 0.15135,-0.063 0.31138,-0.1264 0.45909,-0.2003 0.20405,-0.1021 0.40671,-0.2304 0.6032,-0.3529 0.10835,-0.067 0.21392,-0.143 0.32023,-0.2165 0.19059,-0.1312 0.37637,-0.2545 0.55233,-0.4008 0.20107,-0.1676 0.38759,-0.354 0.56841,-0.5396 0.1053,-0.1093 0.20849,-0.2298 0.30672,-0.3449 0.10957,-0.1285 0.22555,-0.2506 0.32573,-0.3842 0.0213,-0.031 0.0454,-0.06 0.0666,-0.091 0.0805,-0.112 0.16312,-0.2374 0.23744,-0.3525 0.10938,-0.1701 0.21758,-0.3344 0.3123,-0.5127 0.0199,-0.039 0.0364,-0.082 0.0559,-0.12 0.0393,-0.077 0.0754,-0.1612 0.11242,-0.2403 0.0864,-0.186 0.16179,-0.3588 0.23223,-0.55 0.0616,-0.164 0.10522,-0.3202 0.15423,-0.4887 0.005,-0.029 0.0297,-0.052 0.0382,-0.08 0.0505,-0.1769 0.0629,-0.3565 0.10479,-0.5364 0.0167,-0.096 0.0451,-0.1927 0.061,-0.2885 0.009,-0.06 0.0312,-0.1176 0.0317,-0.1794 0.0288,-0.2209 0.0497,-0.4318 0.0615,-0.6541 0.008,-0.1485 0.009,-0.2866 0.008,-0.4353 -0.002,-0.2178 -0.0162,-0.4322 -0.0376,-0.6514 -0.006,-0.024 0.008,-0.047 0.0121,-0.069 -0.0108,-0.1071 -0.0324,-0.208 -0.0482,-0.315 -0.0351,-0.239 -0.0697,-0.4824 -0.12839,-0.7182 0.004,-0.021 -0.0118,-0.041 -0.0213,-0.059 -0.029,-0.1123 -0.0531,-0.2224 -0.0877,-0.3339 -0.0385,-0.1274 -0.093,-0.255 -0.13857,-0.382 -0.0393,-0.1054 -0.0743,-0.2187 -0.11731,-0.3232 l -31.5299,-86.6278 -0.0749,-0.2056 c -0.0864,-0.2357 -0.17442,-0.4641 -0.28629,-0.6939 -0.079,-0.1628 -0.14829,-0.3188 -0.24025,-0.4781 -0.0381,-0.066 -0.0944,-0.1187 -0.13388,-0.1839 -0.0997,-0.1526 -0.19448,-0.3108 -0.29922,-0.4564 -0.14841,-0.207 -0.31375,-0.4014 -0.48082,-0.5899 -0.0433,-0.048 -0.0785,-0.1076 -0.12312,-0.1545 -0.16074,-0.1723 -0.33327,-0.326 -0.5075,-0.4804 -0.14438,-0.1282 -0.28243,-0.258 -0.43536,-0.3737 -0.041,-0.031 -0.0899,-0.055 -0.13046,-0.086 -0.15517,-0.1128 -0.32092,-0.2233 -0.48335,-0.3229 -0.18796,-0.1152 -0.38488,-0.222 -0.58214,-0.3202 -0.0353,-0.012 -0.0567,-0.05 -0.0906,-0.067 -0.0274,-0.01 -0.0516,-0.03 -0.0792,-0.039 -0.17719,-0.083 -0.35807,-0.1304 -0.53799,-0.2064 -0.15484,-0.056 -0.30052,-0.1201 -0.4587,-0.167 -0.10027,-0.026 -0.19976,-0.062 -0.29902,-0.091 -0.0524,-0.01 -0.0978,-0.035 -0.15011,-0.044 -0.39161,-0.093 -0.78784,-0.137 -1.19072,-0.1653 -0.0923,-0.01 -0.18464,-0.028 -0.27766,-0.032 -0.19847,-0.01 -0.39368,0.01 -0.59271,0.016 -0.27354,0.013 -0.55486,0.058 -0.82764,0.1016 -0.21798,0.035 -0.43255,0.082 -0.64872,0.1364 -0.22984,0.058 -0.47051,0.1061 -0.69681,0.1871 -0.0211,0 -0.039,0.014 -0.0588,0.021 -0.0685,0.025 -0.12668,0.076 -0.19459,0.1046 -0.0996,0.039 -0.19722,0.064 -0.29363,0.1069 -0.0676,0.031 -0.12754,0.072 -0.19455,0.1045 -0.16178,0.078 -0.3242,0.152 -0.47791,0.2405 l -0.27217,0.1657 -27.45505,15.8454 c -0.0628,0.034 -0.13245,0.068 -0.19464,0.1046 -0.6123,0.3534 -1.16603,0.7798 -1.6362,1.2606 -0.0475,0.053 -0.0969,0.1009 -0.14415,0.1523 -0.1255,0.1354 -0.22991,0.2817 -0.34432,0.4247 -0.0381,0.048 -0.0783,0.093 -0.1143,0.1416 -0.11483,0.1525 -0.23106,0.2944 -0.33356,0.454 -0.0266,0.043 -0.0592,0.088 -0.0848,0.1312 -0.10408,0.1683 -0.18262,0.3559 -0.27208,0.5315 -0.0201,0.04 -0.0364,0.079 -0.0559,0.12 -0.0855,0.1761 -0.17132,0.3393 -0.24288,0.5207 -0.0172,0.041 -0.0404,0.08 -0.0559,0.12 -0.0228,0.061 -0.0427,0.1285 -0.0639,0.1898 -0.0581,0.1701 -0.0984,0.3449 -0.14414,0.5179 -0.05,0.1856 -0.0977,0.3583 -0.13309,0.5474 -0.008,0.044 -0.006,0.094 -0.0145,0.1388 -0.0338,0.1917 -0.0607,0.4019 -0.0826,0.5954 -0.008,0.046 -0.016,0.092 -0.0145,0.1388 -0.0133,0.1963 -0.0257,0.3765 -0.024,0.574 0.003,0.044 0.0124,0.085 0.014,0.128 0.005,0.1902 0.0253,0.3919 0.0455,0.582 0.005,0.052 0.0169,0.1059 0.024,0.1576 0.0235,0.1892 0.0364,0.3829 0.0749,0.5713 0.009,0.01 0.0112,0.018 0.006,0.031 0.0487,0.2301 0.10571,0.4397 0.17638,0.6674 0.0156,0.048 0.0376,0.099 0.0533,0.1467 0.0596,0.1799 0.12859,0.3807 0.20306,0.5579 0.0233,0.06 0.0382,0.1179 0.0634,0.1763 0.0739,0.164 0.15418,0.3171 0.24024,0.4781 0.036,0.062 0.0658,0.1338 0.10179,0.1963 0.0916,0.1587 0.19801,0.307 0.29923,0.4563 0.0472,0.061 0.0886,0.1213 0.13402,0.184 0.10364,0.1435 0.20558,0.2821 0.31784,0.4164 l 0.13299,0.1845 c 0.0459,0.052 0.10494,0.094 0.15236,0.1439 l 59.13469,70.4615 c 0.0667,0.087 0.12558,0.1775 0.19495,0.2616 0.12236,0.1459 0.25668,0.2904 0.38719,0.4244 0.0488,0.05 0.10233,0.095 0.15243,0.144 0.18204,0.1773 0.38148,0.3332 0.57687,0.4885 0.154,0.1229 0.3016,0.2532 0.46471,0.3629 0.4521,0.3048 0.93711,0.5457 1.43392,0.7419 0.16423,0.065 0.33055,0.1311 0.49931,0.1838 0.0632,0.02 0.12576,0.046 0.18975,0.064 0.55829,0.1601 1.12021,0.2522 1.69823,0.2797 0.14496,0.01 0.28931,0.01 0.43511,0.01 0.0996,0 0.19667,0 0.29632,-0.01 0.24592,-0.012 0.482,-0.062 0.72882,-0.099 0.23891,-0.035 0.48249,-0.07 0.71824,-0.1283 0.0133,0 0.0219,-0.01 0.0292,-0.012 0.12311,-0.032 0.24016,-0.061 0.36298,-0.099 0.23304,-0.072 0.44854,-0.1505 0.67555,-0.2459 z"
         style="fill:#000000;fill-opacity:1;stroke:none"
         inkscape:connector-curvature="0" />
      <path
         inkscape:connector-curvature="0"
         style="fill:#000000;fill-opacity:1;stroke:none"
         d="m 721.51606,1225.104 c 0.0755,-0.1455 0.15729,-0.297 0.22294,-0.4485 0.0907,-0.2094 0.16346,-0.438 0.23524,-0.6581 0.0399,-0.121 0.0719,-0.2471 0.10614,-0.3717 0.0617,-0.223 0.12473,-0.4369 0.16548,-0.6621 0.0463,-0.2576 0.0694,-0.5203 0.0886,-0.7787 0.0104,-0.1514 0.012,-0.31 0.0133,-0.4613 10e-4,-0.1689 0.0117,-0.337 0.003,-0.5037 -0.004,-0.038 -0.004,-0.075 -0.007,-0.1126 -0.0103,-0.1375 -0.0276,-0.2867 -0.0447,-0.4226 -0.0256,-0.2006 -0.0483,-0.396 -0.0903,-0.5935 -0.01,-0.043 -0.0248,-0.086 -0.0343,-0.1279 -0.0194,-0.084 -0.0459,-0.1719 -0.0684,-0.2563 -0.0534,-0.198 -0.10669,-0.3789 -0.17563,-0.5706 -0.0582,-0.1652 -0.12522,-0.3129 -0.19598,-0.4735 -0.0148,-0.025 -0.0107,-0.059 -0.0222,-0.086 -0.075,-0.168 -0.18097,-0.3136 -0.26452,-0.4783 -0.0489,-0.084 -0.0893,-0.1766 -0.13872,-0.2602 -0.0317,-0.052 -0.0517,-0.1102 -0.091,-0.1578 -0.11993,-0.1878 -0.23948,-0.3627 -0.37334,-0.5406 -0.0893,-0.1189 -0.17732,-0.2254 -0.27367,-0.3386 -0.14153,-0.1656 -0.29022,-0.3207 -0.44752,-0.4749 -0.02,-0.014 -0.0241,-0.041 -0.0351,-0.061 -0.0771,-0.075 -0.15852,-0.1385 -0.2394,-0.2103 -0.18052,-0.1605 -0.36348,-0.3248 -0.56,-0.4677 -0.0104,-0.019 -0.0354,-0.024 -0.0543,-0.032 -0.0944,-0.067 -0.18363,-0.1362 -0.2818,-0.1994 -0.11139,-0.073 -0.23516,-0.1355 -0.3517,-0.2035 -0.0979,-0.056 -0.19749,-0.1198 -0.29761,-0.1722 l -79.83658,-46.0937 -0.18954,-0.1094 c -0.21769,-0.125 -0.43193,-0.2434 -0.66534,-0.3475 -0.16516,-0.074 -0.31852,-0.1489 -0.49136,-0.2118 -0.0716,-0.026 -0.14861,-0.03 -0.22077,-0.055 -0.17446,-0.053 -0.34875,-0.113 -0.52258,-0.1572 -0.24675,-0.063 -0.49836,-0.1059 -0.74751,-0.1429 -0.064,-0.01 -0.1293,-0.032 -0.19363,-0.039 -0.23388,-0.029 -0.46484,-0.036 -0.69756,-0.042 -0.19301,-0.01 -0.38219,-0.016 -0.57371,-0.01 -0.0513,0 -0.10422,0.016 -0.15522,0.018 -0.19137,0.013 -0.38937,0.035 -0.57782,0.063 -0.21804,0.033 -0.43754,0.077 -0.65177,0.1289 -0.0348,0.014 -0.0756,0 -0.11247,0.01 -0.0274,0.01 -0.0588,0.01 -0.0857,0.021 -0.18909,0.05 -0.35812,0.1302 -0.5448,0.1877 -0.15461,0.057 -0.30741,0.1011 -0.45873,0.1669 -0.0935,0.044 -0.19287,0.081 -0.28755,0.1225 -0.0466,0.026 -0.0974,0.036 -0.14328,0.063 -0.35977,0.1804 -0.69158,0.4014 -1.01839,0.6387 -0.0771,0.052 -0.15944,0.097 -0.23327,0.154 -0.15847,0.1199 -0.29515,0.2607 -0.44376,0.3932 -0.20119,0.1858 -0.38777,0.4011 -0.5687,0.6099 -0.14449,0.1669 -0.27865,0.3408 -0.40927,0.5214 -0.13879,0.1922 -0.29224,0.3837 -0.41353,0.5913 -0.0162,0.014 -0.0209,0.036 -0.0315,0.054 -0.0364,0.063 -0.0482,0.1397 -0.0818,0.2052 -0.0512,0.094 -0.10994,0.1758 -0.15622,0.2707 -0.0319,0.067 -0.0514,0.1371 -0.0819,0.2051 -0.0738,0.1637 -0.15065,0.3248 -0.21151,0.4914 l -0.10199,0.3019 -10.84656,29.786 c -0.0263,0.067 -0.0578,0.1373 -0.0819,0.2053 -0.24188,0.6643 -0.39198,1.3469 -0.4431,2.0174 -0.002,0.071 -0.009,0.1396 -0.0125,0.2093 -0.009,0.1844 0.005,0.3636 0.009,0.5467 0.002,0.061 -2e-4,0.1215 0.003,0.1819 0.0101,0.1907 0.0122,0.3741 0.0363,0.5622 0.007,0.05 0.0112,0.1055 0.0194,0.155 0.0285,0.1959 0.0889,0.39 0.13321,0.5821 0.0103,0.043 0.0229,0.084 0.0343,0.1278 0.0477,0.1899 0.0869,0.3701 0.14864,0.555 0.0132,0.043 0.0205,0.087 0.0343,0.1279 0.0217,0.061 0.0499,0.1259 0.073,0.1865 0.0648,0.1676 0.14632,0.3274 0.22248,0.4893 0.081,0.1744 0.15547,0.3373 0.24991,0.5049 0.0222,0.039 0.0558,0.076 0.0781,0.1157 0.0973,0.1685 0.21184,0.3469 0.31944,0.5092 0.0234,0.04 0.0469,0.081 0.0781,0.1156 0.11599,0.1589 0.22232,0.3049 0.35057,0.4551 0.0306,0.032 0.0641,0.057 0.093,0.089 0.12609,0.1425 0.27129,0.284 0.40896,0.4166 0.0372,0.037 0.081,0.07 0.11969,0.1053 0.13962,0.1298 0.27401,0.2699 0.4246,0.3895 0.0133,0 0.0202,0.01 0.0245,0.02 0.18521,0.1449 0.36361,0.2689 0.56411,0.3979 0.0428,0.027 0.0924,0.052 0.13513,0.078 0.16129,0.1 0.34322,0.209 0.51416,0.2968 0.0564,0.031 0.10505,0.066 0.1619,0.094 0.16202,0.078 0.32193,0.1438 0.49135,0.2119 0.0674,0.024 0.13641,0.06 0.20415,0.085 0.17218,0.063 0.34902,0.1079 0.52253,0.1572 0.0754,0.016 0.14584,0.036 0.22094,0.055 0.17163,0.043 0.33881,0.084 0.51113,0.1147 l 0.22047,0.056 c 0.0686,0.01 0.14081,0 0.20922,0.012 l 90.59158,15.9656 c 0.10701,0.024 0.21029,0.055 0.31749,0.075 0.18751,0.033 0.38329,0.057 0.5694,0.076 0.0695,0.01 0.13946,0.01 0.20933,0.012 0.25342,0.019 0.50641,0.01 0.75591,0 0.19697,0 0.3938,10e-5 0.58926,-0.021 0.54225,-0.057 1.06864,-0.1844 1.57533,-0.3534 0.16759,-0.056 0.33748,-0.112 0.50064,-0.1802 0.0613,-0.025 0.1259,-0.046 0.18649,-0.073 0.53059,-0.2362 1.02024,-0.5269 1.48071,-0.8773 0.11747,-0.086 0.22805,-0.1783 0.33974,-0.2721 0.0763,-0.064 0.15066,-0.1264 0.22057,-0.1981 0.18067,-0.1673 0.32938,-0.3573 0.49467,-0.5443 0.16052,-0.1804 0.32461,-0.3638 0.46773,-0.56 0.0102,-0.01 0.0103,-0.022 0.0147,-0.028 0.0737,-0.1037 0.14476,-0.2011 0.21442,-0.3092 0.13224,-0.2049 0.24686,-0.4036 0.35944,-0.6226 z"
         id="path3850" />
      <path
         id="path3852"
         d="m 722.86259,1019.3348 c -0.0357,-0.1599 -0.0704,-0.3286 -0.11751,-0.4868 -0.0651,-0.2187 -0.15632,-0.4406 -0.24281,-0.6554 -0.0472,-0.1183 -0.10376,-0.2355 -0.15762,-0.3529 -0.0961,-0.2105 -0.18529,-0.4149 -0.29883,-0.6136 -0.13011,-0.2271 -0.28127,-0.4432 -0.43266,-0.6535 -0.0894,-0.1226 -0.19007,-0.2452 -0.28633,-0.3619 -0.1078,-0.13 -0.20766,-0.2657 -0.32148,-0.3878 -0.0275,-0.027 -0.0513,-0.055 -0.0777,-0.082 -0.0963,-0.099 -0.20543,-0.2019 -0.30588,-0.295 -0.14855,-0.1372 -0.29154,-0.2723 -0.45067,-0.3966 -0.0353,-0.027 -0.0743,-0.05 -0.10849,-0.076 -0.0688,-0.052 -0.14565,-0.1021 -0.21714,-0.1523 -0.16818,-0.1174 -0.32528,-0.2217 -0.50132,-0.3243 -0.15077,-0.089 -0.29705,-0.1592 -0.45448,-0.2367 -0.0274,-0.01 -0.0461,-0.038 -0.0723,-0.052 -0.16544,-0.081 -0.34021,-0.1239 -0.51008,-0.1964 -0.0915,-0.033 -0.18192,-0.078 -0.27352,-0.1101 -0.0577,-0.019 -0.11044,-0.051 -0.17114,-0.062 -0.21259,-0.067 -0.41659,-0.1239 -0.63349,-0.1742 -0.14483,-0.034 -0.28072,-0.059 -0.42729,-0.083 -0.21486,-0.036 -0.42846,-0.059 -0.64808,-0.076 -0.0243,0 -0.0448,-0.016 -0.0661,-0.024 -0.10727,-0.01 -0.21046,0 -0.31857,-0.01 -0.24145,-0.01 -0.48721,-0.015 -0.72961,0 -0.0202,-0.01 -0.0426,0 -0.0622,0.01 -0.11538,0.01 -0.22821,0.014 -0.34404,0.028 -0.13225,0.016 -0.26724,0.047 -0.40023,0.07 -0.11099,0.02 -0.22829,0.035 -0.33867,0.059 l -90.78682,16.0081 -0.21552,0.038 c -0.24711,0.044 -0.48733,0.091 -0.73305,0.1615 -0.17409,0.05 -0.33971,0.091 -0.51255,0.1536 -0.0716,0.026 -0.13312,0.072 -0.20447,0.1 -0.16771,0.072 -0.33979,0.1376 -0.50136,0.2155 -0.22952,0.1103 -0.44984,0.2392 -0.66448,0.371 -0.0555,0.034 -0.11962,0.059 -0.1734,0.095 -0.19781,0.1281 -0.37923,0.2712 -0.56136,0.4162 -0.15428,0.1164 -0.30306,0.2334 -0.44592,0.3611 -0.0393,0.033 -0.0696,0.079 -0.10733,0.1136 -0.13824,0.1329 -0.27578,0.2771 -0.40214,0.4196 -0.14582,0.1655 -0.28568,0.3403 -0.41643,0.5177 -0.0177,0.033 -0.0579,0.049 -0.0797,0.08 -0.0146,0.025 -0.0386,0.045 -0.0521,0.071 -0.11271,0.1598 -0.19065,0.3299 -0.29669,0.4939 -0.0818,0.1431 -0.17051,0.2751 -0.24413,0.4228 -0.0433,0.094 -0.0957,0.186 -0.14153,0.2786 -0.019,0.05 -0.0515,0.09 -0.0693,0.1404 -0.15964,0.3694 -0.27176,0.752 -0.36958,1.1439 -0.0256,0.089 -0.0598,0.1768 -0.0797,0.2679 -0.0443,0.1937 -0.0585,0.3894 -0.0872,0.5864 -0.0347,0.2717 -0.0392,0.5565 -0.0436,0.8328 -0.003,0.2207 0.006,0.4402 0.0216,0.6625 0.0172,0.2364 0.0228,0.4818 0.0633,0.7188 -0.003,0.021 0.007,0.041 0.0106,0.062 0.0126,0.072 0.0529,0.138 0.0692,0.2097 0.0212,0.105 0.0288,0.2054 0.0543,0.3078 0.0186,0.072 0.0488,0.1381 0.0691,0.2098 0.0487,0.1728 0.0934,0.3456 0.15384,0.5124 l 0.11593,0.2968 10.83712,29.7894 c 0.0229,0.068 0.044,0.1424 0.0692,0.21 0.24171,0.6643 0.56549,1.2837 0.95732,1.8302 0.0441,0.056 0.0828,0.1127 0.12496,0.1684 0.11164,0.147 0.23755,0.2753 0.35831,0.413 0.0407,0.045 0.0779,0.093 0.11922,0.1374 0.13032,0.1396 0.24981,0.2787 0.38918,0.4073 0.0375,0.034 0.0764,0.074 0.1145,0.1063 0.14775,0.1317 0.31878,0.2416 0.47621,0.3603 0.0355,0.026 0.0715,0.05 0.10842,0.076 0.15861,0.1148 0.30447,0.2277 0.47061,0.3296 0.0377,0.024 0.0716,0.053 0.10849,0.076 0.0558,0.033 0.11915,0.064 0.1758,0.096 0.15737,0.087 0.32254,0.1568 0.48495,0.2318 0.17415,0.082 0.33591,0.1585 0.51598,0.2262 0.0421,0.016 0.0916,0.022 0.1342,0.038 0.18285,0.066 0.38526,0.1296 0.57201,0.1847 0.0436,0.016 0.088,0.032 0.13414,0.038 0.19099,0.047 0.36629,0.091 0.56108,0.1233 0.044,0 0.0857,0 0.12845,0.01 0.18819,0.028 0.39038,0.043 0.58107,0.056 0.0523,0 0.10705,0 0.15937,0 0.19039,0.01 0.3834,0.031 0.57563,0.025 0.0102,-0.01 0.0219,-0.01 0.0316,-4e-4 0.23502,-0.01 0.45138,-0.028 0.68789,-0.058 0.0502,-0.01 0.10421,-0.02 0.15366,-0.027 0.18783,-0.027 0.39726,-0.061 0.58465,-0.1032 0.0631,-0.013 0.12289,-0.017 0.18444,-0.032 0.17425,-0.044 0.33905,-0.097 0.5126,-0.1535 0.0671,-0.025 0.14307,-0.042 0.21103,-0.066 0.17239,-0.062 0.33672,-0.1417 0.50133,-0.2155 0.068,-0.036 0.13486,-0.066 0.2046,-0.1 0.15912,-0.077 0.31354,-0.1534 0.46528,-0.2407 l 0.20488,-0.099 c 0.059,-0.036 0.10787,-0.091 0.16799,-0.1253 l 79.65966,-46.0007 c 0.0974,-0.05 0.19645,-0.093 0.29142,-0.1467 0.16486,-0.095 0.33026,-0.2027 0.48504,-0.3078 0.0597,-0.037 0.11326,-0.082 0.16807,-0.1253 0.20634,-0.1484 0.39436,-0.3179 0.57906,-0.4859 0.15089,-0.1266 0.30173,-0.2531 0.4379,-0.3949 0.37875,-0.3922 0.7001,-0.8281 0.97961,-1.2833 0.0924,-0.1506 0.18654,-0.3027 0.26769,-0.4598 0.0309,-0.059 0.0669,-0.1162 0.0959,-0.1758 0.25463,-0.522 0.44287,-1.0595 0.57037,-1.6239 0.0347,-0.1413 0.0601,-0.2831 0.0854,-0.4268 0.0173,-0.098 0.0342,-0.1937 0.0416,-0.2935 0.0309,-0.2443 0.0226,-0.4854 0.0291,-0.7349 0.007,-0.2414 0.0148,-0.4874 -0.002,-0.7297 10e-4,-0.014 -0.006,-0.024 -0.007,-0.031 -0.0102,-0.1268 -0.0184,-0.2471 -0.0345,-0.3747 -0.0304,-0.2419 -0.0703,-0.4678 -0.12486,-0.7079 z"
         style="fill:#000000;fill-opacity:1;stroke:none"
         inkscape:connector-curvature="0" />
      <path
         inkscape:connector-curvature="0"
         style="fill:#000000;fill-opacity:1;stroke:none"
         d="m 591.62814,860.84089 c -0.13013,-0.0996 -0.26515,-0.20647 -0.40293,-0.29738 -0.19044,-0.12569 -0.40296,-0.23704 -0.60728,-0.34599 -0.1122,-0.0603 -0.23086,-0.11371 -0.34759,-0.16902 -0.20892,-0.0995 -0.40863,-0.19873 -0.62333,-0.27796 -0.24565,-0.0903 -0.50035,-0.15872 -0.7515,-0.2225 -0.14729,-0.0365 -0.30321,-0.0657 -0.45196,-0.0932 -0.16614,-0.0303 -0.32987,-0.0701 -0.49554,-0.0904 -0.0384,-0.003 -0.0747,-0.009 -0.11223,-0.0129 -0.13741,-0.0139 -0.28715,-0.0226 -0.42394,-0.0294 -0.20199,-0.01 -0.39837,-0.0212 -0.60017,-0.0141 -0.0444,0.002 -0.089,0.009 -0.13196,0.0115 -0.0861,0.004 -0.1772,0.0154 -0.26423,0.0229 -0.2043,0.0182 -0.39169,0.0393 -0.59249,0.0738 -0.17271,0.0287 -0.32989,0.069 -0.5003,0.11081 -0.0274,0.01 -0.0597,5.2e-4 -0.0888,0.007 -0.1788,0.0443 -0.34026,0.12377 -0.51699,0.17742 -0.0913,0.0335 -0.1895,0.0572 -0.2803,0.0915 -0.0564,0.0225 -0.11738,0.0319 -0.17095,0.0625 -0.20592,0.0853 -0.39877,0.17287 -0.59726,0.27376 -0.1328,0.067 -0.25297,0.13525 -0.38067,0.21107 -0.18773,0.11054 -0.36615,0.23022 -0.54531,0.35836 -0.0186,0.0156 -0.0446,0.0165 -0.0661,0.0241 -0.0886,0.0613 -0.16123,0.13528 -0.25047,0.19711 -0.19139,0.14754 -0.38287,0.30168 -0.55891,0.46898 -0.0219,0.005 -0.0326,0.0274 -0.0412,0.0476 -0.082,0.0818 -0.16582,0.15742 -0.24556,0.2426 -0.091,0.0973 -0.1745,0.20778 -0.2616,0.31088 -0.0722,0.0867 -0.15238,0.17356 -0.22151,0.26289 l -59.25693,70.61956 -0.14067,0.16765 c -0.16101,0.19254 -0.31482,0.38296 -0.45774,0.59491 -0.10122,0.1502 -0.20174,0.28807 -0.2939,0.44712 -0.0381,0.0659 -0.0557,0.14073 -0.0924,0.20804 -0.0822,0.16296 -0.17184,0.32382 -0.24554,0.48735 -0.10492,0.23203 -0.19084,0.47239 -0.27055,0.71132 -0.0207,0.0617 -0.0537,0.12209 -0.0718,0.18423 -0.0692,0.22528 -0.11619,0.45152 -0.1625,0.67967 -0.0434,0.18833 -0.0821,0.3736 -0.10949,0.56325 -0.009,0.0505 -0.003,0.10525 -0.009,0.15601 -0.0205,0.19067 -0.0331,0.38954 -0.0383,0.57992 -0.005,0.22052 -1e-4,0.44432 0.0138,0.66426 0.008,0.0367 -0.0129,0.0747 -0.01,0.11251 0.005,0.0285 -6.5e-4,0.0593 0.006,0.0879 0.0164,0.19487 0.066,0.37527 0.0902,0.56906 0.0293,0.1622 0.0462,0.32034 0.0848,0.48081 0.0273,0.0998 0.0462,0.204 0.0707,0.30439 0.0176,0.0505 0.0184,0.10205 0.0372,0.1521 0.11515,0.38559 0.27519,0.75075 0.45217,1.11384 0.0376,0.0846 0.0678,0.17388 0.11115,0.25645 0.0906,0.17686 0.20549,0.3359 0.31013,0.50526 0.14806,0.23044 0.32768,0.4515 0.50191,0.66599 0.13957,0.17099 0.28755,0.33336 0.4424,0.49362 0.16513,0.17004 0.32716,0.35442 0.51052,0.50994 0.0112,0.018 0.0317,0.0269 0.048,0.0407 0.0559,0.0471 0.12922,0.0717 0.1878,0.11615 0.0837,0.0668 0.15409,0.13884 0.23945,0.20089 0.0605,0.0432 0.12615,0.0744 0.18779,0.1163 0.14838,0.10107 0.29369,0.20471 0.44721,0.29363 l 0.27959,0.15285 27.44997,15.85404 c 0.0613,0.0374 0.12524,0.0808 0.18799,0.11638 0.61217,0.35352 1.25834,0.61988 1.90978,0.78666 0.0698,0.0146 0.13587,0.0331 0.20397,0.0487 0.18001,0.0408 0.35894,0.0582 0.53996,0.0861 0.0601,0.008 0.11945,0.0212 0.17964,0.0286 0.18957,0.0232 0.37051,0.0529 0.55994,0.0618 0.0506,0.002 0.10609,0.008 0.15604,0.008 0.19784,0.006 0.3995,-0.0198 0.59639,-0.0301 0.0439,-0.003 0.0869,-0.008 0.13191,-0.0115 0.1953,-0.014 0.3796,-0.0213 0.57237,-0.05 0.0443,-0.006 0.0889,-0.005 0.13196,-0.0115 0.064,-0.0106 0.13241,-0.0276 0.19638,-0.0395 0.17647,-0.0345 0.34787,-0.0872 0.52049,-0.13416 0.18612,-0.0491 0.35921,-0.0945 0.54066,-0.15838 0.0425,-0.0148 0.0843,-0.042 0.12723,-0.0572 0.1825,-0.067 0.37843,-0.14837 0.55691,-0.2262 0.0437,-0.0158 0.088,-0.0321 0.12718,-0.0571 0.17652,-0.0868 0.33909,-0.16574 0.50907,-0.2662 0.0337,-0.0283 0.0657,-0.0551 0.10483,-0.0749 0.16216,-0.0995 0.32669,-0.21799 0.48112,-0.3306 0.0401,-0.0336 0.082,-0.0688 0.12208,-0.10245 0.15228,-0.11472 0.31363,-0.22269 0.45703,-0.35085 10e-4,-0.0142 0.0103,-0.0217 0.024,-0.0206 0.17361,-0.15873 0.32778,-0.31159 0.48967,-0.4866 0.032,-0.0399 0.067,-0.0823 0.10036,-0.11945 0.12653,-0.14142 0.26511,-0.30208 0.38153,-0.45486 0.04,-0.0505 0.0832,-0.092 0.12072,-0.14307 0.1052,-0.14571 0.19738,-0.29225 0.29401,-0.44708 0.0353,-0.0623 0.0826,-0.12414 0.11923,-0.18621 0.0922,-0.1583 0.16686,-0.32499 0.24552,-0.48733 0.029,-0.0713 0.0609,-0.13725 0.0925,-0.20812 0.0724,-0.16127 0.14158,-0.31905 0.2017,-0.48346 l 0.0933,-0.20754 c 0.0221,-0.0655 0.0241,-0.13904 0.0481,-0.20396 l 31.45416,-86.44283 c 0.0425,-0.10091 0.0907,-0.19751 0.12894,-0.2997 0.0652,-0.17874 0.12271,-0.36756 0.17372,-0.54756 0.022,-0.0667 0.0341,-0.13562 0.0482,-0.20402 0.0627,-0.24631 0.0978,-0.49702 0.13126,-0.74443 0.0342,-0.19398 0.0684,-0.38784 0.0816,-0.58399 0.038,-0.5439 0.004,-1.08438 -0.0745,-1.61275 -0.026,-0.17476 -0.0517,-0.35179 -0.0905,-0.52429 -0.0143,-0.0651 -0.0235,-0.13202 -0.0395,-0.19632 -0.14048,-0.56355 -0.34178,-1.09629 -0.60689,-1.6106 -0.0643,-0.13055 -0.13594,-0.2555 -0.20893,-0.38185 -0.0497,-0.0862 -0.0983,-0.17036 -0.15679,-0.25157 -0.13336,-0.20701 -0.29469,-0.38636 -0.45009,-0.58167 -0.14981,-0.18942 -0.30196,-0.38288 -0.47057,-0.5577 -0.008,-0.0114 -0.02,-0.0145 -0.0253,-0.0192 -0.0893,-0.0906 -0.17293,-0.17746 -0.26728,-0.26486 -0.17878,-0.16576 -0.35455,-0.31316 -0.55068,-0.46202 z"
         id="path3854" />
    </g>
  </g>
</svg>
