<?xml version="1.0" encoding="UTF-8" standalone="no"?>
<!-- Created with Inkscape (http://www.inkscape.org/) -->

<svg
   xmlns:dc="http://purl.org/dc/elements/1.1/"
   xmlns:cc="http://creativecommons.org/ns#"
   xmlns:rdf="http://www.w3.org/1999/02/22-rdf-syntax-ns#"
   xmlns:svg="http://www.w3.org/2000/svg"
   xmlns="http://www.w3.org/2000/svg"
   xmlns:sodipodi="http://sodipodi.sourceforge.net/DTD/sodipodi-0.dtd"
   xmlns:inkscape="http://www.inkscape.org/namespaces/inkscape"
   width="1000"
   height="1000"
   id="svg16419"
   version="1.1"
   inkscape:version="0.48.2 r9819"
   sodipodi:docname="Sun.svg"
   inkscape:export-filename="/Users/Travis/Dropbox/Kickstand/Apps/Development/NOW Weather/NOW Weather/logoSun@2x.png"
   inkscape:export-xdpi="13.2"
   inkscape:export-ydpi="13.2">
  <defs
     id="defs16421" />
  <sodipodi:namedview
     id="base"
     pagecolor="#ffffff"
     bordercolor="#666666"
     borderopacity="1.0"
     inkscape:pageopacity="0.0"
     inkscape:pageshadow="2"
     inkscape:zoom="0.53033009"
     inkscape:cx="394.7115"
     inkscape:cy="414.87693"
     inkscape:document-units="px"
     inkscape:current-layer="layer1"
     showgrid="false"
     inkscape:snap-grids="true"
     inkscape:window-width="1215"
     inkscape:window-height="756"
     inkscape:window-x="65"
     inkscape:window-y="0"
     inkscape:window-maximized="0"
     inkscape:snap-bbox="false"
     inkscape:object-nodes="false"
     showguides="true"
     inkscape:guide-bbox="true">
    <inkscape:grid
       type="xygrid"
       id="grid16427"
       empspacing="10"
       visible="true"
       enabled="true"
       snapvisiblegridlinesonly="true" />
  </sodipodi:namedview>
  <metadata
     id="metadata16424">
    <rdf:RDF>
      <cc:Work
         rdf:about="">
        <dc:format>image/svg+xml</dc:format>
        <dc:type
           rdf:resource="http://purl.org/dc/dcmitype/StillImage" />
        <dc:title></dc:title>
      </cc:Work>
    </rdf:RDF>
  </metadata>
  <g
     inkscape:label="Layer 1"
     inkscape:groupmode="layer"
     id="layer1"
     transform="translate(0,-52.36218)">
    <path
       inkscape:connector-curvature="0"
       id="rect7897"
       d="m 271.89915,361.01973 c -0.23905,0.21619 -0.45865,0.45846 -0.68188,0.69448 -0.0582,0.0618 -0.11451,0.122 -0.17143,0.18465 -0.0639,0.0706 -0.1127,0.15637 -0.17525,0.22868 -0.20919,0.24084 -0.42943,0.46868 -0.61775,0.72231 -0.0259,0.0348 -0.0501,0.0693 -0.0756,0.10432 -0.21759,0.29955 -0.42466,0.60733 -0.61305,0.92233 -0.0165,0.0277 -0.0355,0.0561 -0.0518,0.0841 -0.40239,0.68524 -0.74649,1.41106 -1.00899,2.15206 -0.0302,0.0847 -0.0387,0.17546 -0.0671,0.26031 -0.10663,0.32279 -0.20496,0.64339 -0.28479,0.97323 -0.0216,0.0876 -0.0476,0.1726 -0.0671,0.26031 -0.0463,0.21175 -0.0866,0.41874 -0.12189,0.63261 -0.11082,0.65474 -0.14386,1.30812 -0.14939,1.96108 -0.001,0.19287 -0.0137,0.38307 -0.006,0.57618 0.007,0.18571 0.003,0.37148 0.0179,0.55611 0.0196,0.2326 0.0616,0.46392 0.0944,0.69587 0.0111,0.0747 0.013,0.14939 0.0248,0.22397 0.0347,0.22002 0.095,0.43705 0.14223,0.65573 0.25222,1.17993 0.65715,2.30919 1.23573,3.36883 0.0419,0.0756 0.0699,0.15659 0.11247,0.23184 0.30292,0.52869 0.66095,1.05079 1.0415,1.53291 l 46.73171,66.72935 c 0.0182,0.0268 0.0195,0.0646 0.0366,0.0917 l 0.27759,0.379 c 0.47362,0.67713 1.01053,1.30598 1.63087,1.89505 0.0156,0.0137 0.0265,0.0332 0.0398,0.0481 0.17457,0.16426 0.34779,0.33424 0.53377,0.49036 0.42603,0.35744 0.87985,0.66836 1.33566,0.95976 0.0471,0.0302 0.10064,0.0502 0.14832,0.0795 0.26665,0.16546 0.52694,0.32614 0.80182,0.46942 0.0576,0.0301 0.1103,0.0744 0.16839,0.10347 0.2491,0.12489 0.51472,0.22649 0.76936,0.33346 0.19827,0.0828 0.39912,0.15781 0.60095,0.23006 1.71439,0.61711 3.53032,0.84169 5.3079,0.68617 0.2309,-0.0206 0.46565,-0.0608 0.69588,-0.0944 1.45992,-0.21091 2.86261,-0.66412 4.18051,-1.38659 0.13151,-0.0712 0.26578,-0.13277 0.39537,-0.20947 0.12507,-0.0747 0.25256,-0.1539 0.37531,-0.23333 0.14371,-0.0922 0.28199,-0.17474 0.42317,-0.27357 0.35424,-0.24805 0.6812,-0.52338 1.00153,-0.79969 0.13117,-0.1139 0.25968,-0.24516 0.38691,-0.36538 0.0457,-0.043 0.0983,-0.0773 0.14365,-0.12048 0.0142,-0.0158 0.0327,-0.0263 0.0481,-0.0397 0.28411,-0.27777 0.55644,-0.58389 0.80923,-0.88301 l 27.21402,-32.42184 c 0.11262,-0.12408 0.21467,-0.26397 0.32279,-0.39317 0.15952,-0.19025 0.30374,-0.3853 0.45015,-0.58172 0.019,-0.0263 0.0326,-0.0579 0.0518,-0.0842 0.22946,-0.3129 0.46452,-0.63575 0.66092,-0.96252 0.0286,-0.0479 0.0516,-0.1 0.0795,-0.14833 0.18681,-0.32023 0.37325,-0.64304 0.52886,-0.97408 0.016,-0.0341 0.016,-0.0739 0.0315,-0.10813 0.5189,-1.12994 0.85381,-2.30373 1.01641,-3.50448 0.0169,-0.12326 0.0417,-0.24899 0.0547,-0.3723 0.0303,-0.28763 0.0429,-0.57206 0.0531,-0.86045 0.004,-0.11208 0.006,-0.22021 0.007,-0.3321 0.006,-0.69901 -0.0404,-1.38618 -0.15109,-2.07609 -0.0155,-0.0994 -0.0229,-0.19329 -0.041,-0.29194 -0.0223,-0.12203 -0.0753,-0.24239 -0.1016,-0.36368 -0.14392,-0.66707 -0.33263,-1.32496 -0.58278,-1.9586 -0.10449,-0.2638 -0.20805,-0.5257 -0.33078,-0.7831 -0.0152,-0.0287 -0.023,-0.0626 -0.0366,-0.0917 -0.44963,-0.92422 -1.01466,-1.80284 -1.70138,-2.611 -0.18054,-0.21359 -0.37017,-0.42439 -0.56624,-0.6263 -0.17977,-0.18483 -0.38061,-0.36257 -0.57396,-0.53825 -0.008,-0.008 -0.0137,-0.0164 -0.0209,-0.0235 -0.11647,-0.10537 -0.22786,-0.21705 -0.3492,-0.31891 -0.19016,-0.15958 -0.38528,-0.30375 -0.58169,-0.45016 -0.0182,-0.0134 -0.046,-0.0146 -0.0641,-0.028 -0.67948,-0.50068 -1.38987,-0.9281 -2.12894,-1.27315 L 285.8831,359.11679 c -1.22123,-0.61068 -2.54877,-0.99743 -3.88915,-1.18314 -0.24377,-0.0343 -0.48076,-0.0659 -0.7245,-0.0856 -0.17679,-0.014 -0.3509,-0.0398 -0.5283,-0.0462 -0.0908,-0.003 -0.17744,0.0221 -0.26801,0.021 -1.10575,-0.0166 -2.22623,0.0926 -3.31569,0.37535 -0.21755,0.0562 -0.44556,0.11858 -0.65963,0.18607 -0.16994,0.0548 -0.33508,0.11555 -0.50348,0.17794 -0.22061,0.0801 -0.42746,0.16198 -0.64332,0.25426 -0.14687,0.0641 -0.29395,0.13591 -0.4394,0.20564 -0.0286,0.0152 -0.0626,0.023 -0.0918,0.0366 -0.33041,0.16174 -0.65837,0.34169 -0.97847,0.5355 -0.24416,0.1468 -0.47224,0.30692 -0.70659,0.47054 -0.0952,0.0668 -0.19047,0.12843 -0.2833,0.19719 -0.32365,0.23964 -0.65275,0.48738 -0.95371,0.75947 z"
       style="fill:#000000;fill-opacity:1;stroke:none" />
    <path
       style="fill:#000000;fill-opacity:1;stroke:none"
       d="m 200.63493,553.34807 c -0.0441,0.31928 -0.0566,0.64602 -0.0759,0.97031 -0.005,0.0846 -0.009,0.16702 -0.0127,0.25162 -0.004,0.0952 0.0143,0.19223 0.0127,0.28783 -0.005,0.31894 -0.0277,0.63506 -0.009,0.9504 0.003,0.0431 0.006,0.0853 0.009,0.12849 0.0258,0.36932 0.0651,0.73821 0.1232,1.10063 0.005,0.0317 0.01,0.0656 0.0142,0.0977 0.13208,0.78363 0.33522,1.56076 0.61034,2.29716 0.0319,0.0841 0.083,0.15935 0.11625,0.24236 0.12586,0.31584 0.2566,0.62459 0.40739,0.92864 0.04,0.0808 0.0748,0.16268 0.11625,0.24236 0.10058,0.19207 0.20274,0.37647 0.31325,0.56295 0.3364,0.57256 0.73068,1.09457 1.14612,1.5983 0.12334,0.14841 0.23573,0.30227 0.36575,0.44528 0.1248,0.13766 0.24111,0.28261 0.37116,0.4145 0.16446,0.1656 0.34539,0.31578 0.51961,0.47239 0.0563,0.0506 0.10603,0.10605 0.16298,0.15564 0.16823,0.14594 0.35375,0.27366 0.53046,0.41086 0.95163,0.74184 1.98773,1.34654 3.11211,1.78628 0.0803,0.0315 0.1541,0.0751 0.23533,0.10499 0.57201,0.20994 1.18178,0.38006 1.7832,0.50481 l 78.69149,21.07861 c 0.031,0.01 0.0559,0.0374 0.0868,0.0471 l 0.45621,0.11213 c 0.79807,0.21423 1.61357,0.35092 2.46742,0.40338 0.0205,0.001 0.0412,0.009 0.0615,0.011 0.23933,0.0135 0.48128,0.0325 0.7241,0.0325 0.5561,-6e-5 1.10363,-0.0535 1.64008,-0.12332 0.0556,-0.008 0.1094,-0.0264 0.16459,-0.0351 0.31064,-0.0446 0.6133,-0.0888 0.91605,-0.15543 0.0635,-0.0143 0.13227,-0.0142 0.19546,-0.0294 0.27114,-0.0644 0.53991,-0.15725 0.80371,-0.2391 0.205,-0.0643 0.40721,-0.13557 0.60827,-0.20998 1.71012,-0.62883 3.2454,-1.62447 4.50714,-2.88619 0.16375,-0.1641 0.31763,-0.3459 0.47241,-0.51963 0.98276,-1.10002 1.76597,-2.34882 2.31118,-3.74938 0.0546,-0.13924 0.11852,-0.27244 0.16824,-0.41457 0.048,-0.1375 0.0943,-0.28035 0.13752,-0.42 0.0509,-0.16302 0.1038,-0.31509 0.14837,-0.48156 0.11194,-0.41771 0.18539,-0.8388 0.25323,-1.25637 0.0272,-0.17159 0.0413,-0.35471 0.0615,-0.52858 0.007,-0.0624 0.0256,-0.12244 0.0325,-0.18466 0.001,-0.0208 0.009,-0.0408 0.011,-0.0615 0.039,-0.39543 0.051,-0.80496 0.0523,-1.1966 l 0.007,-42.32939 c 0.007,-0.16749 -0.005,-0.34021 -0.005,-0.50869 9e-5,-0.24826 -0.015,-0.4904 -0.0291,-0.73497 -0.003,-0.0324 -0.0124,-0.0654 -0.0142,-0.0977 -0.0254,-0.3872 -0.0528,-0.7856 -0.11242,-1.16217 -0.009,-0.0551 -0.0254,-0.10949 -0.0351,-0.1646 -0.0624,-0.36547 -0.12714,-0.73257 -0.22106,-1.0861 -0.01,-0.0367 -0.0357,-0.0668 -0.045,-0.10328 -0.32857,-1.19919 -0.82675,-2.31358 -1.47397,-3.33795 -0.0665,-0.10519 -0.12803,-0.21758 -0.19739,-0.32039 -0.16175,-0.23972 -0.33477,-0.46585 -0.51237,-0.69326 -0.0691,-0.0883 -0.13694,-0.17258 -0.20812,-0.25893 -0.44468,-0.53933 -0.92197,-1.03591 -1.45023,-1.49324 -0.0757,-0.0659 -0.14185,-0.13336 -0.21909,-0.19728 -0.0958,-0.0789 -0.21329,-0.13761 -0.3114,-0.21355 -0.53901,-0.41854 -1.10647,-0.80119 -1.70542,-1.12577 -0.24946,-0.13517 -0.49729,-0.26898 -0.75674,-0.3873 -0.0296,-0.0134 -0.0574,-0.0339 -0.0868,-0.0471 -0.93851,-0.41896 -1.93612,-0.7288 -2.98164,-0.90651 -0.27561,-0.0476 -0.55637,-0.0871 -0.83634,-0.11579 -0.25655,-0.0259 -0.52465,-0.0331 -0.78565,-0.0434 -0.008,4e-4 -0.0206,-0.005 -0.0309,-0.005 -0.15693,-0.006 -0.31405,-0.0199 -0.47248,-0.0199 -0.24822,1.1e-4 -0.49036,0.015 -0.73496,0.0291 -0.0225,9.2e-4 -0.0445,0.0181 -0.067,0.0199 -0.84235,0.0532 -1.66128,0.18241 -2.44925,0.39318 l -79.59926,21.31469 c -1.32804,0.31723 -2.59361,0.87429 -3.73976,1.59355 -0.20859,0.13081 -0.41071,0.25848 -0.61004,0.40013 -0.14473,0.10249 -0.29439,0.19504 -0.43443,0.30418 -0.0713,0.056 -0.12149,0.13121 -0.19189,0.18825 -0.85775,0.698 -1.64587,1.50192 -2.2987,2.41882 -0.13052,0.18287 -0.26513,0.37722 -0.3855,0.56666 -0.0952,0.15109 -0.18238,0.30394 -0.27148,0.45985 -0.11745,0.20322 -0.22356,0.39874 -0.32939,0.60829 -0.0716,0.14338 -0.13805,0.29297 -0.2045,0.43993 -0.0133,0.0295 -0.0339,0.0573 -0.047,0.0869 -0.14879,0.33649 -0.28479,0.68492 -0.40535,1.03916 -0.0929,0.26932 -0.16445,0.53867 -0.2388,0.81468 -0.03,0.11236 -0.0636,0.22073 -0.0904,0.33309 -0.0938,0.3916 -0.18682,0.79292 -0.24236,1.19482 z"
       id="path3681"
       inkscape:connector-curvature="0" />
    <path
       inkscape:connector-curvature="0"
       id="path3685"
       d="m 269.66965,746.48787 c 0.17139,0.27296 0.37186,0.53128 0.56561,0.79207 0.05,0.0685 0.10073,0.1336 0.15181,0.20105 0.0578,0.0758 0.13445,0.13817 0.19479,0.21232 0.20124,0.2475 0.38707,0.50424 0.60402,0.73381 0.0303,0.031 0.0594,0.0614 0.0897,0.0926 0.25728,0.26622 0.52436,0.52363 0.80187,0.76387 0.0244,0.021 0.0491,0.0448 0.0739,0.0656 0.60495,0.51527 1.25998,0.98018 1.94414,1.36735 0.0781,0.0447 0.16608,0.0686 0.2447,0.11129 0.2994,0.16107 0.59802,0.31355 0.90902,0.44946 0.0824,0.0363 0.16172,0.0768 0.2447,0.11127 0.20049,0.0825 0.39734,0.158 0.60181,0.2299 0.62557,0.22284 1.26328,0.36884 1.90536,0.48766 0.18979,0.0345 0.37489,0.08 0.5664,0.10596 0.18406,0.0254 0.36634,0.0616 0.55074,0.0789 0.23246,0.021 0.46757,0.0199 0.70172,0.0279 0.0757,0.003 0.14942,0.0131 0.2249,0.0145 0.2227,0.004 0.44688,-0.0178 0.67046,-0.0262 1.2058,-0.0434 2.38822,-0.24618 3.5322,-0.63196 0.0818,-0.0271 0.16637,-0.0415 0.24787,-0.0705 0.57328,-0.20651 1.14961,-0.46844 1.6905,-0.7595 l 73.83044,-34.43432 c 0.0296,-0.0133 0.0669,-0.008 0.0967,-0.0201 l 0.42146,-0.20756 c 0.74909,-0.34885 1.46165,-0.76831 2.14945,-1.27701 0.0163,-0.013 0.0367,-0.0208 0.0538,-0.0317 0.19226,-0.14313 0.38933,-0.28481 0.5756,-0.44052 0.42599,-0.35749 0.81099,-0.75046 1.17712,-1.1487 0.0382,-0.041 0.0669,-0.0904 0.10404,-0.13225 0.20921,-0.23397 0.41267,-0.46233 0.60153,-0.70817 0.0397,-0.0515 0.0924,-0.0957 0.13112,-0.14786 0.16622,-0.22371 0.31244,-0.46756 0.46201,-0.69975 0.11589,-0.18088 0.22471,-0.36567 0.3309,-0.55188 0.90544,-1.5812 1.44196,-3.33052 1.59747,-5.10811 0.0199,-0.23096 0.021,-0.46914 0.0279,-0.7017 0.0458,-1.47438 -0.15699,-2.93445 -0.63958,-4.3578 -0.0473,-0.14183 -0.0846,-0.28479 -0.13762,-0.42573 -0.0517,-0.13616 -0.10777,-0.27544 -0.16472,-0.41009 -0.0659,-0.15754 -0.12306,-0.30807 -0.19593,-0.46425 -0.18276,-0.39193 -0.39714,-0.76173 -0.61362,-1.12519 -0.0894,-0.14895 -0.19644,-0.29824 -0.29265,-0.44448 -0.0336,-0.0531 -0.0591,-0.11018 -0.0937,-0.1624 -0.0131,-0.0168 -0.0207,-0.0362 -0.0317,-0.0538 -0.22457,-0.32783 -0.47831,-0.64946 -0.7291,-0.95027 l -27.20354,-32.43105 c -0.10348,-0.13191 -0.22254,-0.25741 -0.33077,-0.38649 -0.15957,-0.19019 -0.32667,-0.36603 -0.49476,-0.54428 -0.0226,-0.0233 -0.0515,-0.0422 -0.074,-0.0655 -0.26839,-0.28026 -0.54543,-0.56786 -0.83314,-0.81802 -0.0424,-0.0364 -0.0895,-0.0679 -0.13226,-0.10405 -0.28291,-0.23961 -0.56846,-0.47921 -0.86746,-0.68995 -0.031,-0.0216 -0.07,-0.0287 -0.10089,-0.0498 -1.02267,-0.70723 -2.12047,-1.2409 -3.27475,-1.60951 -0.11847,-0.0381 -0.23794,-0.0843 -0.35711,-0.11862 -0.27801,-0.0797 -0.55593,-0.14158 -0.83815,-0.20171 -0.10958,-0.0233 -0.21584,-0.0442 -0.32585,-0.0646 -0.68736,-0.12728 -1.37214,-0.20092 -2.07079,-0.21172 -0.10043,-0.002 -0.19435,-0.011 -0.29462,-0.0103 -0.12409,9.6e-4 -0.25182,0.0318 -0.37585,0.0365 -0.68193,0.0259 -1.36259,0.0975 -2.03006,0.23384 -0.27793,0.0571 -0.55385,0.1136 -0.82863,0.18977 -0.0308,0.01 -0.0656,0.0114 -0.0967,0.0201 -0.98825,0.2823 -1.95164,0.68619 -2.86676,1.22213 -0.24173,0.14071 -0.48224,0.29085 -0.71512,0.4489 -0.21294,0.14536 -0.42323,0.31178 -0.62978,0.47168 -0.009,0.007 -0.0188,0.0104 -0.0266,0.0165 -0.12388,0.0966 -0.2531,0.18694 -0.3747,0.2885 -0.1902,0.15946 -0.36596,0.32676 -0.54427,0.49476 -0.0164,0.0156 -0.0223,0.0427 -0.0385,0.0584 -0.61106,0.58217 -1.15533,1.20759 -1.62348,1.87551 l -47.27503,67.49227 c -0.81347,1.09662 -1.42487,2.33685 -1.84052,3.62462 -0.0761,0.23411 -0.14838,0.462 -0.2101,0.69862 -0.0445,0.17166 -0.10003,0.33868 -0.13724,0.51227 -0.0188,0.0888 -0.009,0.17862 -0.0259,0.26754 -0.20834,1.08607 -0.29538,2.20851 -0.2061,3.33051 0.0175,0.22403 0.0394,0.4594 0.0689,0.68189 0.0241,0.17697 0.0556,0.35005 0.0878,0.52674 0.0406,0.2312 0.0853,0.44912 0.13869,0.6777 0.0376,0.15575 0.0828,0.31307 0.12616,0.46844 0.01,0.0309 0.0114,0.0656 0.0201,0.0967 0.10192,0.35345 0.22216,0.70767 0.35744,1.05658 0.10214,0.26596 0.22027,0.51835 0.34069,0.77756 0.0492,0.10532 0.0934,0.20989 0.14499,0.31323 0.17979,0.36034 0.36663,0.72748 0.58232,1.07108 z"
       style="fill:#000000;fill-opacity:1;stroke:none" />
    <path
       style="fill:#000000;fill-opacity:1;stroke:none"
       d="m 446.70121,850.06685 c 0.30679,0.0989 0.62639,0.16798 0.94238,0.24336 0.0825,0.02 0.16285,0.0373 0.24559,0.0562 0.093,0.0202 0.19174,0.019 0.28575,0.038 0.3132,0.0603 0.62058,0.13753 0.93439,0.17389 0.0431,0.005 0.0851,0.009 0.12802,0.013 0.36822,0.0386 0.73829,0.0641 1.10531,0.0697 0.033,0.004 0.0663,0.003 0.0986,0.003 0.79466,0.006 1.59527,-0.059 2.36823,-0.20221 0.0885,-0.0164 0.17129,-0.0546 0.25894,-0.0721 0.33292,-0.0688 0.65955,-0.14473 0.98529,-0.23973 0.0865,-0.0254 0.1731,-0.0458 0.25893,-0.0721 0.2066,-0.0659 0.40592,-0.13453 0.6088,-0.21072 0.62227,-0.23188 1.20481,-0.52956 1.77305,-0.85122 0.16755,-0.0956 0.33857,-0.17962 0.50201,-0.28287 0.15725,-0.0988 0.32018,-0.18836 0.47263,-0.29353 0.19164,-0.1333 0.37098,-0.28525 0.55544,-0.42968 0.0595,-0.047 0.12294,-0.0856 0.18169,-0.13358 0.17317,-0.14 0.33091,-0.30083 0.4967,-0.4511 0.8958,-0.80834 1.67126,-1.7236 2.29957,-2.75457 0.0448,-0.0739 0.10077,-0.1387 0.14422,-0.21359 0.3061,-0.52685 0.5795,-1.0978 0.8068,-1.66844 l 34.42303,-73.83569 c 0.0152,-0.0288 0.0468,-0.0485 0.0614,-0.0773 l 0.18964,-0.42981 c 0.34956,-0.74874 0.6258,-1.52812 0.82573,-2.35989 0.006,-0.0197 0.0162,-0.0391 0.0215,-0.0586 0.0549,-0.23333 0.11556,-0.46833 0.15775,-0.70747 0.0965,-0.54766 0.13883,-1.09616 0.16334,-1.63656 0.003,-0.0558 -0.007,-0.11236 -0.005,-0.16828 0.01,-0.31368 0.0189,-0.61941 0.006,-0.9291 -0.002,-0.0651 0.009,-0.13272 0.005,-0.1976 -0.0165,-0.27821 -0.0612,-0.559 -0.0959,-0.83304 -0.0274,-0.213 -0.0629,-0.42454 -0.10128,-0.63542 -0.32231,-1.79335 -1.03621,-3.4782 -2.05967,-4.93987 -0.13317,-0.18977 -0.28549,-0.37288 -0.4297,-0.55546 -0.91266,-1.15886 -2.00649,-2.14702 -3.29108,-2.92715 -0.12772,-0.0778 -0.2477,-0.16405 -0.37907,-0.23768 -0.1271,-0.0711 -0.25971,-0.14154 -0.38975,-0.20834 -0.15177,-0.0783 -0.29228,-0.15696 -0.44847,-0.22977 -0.39192,-0.18277 -0.79388,-0.3282 -1.19332,-0.46753 -0.1642,-0.0566 -0.34216,-0.10226 -0.50987,-0.15236 -0.0604,-0.0178 -0.11619,-0.0464 -0.17618,-0.0642 -0.0204,-0.006 -0.0386,-0.0159 -0.0587,-0.0215 -0.38263,-0.10718 -0.78385,-0.19001 -1.16933,-0.25929 l -41.68492,-7.35652 c -0.1639,-0.035 -0.33592,-0.0542 -0.50183,-0.0834 -0.24446,-0.0431 -0.48554,-0.0704 -0.72884,-0.099 -0.0323,-0.003 -0.0666,6.8e-4 -0.0987,-0.003 -0.38573,-0.0422 -0.78283,-0.0844 -1.16405,-0.0911 -0.0558,-7.3e-4 -0.11231,0.005 -0.16821,0.005 -0.37073,-0.002 -0.74351,-0.002 -1.10799,0.029 -0.0379,0.003 -0.072,0.0235 -0.10954,0.0264 -1.238,0.11559 -2.42199,0.41244 -3.54317,0.87205 -0.11515,0.0472 -0.2365,0.0882 -0.34981,0.13865 -0.26419,0.11767 -0.51692,0.24879 -0.7717,0.38421 -0.099,0.0527 -0.19374,0.10493 -0.29113,0.16 -0.60838,0.34426 -1.18026,0.72808 -1.72239,1.16891 -0.078,0.0631 -0.15594,0.11655 -0.23233,0.18151 -0.0944,0.0805 -0.17256,0.18618 -0.26438,0.2696 -0.50578,0.45815 -0.98112,0.95055 -1.40479,1.48403 -0.17644,0.22218 -0.35124,0.44304 -0.5128,0.678 -0.018,0.0268 -0.0433,0.0506 -0.0614,0.0772 -0.57558,0.85152 -1.05396,1.78016 -1.4105,2.77893 -0.0947,0.26317 -0.18239,0.53281 -0.25928,0.80353 -0.0701,0.24816 -0.12369,0.51091 -0.17918,0.76618 -5.8e-4,0.008 -0.009,0.0189 -0.0102,0.0294 -0.0331,0.1535 -0.074,0.30583 -0.10154,0.46185 -0.0431,0.24446 -0.0704,0.48555 -0.099,0.72885 -0.003,0.0224 0.0103,0.047 0.008,0.0693 -0.0939,0.83878 -0.10884,1.66771 -0.0381,2.48029 l 7.16843,82.08992 c 0.0817,1.36291 0.41061,2.7059 0.91993,3.95961 0.0926,0.22808 0.18334,0.44929 0.28813,0.67025 0.0759,0.16036 0.14096,0.32374 0.22414,0.48068 0.0428,0.0798 0.10827,0.14236 0.15247,0.22128 0.53848,0.96597 1.19331,1.88168 1.98288,2.68385 0.15751,0.16029 0.32549,0.32665 0.4911,0.47809 0.13228,0.12005 0.26761,0.23246 0.4057,0.34723 0.17974,0.15098 0.3539,0.28934 0.54186,0.43004 0.12878,0.0954 0.2646,0.18679 0.39772,0.27775 0.0268,0.0176 0.0506,0.0429 0.0773,0.0615 0.30552,0.20496 0.62506,0.39943 0.95298,0.57962 0.24907,0.13825 0.50192,0.25543 0.7608,0.37661 0.10539,0.0495 0.20639,0.101 0.31236,0.14689 0.36937,0.1604 0.74842,0.32163 1.13458,0.44617 z"
       id="path3687"
       inkscape:connector-curvature="0" />
    <path
       inkscape:connector-curvature="0"
       id="path3689"
       d="m 648.89454,815.61931 c 0.29853,-0.12168 0.58778,-0.27403 0.87826,-0.41948 0.0761,-0.0378 0.14901,-0.076 0.22434,-0.1147 0.0847,-0.0434 0.15959,-0.10835 0.24296,-0.15494 0.27872,-0.15505 0.56383,-0.29347 0.82756,-0.4674 0.0359,-0.0246 0.0714,-0.0471 0.1067,-0.0726 0.30667,-0.2074 0.60676,-0.42542 0.8915,-0.65709 0.0249,-0.0206 0.0526,-0.0408 0.0773,-0.0614 0.61259,-0.50617 1.18414,-1.07059 1.6842,-1.67714 0.0576,-0.069 0.0964,-0.15164 0.15212,-0.22159 0.21059,-0.26692 0.41263,-0.53457 0.60048,-0.81718 0.0501,-0.0748 0.10373,-0.14593 0.15211,-0.22158 0.11601,-0.18323 0.22459,-0.36393 0.33089,-0.55286 0.32807,-0.57734 0.58261,-1.17999 0.81112,-1.79167 0.0669,-0.18096 0.14387,-0.35528 0.20271,-0.53939 0.0568,-0.17686 0.12427,-0.3501 0.17332,-0.52873 0.0611,-0.22524 0.1008,-0.45695 0.14934,-0.68616 0.016,-0.0739 0.0388,-0.14484 0.0534,-0.219 0.0426,-0.21861 0.0601,-0.44316 0.0905,-0.66481 0.16664,-1.1951 0.17228,-2.3947 -0.009,-3.58824 -0.013,-0.085 -0.0119,-0.17114 -0.0267,-0.25636 -0.10385,-0.60049 -0.26179,-1.21347 -0.4544,-1.79669 L 634.9625,721.42202 c -0.008,-0.0316 0.005,-0.0672 -0.003,-0.0987 l -0.13123,-0.4511 c -0.21346,-0.79828 -0.50292,-1.57285 -0.88437,-2.33856 -0.0103,-0.0179 -0.0141,-0.0398 -0.0209,-0.0589 -0.10763,-0.21418 -0.21288,-0.43285 -0.33387,-0.64334 -0.27807,-0.48157 -0.59823,-0.92897 -0.92684,-1.3587 -0.0338,-0.0446 -0.0775,-0.0815 -0.11192,-0.12565 -0.19398,-0.2467 -0.38364,-0.48667 -0.59263,-0.71559 -0.0444,-0.0477 -0.0788,-0.10719 -0.12311,-0.1546 -0.19145,-0.20256 -0.4062,-0.38888 -0.60893,-0.5765 -0.158,-0.14552 -0.32111,-0.28475 -0.48604,-0.42168 -1.39994,-1.16627 -3.02953,-1.99839 -4.7531,-2.46023 -0.224,-0.0597 -0.45835,-0.10213 -0.68619,-0.1493 -1.44403,-0.30114 -2.91713,-0.35498 -4.40266,-0.12687 -0.14794,0.022 -0.29517,0.0336 -0.44315,0.0616 -0.14311,0.0273 -0.28999,0.0583 -0.43248,0.091 -0.16659,0.0375 -0.32481,0.0675 -0.49122,0.1123 -0.4177,0.11193 -0.81913,0.25882 -1.21465,0.4089 -0.16216,0.0622 -0.32782,0.14168 -0.48853,0.21103 -0.0581,0.0239 -0.11877,0.0391 -0.17622,0.0641 -0.0189,0.009 -0.0393,0.014 -0.0589,0.0209 -0.3618,0.16422 -0.72257,0.35834 -1.06242,0.553 l -36.66183,21.15864 c -0.14784,0.079 -0.2921,0.17444 -0.43805,0.25863 -0.21493,0.12421 -0.41718,0.25815 -0.6219,0.39273 -0.0271,0.0183 -0.0508,0.0429 -0.0773,0.0614 -0.32239,0.2159 -0.65394,0.43852 -0.95026,0.67843 -0.0432,0.0353 -0.0827,0.0761 -0.12565,0.11192 -0.28528,0.23674 -0.57083,0.47637 -0.83012,0.73441 -0.0265,0.027 -0.0404,0.0641 -0.0666,0.0908 -0.87408,0.88433 -1.59025,1.87277 -2.15372,2.9455 -0.0582,0.11007 -0.1243,0.2197 -0.17882,0.3311 -0.12677,0.25993 -0.23596,0.5229 -0.34418,0.79037 -0.0422,0.10401 -0.081,0.2049 -0.12021,0.30968 -0.24472,0.65482 -0.43612,1.31641 -0.56808,2.00257 -0.0195,0.0986 -0.0446,0.1895 -0.0613,0.28838 -0.0207,0.12231 -0.0125,0.25352 -0.0292,0.37646 -0.0929,0.67608 -0.1406,1.35882 -0.12222,2.03981 0.008,0.28363 0.0157,0.56517 0.043,0.84901 0.004,0.0322 -5.2e-4,0.0667 0.003,0.0987 0.10643,1.02226 0.33686,2.04114 0.70575,3.03543 0.0966,0.26248 0.2027,0.52542 0.31799,0.78216 0.10621,0.23496 0.23355,0.47094 0.35516,0.70214 0.006,0.009 0.007,0.02 0.0112,0.0291 0.0735,0.13883 0.14015,0.28173 0.21914,0.41905 0.12431,0.21492 0.25817,0.41721 0.39263,0.62198 0.0125,0.0188 0.0382,0.0294 0.0507,0.0479 0.46725,0.70289 0.98859,1.34755 1.56513,1.92453 l 58.25767,58.27672 c 0.93875,0.99145 2.05393,1.80902 3.24994,2.44196 0.21736,0.11561 0.42923,0.2263 0.65154,0.32824 0.1614,0.0736 0.31615,0.15729 0.48064,0.22415 0.0842,0.0339 0.17425,0.0393 0.25901,0.0719 1.0334,0.39384 2.12366,0.67438 3.24412,0.78134 0.22362,0.0215 0.45925,0.041 0.68348,0.0505 0.17851,0.007 0.35432,0.006 0.534,0.005 0.23478,2.4e-4 0.45717,-0.005 0.6915,-0.0189 0.1599,-0.01 0.32268,-0.0275 0.48329,-0.0426 0.0319,-0.006 0.0667,4.3e-4 0.0986,-0.003 0.36583,-0.0391 0.73548,-0.0962 1.10253,-0.16902 0.27879,-0.0593 0.54867,-0.12721 0.82496,-0.20029 0.11224,-0.0299 0.22292,-0.0556 0.33366,-0.0883 0.38603,-0.11477 0.78003,-0.23502 1.15593,-0.38741 z"
       style="fill:#000000;fill-opacity:1;stroke:none" />
    <path
       style="fill:#000000;fill-opacity:1;stroke:none"
       d="m 781.64111,659.26354 c 0.15067,-0.28495 0.27415,-0.58771 0.40329,-0.8858 0.0335,-0.0777 0.0657,-0.15389 0.098,-0.23209 0.0362,-0.088 0.0525,-0.18555 0.0865,-0.27482 0.1138,-0.298 0.24323,-0.58729 0.33352,-0.89 0.0124,-0.0416 0.0238,-0.0821 0.0356,-0.12372 0.10196,-0.35593 0.19134,-0.71596 0.26059,-1.07642 0.006,-0.0317 0.0147,-0.0648 0.0202,-0.0965 0.14388,-0.78152 0.21892,-1.58127 0.21209,-2.36738 -5.3e-4,-0.09 -0.0233,-0.17818 -0.0259,-0.26757 -0.0103,-0.3398 -0.0275,-0.67466 -0.0653,-1.01196 -0.01,-0.0896 -0.0144,-0.17842 -0.0259,-0.26752 -0.0287,-0.21487 -0.0618,-0.42311 -0.10182,-0.63615 -0.12023,-0.65309 -0.31224,-1.27844 -0.53035,-1.89391 -0.065,-0.18165 -0.11811,-0.36465 -0.19139,-0.54352 -0.07,-0.17204 -0.12991,-0.34805 -0.20701,-0.51643 -0.0981,-0.21181 -0.21656,-0.41488 -0.32662,-0.62167 -0.0357,-0.0668 -0.0635,-0.13588 -0.0997,-0.2021 -0.10778,-0.19486 -0.23883,-0.37811 -0.35798,-0.56749 -0.64048,-1.02257 -1.40732,-1.94516 -2.31339,-2.743 -0.0648,-0.0569 -0.11922,-0.12329 -0.18527,-0.17912 -0.46571,-0.39296 -0.9805,-0.76137 -1.50299,-1.08426 l -66.73649,-46.72152 c -0.0261,-0.0198 -0.0396,-0.0546 -0.0658,-0.0738 l -0.39035,-0.26141 c -0.67668,-0.47425 -1.39623,-0.8816 -2.18065,-1.22295 -0.0188,-0.008 -0.0356,-0.0226 -0.054,-0.0314 -0.22024,-0.0947 -0.44116,-0.19515 -0.6693,-0.27819 -0.5226,-0.19014 -1.05542,-0.32709 -1.58335,-0.44506 -0.0545,-0.0126 -0.11191,-0.0126 -0.16654,-0.0244 -0.30716,-0.0643 -0.60669,-0.12627 -0.91395,-0.16724 -0.0644,-0.008 -0.12918,-0.032 -0.1937,-0.0392 -0.27681,-0.0321 -0.56113,-0.0368 -0.83703,-0.0502 -0.21458,-0.01 -0.42899,-0.0118 -0.64337,-0.0106 -1.82208,0.006 -3.60528,0.41649 -5.22247,1.17059 -0.20997,0.0983 -0.41678,0.21639 -0.62165,0.32671 -1.29973,0.69756 -2.46284,1.60316 -3.45418,2.73279 -0.0988,0.11226 -0.2046,0.21536 -0.29986,0.33205 -0.0921,0.11291 -0.18454,0.23114 -0.27289,0.34763 -0.10344,0.13588 -0.20536,0.26051 -0.30413,0.40177 -0.24805,0.35424 -0.46109,0.72483 -0.66765,1.09399 -0.0843,0.15188 -0.16015,0.31921 -0.23859,0.47568 -0.0282,0.0562 -0.0658,0.10635 -0.0938,0.16234 -0.009,0.0189 -0.0224,0.0353 -0.0314,0.054 -0.172,0.35821 -0.32326,0.73896 -0.45841,1.10654 l -14.4841,39.77423 c -0.063,0.15529 -0.11161,0.32142 -0.16927,0.47971 -0.0849,0.23326 -0.15365,0.46595 -0.22406,0.70059 -0.01,0.031 -0.0108,0.0658 -0.0201,0.0966 -0.10853,0.37253 -0.21905,0.7563 -0.29184,1.13053 -0.0104,0.0548 -0.0147,0.11144 -0.0244,0.16653 -0.0663,0.36476 -0.13109,0.73188 -0.16386,1.09621 -0.002,0.0378 0.0102,0.0751 0.007,0.11246 -0.10115,1.23928 -0.0144,2.45681 0.24348,3.64077 0.0265,0.12161 0.0458,0.24825 0.0758,0.3686 0.07,0.28061 0.15526,0.55227 0.24437,0.82671 0.0348,0.10665 0.0696,0.209 0.10703,0.31446 0.2334,0.65895 0.51208,1.2888 0.85207,1.89921 0.0487,0.0879 0.0877,0.17382 0.13841,0.26034 0.0626,0.10706 0.15363,0.20204 0.21984,0.30698 0.36337,0.57766 0.76574,1.13129 1.21752,1.64117 0.1884,0.21216 0.37532,0.42285 0.57868,0.62271 0.0242,0.0219 0.0423,0.0515 0.0658,0.0738 0.73862,0.71469 1.57008,1.34706 2.49175,1.87162 0.24272,0.13899 0.49304,0.27215 0.74631,0.39485 0.23223,0.11214 0.48168,0.21055 0.72343,0.30951 0.01,0.002 0.0175,0.0121 0.0273,0.0151 0.14548,0.0593 0.28836,0.12599 0.43723,0.18018 0.23327,0.0849 0.46594,0.15367 0.7006,0.22407 0.0214,0.007 0.0481,-0.002 0.0698,0.004 0.80971,0.23812 1.62349,0.39676 2.43601,0.46819 l 82.0875,7.19526 c 1.35645,0.15612 2.7362,0.0655 4.05927,-0.21838 0.24072,-0.0516 0.47432,-0.10242 0.71009,-0.16734 0.17106,-0.0469 0.34332,-0.0827 0.51226,-0.13724 0.0863,-0.0283 0.15899,-0.082 0.24489,-0.11091 1.04478,-0.36256 2.06032,-0.84843 2.9874,-1.48674 0.18514,-0.12728 0.37812,-0.2638 0.55619,-0.40043 0.14101,-0.10965 0.27535,-0.22319 0.41225,-0.3394 0.17988,-0.1508 0.34631,-0.29845 0.51758,-0.45897 0.11612,-0.11044 0.22991,-0.22811 0.34256,-0.34352 0.0225,-0.0234 0.0515,-0.0423 0.0738,-0.0658 0.25487,-0.26526 0.50185,-0.54617 0.73629,-0.83783 0.17938,-0.22133 0.33875,-0.44995 0.50303,-0.68386 0.0666,-0.0952 0.13526,-0.18572 0.19885,-0.28213 0.2221,-0.33591 0.44675,-0.6812 0.63641,-1.03988 z"
       id="path3691"
       inkscape:connector-curvature="0" />
    <path
       inkscape:connector-curvature="0"
       id="path3693"
       d="m 782.82738,454.16022 c -0.0677,-0.3151 -0.16773,-0.62642 -0.2606,-0.93774 -0.0235,-0.0814 -0.0491,-0.15994 -0.0738,-0.24086 -0.0285,-0.0907 -0.0788,-0.17598 -0.11039,-0.26611 -0.10433,-0.30145 -0.19127,-0.60621 -0.31663,-0.89616 -0.0178,-0.0396 -0.0338,-0.0783 -0.0524,-0.11768 -0.15109,-0.33802 -0.31366,-0.67143 -0.49228,-0.99208 -0.0168,-0.0276 -0.031,-0.0589 -0.0471,-0.0867 -0.39214,-0.69114 -0.84873,-1.35202 -1.3592,-1.94984 -0.058,-0.0688 -0.1325,-0.12133 -0.19186,-0.1883 -0.22631,-0.2537 -0.45473,-0.49914 -0.7005,-0.73324 -0.0652,-0.0622 -0.12568,-0.1275 -0.19176,-0.18832 -0.16024,-0.14608 -0.31927,-0.28442 -0.48688,-0.42186 -0.51167,-0.42335 -1.06097,-0.77868 -1.62368,-1.10992 -0.16666,-0.0972 -0.32489,-0.20337 -0.496,-0.2933 -0.16427,-0.0867 -0.32318,-0.18318 -0.49055,-0.26251 -0.21124,-0.0993 -0.43256,-0.17861 -0.64983,-0.26622 -0.07,-0.0287 -0.13592,-0.0634 -0.20637,-0.0905 -0.20789,-0.0799 -0.42601,-0.13614 -0.63901,-0.20457 -1.14796,-0.37163 -2.3284,-0.58549 -3.53534,-0.61424 -0.0861,-0.002 -0.17055,-0.0179 -0.25705,-0.0181 -0.60938,-0.002 -1.24053,0.047 -1.84835,0.13552 l -81.15525,7.1067 c -0.0325,0.002 -0.0654,-0.0167 -0.0977,-0.0143 l -0.46705,0.0507 c -0.82322,0.0716 -1.63628,0.22211 -2.45659,0.46484 -0.0186,0.007 -0.0416,0.006 -0.0618,0.0103 -0.22962,0.0688 -0.46324,0.13449 -0.69155,0.21709 -0.52254,0.19023 -1.01873,0.42783 -1.49897,0.67681 -0.0499,0.0256 -0.0938,0.0622 -0.14322,0.0884 -0.27663,0.14818 -0.54592,0.2933 -0.80764,0.45936 -0.0541,0.0363 -0.11922,0.059 -0.17362,0.0944 -0.23279,0.15327 -0.45357,0.33243 -0.6735,0.49957 -0.17062,0.13051 -0.33622,0.2667 -0.49967,0.40543 -1.39193,1.17581 -2.49409,2.63649 -3.24819,4.25368 -0.0977,0.21027 -0.18022,0.43365 -0.26622,0.64985 -0.54731,1.36978 -0.85614,2.81117 -0.88946,4.31373 -0.003,0.1495 -0.0183,0.29651 -0.0163,0.44712 0.002,0.14565 0.007,0.29569 0.0144,0.44171 0.008,0.17057 0.0101,0.33157 0.0253,0.50326 0.0377,0.43081 0.11269,0.85161 0.19176,1.26722 0.0331,0.17048 0.0825,0.34744 0.12298,0.51775 0.0138,0.0612 0.0178,0.12375 0.0325,0.18468 0.006,0.02 0.006,0.041 0.0103,0.0616 0.099,0.38482 0.22733,0.77386 0.36012,1.1423 l 14.47094,39.77903 c 0.052,0.1593 0.12106,0.31797 0.17863,0.4763 0.0849,0.23329 0.18178,0.45568 0.27867,0.68069 0.0134,0.0297 0.0344,0.057 0.0472,0.0867 0.15661,0.35496 0.31831,0.72016 0.50313,1.05365 0.0274,0.0487 0.0606,0.0947 0.0884,0.14317 0.18362,0.32208 0.37002,0.64492 0.57912,0.94508 0.022,0.0307 0.0561,0.0509 0.0776,0.0815 0.71892,1.0145 1.56818,1.89129 2.52678,2.63247 0.0984,0.0764 0.19478,0.16058 0.29497,0.23364 0.234,0.16995 0.47399,0.32317 0.7186,0.4762 0.0952,0.0594 0.18772,0.11535 0.28412,0.17215 0.60236,0.3547 1.22066,0.6581 1.87348,0.90719 0.0936,0.0362 0.17893,0.0768 0.27336,0.11046 0.11686,0.0415 0.2475,0.0563 0.36569,0.0941 0.64967,0.2089 1.31375,0.37441 1.98759,0.47456 0.28069,0.0414 0.55931,0.0827 0.84356,0.10508 0.0323,0.001 0.0656,0.0122 0.0977,0.0143 1.0252,0.0727 2.06862,0.0227 3.11185,-0.16793 0.27528,-0.0495 0.55262,-0.10841 0.82551,-0.17724 0.24986,-0.0639 0.50435,-0.14823 0.75312,-0.22794 0.0101,-0.004 0.0205,-0.003 0.0307,-0.006 0.14948,-0.0484 0.30179,-0.0892 0.45079,-0.14295 0.23322,-0.085 0.45567,-0.18179 0.68066,-0.27876 0.0207,-0.009 0.0356,-0.0324 0.056,-0.0417 0.77333,-0.33808 1.49867,-0.73967 2.16703,-1.20714 l 67.50775,-47.25295 c 1.13944,-0.75232 2.13816,-1.7086 2.96918,-2.77652 0.15158,-0.19397 0.29746,-0.38339 0.4364,-0.58465 0.10049,-0.14614 0.20986,-0.28402 0.30418,-0.43441 0.0481,-0.077 0.0695,-0.16479 0.11589,-0.24257 0.56724,-0.94932 1.03291,-1.97429 1.33278,-3.05917 0.06,-0.2165 0.12013,-0.44514 0.16841,-0.66434 0.0379,-0.17454 0.0674,-0.34798 0.0977,-0.52499 0.0409,-0.23118 0.0735,-0.45122 0.10145,-0.68426 0.018,-0.15929 0.0294,-0.32255 0.0417,-0.48334 0.002,-0.0322 0.0123,-0.0656 0.0143,-0.0977 0.0247,-0.36706 0.0334,-0.74098 0.0255,-1.11513 -0.005,-0.28483 -0.0297,-0.56241 -0.0542,-0.8472 -0.0102,-0.11569 -0.0157,-0.22919 -0.029,-0.34395 -0.0458,-0.40008 -0.0956,-0.809 -0.18091,-1.20566 z"
       style="fill:#000000;fill-opacity:1;stroke:none" />
    <path
       style="fill:#000000;fill-opacity:1;stroke:none"
       d="m 651.89823,296.27943 c -0.25441,-0.19788 -0.53115,-0.37204 -0.8023,-0.55098 -0.0708,-0.0466 -0.14022,-0.0913 -0.21153,-0.13682 -0.0805,-0.051 -0.1736,-0.0838 -0.25563,-0.13291 -0.27372,-0.1638 -0.53614,-0.34152 -0.81857,-0.48298 -0.0389,-0.0195 -0.077,-0.0376 -0.11579,-0.0566 -0.33281,-0.16223 -0.67187,-0.31274 -1.01482,-0.44355 -0.03,-0.0114 -0.0612,-0.0257 -0.0915,-0.0366 -0.74466,-0.27741 -1.51923,-0.49015 -2.29457,-0.61997 -0.0887,-0.0151 -0.17952,-0.008 -0.26798,-0.021 -0.33645,-0.0489 -0.66918,-0.0901 -1.00793,-0.11143 -0.0901,-0.006 -0.17819,-0.0168 -0.26798,-0.021 -0.2166,-0.009 -0.4274,-0.0126 -0.64412,-0.0102 -0.66408,0.005 -1.31328,0.0855 -1.95727,0.19342 -0.19019,0.0325 -0.37961,0.053 -0.56848,0.0942 -0.18158,0.0391 -0.36533,0.0675 -0.54452,0.11419 -0.22563,0.0598 -0.44619,0.14123 -0.66892,0.2138 -0.072,0.0235 -0.14477,0.0389 -0.21632,0.0631 -0.21061,0.0724 -0.41388,0.16954 -0.62104,0.25399 -1.11821,0.45328 -2.15998,1.04814 -3.10304,1.80193 -0.0669,0.0542 -0.14211,0.0959 -0.20881,0.15098 -0.46807,0.39014 -0.92007,0.83339 -1.32877,1.29189 l -57.60037,57.60952 c -0.0241,0.0223 -0.0606,0.0295 -0.0841,0.0519 l -0.3252,0.33904 c -0.58459,0.584 -1.11066,1.22191 -1.58304,1.93517 -0.0106,0.0175 -0.028,0.0318 -0.0403,0.0477 -0.13147,0.20047 -0.26877,0.40057 -0.3902,0.61084 -0.27798,0.48165 -0.50537,0.98258 -0.71323,1.48202 -0.0218,0.0515 -0.0316,0.10796 -0.0529,0.15975 -0.11666,0.29132 -0.22972,0.57555 -0.32345,0.87101 -0.0191,0.0622 -0.0538,0.12174 -0.0722,0.18397 -0.0798,0.26705 -0.13368,0.54622 -0.19479,0.81561 -0.047,0.20957 -0.0861,0.42043 -0.12215,0.63174 -0.31048,1.79543 -0.21588,3.62285 0.24592,5.34643 0.0604,0.22384 0.14074,0.44801 0.21381,0.66892 0.46126,1.40112 1.15111,2.7038 2.09145,3.87623 0.093,0.1171 0.1769,0.23868 0.27494,0.35299 0.0953,0.11022 0.19545,0.22204 0.29488,0.32916 0.11585,0.12548 0.22097,0.24742 0.34291,0.36923 0.30578,0.30579 0.63372,0.57995 0.96142,0.84749 0.13493,0.10934 0.28655,0.21315 0.42703,0.31757 0.0505,0.0373 0.0933,0.0833 0.1436,0.12057 0.017,0.0129 0.0308,0.0284 0.0477,0.0403 0.3229,0.23159 0.67159,0.44665 1.01011,0.64358 l 36.65484,21.1708 c 0.14198,0.0889 0.29713,0.16571 0.44302,0.25 0.21499,0.1241 0.4322,0.23219 0.65104,0.34229 0.0289,0.0153 0.0629,0.0221 0.0915,0.0366 0.34801,0.17156 0.70674,0.34704 1.06267,0.48372 0.0521,0.0199 0.10712,0.0339 0.15975,0.0529 0.34768,0.12874 0.69799,0.25619 1.05109,0.35171 0.0367,0.01 0.0757,0.003 0.11191,0.0126 1.20288,0.31481 2.417,0.4408 3.62773,0.39242 0.12431,-0.005 0.25245,-0.002 0.37617,-0.0106 0.28851,-0.0201 0.57082,-0.0571 0.85659,-0.0971 0.11109,-0.0155 0.21795,-0.0323 0.32826,-0.0508 0.68944,-0.11548 1.35811,-0.2805 2.0183,-0.50934 0.095,-0.0327 0.18643,-0.0561 0.2804,-0.0911 0.11635,-0.0432 0.22566,-0.11625 0.34052,-0.16319 0.63196,-0.25754 1.24706,-0.55766 1.82764,-0.91403 0.24165,-0.14872 0.4816,-0.29619 0.71376,-0.46176 0.0258,-0.0201 0.0577,-0.0335 0.084,-0.052 0.8321,-0.60328 1.59925,-1.3123 2.27588,-2.12891 0.17907,-0.2148 0.35363,-0.43828 0.51845,-0.6664 0.15076,-0.20921 0.29098,-0.43779 0.43043,-0.6587 0.005,-0.0101 0.0149,-0.015 0.0195,-0.0247 0.0837,-0.13294 0.17416,-0.26207 0.25342,-0.39928 0.1241,-0.21498 0.23221,-0.43219 0.34227,-0.65106 0.0107,-0.0196 0.006,-0.0478 0.0162,-0.0681 0.37513,-0.75607 0.67268,-1.52991 0.88413,-2.31768 l 21.34027,-79.591 c 0.38929,-1.30872 0.53963,-2.68324 0.48982,-4.0355 -0.009,-0.24605 -0.0186,-0.48492 -0.0415,-0.72838 -0.017,-0.17652 -0.0218,-0.35246 -0.0462,-0.52829 -0.0128,-0.09 -0.0531,-0.17084 -0.0666,-0.26045 -0.17566,-1.09183 -0.47777,-2.17633 -0.94547,-3.20015 -0.0932,-0.20442 -0.19416,-0.41818 -0.29778,-0.61728 -0.0835,-0.15787 -0.17198,-0.30993 -0.26266,-0.46492 -0.11729,-0.20334 -0.23376,-0.39287 -0.36211,-0.5894 -0.0885,-0.13357 -0.1849,-0.26593 -0.27882,-0.39703 -0.0191,-0.0263 -0.0335,-0.0577 -0.0519,-0.0841 -0.21664,-0.29732 -0.45071,-0.5891 -0.69725,-0.87063 -0.18695,-0.21495 -0.38427,-0.41176 -0.5861,-0.61416 -0.0823,-0.082 -0.15941,-0.16546 -0.2433,-0.24482 -0.29226,-0.27704 -0.59324,-0.55827 -0.91355,-0.8073 z"
       id="path3695"
       inkscape:connector-curvature="0" />
    <path
       inkscape:connector-curvature="0"
       id="path3697"
       d="m 450.11688,259.49535 c -0.32208,0.012 -0.64604,0.0564 -0.96878,0.0937 -0.0841,0.01 -0.16603,0.0201 -0.24997,0.0312 -0.0942,0.0125 -0.18696,0.047 -0.28128,0.0624 -0.31496,0.0505 -0.63021,0.0831 -0.93751,0.15617 -0.042,0.0105 -0.0832,0.0198 -0.12499,0.0312 -0.3591,0.09 -0.71569,0.19229 -1.06248,0.31254 -0.0302,0.0114 -0.0633,0.0203 -0.0935,0.0312 -0.74874,0.26616 -1.47887,0.60105 -2.15625,0.99996 -0.0773,0.046 -0.14252,0.10941 -0.21849,0.15659 -0.28909,0.17892 -0.57052,0.36116 -0.84366,0.56262 -0.0727,0.0534 -0.1472,0.10191 -0.21848,0.15658 -0.17166,0.13244 -0.33554,0.26503 -0.49998,0.40625 -0.50547,0.43071 -0.95106,0.90964 -1.37501,1.40625 -0.12467,0.14733 -0.25673,0.28462 -0.37501,0.43751 -0.11386,0.14679 -0.23651,0.28645 -0.34369,0.43749 -0.13453,0.19072 -0.25103,0.395 -0.37502,0.59376 -0.0404,0.0639 -0.0859,0.12291 -0.12498,0.18751 -0.11478,0.19084 -0.20805,0.39588 -0.31245,0.59377 -0.56529,1.06597 -0.9809,2.19134 -1.21878,3.37497 -0.0169,0.0844 -0.0473,0.16482 -0.0625,0.25002 -0.10778,0.59974 -0.16913,1.22981 -0.18748,1.84376 l -7.09379,81.15626 c -0.005,0.0323 -0.0278,0.0614 -0.0311,0.0937 l -0.0312,0.46877 c -0.0724,0.82312 -0.0654,1.64998 0.0312,2.49998 0.004,0.0194 -0.002,0.0422 -1.3e-4,0.0626 0.0281,0.23808 0.0516,0.4796 0.0937,0.71875 0.0966,0.54762 0.24443,1.07754 0.40623,1.59372 0.0165,0.0534 0.045,0.10317 0.0622,0.15641 0.0979,0.29815 0.19405,0.58853 0.31214,0.87514 0.0263,0.0595 0.0373,0.12768 0.0628,0.18738 0.11051,0.25587 0.24861,0.5044 0.37503,0.75 0.0989,0.19071 0.20426,0.37745 0.3125,0.56248 0.91622,1.57496 2.16333,2.91401 3.62499,3.93751 0.19014,0.13272 0.39579,0.25277 0.59375,0.375 1.25394,0.77687 2.61981,1.33129 4.09375,1.62502 0.14654,0.03 0.28884,0.0695 0.4375,0.0937 0.14374,0.0234 0.29242,0.0444 0.43748,0.0625 0.16937,0.0218 0.32832,0.0475 0.50002,0.0625 0.4308,0.0377 0.85825,0.0369 1.28124,0.0312 0.17362,-0.003 0.35651,-0.0209 0.53127,-0.0312 0.0628,-0.004 0.12496,0.004 0.1875,4e-5 0.0205,-0.002 0.0415,0.002 0.0626,2.3e-4 0.39621,-0.0302 0.80159,-0.0895 1.18751,-0.15628 l 41.68754,-7.34353 c 0.16591,-0.0232 0.33414,-0.064 0.50006,-0.0933 0.24449,-0.043 0.48033,-0.0999 0.71873,-0.15628 0.0318,-0.008 0.0622,-0.0239 0.0936,-0.0313 0.37679,-0.0926 0.76451,-0.18842 1.12501,-0.31252 0.0527,-0.0184 0.1038,-0.0432 0.15634,-0.0622 0.3491,-0.12492 0.69938,-0.25242 1.03128,-0.40621 0.0348,-0.0153 0.0596,-0.0467 0.0938,-0.0623 1.12393,-0.53181 2.13485,-1.21593 3.0312,-2.03128 0.092,-0.0838 0.19209,-0.16378 0.28137,-0.24986 0.208,-0.20093 0.40055,-0.41065 0.59376,-0.625 0.0751,-0.0833 0.14608,-0.16498 0.21891,-0.24982 0.45389,-0.53161 0.86006,-1.08785 1.21874,-1.6875 0.0519,-0.0859 0.10671,-0.16287 0.15622,-0.25002 0.0611,-0.10795 0.0984,-0.23399 0.15617,-0.34378 0.31854,-0.60355 0.59685,-1.2288 0.81249,-1.87501 0.0895,-0.26925 0.17858,-0.53645 0.24998,-0.8125 0.008,-0.0316 0.0234,-0.0624 0.0311,-0.0938 0.24962,-0.99698 0.38156,-2.03327 0.37498,-3.09373 -8.9e-4,-0.2797 -0.0108,-0.56306 -0.0312,-0.84375 -0.0191,-0.25715 -0.0585,-0.52243 -0.0937,-0.78128 -0.001,-0.009 0.002,-0.0207 -4.4e-4,-0.0313 -0.0214,-0.15563 -0.035,-0.31272 -0.0625,-0.46876 -0.0431,-0.24449 -0.0999,-0.48031 -0.15629,-0.71874 -0.005,-0.0218 -0.0255,-0.0407 -0.0312,-0.0623 -0.19867,-0.82029 -0.46809,-1.60438 -0.81252,-2.34374 l -34.81245,-74.68753 c -0.54303,-1.25277 -1.31139,-2.40235 -2.21876,-3.40622 -0.16504,-0.1827 -0.32595,-0.35951 -0.49997,-0.53129 -0.1265,-0.12434 -0.24322,-0.25604 -0.37501,-0.375 -0.0677,-0.0607 -0.15023,-0.0971 -0.2187,-0.15629 -0.83638,-0.72346 -1.76492,-1.36004 -2.78128,-1.84374 -0.20278,-0.0967 -0.41748,-0.19559 -0.62498,-0.28124 -0.16538,-0.0676 -0.33095,-0.1269 -0.50002,-0.18736 -0.22059,-0.0803 -0.43161,-0.15075 -0.65629,-0.21875 -0.15376,-0.0453 -0.3125,-0.0851 -0.46874,-0.12499 -0.0311,-0.009 -0.0625,-0.0234 -0.0937,-0.0311 -0.35719,-0.0881 -0.72393,-0.16157 -1.09375,-0.21876 -0.28139,-0.0445 -0.55905,-0.0684 -0.84376,-0.0937 -0.11571,-0.01 -0.22841,-0.0243 -0.34373,-0.0312 -0.40197,-0.0244 -0.81332,-0.0463 -1.21874,-0.0312 z"
       style="fill:#000000;fill-opacity:1;stroke:none" />
    <path
       inkscape:connector-curvature="0"
       style="fill:#000000;fill-opacity:1;stroke:none"
       d="M 472.2163,394.79295 C 385.19321,410.13747 327.08625,493.12281 342.43077,580.1459 357.77528,667.16899 440.76063,725.27595 527.78372,709.93143 614.80681,694.58691 672.91377,611.60157 657.56925,524.57848 642.22473,437.55539 559.23939,379.44843 472.2163,394.79295 z m 8.68241,49.24039 c 59.82837,-10.54936 116.88079,29.39918 127.43015,89.22755 10.54936,59.82837 -29.39918,116.8808 -89.22755,127.43015 -59.82837,10.54936 -116.8808,-29.39918 -127.43016,-89.22755 -10.54935,-59.82837 29.39919,-116.8808 89.22756,-127.43015 z"
       id="path3815" />
  </g>
</svg>
