<?xml version="1.0" encoding="UTF-8" standalone="no"?>
<!-- Created with Inkscape (http://www.inkscape.org/) -->

<svg
   xmlns:dc="http://purl.org/dc/elements/1.1/"
   xmlns:cc="http://creativecommons.org/ns#"
   xmlns:rdf="http://www.w3.org/1999/02/22-rdf-syntax-ns#"
   xmlns:svg="http://www.w3.org/2000/svg"
   xmlns="http://www.w3.org/2000/svg"
   xmlns:sodipodi="http://sodipodi.sourceforge.net/DTD/sodipodi-0.dtd"
   xmlns:inkscape="http://www.inkscape.org/namespaces/inkscape"
   width="1000"
   height="1000"
   id="svg16419"
   version="1.1"
   inkscape:version="0.48.2 r9819"
   sodipodi:docname="Sunrise.svg">
  <defs
     id="defs16421" />
  <sodipodi:namedview
     id="base"
     pagecolor="#ffffff"
     bordercolor="#666666"
     borderopacity="1.0"
     inkscape:pageopacity="0.0"
     inkscape:pageshadow="2"
     inkscape:zoom="0.70710681"
     inkscape:cx="398.08132"
     inkscape:cy="467.4596"
     inkscape:document-units="px"
     inkscape:current-layer="layer1"
     showgrid="false"
     inkscape:snap-grids="true"
     inkscape:window-width="1218"
     inkscape:window-height="756"
     inkscape:window-x="62"
     inkscape:window-y="0"
     inkscape:window-maximized="1"
     inkscape:snap-bbox="false"
     inkscape:object-nodes="false"
     showguides="true"
     inkscape:guide-bbox="true">
    <inkscape:grid
       type="xygrid"
       id="grid16427"
       empspacing="10"
       visible="true"
       enabled="true"
       snapvisiblegridlinesonly="true" />
  </sodipodi:namedview>
  <metadata
     id="metadata16424">
    <rdf:RDF>
      <cc:Work
         rdf:about="">
        <dc:format>image/svg+xml</dc:format>
        <dc:type
           rdf:resource="http://purl.org/dc/dcmitype/StillImage" />
        <dc:title />
      </cc:Work>
    </rdf:RDF>
  </metadata>
  <g
     inkscape:label="Layer 1"
     inkscape:groupmode="layer"
     id="layer1"
     transform="translate(0,-52.36218)">
    <path
       inkscape:connector-curvature="0"
       id="rect7897-9"
       d="m 308.59031,377.96448 c -0.27293,0.17143 -0.53128,0.37186 -0.79211,0.56552 -0.068,0.0508 -0.13393,0.1003 -0.20091,0.15202 -0.0753,0.0584 -0.13813,0.13448 -0.21232,0.19475 -0.24783,0.20082 -0.50429,0.38699 -0.73377,0.60407 -0.0314,0.0298 -0.0615,0.0594 -0.0927,0.0895 -0.2663,0.25721 -0.52366,0.52436 -0.7639,0.80188 -0.0211,0.0244 -0.0446,0.0492 -0.0655,0.0739 -0.51529,0.60496 -0.9802,1.25999 -1.36737,1.94415 -0.0446,0.078 -0.0686,0.16607 -0.11132,0.24469 -0.16107,0.29938 -0.31355,0.59803 -0.44946,0.90902 -0.0364,0.0824 -0.0768,0.16171 -0.11132,0.24469 -0.0825,0.20049 -0.15797,0.39734 -0.22988,0.60182 -0.22283,0.62555 -0.36884,1.26328 -0.48766,1.90535 -0.0349,0.18973 -0.08,0.37487 -0.10601,0.56638 -0.0254,0.18405 -0.0619,0.36629 -0.079,0.55077 -0.0211,0.23246 -0.0199,0.46757 -0.0279,0.7017 -0.003,0.0756 -0.0132,0.14938 -0.0145,0.22488 -0.004,0.22268 0.0178,0.44689 0.0262,0.67045 0.0434,1.20582 0.24618,2.38822 0.63204,3.53221 0.0275,0.0817 0.0415,0.16636 0.0709,0.24776 0.20684,0.57314 0.46847,1.1496 0.75949,1.69048 l 34.43476,73.83025 c 0.0126,0.0298 0.007,0.067 0.0198,0.0968 l 0.20736,0.42155 c 0.34888,0.74907 0.76835,1.46163 1.27702,2.14946 0.0119,0.0166 0.0194,0.0376 0.0312,0.0541 0.14344,0.19205 0.28448,0.38954 0.44052,0.5756 0.35748,0.42597 0.75042,0.81099 1.1487,1.17711 0.0412,0.0378 0.0905,0.0669 0.13225,0.10406 0.23386,0.20927 0.46229,0.4127 0.70813,0.60152 0.0516,0.0396 0.0957,0.0924 0.14788,0.13113 0.22364,0.16627 0.46757,0.31244 0.69976,0.46202 0.18088,0.11591 0.36566,0.22471 0.55188,0.33089 1.58118,0.90545 3.33051,1.44196 5.10809,1.59748 0.23098,0.0199 0.46915,0.021 0.7017,0.0279 1.47438,0.0458 2.93446,-0.15698 4.3578,-0.63958 0.14172,-0.0478 0.28487,-0.0843 0.42573,-0.1376 0.13618,-0.0516 0.27537,-0.10795 0.41014,-0.16463 0.15752,-0.0659 0.30807,-0.12302 0.46426,-0.19587 0.39194,-0.18275 0.76173,-0.39718 1.1252,-0.61361 0.14892,-0.0894 0.29829,-0.19635 0.44447,-0.29264 0.0523,-0.0348 0.11028,-0.059 0.16238,-0.0937 0.017,-0.0121 0.0371,-0.0191 0.0541,-0.0312 0.32803,-0.22426 0.64939,-0.47839 0.95028,-0.72907 l 32.43056,-27.20362 c 0.13246,-0.10269 0.25727,-0.22267 0.38616,-0.33115 0.19018,-0.15956 0.36604,-0.32669 0.54433,-0.49469 0.0233,-0.0227 0.0422,-0.0514 0.0655,-0.0739 0.28031,-0.2683 0.56787,-0.54542 0.81803,-0.83313 0.0364,-0.0423 0.0681,-0.0894 0.10406,-0.13226 0.23957,-0.28293 0.47922,-0.56846 0.68997,-0.86744 0.0217,-0.0309 0.0286,-0.07 0.0499,-0.10098 0.70723,-1.02266 1.24089,-2.12046 1.60952,-3.27474 0.038,-0.1185 0.0843,-0.23795 0.11857,-0.35713 0.0797,-0.278 0.14161,-0.55592 0.2017,-0.83814 0.0235,-0.10965 0.0439,-0.21589 0.0644,-0.32588 0.12728,-0.68735 0.20096,-1.37214 0.21172,-2.0708 0.002,-0.10041 0.011,-0.19434 0.0103,-0.29463 -0.001,-0.12401 -0.0318,-0.25184 -0.0366,-0.37582 -0.0259,-0.68194 -0.0975,-1.36258 -0.23385,-2.03005 -0.0568,-0.27798 -0.11362,-0.55384 -0.18975,-0.82864 -0.009,-0.0311 -0.0109,-0.0657 -0.0198,-0.0967 -0.28232,-0.98825 -0.6862,-1.95164 -1.22211,-2.86676 -0.14072,-0.24173 -0.29088,-0.48222 -0.4489,-0.71511 -0.14504,-0.21322 -0.31187,-0.42317 -0.47177,-0.62974 -0.006,-0.008 -0.01,-0.0188 -0.0156,-0.027 -0.0964,-0.12399 -0.18668,-0.25333 -0.2885,-0.37469 -0.15957,-0.19018 -0.32669,-0.36604 -0.49469,-0.54434 -0.0153,-0.0165 -0.0428,-0.0223 -0.0583,-0.0385 -0.58222,-0.61106 -1.20759,-1.15536 -1.87552,-1.6235 l -67.49226,-47.27502 c -1.09664,-0.81347 -2.33686,-1.42487 -3.62462,-1.84053 -0.23412,-0.0761 -0.46202,-0.14838 -0.69864,-0.21007 -0.17167,-0.0445 -0.33868,-0.10008 -0.51226,-0.13726 -0.0887,-0.0191 -0.1786,-0.009 -0.26757,-0.0259 -1.08606,-0.20834 -2.20849,-0.29538 -3.33051,-0.20611 -0.22397,0.0175 -0.45938,0.0394 -0.68189,0.0689 -0.17692,0.0242 -0.35005,0.0556 -0.52676,0.0876 -0.23117,0.0406 -0.44915,0.0851 -0.6777,0.13868 -0.15586,0.0373 -0.31318,0.0825 -0.46845,0.12612 -0.0311,0.009 -0.0657,0.0109 -0.0967,0.0198 -0.35339,0.1023 -0.70772,0.22208 -1.05659,0.35743 -0.26602,0.10197 -0.51835,0.22029 -0.77756,0.34073 -0.10535,0.0492 -0.20998,0.0932 -0.3133,0.14486 -0.3603,0.17985 -0.72749,0.36656 -1.07106,0.58235 z"
       style="fill:#000000;fill-opacity:1;stroke:none" />
    <path
       style="fill:#000000;fill-opacity:1;stroke:none"
       d="m 205.0113,554.99601 c -0.0989,0.30677 -0.16796,0.62637 -0.24329,0.94238 -0.0195,0.0826 -0.0381,0.16293 -0.0562,0.24559 -0.0201,0.0931 -0.0194,0.19182 -0.0375,0.28567 -0.0608,0.31315 -0.13756,0.6206 -0.17382,0.9344 -0.005,0.043 -0.009,0.0849 -0.0134,0.12813 -0.0387,0.36821 -0.0641,0.7383 -0.0697,1.10531 -4.4e-4,0.0322 -0.003,0.0664 -0.003,0.0987 -0.006,0.79464 0.0591,1.59526 0.20222,2.36823 0.0161,0.0884 0.0542,0.17131 0.072,0.25898 0.0691,0.33287 0.14421,0.65966 0.24,0.98525 0.0251,0.0865 0.0451,0.17328 0.072,0.25898 0.0657,0.2066 0.13437,0.40594 0.21074,0.60879 0.23141,0.62243 0.52948,1.20481 0.85117,1.77305 0.0956,0.16755 0.17967,0.33859 0.2829,0.50199 0.0989,0.15728 0.18833,0.32021 0.29355,0.47265 0.13327,0.19164 0.28531,0.37097 0.42969,0.55545 0.0466,0.0596 0.086,0.12288 0.13348,0.18158 0.14035,0.17291 0.30086,0.33091 0.45106,0.49673 0.80834,0.8958 1.7237,1.67124 2.75462,2.29956 0.0736,0.0449 0.13876,0.10074 0.21355,0.14424 0.52687,0.3061 1.09782,0.57951 1.66843,0.80679 l 73.83572,34.42301 c 0.0288,0.0148 0.0486,0.0466 0.0773,0.0614 l 0.4298,0.18965 c 0.74876,0.34956 1.52812,0.62578 2.3599,0.82573 0.0198,0.005 0.039,0.0163 0.0588,0.0214 0.23334,0.0549 0.46833,0.11555 0.70745,0.15778 0.54765,0.0965 1.09615,0.13889 1.63658,0.16334 0.0559,0.002 0.11232,-0.007 0.16819,-0.005 0.31366,0.01 0.61941,0.019 0.92911,0.006 0.065,-0.003 0.13274,0.009 0.19757,0.005 0.2782,-0.0164 0.55901,-0.0612 0.83303,-0.0959 0.21305,-0.0275 0.42455,-0.0629 0.63545,-0.10126 1.79327,-0.32275 3.4782,-1.03621 4.93987,-2.05968 0.18973,-0.13321 0.37288,-0.28548 0.55546,-0.4297 1.15885,-0.91265 2.14701,-2.00648 2.92714,-3.29108 0.0779,-0.12765 0.16402,-0.24771 0.23768,-0.37906 0.0711,-0.1271 0.14157,-0.25971 0.20836,-0.38975 0.0783,-0.15169 0.15694,-0.29226 0.22975,-0.44847 0.18276,-0.39193 0.32821,-0.79387 0.46753,-1.19331 0.0566,-0.16424 0.1023,-0.34215 0.15238,-0.50987 0.0177,-0.0603 0.0465,-0.1161 0.0641,-0.17621 0.005,-0.0203 0.0161,-0.0385 0.0214,-0.0588 0.10714,-0.38264 0.18996,-0.78388 0.25932,-1.16933 l 7.35709,-41.68514 c 0.0355,-0.16381 0.054,-0.33594 0.083,-0.5019 0.0431,-0.24447 0.0704,-0.48553 0.099,-0.72884 0.003,-0.0324 -6.8e-4,-0.0666 0.003,-0.0987 0.0423,-0.38572 0.0844,-0.78284 0.0911,-1.16404 6.9e-4,-0.0558 -0.005,-0.11227 -0.005,-0.16819 0.002,-0.37074 0.002,-0.74351 -0.029,-1.10801 -0.003,-0.0376 -0.023,-0.072 -0.0267,-0.10942 -0.11559,-1.23801 -0.41243,-2.42199 -0.87201,-3.54318 -0.047,-0.11523 -0.0884,-0.23646 -0.13868,-0.34981 -0.11766,-0.26418 -0.24889,-0.51688 -0.38423,-0.7717 -0.0526,-0.0991 -0.10493,-0.19374 -0.16001,-0.29114 -0.3443,-0.60835 -0.72807,-1.18026 -1.16889,-1.7224 -0.0632,-0.0781 -0.11649,-0.15596 -0.18148,-0.23233 -0.0806,-0.0943 -0.1862,-0.17251 -0.26958,-0.26439 -0.45816,-0.50578 -0.95054,-0.98114 -1.48403,-1.4048 -0.2222,-0.17644 -0.44304,-0.35124 -0.67799,-0.51281 -0.0267,-0.0182 -0.0506,-0.0433 -0.0773,-0.0614 -0.85151,-0.57557 -1.78015,-1.05395 -2.77892,-1.41051 -0.26317,-0.0947 -0.53279,-0.18242 -0.80353,-0.25926 -0.24816,-0.0701 -0.51093,-0.1237 -0.76619,-0.17915 -0.01,-0.003 -0.0195,-0.008 -0.0294,-0.0106 -0.15357,-0.033 -0.30584,-0.0741 -0.46186,-0.10159 -0.24447,-0.0431 -0.48553,-0.0704 -0.72884,-0.099 -0.0223,-0.003 -0.0471,0.0104 -0.0694,0.008 -0.83878,-0.0938 -1.66771,-0.10883 -2.4803,-0.0381 l -82.08986,7.16842 c -1.36296,0.0818 -2.70603,0.41059 -3.95968,0.91993 -0.22827,0.0922 -0.44931,0.18332 -0.67025,0.28813 -0.1601,0.0763 -0.32374,0.14107 -0.48063,0.22414 -0.08,0.0427 -0.14244,0.10811 -0.22165,0.15211 -0.9659,0.53849 -1.88167,1.19331 -2.6838,1.98292 -0.16029,0.15743 -0.32661,0.32543 -0.47805,0.49111 -0.11995,0.1323 -0.23239,0.26764 -0.3472,0.40571 -0.15095,0.17976 -0.2894,0.35387 -0.43001,0.54187 -0.0954,0.12875 -0.18684,0.26454 -0.27778,0.39772 -0.0182,0.0267 -0.0433,0.0506 -0.0614,0.0773 -0.20495,0.30551 -0.39939,0.62503 -0.57964,0.95297 -0.13823,0.2491 -0.25548,0.50194 -0.37663,0.76082 -0.0491,0.10536 -0.10096,0.20635 -0.14689,0.31235 -0.1604,0.36937 -0.32167,0.74842 -0.44615,1.13458 z"
       id="path3681"
       inkscape:connector-curvature="0" />
    <path
       inkscape:connector-curvature="0"
       id="path3693"
       d="m 795.58273,558.4117 c -0.012,-0.32209 -0.0564,-0.64603 -0.0936,-0.96876 -0.01,-0.0842 -0.0201,-0.16608 -0.0312,-0.25 -0.0126,-0.0944 -0.0474,-0.18688 -0.0625,-0.28125 -0.0505,-0.31496 -0.083,-0.63023 -0.15618,-0.93751 -0.0101,-0.0422 -0.0206,-0.0829 -0.0311,-0.12505 -0.0897,-0.35921 -0.19228,-0.71569 -0.31253,-1.06249 -0.0106,-0.0304 -0.0199,-0.0634 -0.0309,-0.0937 -0.26613,-0.74876 -0.60105,-1.47888 -0.99999,-2.15625 -0.0454,-0.0776 -0.1095,-0.14245 -0.15621,-0.21876 -0.17883,-0.28914 -0.36115,-0.57052 -0.56254,-0.84373 -0.0535,-0.0726 -0.1016,-0.1474 -0.15619,-0.21874 -0.13239,-0.1717 -0.26508,-0.33553 -0.40624,-0.5 -0.43036,-0.50577 -0.90963,-0.95107 -1.40627,-1.37501 -0.14718,-0.12473 -0.28463,-0.25671 -0.43753,-0.37497 -0.14672,-0.11394 -0.28646,-0.23652 -0.43751,-0.34371 -0.19079,-0.13447 -0.39498,-0.25101 -0.59374,-0.37501 -0.064,-0.0404 -0.12285,-0.086 -0.18751,-0.12499 -0.19085,-0.11479 -0.3959,-0.20805 -0.59378,-0.31243 -1.06598,-0.56533 -2.19136,-0.98092 -3.37498,-1.21881 -0.0845,-0.0168 -0.16482,-0.0472 -0.25,-0.0625 -0.59981,-0.10744 -1.22983,-0.16909 -1.84378,-0.1875 l -81.15625,-7.09376 c -0.0323,-0.004 -0.0615,-0.0277 -0.0937,-0.031 l -0.46876,-0.0312 c -0.82315,-0.0724 -1.64998,-0.0654 -2.49998,0.0312 -0.0201,0.002 -0.0421,-0.002 -0.0625,-6e-5 -0.23807,0.0281 -0.4796,0.0516 -0.71874,0.0937 -0.54764,0.0966 -1.07755,0.24444 -1.59374,0.40626 -0.0535,0.0163 -0.1031,0.0451 -0.15635,0.0622 -0.29816,0.0979 -0.58856,0.19399 -0.87513,0.31212 -0.06,0.0254 -0.12777,0.0369 -0.18735,0.0629 -0.25584,0.11053 -0.50436,0.2487 -0.75,0.37505 -0.19083,0.0986 -0.37742,0.20428 -0.56247,0.3125 -1.57496,0.91624 -2.91403,2.16334 -3.93751,3.62501 -0.13269,0.19011 -0.25276,0.39578 -0.37502,0.59374 -0.77686,1.25395 -1.33127,2.61981 -1.625,4.09375 -0.0294,0.14662 -0.0695,0.28884 -0.0937,0.4375 -0.0233,0.14376 -0.0442,0.29247 -0.0625,0.4375 -0.0217,0.16933 -0.0476,0.3283 -0.0625,0.5 -0.0377,0.43081 -0.0369,0.85826 -0.0312,1.28126 0.003,0.17364 0.0209,0.3565 0.0312,0.53124 0.004,0.0627 -0.004,0.12496 -5e-5,0.18753 5.9e-4,0.021 -0.002,0.0417 -5e-5,0.0625 0.0302,0.39621 0.0895,0.80158 0.15628,1.18749 l 7.34352,41.68754 c 0.0232,0.16594 0.064,0.33414 0.0933,0.50008 0.0431,0.24446 0.0999,0.48034 0.15625,0.71875 0.007,0.0319 0.0234,0.0623 0.0309,0.0937 0.0923,0.37689 0.18844,0.76449 0.31253,1.125 0.0184,0.0527 0.0431,0.10381 0.0622,0.15633 0.12487,0.34909 0.25242,0.69936 0.40622,1.03127 0.0163,0.0342 0.0463,0.0598 0.0623,0.0939 0.53205,1.12381 1.21594,2.13486 2.03125,3.03124 0.0836,0.0922 0.16395,0.19197 0.24994,0.2813 0.20092,0.20802 0.41065,0.40058 0.62499,0.59376 0.0833,0.0751 0.16487,0.14617 0.24989,0.21887 0.53162,0.45391 1.08786,0.86007 1.68751,1.21874 0.0859,0.0519 0.16286,0.10669 0.25002,0.15623 0.10795,0.0612 0.23396,0.0985 0.34377,0.1562 0.60354,0.31854 1.2288,0.59685 1.875,0.81251 0.26926,0.0895 0.53645,0.17854 0.81251,0.24996 0.0317,0.007 0.0625,0.0234 0.0937,0.031 0.99701,0.24963 2.03326,0.38155 3.09374,0.37499 0.27969,-10e-4 0.56306,-0.0108 0.84376,-0.0312 0.25718,-0.019 0.52241,-0.0585 0.78126,-0.0937 0.0107,-0.002 0.0208,0.002 0.0312,-5.8e-4 0.15563,-0.0214 0.31271,-0.0351 0.46874,-0.0625 0.24447,-0.0431 0.48034,-0.0999 0.71876,-0.15625 0.022,-0.005 0.0408,-0.0258 0.0624,-0.0314 0.8203,-0.19864 1.60437,-0.46813 2.34374,-0.81251 l 74.68751,-34.8125 c 1.25278,-0.54303 2.40237,-1.31137 3.40622,-2.21875 0.18295,-0.16474 0.35953,-0.32592 0.5313,-0.49998 0.12432,-0.12651 0.25597,-0.24328 0.37498,-0.375 0.0606,-0.0677 0.0971,-0.15018 0.15625,-0.21877 0.72347,-0.83639 1.36005,-1.76492 1.84376,-2.78126 0.0967,-0.20278 0.19559,-0.4175 0.28122,-0.62499 0.0676,-0.16531 0.12685,-0.33097 0.18732,-0.50005 0.0803,-0.22057 0.15071,-0.43161 0.21874,-0.65626 0.0453,-0.15373 0.085,-0.31254 0.12496,-0.46877 0.008,-0.0313 0.0234,-0.0625 0.031,-0.0937 0.0881,-0.35719 0.16154,-0.72393 0.21874,-1.09376 0.0447,-0.28134 0.0684,-0.55904 0.0937,-0.84375 0.0101,-0.11574 0.0243,-0.22844 0.0311,-0.34375 0.0244,-0.40195 0.0463,-0.81331 0.0312,-1.21874 z"
       style="fill:#000000;fill-opacity:1;stroke:none" />
    <path
       style="fill:#000000;fill-opacity:1;stroke:none"
       d="m 694.0584,380.19386 c -0.21619,-0.23905 -0.4585,-0.45861 -0.69444,-0.68192 -0.0616,-0.0582 -0.12221,-0.11427 -0.18457,-0.17148 -0.0703,-0.0641 -0.1564,-0.1127 -0.22866,-0.17527 -0.24111,-0.20884 -0.46869,-0.42944 -0.72226,-0.61779 -0.0348,-0.0259 -0.0691,-0.0503 -0.10416,-0.0758 -0.29958,-0.21755 -0.60734,-0.42467 -0.92237,-0.61303 -0.0276,-0.0165 -0.056,-0.0358 -0.0839,-0.0519 -0.68517,-0.40251 -1.41103,-0.74653 -2.15205,-1.00899 -0.0847,-0.0302 -0.17545,-0.0387 -0.26028,-0.0672 -0.32284,-0.10655 -0.64338,-0.20491 -0.97326,-0.28475 -0.0877,-0.0212 -0.17258,-0.0476 -0.26027,-0.0672 -0.21178,-0.0464 -0.41872,-0.0866 -0.63258,-0.12189 -0.65478,-0.11081 -1.30815,-0.14386 -1.96111,-0.14939 -0.19293,-9.6e-4 -0.38305,-0.0137 -0.57619,-0.006 -0.18562,0.007 -0.37148,0.003 -0.55608,0.0179 -0.2326,0.0196 -0.46393,0.0616 -0.69588,0.0944 -0.075,0.0102 -0.14937,0.0131 -0.22398,0.0248 -0.21998,0.0347 -0.43701,0.0951 -0.65569,0.14233 -1.17997,0.25213 -2.30919,0.65715 -3.36881,1.23573 -0.0756,0.0413 -0.15662,0.0698 -0.23167,0.11286 -0.52871,0.30294 -1.05081,0.66095 -1.53293,1.04152 l -66.72908,46.73209 c -0.0277,0.0172 -0.0648,0.0183 -0.0917,0.0366 l -0.37914,0.27744 c -0.67712,0.47361 -1.30598,1.01049 -1.89503,1.63086 -0.0138,0.0149 -0.0332,0.0261 -0.048,0.0402 -0.16432,0.17454 -0.33425,0.3478 -0.49034,0.53379 -0.3574,0.42605 -0.66832,0.8799 -0.95974,1.33565 -0.0304,0.0469 -0.05,0.10081 -0.0798,0.14815 -0.16548,0.26664 -0.32617,0.52691 -0.46976,0.80162 -0.0296,0.058 -0.0741,0.11046 -0.10308,0.16863 -0.12494,0.24913 -0.2265,0.51472 -0.33345,0.76939 -0.0828,0.19823 -0.15782,0.39909 -0.23001,0.60095 -0.61754,1.71423 -0.84171,3.5303 -0.6862,5.30789 0.0205,0.23094 0.0608,0.46566 0.0944,0.69589 0.21092,1.45993 0.66416,2.86261 1.38659,4.18053 0.0713,0.13147 0.1324,0.26593 0.20944,0.39537 0.0746,0.12512 0.15391,0.25258 0.23332,0.37532 0.0922,0.14369 0.17462,0.28206 0.27355,0.42319 0.24805,0.35424 0.5234,0.68118 0.79966,1.00156 0.1139,0.13109 0.24517,0.25966 0.36539,0.38689 0.0432,0.0455 0.0774,0.0982 0.12048,0.14369 0.0138,0.0158 0.025,0.0334 0.0402,0.048 0.27778,0.28413 0.58383,0.55649 0.88302,0.80921 l 32.4217,27.21419 c 0.12438,0.11224 0.26384,0.2148 0.39288,0.32312 0.19016,0.15957 0.3853,0.30375 0.5817,0.45017 0.0258,0.0201 0.058,0.0327 0.0839,0.0519 0.31295,0.2294 0.63576,0.46451 0.96254,0.66092 0.048,0.0285 0.0997,0.0519 0.14813,0.0798 0.32005,0.18715 0.64291,0.3735 0.97407,0.52888 0.0345,0.0158 0.0739,0.0161 0.108,0.0319 1.12994,0.5189 2.30372,0.85381 3.50447,1.01641 0.12328,0.0169 0.24899,0.0417 0.37228,0.0548 0.28763,0.0302 0.57207,0.0429 0.86044,0.0531 0.11211,0.004 0.22025,0.006 0.33211,0.007 0.69902,0.006 1.38619,-0.0404 2.0761,-0.1511 0.0992,-0.0155 0.19334,-0.023 0.29194,-0.041 0.12203,-0.0225 0.2425,-0.075 0.36374,-0.10135 0.66709,-0.14393 1.32496,-0.33264 1.9586,-0.58281 0.2638,-0.1045 0.52572,-0.20803 0.78309,-0.33078 0.0291,-0.0145 0.0629,-0.0222 0.0917,-0.0366 0.92421,-0.44964 1.80284,-1.01465 2.61098,-1.70135 0.21364,-0.18051 0.42437,-0.37023 0.6263,-0.56626 0.18479,-0.17989 0.36259,-0.38061 0.53826,-0.57396 0.007,-0.008 0.0176,-0.0113 0.0235,-0.0205 0.10548,-0.11644 0.21704,-0.22784 0.31889,-0.34922 0.15957,-0.19016 0.30374,-0.38529 0.45016,-0.5817 0.0141,-0.0174 0.0146,-0.046 0.0276,-0.0641 0.50071,-0.67943 0.92811,-1.38987 1.27313,-2.12893 l 34.83692,-74.67614 c 0.61062,-1.22124 0.99738,-2.54878 1.18313,-3.88913 0.0343,-0.2438 0.0659,-0.48078 0.0856,-0.72452 0.0139,-0.17682 0.0397,-0.3509 0.0462,-0.5283 0.003,-0.0908 -0.0221,-0.17749 -0.0209,-0.26802 0.0166,-1.10575 -0.0926,-2.22623 -0.37537,-3.31572 -0.0563,-0.21748 -0.11853,-0.44554 -0.18631,-0.65953 -0.0544,-0.1701 -0.11552,-0.3351 -0.17787,-0.50349 -0.0803,-0.2206 -0.16196,-0.42752 -0.25428,-0.64334 -0.0641,-0.14687 -0.13572,-0.29408 -0.20555,-0.43943 -0.0135,-0.0294 -0.0222,-0.0629 -0.0366,-0.0917 -0.16213,-0.33023 -0.34156,-0.65841 -0.53547,-0.97847 -0.14675,-0.24417 -0.30693,-0.47222 -0.47054,-0.7066 -0.0667,-0.0951 -0.12819,-0.19063 -0.19708,-0.28335 -0.23971,-0.32359 -0.48729,-0.65282 -0.75949,-0.95368 z"
       id="path3695"
       inkscape:connector-curvature="0" />
    <path
       inkscape:connector-curvature="0"
       id="path3697"
       d="m 501.73004,308.92967 c -0.31927,-0.0442 -0.64602,-0.0566 -0.9703,-0.076 -0.0846,-0.005 -0.16706,-0.009 -0.25161,-0.0127 -0.0951,-0.004 -0.19224,0.0142 -0.28783,0.0127 -0.31894,-0.005 -0.63507,-0.0277 -0.95038,-0.009 -0.0433,0.003 -0.0853,0.006 -0.12855,0.009 -0.36933,0.0259 -0.73821,0.0651 -1.10062,0.12329 -0.0318,0.005 -0.0659,0.009 -0.0976,0.0142 -0.78361,0.13206 -1.56078,0.33511 -2.29715,0.61037 -0.0843,0.0312 -0.15946,0.0828 -0.24252,0.11589 -0.31582,0.12588 -0.62459,0.25657 -0.92861,0.40748 -0.0809,0.0398 -0.16279,0.0745 -0.24251,0.11588 -0.1921,0.10052 -0.37645,0.20279 -0.56295,0.31324 -0.57261,0.33637 -1.09456,0.73067 -1.59831,1.14613 -0.1484,0.12332 -0.30226,0.2357 -0.44528,0.36574 -0.13765,0.12473 -0.28267,0.24102 -0.41445,0.37117 -0.16558,0.16453 -0.3158,0.3454 -0.47242,0.5196 -0.0509,0.056 -0.10596,0.1061 -0.15564,0.16295 -0.14619,0.16801 -0.27364,0.35376 -0.4108,0.53051 -0.74183,0.95161 -1.34653,1.98772 -1.78634,3.11205 -0.0313,0.0802 -0.0751,0.15412 -0.10493,0.23537 -0.21029,0.57192 -0.38012,1.18177 -0.50481,1.7832 l -21.07863,78.69149 c -0.0102,0.0309 -0.038,0.0556 -0.0468,0.087 l -0.1121,0.45623 c -0.21427,0.79805 -0.35091,1.61355 -0.40339,2.46741 -9.7e-4,0.0203 -0.009,0.0414 -0.0109,0.0616 -0.0137,0.23933 -0.0325,0.48128 -0.0325,0.72411 8e-5,0.55609 0.0536,1.10362 0.12334,1.64006 0.007,0.0555 0.0265,0.10935 0.0341,0.1648 0.0446,0.31062 0.0888,0.6133 0.1554,0.91603 0.0146,0.0634 0.0142,0.13226 0.0295,0.19543 0.0644,0.27116 0.15735,0.53988 0.23912,0.80372 0.064,0.20506 0.13565,0.40716 0.21009,0.6082 0.62882,1.71014 1.62445,3.24541 2.88619,4.50717 0.16415,0.16372 0.34587,0.31765 0.5196,0.47241 1.09999,0.98281 2.34883,1.76598 3.74938,2.3112 0.13908,0.0549 0.27236,0.11861 0.41457,0.16824 0.1375,0.048 0.28027,0.0946 0.41999,0.13754 0.16299,0.0508 0.31507,0.10382 0.48157,0.14835 0.41772,0.11192 0.83881,0.18538 1.25637,0.25323 0.17152,0.0272 0.35472,0.0413 0.5286,0.0615 0.0624,0.007 0.12236,0.0255 0.18465,0.0326 0.0207,0.003 0.0406,0.009 0.0616,0.0109 0.39543,0.0391 0.80495,0.051 1.19658,0.0523 l 42.32942,0.007 c 0.16741,0.006 0.34018,-0.005 0.50866,-0.005 0.24825,10e-6 0.4904,-0.015 0.73496,-0.0291 0.0327,-0.001 0.0654,-0.0123 0.0976,-0.0141 0.38719,-0.0254 0.7856,-0.0528 1.16218,-0.11242 0.0551,-0.009 0.10975,-0.0243 0.16473,-0.0341 0.36547,-0.0623 0.73258,-0.12713 1.08614,-0.22097 0.0368,-0.01 0.067,-0.0352 0.10321,-0.045 1.19913,-0.32882 2.31357,-0.82675 3.33792,-1.47402 0.10518,-0.0665 0.21761,-0.12795 0.32045,-0.19725 0.23974,-0.16175 0.46579,-0.33486 0.69327,-0.51239 0.0884,-0.0691 0.17256,-0.13703 0.25896,-0.20805 0.53933,-0.44473 1.03591,-0.92198 1.49326,-1.45023 0.0661,-0.0756 0.13335,-0.14189 0.19727,-0.21909 0.079,-0.0957 0.13755,-0.21333 0.21349,-0.31144 0.41851,-0.53905 0.80116,-1.10649 1.12575,-1.70543 0.13491,-0.24962 0.26901,-0.49729 0.38726,-0.75676 0.013,-0.0298 0.0339,-0.0575 0.0468,-0.087 0.41895,-0.93851 0.72884,-1.93611 0.90651,-2.98161 0.0476,-0.2756 0.0871,-0.55639 0.1158,-0.83636 0.0259,-0.25659 0.0331,-0.52464 0.0434,-0.78567 6.9e-4,-0.0108 0.006,-0.02 0.005,-0.0308 0.006,-0.15697 0.0198,-0.31405 0.0198,-0.4725 0,-0.24824 -0.015,-0.49039 -0.0291,-0.73496 -3.6e-4,-0.0224 -0.0187,-0.0444 -0.02,-0.0669 -0.0532,-0.84232 -0.18242,-1.66128 -0.39318,-2.44921 L 512.17794,318.4208 c -0.31724,-1.32804 -0.87428,-2.59359 -1.59355,-3.73976 -0.13081,-0.20857 -0.25857,-0.41065 -0.40014,-0.61005 -0.10299,-0.14439 -0.1951,-0.29433 -0.30415,-0.43441 -0.0561,-0.0714 -0.13103,-0.12175 -0.18827,-0.19189 -0.69805,-0.85772 -1.50194,-1.64586 -2.41886,-2.29871 -0.18291,-0.13041 -0.37719,-0.26511 -0.56665,-0.38547 -0.15108,-0.0953 -0.30389,-0.18244 -0.45989,-0.27136 -0.20328,-0.1174 -0.39888,-0.22339 -0.60832,-0.32938 -0.14357,-0.0713 -0.29301,-0.13804 -0.43993,-0.2045 -0.0292,-0.0138 -0.0575,-0.0339 -0.087,-0.0468 -0.33646,-0.14876 -0.68487,-0.28481 -1.03914,-0.40536 -0.26937,-0.0927 -0.53867,-0.16445 -0.81465,-0.23883 -0.11224,-0.03 -0.22074,-0.0636 -0.33311,-0.0904 -0.39163,-0.0938 -0.79291,-0.18686 -1.1948,-0.24237 z"
       style="fill:#000000;fill-opacity:1;stroke:none" />
    <path
       style="fill:#000000;fill-opacity:1;stroke:none"
       d="M 262.5 618.53125 C 255.66891 618.61547 250.15625 624.18018 250.15625 631.03125 C 250.15625 637.88232 255.66891 643.44703 262.5 643.53125 C 262.55234 643.5319 262.60376 643.53125 262.65625 643.53125 L 737.34375 643.53125 C 737.39624 643.53125 737.44766 643.5319 737.5 643.53125 C 744.33109 643.44703 749.84375 637.88232 749.84375 631.03125 C 749.84375 624.18018 744.33109 618.61547 737.5 618.53125 L 737.34375 618.53125 L 262.65625 618.53125 L 262.5 618.53125 z "
       transform="translate(0,52.36218)"
       id="rect17815-9" />
    <path
       style="fill:#000000;fill-opacity:1;stroke:none"
       d="M 287.5 668.53125 C 280.66891 668.61547 275.15625 674.18018 275.15625 681.03125 C 275.15625 687.88232 280.66891 693.44703 287.5 693.53125 C 287.55234 693.5319 287.60376 693.53125 287.65625 693.53125 L 712.34375 693.53125 C 712.39624 693.53125 712.44766 693.5319 712.5 693.53125 C 719.33109 693.44703 724.84375 687.88232 724.84375 681.03125 C 724.84375 674.18018 719.33109 668.61547 712.5 668.53125 L 712.34375 668.53125 L 287.65625 668.53125 L 287.5 668.53125 z "
       id="rect17817-2"
       transform="translate(0,52.36218)" />
    <path
       style="fill:#000000;fill-opacity:1;stroke:none"
       d="M 362.5 718.53125 C 355.66891 718.61547 350.15625 724.18018 350.15625 731.03125 C 350.15625 737.88232 355.66891 743.44703 362.5 743.53125 C 362.55234 743.5319 362.60376 743.53125 362.65625 743.53125 L 637.34375 743.53125 C 637.39624 743.53125 637.44766 743.5319 637.5 743.53125 C 644.33109 743.44703 649.84375 737.88232 649.84375 731.03125 C 649.84375 724.18018 644.33109 718.61547 637.5 718.53125 L 637.34375 718.53125 L 362.65625 718.53125 L 362.5 718.53125 z "
       id="rect18213-2"
       transform="translate(0,52.36218)" />
    <path
       style="fill:#000000;fill-opacity:1;stroke:none"
       d="M 500 393.65625 C 411.63444 393.65625 340 465.29069 340 553.65625 C 340 567.45144 341.93591 580.7605 345.21875 593.53125 L 397.59375 593.53125 C 392.76825 581.15172 390 567.74338 390 553.65625 C 390 492.90493 439.24868 443.65625 500 443.65625 C 560.75131 443.65625 610 492.90493 610 553.65625 C 610 567.74338 607.263 581.15172 602.4375 593.53125 L 654.78125 593.53125 C 658.06471 580.75936 660 567.4528 660 553.65625 C 659.99999 465.29069 588.36557 393.65625 500 393.65625 z "
       id="path3815"
       transform="translate(0,52.36218)" />
  </g>
</svg>
