<?xml version="1.0" encoding="UTF-8" standalone="no"?>
<!-- Created with Inkscape (http://www.inkscape.org/) -->

<svg
   xmlns:dc="http://purl.org/dc/elements/1.1/"
   xmlns:cc="http://creativecommons.org/ns#"
   xmlns:rdf="http://www.w3.org/1999/02/22-rdf-syntax-ns#"
   xmlns:svg="http://www.w3.org/2000/svg"
   xmlns="http://www.w3.org/2000/svg"
   xmlns:sodipodi="http://sodipodi.sourceforge.net/DTD/sodipodi-0.dtd"
   xmlns:inkscape="http://www.inkscape.org/namespaces/inkscape"
   width="1000"
   height="1000"
   id="svg16419"
   version="1.1"
   inkscape:version="0.48.2 r9819"
   sodipodi:docname="Sunrise-thin.svg">
  <defs
     id="defs16421" />
  <sodipodi:namedview
     id="base"
     pagecolor="#ffffff"
     bordercolor="#666666"
     borderopacity="1.0"
     inkscape:pageopacity="0.0"
     inkscape:pageshadow="2"
     inkscape:zoom="0.35355339"
     inkscape:cx="362.259"
     inkscape:cy="593.57912"
     inkscape:document-units="px"
     inkscape:current-layer="layer1"
     showgrid="false"
     inkscape:snap-grids="true"
     inkscape:window-width="1218"
     inkscape:window-height="756"
     inkscape:window-x="62"
     inkscape:window-y="0"
     inkscape:window-maximized="1"
     inkscape:snap-bbox="false"
     inkscape:object-nodes="false"
     showguides="true"
     inkscape:guide-bbox="true">
    <inkscape:grid
       type="xygrid"
       id="grid16427"
       empspacing="10"
       visible="true"
       enabled="true"
       snapvisiblegridlinesonly="true" />
  </sodipodi:namedview>
  <metadata
     id="metadata16424">
    <rdf:RDF>
      <cc:Work
         rdf:about="">
        <dc:format>image/svg+xml</dc:format>
        <dc:type
           rdf:resource="http://purl.org/dc/dcmitype/StillImage" />
        <dc:title />
      </cc:Work>
    </rdf:RDF>
  </metadata>
  <g
     inkscape:label="Layer 1"
     inkscape:groupmode="layer"
     id="layer1"
     transform="translate(0,-52.36218)">
    <g
       id="g9330">
      <path
         id="rect18215-0"
         transform="translate(0,52.36218)"
         d="M 249.78125 628.53125 C 245.63911 628.53125 242.28125 631.88911 242.28125 636.03125 C 242.28125 640.17339 245.63911 643.53125 249.78125 643.53125 L 734.78125 643.53125 C 738.92339 643.53125 742.28125 640.17339 742.28125 636.03125 C 742.28125 631.88911 738.92339 628.53125 734.78125 628.53125 L 249.78125 628.53125 z "
         style="fill:#000000;fill-opacity:1;stroke:none" />
      <path
         id="rect18217-5"
         transform="translate(0,52.36218)"
         d="M 274.78125 678.53125 C 270.63911 678.53125 267.28125 681.88911 267.28125 686.03125 C 267.28125 690.17339 270.63911 693.53125 274.78125 693.53125 L 709.78125 693.53125 C 713.92339 693.53125 717.28125 690.17339 717.28125 686.03125 C 717.28125 681.88911 713.92339 678.53125 709.78125 678.53125 L 274.78125 678.53125 z "
         style="fill:#000000;fill-opacity:1;stroke:none" />
      <path
         id="rect18219-3"
         transform="translate(0,52.36218)"
         d="M 349.78125 728.53125 C 345.63911 728.53125 342.28125 731.88911 342.28125 736.03125 C 342.28125 740.17339 345.63911 743.53125 349.78125 743.53125 L 634.78125 743.53125 C 638.92339 743.53125 642.28125 740.17339 642.28125 736.03125 C 642.28125 731.88911 638.92339 728.53125 634.78125 728.53125 L 349.78125 728.53125 z "
         style="fill:#000000;fill-opacity:1;stroke:none" />
      <path
         inkscape:connector-curvature="0"
         style="fill:#000000;fill-opacity:1;stroke:none"
         d="m 308.8102,378.01003 c -0.1377,0.0887 -0.28467,0.17856 -0.41741,0.27702 -0.18318,0.13589 -0.36043,0.29758 -0.53289,0.452 -0.0953,0.0854 -0.18617,0.17769 -0.27791,0.26865 -0.16506,0.16227 -0.3269,0.31565 -0.47458,0.4905 -0.16886,0.19991 -0.32059,0.41557 -0.46621,0.63001 -0.0853,0.12558 -0.16528,0.26254 -0.24244,0.39257 -0.0861,0.14531 -0.17854,0.28611 -0.25389,0.43525 -0.0168,0.0331 -0.0337,0.0676 -0.0499,0.10098 -0.0605,0.12417 -0.11957,0.26197 -0.17269,0.38838 -0.0778,0.18671 -0.15607,0.36706 -0.21845,0.55914 -0.0138,0.0418 -0.0214,0.0861 -0.0343,0.12799 -0.0255,0.0833 -0.0461,0.17204 -0.0686,0.25613 -0.0532,0.19799 -0.0965,0.38146 -0.13307,0.58201 -0.032,0.17243 -0.0477,0.33353 -0.0675,0.50808 -0.003,0.0286 -0.02,0.0568 -0.0229,0.0854 -0.0186,0.18306 -0.004,0.36208 -0.009,0.54658 -0.003,0.0971 -0.0113,0.19753 -0.0103,0.29463 7.7e-4,0.0605 -0.005,0.12163 -0.003,0.18216 0.008,0.2226 0.0258,0.43384 0.0533,0.65483 0.0184,0.1474 0.0407,0.28376 0.0678,0.42995 0.0395,0.21418 0.0913,0.42287 0.15012,0.63502 0.006,0.0223 -0.002,0.0477 0.004,0.0697 0.0296,0.10328 0.0679,0.19933 0.10212,0.30189 0.0762,0.22919 0.15238,0.46293 0.25112,0.68495 0.008,0.0186 0.0228,0.0355 0.0312,0.0541 0.0481,0.10567 0.0917,0.20959 0.14486,0.31329 0.0605,0.11871 0.13571,0.23507 0.20312,0.35183 0.0565,0.097 0.1112,0.2026 0.17188,0.29769 l 46.09375,79.83672 0.10937,0.18944 c 0.12609,0.21695 0.25216,0.42675 0.40202,0.63392 0.10606,0.14649 0.20163,0.28804 0.31975,0.42883 0.0491,0.0585 0.11303,0.10157 0.16351,0.15819 0.12108,0.13593 0.24541,0.27248 0.37387,0.39758 0.18244,0.17779 0.37858,0.34097 0.57589,0.49745 0.0507,0.0402 0.0962,0.0923 0.14787,0.13113 0.18825,0.14167 0.38489,0.26314 0.58313,0.38502 0.16455,0.1012 0.32302,0.20495 0.49357,0.29239 0.0457,0.0235 0.0976,0.0389 0.14365,0.0614 0.17232,0.0839 0.35483,0.16409 0.53207,0.23407 0.20513,0.081 0.4177,0.15171 0.62889,0.21427 0.0358,0.0106 0.0651,0.0399 0.10097,0.0499 0.028,0.008 0.0574,0.0154 0.0854,0.0229 0.18887,0.0505 0.37458,0.0705 0.56639,0.10601 0.1619,0.0301 0.31722,0.0637 0.48101,0.0831 0.10284,0.0123 0.20696,0.0293 0.31025,0.0374 0.0518,0.004 0.10323,0.0158 0.15511,0.0186 0.40181,0.0227 0.79965,-0.002 1.2014,-0.0441 0.0924,-0.01 0.18674,-0.003 0.27901,-0.0168 0.19639,-0.0282 0.38644,-0.0749 0.58088,-0.11887 0.26704,-0.0604 0.53623,-0.15351 0.7974,-0.24387 0.20863,-0.0722 0.41176,-0.15551 0.61518,-0.24698 0.21611,-0.0972 0.44494,-0.18622 0.6537,-0.30525 0.0179,-0.0102 0.0363,-0.0209 0.0541,-0.0312 0.0635,-0.0369 0.1111,-0.0975 0.17384,-0.13639 0.0909,-0.0559 0.18329,-0.0966 0.27064,-0.15625 0.0616,-0.0413 0.11329,-0.0927 0.17384,-0.1364 0.14585,-0.1051 0.29254,-0.20608 0.42883,-0.31975 l 0.23938,-0.21037 24.28623,-20.37252 c 0.0563,-0.0447 0.11866,-0.0899 0.17384,-0.13639 0.54162,-0.45447 1.01286,-0.97053 1.39249,-1.52564 0.0396,-0.0582 0.0778,-0.11603 0.11553,-0.1749 0.1,-0.15519 0.17781,-0.31709 0.26533,-0.47795 0.0291,-0.0536 0.0608,-0.10519 0.0885,-0.15927 0.087,-0.16974 0.17637,-0.33018 0.2497,-0.50501 0.0198,-0.047 0.0427,-0.0965 0.0614,-0.14364 0.0727,-0.18403 0.11815,-0.38217 0.17577,-0.57057 0.0135,-0.0437 0.0217,-0.0842 0.0343,-0.128 0.0539,-0.18788 0.10975,-0.36391 0.1487,-0.55495 0.009,-0.0427 0.0263,-0.0853 0.0343,-0.128 0.0118,-0.0639 0.02,-0.13362 0.0301,-0.19781 0.0282,-0.17731 0.0366,-0.35684 0.0519,-0.53514 0.0168,-0.19146 0.0343,-0.3699 0.0363,-0.5622 4.1e-4,-0.0453 -0.008,-0.0943 -0.008,-0.1395 -0.002,-0.19464 -0.005,-0.40638 -0.0221,-0.6007 -0.004,-0.0466 -0.003,-0.0929 -0.008,-0.13951 -0.0206,-0.19565 -0.0401,-0.37526 -0.0762,-0.56945 -0.008,-0.0427 -0.0268,-0.0814 -0.0355,-0.12385 -0.0381,-0.18613 -0.0935,-0.38153 -0.14593,-0.56526 -0.0144,-0.0501 -0.0356,-0.10112 -0.0511,-0.15092 -0.0562,-0.18237 -0.10228,-0.37076 -0.17299,-0.54964 -0.003,-0.01 -0.0113,-0.0176 -0.0156,-0.027 -0.0874,-0.21854 -0.18047,-0.41478 -0.28963,-0.62664 -0.0227,-0.0454 -0.0544,-0.0903 -0.0781,-0.13532 -0.0905,-0.16671 -0.19225,-0.35298 -0.29688,-0.5142 -0.0344,-0.0537 -0.0575,-0.10966 -0.0937,-0.16238 -0.10116,-0.14861 -0.20659,-0.28563 -0.31975,-0.42883 -0.0447,-0.0563 -0.0899,-0.11866 -0.13639,-0.17384 -0.11781,-0.14044 -0.24837,-0.26799 -0.37388,-0.39758 -0.0536,-0.0551 -0.10786,-0.10441 -0.1635,-0.15819 -0.12688,-0.12356 -0.25182,-0.24195 -0.38532,-0.35489 l -0.1635,-0.15819 c -0.0542,-0.0431 -0.11981,-0.0741 -0.1749,-0.11553 l -70.47161,-59.1228 c -0.0804,-0.0745 -0.1542,-0.15329 -0.23739,-0.22378 -0.1458,-0.12234 -0.3032,-0.24127 -0.45507,-0.3507 -0.0568,-0.0411 -0.11707,-0.0762 -0.1749,-0.11553 -0.21001,-0.14291 -0.43354,-0.26178 -0.65288,-0.38083 -0.17339,-0.0939 -0.34097,-0.19707 -0.52063,-0.27677 -0.49815,-0.22157 -1.01765,-0.37461 -1.54097,-0.48153 -0.17311,-0.0352 -0.34828,-0.0716 -0.5237,-0.0946 -0.0661,-0.009 -0.13153,-0.0232 -0.19781,-0.0301 -0.57758,-0.0607 -1.14694,-0.054 -1.72092,0.0193 -0.1438,0.018 -0.28662,0.0412 -0.42994,0.0678 -0.098,0.0181 -0.19318,0.0374 -0.29042,0.0595 -0.24003,0.0545 -0.46389,0.1449 -0.70058,0.22406 -0.2292,0.0762 -0.46294,0.15238 -0.68496,0.25112 -0.01,0.004 -0.0175,0.0113 -0.027,0.0156 -0.11603,0.0522 -0.22595,0.10182 -0.34036,0.16048 -0.21675,0.11117 -0.41553,0.22606 -0.62246,0.35938 z"
         id="rect8264-0" />
      <path
         id="path3840"
         d="m 204.75912,555.53804 c -0.0485,0.15649 -0.10329,0.31978 -0.14164,0.48053 -0.0529,0.22187 -0.0848,0.45964 -0.11768,0.68879 -0.0181,0.12663 -0.0284,0.25579 -0.0402,0.38445 -0.0221,0.2304 -0.0475,0.45193 -0.0482,0.68081 -8.6e-4,0.26168 0.0215,0.52442 0.0478,0.78228 0.0154,0.15105 0.0421,0.30736 0.0666,0.45657 0.0274,0.16666 0.0471,0.33393 0.0853,0.49662 0.008,0.0362 0.0177,0.0734 0.0267,0.10945 0.0335,0.134 0.0768,0.27755 0.11735,0.40852 0.0604,0.19304 0.11635,0.38153 0.19206,0.56874 0.0166,0.0408 0.0391,0.0796 0.0561,0.12013 0.034,0.0801 0.0753,0.16141 0.11208,0.24032 0.0865,0.18586 0.17127,0.35426 0.27215,0.5314 0.0859,0.15286 0.1779,0.28612 0.27483,0.43261 0.0161,0.0239 0.021,0.0564 0.0371,0.0802 0.10345,0.15217 0.22958,0.28004 0.34433,0.42459 0.0603,0.0762 0.11834,0.15858 0.18148,0.23234 0.0394,0.0459 0.0741,0.0966 0.11475,0.14154 0.14903,0.16553 0.29865,0.31575 0.46174,0.46737 0.10885,0.10112 0.21361,0.19118 0.32832,0.28577 0.16793,0.13868 0.34177,0.26524 0.52318,0.38996 0.0191,0.013 0.0288,0.038 0.048,0.0508 0.089,0.06 0.1801,0.10911 0.27228,0.16562 0.20571,0.12656 0.41429,0.25667 0.63265,0.36328 0.0183,0.009 0.0403,0.0126 0.0588,0.0214 0.10475,0.05 0.20494,0.10166 0.31233,0.14693 0.12264,0.052 0.25506,0.0928 0.38175,0.13895 0.10555,0.038 0.21525,0.0842 0.32302,0.11757 l 86.62788,31.52993 0.20557,0.0748 c 0.23606,0.0852 0.46746,0.16497 0.71549,0.22719 0.17541,0.044 0.33958,0.091 0.52059,0.12298 0.0752,0.0132 0.1517,0.005 0.22694,0.0161 0.18011,0.0263 0.36312,0.051 0.54196,0.0642 0.25404,0.0189 0.50915,0.0178 0.76091,0.0109 0.0649,-0.002 0.13294,0.009 0.19754,0.005 0.23528,-0.0124 0.46397,-0.0458 0.69418,-0.0799 0.19108,-0.0283 0.37922,-0.0506 0.56608,-0.0932 0.05,-0.0116 0.0996,-0.0332 0.14977,-0.0449 0.18608,-0.0462 0.37731,-0.10237 0.55804,-0.16272 0.20913,-0.0699 0.41756,-0.15216 0.61948,-0.24011 0.0321,-0.0186 0.0755,-0.0113 0.10965,-0.0263 0.025,-0.0145 0.0562,-0.0209 0.0813,-0.0354 0.17716,-0.0827 0.33006,-0.19057 0.50399,-0.27944 0.14261,-0.0823 0.28513,-0.15307 0.42273,-0.24406 0.0846,-0.0604 0.17592,-0.11312 0.26174,-0.17075 0.0398,-0.0345 0.0904,-0.0522 0.13011,-0.0867 0.32261,-0.24053 0.61136,-0.51544 0.892,-0.80598 0.0643,-0.0672 0.14075,-0.12284 0.20294,-0.19223 0.13226,-0.14795 0.24787,-0.3058 0.3686,-0.46442 0.16577,-0.21787 0.31209,-0.46228 0.4541,-0.69934 0.11343,-0.18939 0.21545,-0.38385 0.3125,-0.58469 0.10313,-0.21334 0.22115,-0.42859 0.30457,-0.654 0.007,-0.0192 0.0143,-0.0394 0.0215,-0.0586 0.0251,-0.0688 0.0224,-0.14611 0.0455,-0.2162 0.0335,-0.10134 0.0779,-0.19196 0.10687,-0.29368 0.0201,-0.0716 0.0272,-0.1438 0.0455,-0.2162 0.0442,-0.17425 0.0916,-0.34596 0.12295,-0.52063 l 0.0482,-0.31499 5.50911,-31.21715 c 0.0143,-0.0704 0.0331,-0.14514 0.0455,-0.21625 0.12277,-0.69629 0.15205,-1.39452 0.0861,-2.06378 -0.007,-0.07 -0.015,-0.13884 -0.0239,-0.20827 -0.0232,-0.18315 -0.0676,-0.3572 -0.10397,-0.53668 -0.0122,-0.0597 -0.0211,-0.11969 -0.0347,-0.17887 -0.0425,-0.18595 -0.0771,-0.36631 -0.13334,-0.54737 -0.0151,-0.0487 -0.0293,-0.10132 -0.0453,-0.14952 -0.0626,-0.18769 -0.15514,-0.36871 -0.23213,-0.55006 -0.0174,-0.0422 -0.0373,-0.0786 -0.0561,-0.12014 -0.0795,-0.17853 -0.14983,-0.34931 -0.24278,-0.5207 -0.0209,-0.0383 -0.0346,-0.0822 -0.0561,-0.12013 -0.032,-0.0566 -0.071,-0.11497 -0.10435,-0.17075 -0.0923,-0.15395 -0.20131,-0.29688 -0.30421,-0.4433 -0.11019,-0.15746 -0.21153,-0.30539 -0.33359,-0.45399 -0.0284,-0.0351 -0.0667,-0.0671 -0.0961,-0.10147 -0.12634,-0.14803 -0.2652,-0.30795 -0.40301,-0.44598 -0.0331,-0.0331 -0.0623,-0.069 -0.0961,-0.10147 -0.1415,-0.13668 -0.27191,-0.26171 -0.4244,-0.38725 -0.0335,-0.0276 -0.0728,-0.0451 -0.10676,-0.0721 -0.14882,-0.11816 -0.31683,-0.23221 -0.47514,-0.33922 -0.0431,-0.0291 -0.0923,-0.0545 -0.13614,-0.0828 -0.16034,-0.10352 -0.31667,-0.21825 -0.48582,-0.30985 -0.009,-0.005 -0.0202,-0.006 -0.0294,-0.0106 -0.20741,-0.11122 -0.40487,-0.20171 -0.62465,-0.29387 -0.0468,-0.0197 -0.0996,-0.0347 -0.14683,-0.0534 -0.17648,-0.0695 -0.37432,-0.14644 -0.55795,-0.20308 -0.0609,-0.0189 -0.11463,-0.0467 -0.17619,-0.0641 -0.17301,-0.0488 -0.34186,-0.086 -0.52059,-0.12297 -0.0704,-0.0143 -0.14513,-0.0331 -0.21625,-0.0455 -0.18052,-0.0318 -0.36253,-0.0456 -0.54196,-0.0642 -0.0765,-0.008 -0.14973,-0.0107 -0.22693,-0.0161 -0.17661,-0.0131 -0.34842,-0.0235 -0.52329,-0.0242 l -0.22693,-0.0161 c -0.0691,0.002 -0.13942,0.0202 -0.20827,0.0239 l -91.98763,0.008 c -0.10946,-0.005 -0.21667,-0.0183 -0.32572,-0.0188 -0.19035,-3e-5 -0.38734,0.0101 -0.57403,0.0239 -0.07,0.005 -0.13869,0.0169 -0.20827,0.0239 -0.25274,0.0255 -0.50038,0.0781 -0.74493,0.12794 -0.1932,0.0395 -0.38787,0.0682 -0.57673,0.12264 -0.52403,0.15046 -1.02036,0.36716 -1.48997,0.62164 -0.15544,0.084 -0.31286,0.16897 -0.46186,0.26435 -0.0561,0.0358 -0.11571,0.0667 -0.17075,0.10435 -0.48147,0.32475 -0.91328,0.6959 -1.30589,1.12097 -0.0986,0.10622 -0.19305,0.21584 -0.28578,0.3283 -0.0633,0.0769 -0.12393,0.15285 -0.18429,0.23223 -0.14887,0.196 -0.26222,0.40918 -0.39265,0.62196 -0.12656,0.20571 -0.25667,0.41429 -0.36328,0.63266 -0.005,0.01 -0.006,0.0199 -0.0106,0.0293 -0.0553,0.11461 -0.10764,0.22324 -0.15763,0.34169 -0.0946,0.22447 -0.173,0.44028 -0.24582,0.67541 z"
         style="fill:#000000;fill-opacity:1;stroke:none"
         inkscape:connector-curvature="0" />
      <path
         inkscape:connector-curvature="0"
         style="fill:#000000;fill-opacity:1;stroke:none"
         d="m 797.24784,559.41578 c -0.007,-0.16375 -0.0123,-0.33585 -0.0312,-0.49988 -0.0262,-0.22669 -0.0774,-0.46105 -0.12533,-0.68755 -0.0259,-0.12474 -0.0613,-0.24994 -0.0939,-0.37497 -0.0581,-0.22397 -0.11043,-0.44073 -0.18774,-0.65614 -0.0887,-0.24623 -0.20005,-0.48529 -0.31262,-0.71867 -0.0667,-0.13632 -0.14461,-0.27447 -0.21913,-0.40615 -0.0836,-0.14677 -0.15837,-0.2977 -0.24925,-0.43771 -0.0225,-0.0309 -0.041,-0.063 -0.0624,-0.094 -0.0777,-0.11393 -0.16725,-0.23449 -0.25001,-0.34363 -0.12247,-0.16093 -0.23983,-0.3188 -0.37495,-0.46884 -0.0302,-0.0322 -0.0645,-0.0621 -0.0937,-0.0936 -0.0588,-0.063 -0.1257,-0.12592 -0.18739,-0.18776 -0.14525,-0.14478 -0.28185,-0.2748 -0.4374,-0.40634 -0.133,-0.11397 -0.26489,-0.20837 -0.40647,-0.31208 -0.0253,-0.0142 -0.0388,-0.0457 -0.0622,-0.0634 -0.14895,-0.10799 -0.31352,-0.1811 -0.46823,-0.28196 -0.0843,-0.0483 -0.16564,-0.10829 -0.25024,-0.15597 -0.0534,-0.0292 -0.0999,-0.0696 -0.1577,-0.0912 -0.19777,-0.10268 -0.38875,-0.19437 -0.59363,-0.28151 -0.13678,-0.0583 -0.26626,-0.10654 -0.4063,-0.1564 -0.20537,-0.0726 -0.41169,-0.13262 -0.62501,-0.18751 -0.0243,-0.002 -0.0414,-0.0235 -0.0609,-0.0353 -0.10427,-0.0264 -0.20653,-0.0407 -0.31248,-0.0624 -0.23658,-0.0487 -0.47718,-0.0995 -0.71882,-0.12504 -0.0185,-0.0113 -0.0427,-0.003 -0.063,-5.6e-4 -0.11525,-0.0108 -0.22713,-0.0261 -0.34374,-0.0318 -0.13297,-0.008 -0.27141,2.3e-4 -0.40634,-3.9e-4 -0.11278,4.5e-4 -0.23093,-0.005 -0.34383,-3.3e-4 l -92.18736,-2e-5 -0.21885,3e-5 c -0.25102,5.9e-4 -0.49576,0.005 -0.74995,0.0317 -0.18003,0.0185 -0.35029,0.0303 -0.53143,0.0623 -0.075,0.0133 -0.1437,0.0483 -0.21869,0.0628 -0.17759,0.0413 -0.35853,0.0765 -0.53117,0.12515 -0.24519,0.0688 -0.48454,0.15747 -0.71881,0.25 -0.0604,0.0233 -0.12798,0.0369 -0.18719,0.063 -0.21705,0.0918 -0.42056,0.20125 -0.6251,0.31241 -0.17216,0.0878 -0.33899,0.17724 -0.50185,0.27819 -0.0444,0.0257 -0.0823,0.066 -0.12543,0.0932 -0.15923,0.10695 -0.3197,0.225 -0.4689,0.34347 -0.17233,0.1376 -0.34042,0.28546 -0.5,0.43752 -0.0231,0.0295 -0.0655,0.0378 -0.0924,0.0649 -0.0187,0.0224 -0.0459,0.0381 -0.0637,0.061 -0.13876,0.13785 -0.24504,0.29182 -0.37796,0.43495 -0.1054,0.12667 -0.21568,0.24126 -0.31383,0.37391 -0.059,0.0848 -0.12653,0.16658 -0.18777,0.24986 -0.0274,0.0458 -0.0664,0.0799 -0.0926,0.1262 -0.22137,0.33612 -0.39823,0.69341 -0.56261,1.06233 -0.0408,0.0836 -0.0896,0.16372 -0.12501,0.25 -0.0773,0.18307 -0.12526,0.37335 -0.18771,0.5624 -0.0813,0.2615 -0.13527,0.54125 -0.18756,0.81254 -0.0417,0.21678 -0.0709,0.43447 -0.0937,0.65618 -0.0241,0.23584 -0.0612,0.47841 -0.0625,0.71885 -0.007,0.0202 -10e-5,0.0416 -2.8e-4,0.0625 -2e-5,0.0728 0.0281,0.14508 0.0318,0.21861 0.003,0.10701 -0.007,0.20722 6e-5,0.31254 0.006,0.074 0.024,0.14443 0.0316,0.21857 0.0179,0.17867 0.0319,0.35661 0.0625,0.53132 l 0.0626,0.31245 5.4996,31.21872 c 0.0107,0.0712 0.0186,0.1478 0.0317,0.21874 0.12268,0.69624 0.33399,1.36244 0.62497,1.96867 0.0338,0.0625 0.062,0.1254 0.0938,0.18751 0.0844,0.16419 0.18613,0.31239 0.28115,0.46896 0.0322,0.0518 0.0606,0.10532 0.0935,0.15603 0.1041,0.1601 0.19762,0.31788 0.31254,0.46872 0.0311,0.0398 0.0625,0.0858 0.0943,0.12454 0.12263,0.1554 0.27199,0.2933 0.40641,0.43751 0.0304,0.0321 0.0618,0.0613 0.0936,0.0935 0.13626,0.1406 0.26031,0.27706 0.40623,0.40632 0.0329,0.0306 0.0612,0.0651 0.0936,0.0936 0.0493,0.042 0.10616,0.0841 0.15647,0.12502 0.13992,0.11274 0.29042,0.21037 0.43732,0.3125 0.15735,0.11054 0.30329,0.21438 0.46888,0.3123 0.0387,0.0227 0.0863,0.0379 0.12549,0.0611 0.16851,0.0973 0.35691,0.19451 0.53124,0.28126 0.0403,0.023 0.0811,0.0467 0.12544,0.0611 0.1799,0.0796 0.34498,0.15289 0.53115,0.21884 0.0425,0.0124 0.084,0.0173 0.12504,0.0306 0.18045,0.0604 0.37694,0.1103 0.56247,0.1563 0.0507,0.0134 0.10515,0.0201 0.15631,0.0313 0.18581,0.0426 0.37224,0.0967 0.56246,0.12502 0.0115,-0.007 0.0225,-0.001 0.0312,0.005 0.23284,0.0329 0.44934,0.0511 0.68748,0.0625 0.0506,0.002 0.10602,-0.001 0.15603,-1e-5 0.18968,0.006 0.40173,0.009 0.59367,-4e-5 0.0643,-0.001 0.12398,0.005 0.18721,4.5e-4 0.17932,-0.0135 0.3507,-0.0364 0.53147,-0.0622 0.0704,-0.0129 0.14814,-0.0163 0.2193,-0.0285 0.18061,-0.0315 0.35621,-0.0811 0.53113,-0.12512 0.0733,-0.0238 0.1443,-0.0417 0.21884,-0.0628 0.17013,-0.0486 0.33541,-0.0967 0.5,-0.15623 l 0.21893,-0.0617 c 0.0644,-0.0256 0.12195,-0.0704 0.18719,-0.0942 l 86.43741,-31.46917 c 0.10467,-0.0327 0.20962,-0.0575 0.31246,-0.0938 0.17888,-0.0652 0.36043,-0.14228 0.53111,-0.21888 0.0652,-0.0261 0.12578,-0.0611 0.18729,-0.0943 0.22896,-0.11026 0.44356,-0.24455 0.65463,-0.37796 0.17058,-0.0985 0.34109,-0.19681 0.49982,-0.31281 0.4411,-0.32049 0.83327,-0.69402 1.18757,-1.09372 0.11714,-0.13229 0.23627,-0.26574 0.34347,-0.40638 0.0406,-0.0523 0.086,-0.10279 0.125,-0.15646 0.34141,-0.46985 0.62011,-0.96643 0.84369,-1.50012 0.0587,-0.13322 0.10834,-0.26844 0.15817,-0.40552 0.0341,-0.0936 0.0673,-0.18479 0.092,-0.28184 0.0728,-0.23522 0.1066,-0.47412 0.15625,-0.71872 0.0488,-0.23649 0.0992,-0.47736 0.12506,-0.71883 0.004,-0.0138 -0.002,-0.0242 -0.001,-0.0316 0.012,-0.12666 0.0248,-0.24654 0.0311,-0.37499 0.0121,-0.24357 0.012,-0.47296 -2e-5,-0.71891 z"
         id="path3850" />
      <path
         id="path3852"
         d="m 695.52936,380.54116 c -0.11086,-0.12062 -0.22527,-0.24937 -0.34516,-0.36282 -0.16573,-0.15685 -0.35568,-0.30341 -0.53798,-0.44619 -0.10003,-0.0788 -0.20761,-0.15207 -0.31296,-0.22681 -0.18847,-0.13425 -0.36791,-0.26667 -0.56559,-0.38198 -0.22623,-0.13162 -0.46519,-0.24319 -0.70145,-0.34962 -0.13872,-0.0615 -0.2872,-0.11731 -0.42892,-0.17025 -0.15835,-0.0587 -0.31268,-0.12627 -0.4723,-0.1751 -0.0373,-0.01 -0.0719,-0.022 -0.1083,-0.0322 -0.13289,-0.0376 -0.27885,-0.0721 -0.41239,-0.10253 -0.19725,-0.0446 -0.38864,-0.0901 -0.5886,-0.11813 -0.0441,-0.006 -0.0893,-0.006 -0.13195,-0.0116 -0.0856,-0.0106 -0.17719,-0.0156 -0.2642,-0.0233 -0.20435,-0.0176 -0.39255,-0.0294 -0.59631,-0.0302 -0.17507,-0.002 -0.33685,0.0106 -0.51194,0.0222 -0.0287,0.005 -0.0589,-0.01 -0.0886,-0.009 -0.18378,0.0126 -0.35658,0.0628 -0.53994,0.085 -0.0957,0.0172 -0.19655,0.0234 -0.29193,0.0414 -0.0595,0.0124 -0.12114,0.0111 -0.17921,0.0319 -0.21761,0.0483 -0.42273,0.101 -0.63572,0.16589 -0.14243,0.043 -0.27261,0.0893 -0.41154,0.14176 -0.20408,0.0763 -0.40056,0.16314 -0.59926,0.25822 -0.021,0.0122 -0.0468,0.009 -0.0692,0.0123 -0.0979,0.045 -0.18226,0.10523 -0.28089,0.15062 -0.2141,0.11207 -0.42944,0.23062 -0.63186,0.36481 -0.0225,0.001 -0.0369,0.0213 -0.0489,0.0398 -0.0949,0.0663 -0.19063,0.12623 -0.28395,0.19627 -0.10653,0.08 -0.20793,0.17432 -0.3116,0.26074 -0.0861,0.0728 -0.18021,0.14445 -0.2638,0.22043 l -70.61964,59.25683 -0.16765,0.14067 c -0.192,0.16166 -0.37654,0.32247 -0.55409,0.50639 -0.12577,0.13034 -0.2487,0.24866 -0.36708,0.38929 -0.049,0.0583 -0.0793,0.12892 -0.12708,0.18884 -0.10924,0.14621 -0.22546,0.28906 -0.32644,0.43731 -0.14362,0.21028 -0.26997,0.43207 -0.38995,0.65353 -0.0311,0.0572 -0.0741,0.11091 -0.10267,0.16898 -0.10726,0.20984 -0.19283,0.42448 -0.27806,0.64112 -0.0754,0.17794 -0.14575,0.35366 -0.20562,0.53568 -0.0175,0.0482 -0.0208,0.10321 -0.0362,0.15204 -0.0533,0.18422 -0.10029,0.37787 -0.13847,0.56446 -0.0435,0.21623 -0.0773,0.43755 -0.10179,0.65655 0.001,0.0374 -0.0256,0.0714 -0.029,0.10914 -1.4e-4,0.029 -0.0109,0.0583 -0.01,0.0875 -0.0177,0.19475 -1.6e-4,0.38103 -0.01,0.57608 7.1e-4,0.16483 -0.0101,0.3235 -2e-5,0.48822 0.01,0.10306 0.0101,0.20893 0.0167,0.31204 0.009,0.0528 4e-4,0.10369 0.0102,0.15624 0.0464,0.39973 0.14065,0.78713 0.25189,1.17543 0.0223,0.0899 0.0366,0.18302 0.0649,0.27186 0.0585,0.1899 0.14403,0.36648 0.21768,0.55144 0.1058,0.25265 0.2443,0.50154 0.37864,0.74303 0.10775,0.19263 0.2253,0.37822 0.34996,0.56294 0.13309,0.19613 0.26064,0.40585 0.41421,0.59085 0.008,0.0197 0.0266,0.032 0.0402,0.0484 0.0469,0.056 0.11482,0.0931 0.16478,0.14701 0.0709,0.0803 0.12765,0.16348 0.20093,0.23941 0.0521,0.053 0.11131,0.0952 0.16474,0.14714 0.12858,0.1253 0.25369,0.2526 0.38943,0.36683 l 0.2488,0.19907 24.27992,20.37982 c 0.0538,0.0474 0.10931,0.10132 0.16493,0.14727 0.54148,0.45444 1.13158,0.82897 1.74416,1.10634 0.0662,0.0264 0.12806,0.0562 0.19242,0.0833 0.17018,0.0715 0.34338,0.11965 0.51681,0.17852 0.0577,0.0186 0.11396,0.0416 0.17194,0.0594 0.18267,0.0557 0.3557,0.11646 0.54069,0.15814 0.0495,0.0107 0.10317,0.0259 0.15231,0.0348 0.19381,0.0402 0.39688,0.0498 0.59256,0.0739 0.0438,0.005 0.0869,0.008 0.1319,0.0116 0.19476,0.0201 0.37753,0.045 0.57236,0.0501 0.0447,0.002 0.0885,0.0101 0.13195,0.0116 0.0648,6.8e-4 0.13519,-0.004 0.20025,-0.005 0.17979,-0.003 0.35773,-0.0255 0.53588,-0.0417 0.19182,-0.0161 0.37016,-0.0307 0.55995,-0.0621 0.0445,-0.007 0.0903,-0.0268 0.13522,-0.0342 0.19136,-0.0343 0.39845,-0.0804 0.58773,-0.12605 0.0458,-0.008 0.0922,-0.0163 0.13517,-0.0342 0.1889,-0.0548 0.36271,-0.10433 0.54756,-0.17376 0.0381,-0.022 0.0742,-0.0428 0.11624,-0.0556 0.17697,-0.0698 0.35958,-0.15795 0.53122,-0.24204 0.0453,-0.0262 0.0927,-0.0535 0.13802,-0.0797 0.16988,-0.0865 0.34753,-0.16486 0.51101,-0.26617 0.004,-0.0138 0.014,-0.0196 0.0272,-0.0161 0.19854,-0.12617 0.37691,-0.24994 0.56673,-0.39418 0.0385,-0.0338 0.0802,-0.0694 0.11958,-0.10021 0.14916,-0.1173 0.31353,-0.25146 0.45472,-0.3817 0.0481,-0.0428 0.0979,-0.0762 0.14373,-0.11993 0.1289,-0.12523 0.24512,-0.25353 0.36717,-0.38924 0.0456,-0.0552 0.10291,-0.10791 0.14976,-0.16267 0.11829,-0.13989 0.22076,-0.29108 0.32642,-0.43729 0.0409,-0.0652 0.0838,-0.12459 0.12718,-0.18891 0.0993,-0.14624 0.19484,-0.28961 0.2826,-0.44109 l 0.12793,-0.18818 c 0.0331,-0.0607 0.0479,-0.13274 0.0828,-0.1925 l 45.98694,-79.66761 c 0.0593,-0.092 0.12363,-0.17876 0.17903,-0.27275 0.0953,-0.16471 0.18466,-0.34068 0.26616,-0.50909 0.0332,-0.0619 0.0571,-0.12764 0.0829,-0.19255 0.1045,-0.23168 0.18258,-0.47248 0.25853,-0.71033 0.0674,-0.18508 0.13476,-0.37005 0.18178,-0.56094 0.13191,-0.52903 0.19226,-1.06721 0.20672,-1.60118 0.005,-0.17662 0.0102,-0.35541 0.002,-0.53204 -0.003,-0.0666 -1.7e-4,-0.13408 -0.005,-0.2002 -0.0405,-0.57938 -0.14622,-1.13899 -0.318,-1.69152 -0.0406,-0.13972 -0.0895,-0.27522 -0.13944,-0.41232 -0.034,-0.0935 -0.0672,-0.18485 -0.11072,-0.27498 -0.0954,-0.22702 -0.22313,-0.43167 -0.34225,-0.65099 -0.11464,-0.21256 -0.23088,-0.4295 -0.36658,-0.63094 -0.006,-0.0126 -0.0172,-0.0178 -0.0216,-0.0233 -0.0722,-0.10471 -0.13949,-0.20479 -0.21723,-0.30725 -0.14728,-0.19429 -0.29478,-0.36997 -0.46208,-0.55063 z"
         style="fill:#000000;fill-opacity:1;stroke:none"
         inkscape:connector-curvature="0" />
      <path
         inkscape:connector-curvature="0"
         style="fill:#000000;fill-opacity:1;stroke:none"
         d="m 502.63005,308.89866 c -0.16249,-0.0212 -0.33286,-0.0462 -0.49764,-0.0561 -0.22777,-0.0136 -0.46749,-0.004 -0.69891,0.004 -0.12732,0.004 -0.25679,0.017 -0.38553,0.0274 -0.23068,0.0183 -0.45325,0.0322 -0.6788,0.0709 -0.25789,0.0446 -0.51268,0.11272 -0.76207,0.18306 -0.14581,0.042 -0.29544,0.0947 -0.43801,0.14526 -0.15903,0.0568 -0.32072,0.10423 -0.47435,0.16948 -0.0348,0.0166 -0.0692,0.0296 -0.10364,0.0449 -0.12595,0.0567 -0.25998,0.124 -0.38185,0.18651 -0.17992,0.0923 -0.35559,0.18082 -0.52681,0.28787 -0.0374,0.0239 -0.0726,0.0523 -0.10853,0.0759 -0.0726,0.0465 -0.14576,0.10194 -0.21738,0.15195 -0.16783,0.11791 -0.31956,0.22988 -0.47621,0.36015 -0.13522,0.11121 -0.25119,0.2247 -0.37787,0.34612 -0.0187,0.0224 -0.0514,0.0303 -0.0734,0.0505 -0.1327,0.12777 -0.23279,0.27732 -0.35902,0.41215 -0.0623,0.0747 -0.13551,0.14428 -0.19699,0.21939 -0.0376,0.0477 -0.0857,0.0863 -0.1168,0.1396 -0.13568,0.17683 -0.25891,0.34909 -0.38036,0.53571 -0.0815,0.12443 -0.15146,0.24362 -0.22414,0.37313 -0.10731,0.18959 -0.20198,0.38245 -0.29307,0.583 -0.008,0.0228 -0.0304,0.0366 -0.0452,0.0539 -0.0461,0.0974 -0.072,0.19777 -0.11835,0.29594 -0.092,0.22347 -0.18074,0.4527 -0.24954,0.6856 -0.0165,0.0153 -0.0145,0.04 -0.0119,0.0618 -0.0301,0.11184 -0.0649,0.21924 -0.0914,0.33288 -0.0301,0.12976 -0.0472,0.26719 -0.0711,0.40003 -0.0192,0.11118 -0.0452,0.22649 -0.0604,0.33842 l -16.00822,90.7868 -0.038,0.21552 c -0.0432,0.24725 -0.0812,0.48907 -0.099,0.74408 -0.0126,0.18069 -0.0307,0.35035 -0.031,0.53417 -4e-5,0.0761 0.0221,0.14972 0.024,0.22637 0.0103,0.18222 0.0131,0.36635 0.031,0.54482 0.0251,0.25341 0.0709,0.50452 0.12135,0.7513 0.0129,0.0638 0.0145,0.13258 0.0299,0.19545 0.0527,0.22969 0.12513,0.44912 0.1991,0.66986 0.0566,0.1848 0.1157,0.3646 0.18681,0.54253 0.0174,0.0482 0.05,0.0926 0.0702,0.13961 0.0776,0.17538 0.1661,0.3539 0.25679,0.52138 0.10593,0.19347 0.22207,0.38484 0.34408,0.56836 0.0253,0.0278 0.0262,0.0711 0.0476,0.10244 0.0186,0.0222 0.0291,0.0517 0.0491,0.0731 0.11164,0.16056 0.24479,0.292 0.36265,0.44772 0.10647,0.12582 0.20018,0.25433 0.31384,0.374 0.0735,0.0728 0.14201,0.15357 0.21342,0.22826 0.0405,0.0349 0.067,0.0792 0.10827,0.11312 0.29252,0.27635 0.6137,0.51257 0.94851,0.73853 0.0749,0.0545 0.14566,0.11668 0.22448,0.16651 0.1669,0.10787 0.34591,0.18816 0.52121,0.28251 0.24345,0.12553 0.50953,0.22717 0.76767,0.32581 0.20636,0.0783 0.4157,0.14492 0.62994,0.20628 0.22802,0.0647 0.46053,0.14336 0.69709,0.18636 0.0187,0.01 0.0409,0.007 0.0619,0.0113 0.072,0.0128 0.14776,-0.003 0.22071,0.007 0.10589,0.016 0.20287,0.0432 0.30782,0.0542 0.074,0.007 0.14645,0.001 0.22078,0.007 0.17903,0.0133 0.3567,0.0304 0.53411,0.0307 l 0.31856,-0.007 31.69939,0.005 c 0.0718,0.002 0.14886,0.007 0.22099,0.007 0.70692,7e-5 1.3997,-0.0923 2.04725,-0.27362 0.0677,-0.0223 0.13422,-0.0393 0.20099,-0.0598 0.1763,-0.0547 0.33995,-0.12907 0.51067,-0.19542 0.0561,-0.0231 0.11405,-0.0414 0.16987,-0.065 0.17578,-0.0747 0.34733,-0.13944 0.51583,-0.22645 0.0448,-0.0236 0.0959,-0.0461 0.13913,-0.0711 0.17434,-0.0937 0.33608,-0.2169 0.50144,-0.32426 0.0365,-0.0246 0.0713,-0.0504 0.10849,-0.0759 0.16213,-0.10977 0.31809,-0.20825 0.47068,-0.32949 0.0354,-0.0273 0.0745,-0.0488 0.10854,-0.0759 0.0501,-0.0412 0.10087,-0.0901 0.15032,-0.1324 0.13557,-0.11812 0.25766,-0.24946 0.38367,-0.37643 0.13664,-0.13559 0.26384,-0.26145 0.38904,-0.40749 0.0294,-0.0341 0.052,-0.0785 0.0816,-0.11316 0.12455,-0.14927 0.25355,-0.3177 0.3692,-0.47435 0.03,-0.0355 0.0602,-0.0718 0.0816,-0.11304 0.10947,-0.16343 0.21079,-0.31308 0.30777,-0.48507 0.015,-0.0414 0.0294,-0.0806 0.0533,-0.11728 0.0907,-0.16725 0.17393,-0.35213 0.25137,-0.52687 0.0179,-0.0491 0.0366,-0.10058 0.0545,-0.14976 0.0745,-0.17549 0.16026,-0.34967 0.22037,-0.53236 -0.006,-0.0128 -0.002,-0.0239 0.0105,-0.0298 0.071,-0.22427 0.12807,-0.43374 0.18076,-0.66624 0.008,-0.0506 0.0169,-0.10478 0.0272,-0.15363 0.0389,-0.18574 0.0785,-0.39416 0.10299,-0.58469 0.009,-0.0637 0.026,-0.12127 0.033,-0.18426 0.0182,-0.17879 0.0248,-0.35178 0.0311,-0.53419 -5.8e-4,-0.0716 0.009,-0.1488 0.0101,-0.22087 7e-4,-0.18319 -0.018,-0.36488 -0.031,-0.5448 -0.0105,-0.0762 -0.0159,-0.14931 -0.024,-0.22649 -0.0179,-0.17586 -0.0369,-0.3471 -0.067,-0.51954 l -0.023,-0.22638 c -0.0136,-0.0678 -0.0486,-0.13247 -0.0603,-0.20069 l -15.98131,-90.58877 c -0.0137,-0.10864 -0.0202,-0.21639 -0.0382,-0.32401 -0.0329,-0.1874 -0.0775,-0.37967 -0.12333,-0.56106 -0.0143,-0.0688 -0.0383,-0.1345 -0.0603,-0.20079 -0.0688,-0.24466 -0.16381,-0.47933 -0.25854,-0.71033 -0.0674,-0.18509 -0.13468,-0.37008 -0.22133,-0.54655 -0.23904,-0.49003 -0.53872,-0.9411 -0.87089,-1.35943 -0.1099,-0.13835 -0.22067,-0.27881 -0.34052,-0.4088 -0.0449,-0.0492 -0.0864,-0.10258 -0.13237,-0.15027 -0.40343,-0.4178 -0.84413,-0.77852 -1.33088,-1.09137 -0.12096,-0.0809 -0.24548,-0.1533 -0.37187,-0.22623 -0.0861,-0.0498 -0.17031,-0.0984 -0.26156,-0.13947 -0.219,-0.11259 -0.44839,-0.18725 -0.68063,-0.27869 -0.22445,-0.0891 -0.45294,-0.18061 -0.68637,-0.2477 -0.0126,-0.006 -0.0246,-0.003 -0.0315,-0.004 -0.12264,-0.0338 -0.2385,-0.0672 -0.36391,-0.0957 -0.2377,-0.0542 -0.46363,-0.0939 -0.70791,-0.12478 z"
         id="path3854" />
      <path
         transform="translate(0,52.36218)"
         id="path8909"
         d="M 496.9375 397.375 C 422.54512 399.4072 357.3327 453.41735 343.90625 529.5625 C 340.04199 551.4778 340.88397 573.14392 345.625 593.53125 L 381.9375 593.53125 C 376.41571 575.33978 374.84789 555.65947 378.375 535.65625 C 390.36289 467.66955 455.20072 422.2621 523.1875 434.25 C 591.17429 446.23791 636.58164 511.07581 624.59375 579.0625 C 623.71835 584.02713 622.45088 588.8211 621.03125 593.53125 L 657.125 593.53125 C 657.77429 590.73137 658.55748 587.98911 659.0625 585.125 C 674.40701 498.10197 616.30434 415.12577 529.28125 399.78125 C 518.40336 397.86318 507.56498 397.08469 496.9375 397.375 z "
         style="fill:#000000;fill-opacity:1;stroke:none" />
    </g>
  </g>
</svg>
