<?xml version="1.0" encoding="UTF-8" standalone="no"?>
<!-- Created with Inkscape (http://www.inkscape.org/) -->

<svg
   xmlns:dc="http://purl.org/dc/elements/1.1/"
   xmlns:cc="http://creativecommons.org/ns#"
   xmlns:rdf="http://www.w3.org/1999/02/22-rdf-syntax-ns#"
   xmlns:svg="http://www.w3.org/2000/svg"
   xmlns="http://www.w3.org/2000/svg"
   xmlns:sodipodi="http://sodipodi.sourceforge.net/DTD/sodipodi-0.dtd"
   xmlns:inkscape="http://www.inkscape.org/namespaces/inkscape"
   width="1000"
   height="1000"
   id="svg16419"
   version="1.1"
   inkscape:version="0.48.2 r9819"
   sodipodi:docname="Tornado-thin.svg">
  <defs
     id="defs16421" />
  <sodipodi:namedview
     id="base"
     pagecolor="#ffffff"
     bordercolor="#666666"
     borderopacity="1.0"
     inkscape:pageopacity="0.0"
     inkscape:pageshadow="2"
     inkscape:zoom="0.25000001"
     inkscape:cx="-774.92927"
     inkscape:cy="807.3119"
     inkscape:document-units="px"
     inkscape:current-layer="layer1"
     showgrid="false"
     inkscape:snap-grids="true"
     inkscape:window-width="1218"
     inkscape:window-height="756"
     inkscape:window-x="62"
     inkscape:window-y="0"
     inkscape:window-maximized="0"
     inkscape:snap-bbox="false"
     inkscape:object-nodes="false"
     showguides="true"
     inkscape:guide-bbox="true">
    <inkscape:grid
       type="xygrid"
       id="grid16427"
       empspacing="10"
       visible="true"
       enabled="true"
       snapvisiblegridlinesonly="true" />
  </sodipodi:namedview>
  <metadata
     id="metadata16424">
    <rdf:RDF>
      <cc:Work
         rdf:about="">
        <dc:format>image/svg+xml</dc:format>
        <dc:type
           rdf:resource="http://purl.org/dc/dcmitype/StillImage" />
        <dc:title />
      </cc:Work>
    </rdf:RDF>
  </metadata>
  <g
     inkscape:label="Layer 1"
     inkscape:groupmode="layer"
     id="layer1"
     transform="translate(0,-52.36218)">
    <path
       style="fill:#000000;fill-opacity:1;stroke:none"
       d="m 285.46882,252.36218 -84.06247,34.68749 c 1.7159,12.46669 4.1524,24.01439 7.5,34.99999 l 168.43744,-69.68748 -91.87497,0 z m 261.24991,0 -309.99989,128.43716 c 6.74539,10.29499 13.96549,19.75799 21.56249,28.74999 l 379.99987,-157.18715 -91.56247,0 z m 251.87492,4.0625 -491.56234,203.43763 c 9.5119,8.921 18.61189,17.78999 27.49999,26.56199 L 773.28115,304.86216 c 14.0666,-10.33449 24.2124,-24.55629 25.3125,-48.43748 z M 688.59368,409.86233 381.40629,537.36228 c 7.74339,9.61 14.87919,19.132 21.24999,29.062 l 294.0624,-121.56196 c -4.0225,-13.133 -6.7883,-24.762 -8.125,-34.99999 z m 25.62499,97.81196 -284.0624,117.81297 c 3.2133,11.27999 5.1845,23.15199 6.25,35.31198 l 283.1249,-117.49996 c -0.888,-11.02699 -2.6771,-22.94899 -5.3125,-35.62499 z m -4.06249,109.99997 -280.31241,115.93796 c -2.7207,10.947 -5.9297,22.29099 -10.3125,34.06199 L 688.59368,656.42425 c 0.05,-0.1 -0.05,-0.25 0,-0.31 8.8133,-12.367 16.3182,-25.001 21.5625,-38.43699 z m -130.31246,154.06295 -194.68744,80.62497 71.24998,0 80.31247,-33.125 c 9.2303,-11.303 23.1624,-26.87898 43.12499,-47.49997 z"
       id="path19701"
       inkscape:connector-curvature="0" />
  </g>
</svg>
