<?xml version="1.0" encoding="UTF-8" standalone="no"?>
<!-- Created with Inkscape (http://www.inkscape.org/) -->

<svg
   xmlns:dc="http://purl.org/dc/elements/1.1/"
   xmlns:cc="http://creativecommons.org/ns#"
   xmlns:rdf="http://www.w3.org/1999/02/22-rdf-syntax-ns#"
   xmlns:svg="http://www.w3.org/2000/svg"
   xmlns="http://www.w3.org/2000/svg"
   xmlns:sodipodi="http://sodipodi.sourceforge.net/DTD/sodipodi-0.dtd"
   xmlns:inkscape="http://www.inkscape.org/namespaces/inkscape"
   width="1000"
   height="1000"
   id="svg16419"
   version="1.1"
   inkscape:version="0.48.2 r9819"
   sodipodi:docname="Tornado.svg">
  <defs
     id="defs16421" />
  <sodipodi:namedview
     id="base"
     pagecolor="#ffffff"
     bordercolor="#666666"
     borderopacity="1.0"
     inkscape:pageopacity="0.0"
     inkscape:pageshadow="2"
     inkscape:zoom="0.3535534"
     inkscape:cx="263.9935"
     inkscape:cy="396.1362"
     inkscape:document-units="px"
     inkscape:current-layer="layer1"
     showgrid="false"
     inkscape:snap-grids="true"
     inkscape:window-width="1218"
     inkscape:window-height="756"
     inkscape:window-x="62"
     inkscape:window-y="0"
     inkscape:window-maximized="0"
     inkscape:snap-bbox="false"
     inkscape:object-nodes="false"
     showguides="true"
     inkscape:guide-bbox="true">
    <inkscape:grid
       type="xygrid"
       id="grid16427"
       empspacing="10"
       visible="true"
       enabled="true"
       snapvisiblegridlinesonly="true" />
  </sodipodi:namedview>
  <metadata
     id="metadata16424">
    <rdf:RDF>
      <cc:Work
         rdf:about="">
        <dc:format>image/svg+xml</dc:format>
        <dc:type
           rdf:resource="http://purl.org/dc/dcmitype/StillImage" />
        <dc:title />
      </cc:Work>
    </rdf:RDF>
  </metadata>
  <g
     inkscape:label="Layer 1"
     inkscape:groupmode="layer"
     id="layer1"
     transform="translate(0,-52.36218)">
    <path
       style="fill:#000000;fill-opacity:1;stroke:none"
       d="m 278.59481,252.36418 -77.49972,32.18788 c 1.9134,15.05595 4.82419,28.9349 9.06247,41.87485 l 179.06184,-74.06273 -110.62459,0 z m 241.24911,0 -288.74894,119.68776 c 9.07697,15.19495 19.43993,28.7189 30.31239,41.24985 l 388.74857,-160.93761 -130.31201,0 z m 261.24904,0 -482.49823,199.68747 c 0.103,0.1 0.21,0.21 0.312,0.31 13.70725,12.76195 26.8969,25.0599 39.37486,37.49986 l 397.49854,-164.6866 c 30.08439,-15.15394 63.12477,-26.5299 63.12477,-72.81273 l -17.81244,0 z M 687.65581,399.23884 374.53195,528.92637 c 11.53026,13.59795 21.83942,27.3449 30.62489,41.56184 L 697.96827,449.23866 c -6.36308,-19.74593 -9.59777,-36.34187 -10.31246,-49.99982 z m 24.06241,98.12464 -284.99896,118.12457 c 5.46088,15.82694 9.21167,32.40288 10.31246,49.99982 L 719.84319,548.30129 c -0.886,-15.27894 -3.73089,-32.32688 -8.12497,-50.93781 z m 2.49999,107.49961 -281.24897,116.56257 c -3.89769,19.53993 -10.81396,40.17585 -20.31243,62.49977 l 259.99905,-107.8126 c 19.62773,-22.98092 34.06449,-45.14184 41.56235,-71.24974 z m -129.06202,161.56241 -207.49925,85.93668 111.2496,0 33.43738,-13.7499 c 7.08548,-11.414 24.87981,-33.3769 62.81227,-72.18678 z"
       id="rect19670"
       inkscape:connector-curvature="0" />
  </g>
</svg>
